<svg
   width="141.11111mm"
   height="141.11111mm"
   viewBox="0 0 141.11111 141.11111"
   version="1.1"
   id="svg132"
   xmlns="http://www.w3.org/2000/svg"
   xmlnsSvg="http://www.w3.org/2000/svg">
  <defs
     id="defs129" />
  <g
     id="layer1"
     transform="translate(-1.3980483,-3.6944429)">
    <circle
       fill="#0b0e11"
       r="70.555557"
       cy="74.25"
       cx="71.953606"
       id="circle2"
       style="stroke-width:1.46991" />
    <path
       fill="#f0b90b"
       d="M 52.162042,66.117882 71.953902,46.326463 91.755762,66.128322 103.27189,54.611592 71.953902,23.293161 40.645612,54.601452 Z m -19.64855,-3.38519 11.51629,11.51628 -11.51688,11.51687 -11.51613,-11.51628 z m 19.64855,19.64913 19.79186,19.790828 19.80142,-19.800828 11.522748,11.51056 -0.006,0.006 -31.317988,31.318428 -31.30873,-31.308148 -0.016,-0.0159 z m 70.749428,-8.13079 -11.51628,11.51613 -11.516138,-11.51613 11.516138,-11.51629 z"
       id="path4"
       style="stroke-width:1.46991" />
    <path
       fill="#f0b90b"
       d="m 83.634372,74.244122 h 0.005 l -11.6862,-11.68635 -11.69194,11.69193 0.0159,0.0163 11.67606,11.67606 11.69164,-11.69238 z"
       id="path6"
       style="stroke-width:1.46991" />
  </g>
</svg>
