<svg width="50" height="65" viewBox="0 0 50 65" fill="none" xmlns="http://www.w3.org/2000/svg">
<g clip-path="url(#clip0_280_967)">
<path d="M0 6.62708H19.7593C31.6577 6.62708 41.3033 16.2699 41.3033 28.1649C41.3033 40.0601 31.6577 49.703 19.7593 49.703H0V6.62708Z" fill="#2A3629"/>
<path d="M8.66846 15.2932H28.4278C40.3262 15.2932 49.9718 24.9361 49.9718 36.8311C49.9718 48.7261 40.3262 58.369 28.4278 58.369H8.66846V15.2932Z" fill="#00D615"/>
<path fill-rule="evenodd" clip-rule="evenodd" d="M38.7007 17.8948C40.3604 20.9475 41.3031 24.4462 41.3031 28.1649C41.3031 40.0601 31.6575 49.7028 19.7591 49.7028H8.66846V15.2932H28.4278C32.1476 15.2932 35.6472 16.2357 38.7007 17.8948Z" fill="#008838"/>
<path d="M17.3374 53.0164V64.9961H26.006V53.0164H17.3374Z" fill="#00D615"/>
<path d="M8.66846 -5.05447e-05V11.9796H17.337V-5.05447e-05H8.66846Z" fill="#2A3629"/>
</g>
<defs>
<clipPath id="clip0_280_967">
<rect width="50" height="65" fill="white"/>
</clipPath>
</defs>
</svg>
