<svg width="40" height="40" viewBox="0 0 40 40" fill="none" xmlns="http://www.w3.org/2000/svg">
<circle cx="20" cy="20" r="20" fill="#2E3148"/>
<path d="M19.619 27.57C23.9563 27.57 27.4723 24.0539 27.4723 19.7166C27.4723 15.3794 23.9563 11.8633 19.619 11.8633C15.2817 11.8633 11.7656 15.3794 11.7656 19.7166C11.7656 24.0539 15.2817 27.57 19.619 27.57Z" fill="#1B1E36"/>
<path d="M19.6495 7.90918C18.1886 7.90918 17.0039 13.2082 17.0039 19.7449C17.0039 26.2817 18.1886 31.5807 19.6495 31.5807C21.1105 31.5807 22.2951 26.2817 22.2951 19.7449C22.2951 13.2082 21.1105 7.90918 19.6495 7.90918ZM19.8322 30.9127C19.6651 31.1356 19.498 30.9684 19.498 30.9684C18.8252 30.1888 18.4888 28.7405 18.4888 28.7405C17.312 24.9531 17.5921 16.8213 17.5921 16.8213C18.1451 10.3654 19.1512 8.84035 19.4936 8.50177C19.5286 8.46722 19.5746 8.4461 19.6236 8.44214C19.6726 8.43818 19.7214 8.45163 19.7615 8.48012C20.2582 8.83212 20.6749 10.3042 20.6749 10.3042C21.9052 14.8714 21.7938 19.1601 21.7938 19.1601C21.9052 22.8919 21.1773 27.0691 21.1773 27.0691C20.617 30.2438 19.8322 30.9127 19.8322 30.9127Z" fill="#C3C6DD"/>
<path d="M29.9149 13.8549C29.1875 12.5872 24.0021 14.1968 18.3294 17.4497C12.6567 20.7025 8.65526 24.3673 9.38212 25.6345C10.109 26.9016 15.295 25.2925 20.9677 22.0397C26.6403 18.7869 30.6418 15.122 29.9149 13.8549V13.8549ZM10.0532 25.4606C9.77473 25.4255 9.83764 25.1966 9.83764 25.1966C10.1792 24.2252 11.2663 23.2126 11.2663 23.2126C13.9671 20.3069 21.1605 16.5033 21.1605 16.5033C27.0349 13.7702 28.8596 13.8855 29.3224 14.013C29.37 14.0262 29.4112 14.0559 29.439 14.0967C29.4667 14.1375 29.4791 14.1867 29.474 14.2358C29.4184 14.8422 28.3461 15.9357 28.3461 15.9357C24.9991 19.277 21.2234 21.315 21.2234 21.315C18.0419 23.2694 14.0563 24.7158 14.0563 24.7158C11.0236 25.8087 10.0533 25.4606 10.0533 25.4606H10.0532Z" fill="#C3C6DD"/>
<path d="M29.8879 25.6768C30.621 24.4124 26.6296 20.7309 20.9769 17.4536C15.3241 14.1763 10.1393 12.5468 9.40697 13.8133C8.67459 15.0798 12.6653 18.7592 18.3213 22.0364C23.9773 25.3137 29.1556 26.9434 29.8879 25.6768ZM9.89269 14.3018C9.78442 14.0451 10.013 13.9833 10.013 13.9833C11.0249 13.7921 12.4464 14.2276 12.4464 14.2276C16.3134 15.1082 23.209 19.4276 23.209 19.4276C28.518 23.1426 29.3323 24.779 29.4543 25.2435C29.4667 25.2911 29.4619 25.3416 29.4407 25.386C29.4195 25.4305 29.3833 25.466 29.3384 25.4863C28.7848 25.7398 27.3021 25.3621 27.3021 25.3621C22.7321 24.1368 19.0773 21.8917 19.0773 21.8917C15.7934 20.1205 12.5462 17.3952 12.5462 17.3952C10.0788 15.3177 9.89345 14.3046 9.89345 14.3046L9.89269 14.3018Z" fill="#C3C6DD"/>
<path d="M19.619 21.1101C20.388 21.1101 21.0114 20.4866 21.0114 19.7176C21.0114 18.9486 20.388 18.3252 19.619 18.3252C18.85 18.3252 18.2266 18.9486 18.2266 19.7176C18.2266 20.4866 18.85 21.1101 19.619 21.1101Z" fill="white"/>
<path d="M25.3311 15.2061C25.7771 15.2061 26.1387 14.832 26.1387 14.3706C26.1387 13.9092 25.7771 13.5352 25.3311 13.5352C24.885 13.5352 24.5234 13.9092 24.5234 14.3706C24.5234 14.832 24.885 15.2061 25.3311 15.2061Z" fill="white"/>
<path d="M12.0733 18.0459C12.5193 18.0459 12.8809 17.6719 12.8809 17.2105C12.8809 16.749 12.5193 16.375 12.0733 16.375C11.6272 16.375 11.2656 16.749 11.2656 17.2105C11.2656 17.6719 11.6272 18.0459 12.0733 18.0459Z" fill="white"/>
<path d="M17.9795 28.2949C18.4256 28.2949 18.7872 27.9208 18.7872 27.4594C18.7872 26.9981 18.4256 26.624 17.9795 26.624C17.5335 26.624 17.1719 26.9981 17.1719 27.4594C17.1719 27.9208 17.5335 28.2949 17.9795 28.2949Z" fill="white"/>
</svg>
