<?xml version="1.0" encoding="utf-8"?>
<!-- Generator: Adobe Illustrator 26.0.2, SVG Export Plug-In . SVG Version: 6.00 Build 0)  -->
<svg version="1.1" id="Capa_1" xmlns="http://www.w3.org/2000/svg" xmlns:xlink="http://www.w3.org/1999/xlink" x="0px" y="0px"
	 viewBox="0 0 425.2 425.2" style="enable-background:new 0 0 425.2 425.2;" xml:space="preserve">
<style type="text/css">
	.st0{fill:#00E13A;}
</style>
<rect y="0" width="425.2" height="425.2"/>
<g>
	<path class="st0" d="M328.67,203.62c0-59.3-45.44-108.18-103.33-113.67v54.76c22.22,1.38,40.5,6.76,54.82,16.19l-15.62,18.12
		c-15.62-8.43-32.18-12.65-49.67-12.65c-23.85,0-35.77,3.96-35.77,11.87c0,3.85,3.28,6.56,9.84,8.12c4.16,1.04,10.47,1.72,18.9,2.03
		c12.6,0.63,20.56,1.09,23.9,1.41c18.33,1.67,31.5,5,39.52,10c8.64,5.21,12.97,13.23,12.97,24.06c0,12.39-5.68,22-17.03,28.82
		c-10.04,6.03-24,9.39-41.86,10.09v54.53C283.23,311.8,328.67,262.92,328.67,203.62z"/>
	<path class="st0" d="M255.01,224.94c0-4.48-3.44-7.44-10.31-8.9c-3.85-0.83-13.33-1.56-28.43-2.19c-22.7-0.94-39.16-3.9-49.36-8.9
		c-10.93-5.21-16.4-13.33-16.4-24.37c0-11.25,5.47-20.1,16.4-26.55c9.05-5.35,21.29-8.47,36.7-9.39V89.95
		c-57.89,5.49-103.33,54.37-103.33,113.67s45.44,108.18,103.33,113.67v-55.05c-22.32-2.04-41.95-8.89-58.88-20.58l15-18.43
		c19.06,11.66,38.94,17.49,59.67,17.49c11.14,0,19.94-1.46,26.4-4.37C251.94,233.43,255.01,229.62,255.01,224.94z"/>
	<path class="st0" d="M203.61,339.1c-69.88-5.55-125.05-64.19-125.05-135.48S133.73,73.69,203.61,68.14v-40.6
		c-92.37,5.61-165.55,82.29-165.55,176.07c0,93.78,73.18,170.46,165.55,176.07V339.1z"/>
	<path class="st0" d="M225.34,27.54v40.6c69.88,5.55,125.05,64.19,125.05,135.48S295.22,333.54,225.34,339.1v40.6
		c92.37-5.61,165.55-82.29,165.55-176.07C390.89,109.84,317.71,33.16,225.34,27.54z"/>
</g>
</svg>
