<svg xmlns="http://www.w3.org/2000/svg" viewBox="0 0 46.59 45.74"><defs><style>.cls-1{fill:#ff005c;}</style></defs><g id="Layer_2" data-name="Layer 2"><g id="Layer_1-2" data-name="Layer 1"><g id="Group_3" data-name="Group 3"><path id="Path_12" data-name="Path 12" class="cls-1" d="M23.25,0A21.51,21.51,0,0,0,18,.61V29.08a1.07,1.07,0,0,1-1.05,1h-2.1a.8.8,0,0,1-.79-.78h0V1.82A22.84,22.84,0,0,0,0,22.83,23.08,23.08,0,0,0,23.26,45.74h.08A23,23,0,0,0,46.59,23v-.08A23.2,23.2,0,0,0,23.25,0Zm-.43,32.37a1,1,0,0,1-1,1h-2.1a1,1,0,0,1-1-1V17.88a1,1,0,0,1,1-1h2.1a1,1,0,0,1,1,1Zm4.72,1.39a1,1,0,0,1-1,1h-2.1a1,1,0,0,1-1-1V16.49a1,1,0,0,1,1-.95h2.1a1,1,0,0,1,1,.95Zm4.72-2.6a1,1,0,0,1-1,1H29.2a1,1,0,0,1-1-1V19.27a1,1,0,0,1,1-1h2.1a1,1,0,0,1,1,1Z"/></g></g></g></svg>