<?xml version="1.0" encoding="UTF-8"?>
<svg xmlns="http://www.w3.org/2000/svg" xmlns:xlink="http://www.w3.org/1999/xlink" width="300px" height="300px" viewBox="0 0 300 300" version="1.1">
    <g id="surface1">
        <path style=" stroke:none;fill-rule:nonzero;fill:rgb(38.039216%,36.078431%,80.392157%);fill-opacity:1;" d="M 110.789062 170 L 110.789062 190 C 110.789062 195.601562 106.390625 200 100.789062 200 L 80.789062 200 C 75.191406 200 70.789062 195.601562 70.789062 190 L 70.789062 90 C 70.789062 84.398438 75.191406 80 80.789062 80 L 86.589844 80 C 95.589844 80 99.988281 69.199219 93.589844 63 L 57.988281 27 C 56.125 25.082031 53.566406 24 50.890625 24 C 48.214844 24 45.652344 25.082031 43.789062 27 L 7.988281 63 C 1.589844 69.199219 6.191406 80 14.988281 80 L 20.789062 80 C 26.390625 80 30.789062 84.398438 30.789062 90 L 30.789062 230 C 30.789062 235.601562 35.191406 240 40.789062 240 L 140.789062 240 C 146.390625 240 150.789062 235.601562 150.789062 230 L 150.789062 170 C 150.789062 164.398438 146.390625 160 140.789062 160 L 120.789062 160 C 115.390625 160 110.789062 164.398438 110.789062 170 Z M 110.789062 170 "/>
        <path style=" stroke:none;fill-rule:nonzero;fill:rgb(38.039216%,36.078431%,80.392157%);fill-opacity:1;" d="M 240.789062 200 C 235.191406 200 230.789062 195.601562 230.789062 190 L 230.789062 50 C 230.789062 44.398438 226.390625 40 220.789062 40 L 120.789062 40 C 115.191406 40 110.789062 44.398438 110.789062 50 L 110.789062 110 C 110.789062 115.601562 115.191406 120 120.789062 120 L 140.789062 120 C 146.390625 120 150.789062 115.601562 150.789062 110 L 150.789062 90 C 150.789062 84.398438 155.191406 80 160.789062 80 L 180.789062 80 C 186.390625 80 190.789062 84.398438 190.789062 90 L 190.789062 190 C 190.789062 195.601562 186.390625 200 180.789062 200 L 174.988281 200 C 165.988281 200 161.589844 210.800781 167.988281 217 L 203.789062 252.800781 C 207.789062 256.800781 213.988281 256.800781 217.988281 252.800781 L 253.789062 217 C 259.988281 210.800781 255.589844 200 246.789062 200 Z M 240.789062 200 "/>
    </g>
</svg>