<svg xmlns="http://www.w3.org/2000/svg" viewBox="0 0 191.81 179.83"><defs><style>.cls-1{fill:#0e3ca5;}.cls-2{fill:#5493f7;}</style></defs><g id="Layer_2" data-name="Layer 2"><g id="Layer_1-2" data-name="Layer 1"><path class="cls-1" d="M84.75,146.18c5.09,19.41,23.36,34.23,32.58,33.62.32,0,35-6.68,54-39.37,14.77-25.43,9.74-50-10.34-50.52-7.23.54-85.9,19.28-76.2,56.27M102.24,0A90,90,0,0,0,65.51,7.82a54.39,54.39,0,0,0-5.74,2.81C58.5,11.31,57.23,12,56,12.72l.29.09a41.44,41.44,0,0,0-9.59,9.1c-26,34.4,61.1,59.4,107.65,59.49,21.43,15.4,27.44-43.4,6.51-59.72A89.83,89.83,0,0,0,102.2,0Z"/><path class="cls-2" d="M69.47,20.17C57.7,37.46,18.47,49.65,12,47.75v-.07l.8-1.56a93.25,93.25,0,0,1,28-31.9q3.63-2.6,7.5-4.85A28.26,28.26,0,0,1,61.33,6c17.46.32,8.34,14,8.25,14.17"/><path class="cls-2" d="M59.63,149.77c.88,5.68,0,28.14-1.2,30-1,.06-3.13.19-9.25-3.2a97.55,97.55,0,0,1-30.4-26.66A95.13,95.13,0,0,1,6,59.94H6c7,9.21,15.14,17.54,22,26.84,6.67,8.85,15.67,23.27,17.52,26.36,11.42,19.14,13.24,31,14.15,36.63"/><path class="cls-2" d="M191.81,94.22A94.76,94.76,0,0,1,185.24,129c-11.12,12-86.08-17.52-86.82-17.84C88.16,106.65,57,92.94,54.14,71.39c-4-31,58.63-52.59,86.18-53.41,3.3,0,13.35.16,19.21,4.94a94.56,94.56,0,0,1,32.28,71.29m-65.55,76.7c4.48-15.87,43.67-32.13,52.32-33,1.07-.11,1.52.64,1.06,1.51a97,97,0,0,1-38.55,38.68C132.91,182,123.92,179.13,126.26,170.91Z"/></g></g></svg>