<svg width="400" height="400" viewBox="0 0 400 400" fill="none" xmlns="http://www.w3.org/2000/svg">
<path d="M200 400C310.457 400 400 310.457 400 200C400 89.543 310.457 0 200 0C89.543 0 0 89.543 0 200C0 310.457 89.543 400 200 400Z" fill="url(#paint0_linear_245_1023)"/>
<path d="M287.526 279.691L219.897 116.186C216.083 107.732 210.412 103.608 202.938 103.608H196.959C189.485 103.608 183.815 107.732 180 116.186L150.567 187.423H128.299C121.65 187.474 116.237 192.835 116.186 199.536V199.691C116.237 206.34 121.65 211.753 128.299 211.804H140.258L112.165 279.691C111.65 281.186 111.34 282.732 111.34 284.33C111.34 288.144 112.526 291.134 114.639 293.454C116.753 295.773 119.794 296.907 123.608 296.907C126.134 296.856 128.557 296.082 130.567 294.588C132.732 293.093 134.227 290.928 135.413 288.454L166.34 211.753H187.784C194.433 211.701 199.845 206.34 199.897 199.639V199.33C199.845 192.68 194.433 187.268 187.784 187.217H176.34L199.949 128.402L264.278 288.402C265.464 290.876 266.959 293.041 269.124 294.536C271.134 296.031 273.608 296.804 276.083 296.856C279.897 296.856 282.887 295.722 285.052 293.402C287.217 291.083 288.351 288.093 288.351 284.278C288.402 282.732 288.144 281.134 287.526 279.691Z" fill="white"/>
<defs>
<linearGradient id="paint0_linear_245_1023" x1="349.117" y1="74.5291" x2="51.5171" y2="324.929" gradientUnits="userSpaceOnUse">
<stop stop-color="#B6509E"/>
<stop offset="1" stop-color="#2EBAC6"/>
</linearGradient>
</defs>
</svg>
