<svg id="svg" version="1.1" xmlns="http://www.w3.org/2000/svg" xmlns:xlink="http://www.w3.org/1999/xlink" width="400" height="400" viewBox="0, 0, 400,400"><g id="svgg"><path id="path0" d="M67.222 152.386 C 65.099 153.699,68.011 155.164,75.753 156.681 C 77.998 157.120,79.895 159.594,80.187 162.464 C 80.772 168.196,80.239 235.736,79.600 236.800 C 77.863 239.695,75.483 241.300,71.000 242.599 C 65.708 244.132,64.604 244.937,66.027 246.224 C 66.739 246.869,67.465 246.896,75.300 246.562 C 79.975 246.363,86.860 246.242,90.600 246.293 C 94.340 246.344,106.941 246.501,118.602 246.642 L 139.804 246.899 140.302 245.521 C 140.576 244.763,140.800 243.109,140.800 241.845 C 140.800 240.581,140.974 239.223,141.186 238.826 C 141.399 238.429,141.750 237.135,141.966 235.952 C 142.371 233.732,142.695 232.375,143.835 228.124 C 145.709 221.137,142.899 221.620,139.275 228.908 C 135.272 236.957,130.308 240.724,122.600 241.559 C 117.495 242.113,103.259 242.126,99.645 241.581 C 94.849 240.857,93.427 239.999,92.215 237.098 C 91.177 234.614,91.296 162.754,92.341 160.805 C 93.520 158.608,96.569 157.277,103.400 155.979 C 107.364 155.225,108.600 154.597,108.600 153.337 L 108.600 152.200 88.165 152.136 C 76.926 152.101,67.502 152.213,67.222 152.386 M306.400 182.510 C 303.870 185.000,300.581 187.993,299.091 189.162 C 294.840 192.497,294.481 194.800,298.210 194.800 C 300.264 194.800,302.171 195.624,302.788 196.778 C 303.054 197.275,303.200 204.423,303.200 216.999 C 303.200 239.812,303.398 241.024,307.765 244.895 C 311.632 248.322,323.173 249.277,326.000 246.403 C 326.110 246.291,326.872 245.858,327.694 245.440 C 330.089 244.222,333.757 241.069,334.181 239.863 C 334.759 238.217,333.894 237.907,331.814 239.013 C 324.939 242.668,316.861 241.087,313.978 235.522 L 312.671 233.000 312.509 216.800 C 312.268 192.839,311.186 194.800,324.651 194.800 C 334.620 194.800,334.000 195.013,334.000 191.596 C 334.000 188.370,334.099 188.400,323.545 188.400 C 311.868 188.400,312.665 188.813,312.853 182.861 L 313.000 178.200 312.000 178.091 C 311.198 178.004,310.089 178.879,306.400 182.510 M178.600 186.902 C 166.844 188.791,156.430 198.513,152.650 211.127 C 151.337 215.509,151.451 225.129,152.859 228.720 C 156.058 236.877,160.264 241.682,167.529 245.478 C 168.920 246.205,170.360 246.803,170.729 246.806 C 171.098 246.809,172.120 247.071,173.000 247.388 C 175.513 248.294,185.814 248.193,189.400 247.228 C 193.600 246.097,198.800 243.833,198.800 243.135 C 198.800 242.951,198.988 242.800,199.217 242.800 C 200.446 242.800,208.000 234.546,208.000 233.203 C 208.000 232.982,208.141 232.800,208.312 232.800 C 208.629 232.800,208.873 232.258,210.656 227.600 C 212.456 222.896,213.371 214.007,212.405 210.600 C 210.829 205.040,209.402 201.488,208.206 200.144 C 207.983 199.894,207.443 199.174,207.006 198.544 C 201.150 190.104,189.186 185.201,178.600 186.902 M250.317 186.994 C 230.326 190.616,217.964 213.807,226.329 232.000 C 228.167 235.998,233.705 242.800,235.122 242.800 C 235.331 242.800,235.717 243.060,235.981 243.377 C 236.540 244.051,242.041 246.797,242.849 246.806 C 243.152 246.809,244.185 247.085,245.144 247.419 C 247.176 248.127,257.623 248.250,260.100 247.596 C 264.978 246.308,266.377 245.803,268.867 244.430 C 275.541 240.750,279.754 235.492,283.157 226.595 C 284.555 222.941,285.076 213.148,284.099 208.884 C 280.811 194.526,265.064 184.322,250.317 186.994 M187.426 192.025 C 197.882 196.857,203.700 213.537,200.593 229.773 C 197.483 246.026,180.048 249.857,169.300 236.648 C 169.025 236.310,168.800 235.908,168.800 235.755 C 168.800 235.601,168.391 234.919,167.892 234.238 C 161.951 226.141,161.100 207.315,166.273 198.447 C 170.427 191.326,179.774 188.489,187.426 192.025 M259.493 192.025 C 263.140 193.661,267.289 197.993,269.450 202.420 C 270.961 205.516,271.376 206.636,272.777 211.400 C 273.825 214.966,272.956 230.927,271.547 234.000 C 271.294 234.550,270.798 235.619,270.444 236.376 C 269.555 238.275,266.092 241.782,264.400 242.497 C 263.630 242.822,262.460 243.315,261.800 243.594 C 258.033 245.183,250.520 244.361,247.000 241.974 C 242.695 239.054,236.800 230.533,236.800 227.229 C 236.800 226.847,236.671 226.404,236.513 226.246 C 234.373 224.107,234.519 208.793,236.747 201.666 C 239.586 192.584,250.464 187.973,259.493 192.025 " stroke="none" fill="#f6f6f6" fill-rule="evenodd"></path><path id="path1" d="M0.000 200.000 L 0.000 400.000 200.000 400.000 L 400.000 400.000 400.000 200.000 L 400.000 0.000 200.000 0.000 L 0.000 0.000 0.000 200.000 M87.400 151.331 C 89.820 151.338,95.174 151.194,99.298 151.011 C 107.668 150.638,110.000 151.069,110.000 152.985 C 110.000 154.806,108.174 155.926,103.800 156.787 C 101.368 157.266,97.661 158.258,96.200 158.820 C 95.760 158.989,95.086 159.228,94.702 159.350 C 92.317 160.112,92.403 158.629,92.401 199.076 C 92.401 223.231,92.538 236.038,92.800 236.200 C 93.020 236.336,93.200 236.765,93.200 237.154 C 93.200 238.172,94.722 239.445,96.800 240.165 C 98.948 240.909,124.953 241.123,125.400 240.400 C 125.536 240.180,125.998 240.000,126.427 240.000 C 128.433 240.000,136.800 233.516,136.800 231.962 C 136.800 231.754,137.212 230.913,137.716 230.092 C 138.220 229.271,138.980 227.790,139.405 226.800 C 139.830 225.810,140.273 224.910,140.389 224.800 C 140.505 224.690,140.798 224.240,141.040 223.800 C 141.564 222.848,143.771 222.512,144.659 223.249 C 145.400 223.864,145.229 226.650,144.231 230.200 C 142.989 234.618,141.762 240.590,141.330 244.316 C 140.904 247.990,140.489 248.138,131.400 247.853 C 113.099 247.277,77.735 247.091,73.200 247.545 C 67.119 248.155,65.064 247.654,64.879 245.518 C 64.722 243.687,66.275 242.705,70.787 241.782 C 71.550 241.626,72.450 241.361,72.787 241.193 C 73.124 241.026,74.083 240.554,74.918 240.144 C 79.587 237.855,79.338 240.097,79.497 199.000 C 79.654 158.202,79.776 159.802,76.370 158.132 C 74.779 157.351,73.590 157.025,69.311 156.192 C 67.500 155.840,65.578 153.970,65.872 152.846 C 66.361 150.975,67.582 150.749,75.600 151.045 C 79.670 151.195,84.980 151.324,87.400 151.331 M313.834 177.795 C 314.428 178.703,314.433 179.100,313.888 182.295 C 312.939 187.858,312.479 187.599,323.309 187.605 C 334.524 187.612,335.200 187.836,335.200 191.531 C 335.200 195.780,334.717 195.966,323.317 196.097 C 314.966 196.194,314.397 196.248,313.829 197.000 C 312.893 198.241,312.915 228.471,313.856 232.318 C 314.687 235.720,316.256 238.012,318.567 239.200 C 319.937 239.905,327.385 240.013,328.875 239.350 C 329.384 239.124,330.671 238.514,331.736 237.994 C 334.065 236.859,334.941 237.193,335.121 239.288 C 335.243 240.712,331.177 245.200,329.765 245.200 C 329.491 245.200,329.207 245.342,329.133 245.516 C 328.917 246.029,324.983 247.948,323.120 248.450 C 314.970 250.646,307.023 247.656,303.950 241.238 C 302.400 238.001,302.272 236.253,302.128 216.400 C 301.969 194.481,302.224 196.000,298.705 196.000 C 293.902 196.000,293.412 192.203,297.800 188.986 C 301.861 186.009,304.930 183.196,309.305 178.437 C 311.130 176.452,312.799 176.215,313.834 177.795 M187.400 186.014 C 188.500 186.210,190.030 186.479,190.800 186.612 C 191.570 186.745,192.560 187.010,193.000 187.200 C 193.440 187.390,194.520 187.860,195.400 188.244 C 199.774 190.152,208.400 197.316,208.400 199.041 C 208.400 199.348,208.580 199.600,208.800 199.600 C 209.020 199.600,209.200 199.855,209.200 200.167 C 209.200 200.478,209.357 200.793,209.549 200.867 C 209.985 201.034,211.978 205.326,212.488 207.200 C 213.591 211.249,213.790 220.639,212.835 223.600 C 212.658 224.150,212.180 225.680,211.774 227.000 C 205.301 248.041,178.459 256.340,161.286 242.611 C 159.357 241.068,154.800 235.735,154.800 235.019 C 154.800 234.890,154.350 234.071,153.800 233.200 C 153.250 232.329,152.800 231.288,152.800 230.888 C 152.800 230.488,152.639 229.989,152.442 229.780 C 151.166 228.425,150.275 216.192,151.220 213.000 C 152.514 208.628,153.008 207.225,153.963 205.200 C 154.533 203.990,155.091 202.910,155.201 202.800 C 155.312 202.690,156.100 201.533,156.952 200.229 C 159.855 195.789,167.938 188.800,170.170 188.800 C 170.517 188.800,170.800 188.634,170.800 188.432 C 170.800 188.229,171.385 187.938,172.100 187.786 C 172.815 187.633,173.580 187.379,173.800 187.221 C 174.184 186.946,177.513 186.162,179.600 185.856 C 181.485 185.579,185.400 185.658,187.400 186.014 M259.400 186.014 C 260.500 186.210,262.030 186.479,262.800 186.612 C 263.570 186.745,264.560 187.012,265.000 187.204 C 267.181 188.158,270.365 189.699,271.771 190.480 C 273.682 191.541,279.969 197.758,280.800 199.409 C 281.130 200.064,281.625 200.838,281.900 201.129 C 282.175 201.419,282.400 201.914,282.400 202.229 C 282.400 202.543,282.559 202.800,282.753 202.800 C 282.948 202.800,283.199 203.205,283.313 203.700 C 283.564 204.796,284.363 207.058,284.960 208.361 C 285.541 209.631,285.513 222.934,284.927 223.667 C 284.692 223.960,284.408 224.740,284.296 225.400 C 283.969 227.319,281.524 233.357,280.813 234.000 C 280.692 234.110,280.120 234.920,279.542 235.800 C 277.641 238.695,271.627 244.400,270.476 244.400 C 270.251 244.400,270.007 244.549,269.933 244.732 C 269.556 245.672,263.356 247.866,258.576 248.751 C 253.722 249.650,245.872 249.073,242.113 247.541 C 238.557 246.092,236.664 245.051,234.217 243.200 C 232.801 242.128,228.811 238.209,228.805 237.883 C 228.802 237.709,228.429 237.169,227.976 236.683 C 227.523 236.197,226.639 234.720,226.011 233.400 C 224.963 231.199,224.542 230.064,223.251 225.972 C 222.699 224.224,222.653 215.123,223.187 213.428 C 223.400 212.753,223.884 211.120,224.262 209.800 C 228.661 194.464,244.941 183.443,259.400 186.014 M175.986 191.933 C 170.328 193.639,166.284 198.011,165.009 203.800 C 163.925 208.721,163.764 223.524,164.783 224.543 C 165.012 224.772,165.199 225.329,165.199 225.780 C 165.196 227.979,168.519 234.235,171.585 237.800 C 175.051 241.832,178.304 243.329,183.600 243.329 C 187.648 243.330,192.800 242.088,192.800 241.112 C 192.800 240.941,193.001 240.800,193.247 240.800 C 193.810 240.800,196.800 237.838,196.800 237.280 C 196.800 237.053,196.935 236.807,197.100 236.733 C 197.631 236.497,198.800 233.963,198.800 233.048 C 198.800 232.559,198.967 231.989,199.171 231.780 C 199.570 231.371,200.361 225.670,200.692 220.815 C 200.899 217.783,200.385 213.723,199.364 210.325 C 199.054 209.294,198.800 208.166,198.800 207.819 C 198.800 207.473,198.629 206.877,198.419 206.495 C 198.210 206.113,197.730 205.080,197.353 204.200 C 195.710 200.369,192.996 196.959,188.919 193.600 C 186.571 191.666,179.776 190.790,175.986 191.933 M248.400 191.837 C 239.138 194.294,235.561 201.873,236.138 217.816 C 236.250 220.905,236.512 223.875,236.720 224.416 C 236.929 224.957,237.417 226.390,237.805 227.600 C 238.194 228.810,238.667 229.971,238.856 230.180 C 239.045 230.389,239.200 230.815,239.200 231.126 C 239.200 233.109,245.840 240.630,248.837 242.042 C 256.457 245.633,266.194 242.803,269.740 235.969 C 270.323 234.845,270.800 233.619,270.800 233.243 C 270.800 232.867,270.967 232.389,271.171 232.180 C 271.633 231.708,272.441 225.455,272.694 220.408 C 272.870 216.894,272.673 215.214,271.543 210.600 C 270.716 207.219,270.497 206.546,269.661 204.825 C 269.188 203.849,268.800 202.829,268.800 202.558 C 268.800 202.288,268.665 202.007,268.500 201.933 C 268.335 201.860,267.506 200.770,266.659 199.511 C 265.385 197.619,263.070 195.242,261.000 193.698 C 258.146 191.570,252.530 190.741,248.400 191.837 " stroke="none" fill="#040404" fill-rule="evenodd"></path><path id="path2" d="M68.800 151.585 C 68.165 151.798,69.979 151.935,73.767 151.960 C 77.048 151.982,79.658 151.932,79.567 151.849 C 79.189 151.508,69.723 151.276,68.800 151.585 M99.000 151.600 C 96.405 151.805,96.973 151.860,102.000 151.887 C 105.620 151.906,107.784 151.787,107.200 151.600 C 106.060 151.235,103.613 151.235,99.000 151.600 M66.667 152.267 C 66.193 152.740,66.383 153.888,67.022 154.418 C 67.577 154.879,67.590 154.816,67.145 153.839 C 66.730 152.929,66.744 152.681,67.223 152.377 C 67.540 152.177,67.605 152.009,67.367 152.006 C 67.128 152.003,66.813 152.120,66.667 152.267 M85.312 152.295 C 86.364 152.377,87.984 152.376,88.912 152.292 C 89.840 152.208,88.980 152.141,87.000 152.142 C 85.020 152.143,84.260 152.212,85.312 152.295 M68.800 155.358 C 69.350 155.696,70.250 155.960,70.800 155.945 C 71.715 155.920,71.698 155.892,70.600 155.609 C 69.940 155.438,69.040 155.174,68.600 155.022 C 68.069 154.838,68.136 154.951,68.800 155.358 M105.600 155.425 C 104.380 155.887,104.329 155.956,105.200 155.963 C 105.750 155.968,106.650 155.714,107.200 155.400 C 108.433 154.695,107.491 154.710,105.600 155.425 M73.000 156.400 C 74.196 156.914,75.195 156.914,74.400 156.400 C 74.070 156.187,73.440 156.022,73.000 156.034 L 72.200 156.056 73.000 156.400 M101.200 156.400 C 100.436 156.894,101.258 156.894,102.800 156.400 L 103.800 156.080 102.800 156.046 C 102.250 156.027,101.530 156.187,101.200 156.400 M76.931 157.643 C 77.973 158.193,78.705 158.986,79.222 160.125 C 79.788 161.372,79.985 161.570,79.991 160.900 C 80.002 159.823,77.113 156.792,76.100 156.818 C 75.689 156.828,76.031 157.168,76.931 157.643 M97.600 157.400 C 96.308 158.139,96.967 158.144,99.000 157.412 C 100.268 156.955,100.393 156.834,99.600 156.832 C 99.050 156.830,98.150 157.086,97.600 157.400 M91.792 199.000 C 91.792 219.460,91.841 227.771,91.900 217.470 C 91.959 207.168,91.959 190.428,91.900 180.270 C 91.840 170.111,91.792 178.540,91.792 199.000 M80.192 198.400 C 80.192 218.310,80.240 226.455,80.300 216.500 C 80.359 206.545,80.359 190.255,80.300 180.300 C 80.240 170.345,80.192 178.490,80.192 198.400 M310.400 178.100 C 309.850 178.595,308.059 180.440,306.420 182.200 C 303.516 185.318,303.536 185.305,307.205 181.682 C 312.331 176.621,313.031 176.635,312.928 181.800 C 312.857 185.322,313.403 183.604,313.654 179.514 C 313.791 177.282,312.118 176.555,310.400 178.100 M299.562 188.287 C 295.149 191.814,294.314 193.005,295.668 193.842 C 295.987 194.039,296.051 193.909,295.869 193.437 C 295.473 192.403,296.152 191.443,298.703 189.430 C 302.065 186.776,303.431 185.604,303.162 185.602 C 303.032 185.601,301.412 186.809,299.562 188.287 M178.400 186.648 L 175.800 187.180 178.200 186.906 C 181.296 186.551,185.222 186.547,188.000 186.894 C 190.168 187.165,190.162 187.161,187.600 186.603 C 184.471 185.922,181.879 185.935,178.400 186.648 M250.100 186.633 C 248.505 186.923,246.885 187.363,246.500 187.610 C 245.870 188.015,245.880 188.035,246.600 187.804 C 247.040 187.663,248.930 187.274,250.800 186.940 C 253.947 186.377,255.696 186.384,260.600 186.978 C 261.480 187.085,261.030 186.917,259.600 186.605 C 256.472 185.922,253.969 185.929,250.100 186.633 M312.806 186.686 C 312.798 187.810,313.923 188.417,315.874 188.340 L 317.400 188.280 315.609 188.040 C 314.233 187.855,313.703 187.569,313.315 186.800 C 312.829 185.835,312.812 185.831,312.806 186.686 M191.000 187.600 C 192.196 188.114,193.195 188.114,192.400 187.600 C 192.070 187.387,191.440 187.222,191.000 187.234 L 190.200 187.256 191.000 187.600 M263.000 187.600 C 264.196 188.114,265.195 188.114,264.400 187.600 C 264.070 187.387,263.440 187.222,263.000 187.234 L 262.200 187.256 263.000 187.600 M171.600 188.600 C 170.294 189.347,170.751 189.355,172.454 188.616 C 173.194 188.294,173.530 188.031,173.200 188.030 C 172.870 188.029,172.150 188.286,171.600 188.600 M194.000 188.509 C 195.828 189.431,197.200 189.985,197.200 189.801 C 197.200 189.549,193.948 187.999,193.425 188.002 C 193.191 188.004,193.450 188.232,194.000 188.509 M243.600 188.600 C 242.294 189.347,242.751 189.355,244.454 188.616 C 245.194 188.294,245.530 188.031,245.200 188.030 C 244.870 188.029,244.150 188.286,243.600 188.600 M265.600 188.287 C 265.930 188.410,266.875 188.850,267.700 189.264 C 268.525 189.678,269.200 189.926,269.200 189.816 C 269.200 189.502,266.091 187.996,265.516 188.032 C 265.175 188.052,265.204 188.139,265.600 188.287 M320.518 188.298 C 322.233 188.373,324.933 188.372,326.518 188.297 C 328.103 188.221,326.700 188.159,323.400 188.160 C 320.100 188.161,318.803 188.222,320.518 188.298 M331.283 188.370 C 333.665 188.703,333.745 188.795,334.039 191.531 L 334.282 193.800 334.341 191.700 C 334.418 188.964,333.541 187.977,331.100 188.053 L 329.400 188.107 331.283 188.370 M167.600 190.768 C 163.106 193.472,157.652 199.123,155.604 203.200 C 154.898 204.606,155.560 203.804,157.414 201.006 C 159.682 197.583,164.129 193.284,167.500 191.254 C 169.983 189.759,170.757 189.192,170.300 189.202 C 170.245 189.203,169.030 189.908,167.600 190.768 M239.825 190.634 C 234.887 193.612,230.195 198.544,227.430 203.664 C 225.184 207.822,225.757 207.369,228.402 202.894 C 231.246 198.084,235.419 193.726,239.602 191.199 C 242.001 189.749,242.748 189.196,242.300 189.201 C 242.245 189.202,241.131 189.846,239.825 190.634 M197.600 190.160 C 197.600 190.249,198.275 190.702,199.100 191.168 L 200.600 192.016 199.400 191.010 C 198.299 190.087,197.600 189.757,197.600 190.160 M269.600 190.160 C 269.600 190.249,270.275 190.702,271.100 191.168 L 272.600 192.016 271.400 191.010 C 270.299 190.087,269.600 189.757,269.600 190.160 M174.400 191.439 L 173.400 192.050 174.400 191.790 C 174.950 191.647,176.030 191.387,176.800 191.211 L 178.200 190.892 176.800 190.860 C 176.030 190.843,174.950 191.103,174.400 191.439 M184.200 191.181 C 184.860 191.346,186.075 191.768,186.900 192.120 C 187.725 192.471,188.400 192.672,188.400 192.565 C 188.400 192.196,184.730 190.800,183.867 190.841 C 183.216 190.872,183.298 190.956,184.200 191.181 M246.600 191.452 C 245.605 191.938,245.571 191.995,246.400 191.784 C 246.950 191.645,248.030 191.387,248.800 191.211 C 250.172 190.898,250.176 190.892,249.000 190.878 C 248.340 190.871,247.260 191.129,246.600 191.452 M256.010 191.078 C 256.565 191.165,258.215 191.816,259.677 192.526 C 261.138 193.236,262.234 193.655,262.112 193.458 C 261.729 192.837,256.858 190.797,255.909 190.860 C 255.076 190.915,255.084 190.933,256.010 191.078 M171.100 193.078 C 170.275 193.645,169.603 194.309,169.606 194.554 C 169.610 194.868,169.699 194.873,169.906 194.570 C 170.068 194.333,170.917 193.658,171.793 193.070 C 172.669 192.481,173.209 192.011,172.993 192.024 C 172.777 192.037,171.925 192.512,171.100 193.078 M203.400 194.637 C 206.250 197.449,208.000 199.523,208.000 200.087 C 208.000 200.259,208.201 200.400,208.447 200.400 C 209.405 200.400,204.997 195.252,202.200 193.103 C 201.258 192.379,201.752 193.010,203.400 194.637 M243.100 193.078 C 242.275 193.645,241.600 194.277,241.600 194.483 C 241.600 194.689,241.887 194.570,242.238 194.219 C 242.589 193.868,243.399 193.311,244.038 192.980 C 244.677 192.650,245.200 192.294,245.200 192.190 C 245.200 191.804,244.562 192.074,243.100 193.078 M275.433 194.624 C 276.991 196.151,278.857 198.120,279.579 199.000 L 280.891 200.600 279.786 199.000 C 278.392 196.982,275.369 193.796,273.800 192.692 C 273.140 192.227,273.875 193.097,275.433 194.624 M333.600 194.333 C 333.600 194.675,331.213 194.800,324.694 194.800 C 315.244 194.800,313.099 195.193,312.941 196.954 C 312.908 197.318,312.959 197.382,313.053 197.096 C 313.545 195.608,314.798 195.403,324.200 195.275 C 332.584 195.160,334.651 194.918,333.873 194.140 C 333.723 193.990,333.600 194.077,333.600 194.333 M296.255 194.888 C 296.361 195.060,297.022 195.201,297.724 195.202 C 299.312 195.205,301.892 195.901,302.208 196.412 C 302.338 196.623,302.452 204.581,302.461 214.098 C 302.470 223.614,302.614 232.480,302.780 233.800 C 302.950 235.151,303.108 227.755,303.141 216.874 C 303.202 196.822,303.174 196.456,301.491 195.526 C 300.474 194.965,295.962 194.415,296.255 194.888 M191.600 194.877 C 191.600 194.987,191.960 195.493,192.400 196.000 C 192.840 196.507,193.200 196.743,193.200 196.523 C 193.200 196.304,192.840 195.798,192.400 195.400 C 191.960 195.002,191.600 194.766,191.600 194.877 M263.600 194.925 C 263.600 194.994,264.185 195.579,264.900 196.225 L 266.200 197.400 265.025 196.100 C 263.930 194.888,263.600 194.616,263.600 194.925 M238.939 197.501 C 237.399 199.819,236.800 200.985,236.800 201.663 C 236.800 201.946,237.355 201.103,238.033 199.789 C 238.712 198.475,239.643 196.995,240.103 196.500 C 240.563 196.005,240.773 195.600,240.570 195.601 C 240.366 195.601,239.632 196.456,238.939 197.501 M166.881 197.500 C 165.805 199.031,164.798 201.061,164.809 201.680 C 164.814 201.966,165.171 201.422,165.602 200.471 C 166.034 199.520,166.762 198.215,167.221 197.571 C 167.679 196.927,167.964 196.400,167.854 196.400 C 167.744 196.400,167.306 196.895,166.881 197.500 M194.898 198.800 C 195.441 199.570,196.283 200.982,196.770 201.939 C 197.257 202.895,197.736 203.597,197.834 203.500 C 198.092 203.241,196.195 200.000,194.965 198.600 L 193.911 197.400 194.898 198.800 M267.535 199.781 C 268.341 200.952,269.054 201.862,269.119 201.803 C 269.343 201.601,267.016 198.015,266.543 197.833 C 266.283 197.734,266.730 198.610,267.535 199.781 M312.581 214.000 C 312.581 222.250,312.634 225.625,312.699 221.500 C 312.764 217.375,312.764 210.625,312.699 206.500 C 312.634 202.375,312.581 205.750,312.581 214.000 M280.877 201.100 C 282.078 203.599,283.532 206.730,283.710 207.200 C 283.867 207.616,283.947 207.638,283.968 207.274 C 284.009 206.605,281.340 200.800,280.993 200.800 C 280.850 200.800,280.798 200.935,280.877 201.100 M236.273 202.953 C 236.123 203.345,236.011 203.966,236.025 204.333 C 236.042 204.775,236.181 204.674,236.437 204.034 C 236.649 203.503,236.761 202.882,236.685 202.654 C 236.609 202.427,236.424 202.561,236.273 202.953 M270.079 204.409 C 270.539 205.515,271.002 206.332,271.109 206.225 C 271.315 206.018,269.718 202.400,269.420 202.400 C 269.323 202.400,269.620 203.304,270.079 204.409 M198.014 204.054 C 198.006 204.194,198.263 204.914,198.584 205.654 C 198.906 206.394,199.169 206.730,199.170 206.400 C 199.172 205.824,198.043 203.534,198.014 204.054 M154.029 206.229 C 153.548 207.251,153.250 208.183,153.366 208.299 C 153.482 208.416,153.763 207.991,153.989 207.355 C 154.215 206.720,154.593 205.867,154.828 205.461 C 155.063 205.055,155.176 204.643,155.079 204.546 C 154.982 204.449,154.509 205.206,154.029 206.229 M210.802 205.054 C 210.798 205.795,211.967 208.259,211.984 207.546 C 211.993 207.186,211.731 206.376,211.402 205.746 C 211.074 205.116,210.804 204.804,210.802 205.054 M163.266 208.702 C 162.633 212.864,162.703 219.300,163.411 222.000 C 163.866 223.734,163.945 223.861,163.785 222.600 C 163.204 218.019,163.132 213.094,163.598 209.686 C 163.877 207.643,164.022 205.889,163.921 205.788 C 163.820 205.687,163.526 206.998,163.266 208.702 M235.266 209.102 C 234.655 213.115,234.730 219.261,235.421 221.800 C 235.789 223.155,235.905 223.348,235.779 222.400 C 235.203 218.069,235.135 213.244,235.604 209.975 C 235.887 208.000,236.033 206.299,235.928 206.195 C 235.823 206.090,235.526 207.398,235.266 209.102 M212.034 209.200 C 212.022 209.750,212.187 210.470,212.400 210.800 C 212.909 211.587,212.909 210.184,212.400 209.000 C 212.085 208.267,212.054 208.284,212.034 209.200 M284.056 209.000 C 284.056 209.440,284.211 210.160,284.400 210.600 L 284.744 211.400 284.744 210.600 C 284.744 210.160,284.589 209.440,284.400 209.000 L 284.056 208.200 284.056 209.000 M152.481 210.288 C 151.796 212.575,151.921 213.334,152.643 211.273 C 152.976 210.323,153.184 209.352,153.105 209.115 C 153.026 208.878,152.745 209.406,152.481 210.288 M224.461 210.531 C 224.164 211.540,224.015 212.598,224.129 212.883 C 224.243 213.167,224.351 212.983,224.368 212.474 C 224.386 211.964,224.591 211.190,224.825 210.753 C 225.059 210.316,225.194 209.674,225.125 209.327 C 225.056 208.980,224.757 209.522,224.461 210.531 M272.246 210.600 C 272.373 211.480,272.629 212.920,272.813 213.800 L 273.148 215.400 273.013 213.600 C 272.938 212.610,272.683 211.170,272.446 210.400 L 272.014 209.000 272.246 210.600 M200.242 210.800 C 200.373 211.570,200.618 213.280,200.786 214.600 C 201.075 216.879,201.093 216.909,201.138 215.200 C 201.163 214.210,200.919 212.500,200.593 211.400 C 200.235 210.188,200.097 209.952,200.242 210.800 M284.950 215.800 C 284.951 218.220,285.016 219.158,285.096 217.885 C 285.176 216.612,285.175 214.632,285.094 213.485 C 285.014 212.338,284.949 213.380,284.950 215.800 M212.931 215.800 C 212.933 217.340,213.005 217.921,213.092 217.091 C 213.179 216.261,213.177 215.001,213.089 214.291 C 213.000 213.581,212.929 214.260,212.931 215.800 M151.450 214.850 C 151.122 216.490,151.180 223.607,151.528 224.485 C 151.678 224.862,151.800 222.567,151.800 219.385 C 151.800 213.011,151.805 213.075,151.450 214.850 M223.450 215.250 C 223.130 216.848,223.197 223.104,223.547 224.352 C 223.693 224.876,223.811 222.761,223.807 219.652 C 223.799 213.418,223.804 213.479,223.450 215.250 M212.273 220.953 C 212.123 221.345,212.016 222.146,212.036 222.733 C 212.070 223.728,212.098 223.709,212.457 222.463 C 212.873 221.019,212.723 219.782,212.273 220.953 M284.249 221.415 C 284.112 221.773,284.018 222.546,284.040 223.133 C 284.073 223.991,284.152 223.895,284.446 222.640 C 284.822 221.039,284.695 220.253,284.249 221.415 M200.694 225.400 C 200.526 227.380,200.305 229.720,200.204 230.600 C 200.103 231.480,200.288 230.940,200.615 229.400 C 200.942 227.860,201.163 225.520,201.105 224.200 C 201.006 221.927,200.984 221.990,200.694 225.400 M143.648 223.648 C 144.351 224.351,144.458 224.812,144.273 226.348 C 144.127 227.565,144.169 227.926,144.397 227.400 C 144.996 226.018,144.841 224.161,144.069 223.462 C 143.002 222.496,142.651 222.651,143.648 223.648 M272.679 226.400 C 272.518 227.830,272.307 229.720,272.211 230.600 L 272.037 232.200 272.448 230.600 C 273.013 228.404,273.301 225.909,273.122 224.759 C 273.040 224.232,272.840 224.970,272.679 226.400 M211.291 225.700 C 210.610 227.584,210.704 228.094,211.426 226.430 C 211.753 225.677,211.966 224.899,211.901 224.702 C 211.835 224.505,211.560 224.954,211.291 225.700 M236.028 225.076 C 236.013 225.558,236.180 226.064,236.400 226.200 C 236.873 226.492,236.873 226.101,236.400 225.000 C 236.069 224.229,236.055 224.231,236.028 225.076 M283.512 225.200 C 283.376 225.750,283.150 226.650,283.010 227.200 C 282.852 227.822,282.997 227.679,283.392 226.821 C 283.742 226.062,283.968 225.162,283.894 224.821 C 283.810 224.431,283.668 224.572,283.512 225.200 M140.485 225.613 C 140.218 226.040,140.007 226.617,140.016 226.895 C 140.025 227.173,140.309 226.889,140.647 226.265 C 141.350 224.968,141.218 224.438,140.485 225.613 M224.071 226.400 C 224.066 226.950,224.319 228.030,224.633 228.800 C 225.245 230.294,225.167 229.383,224.463 226.800 C 224.158 225.680,224.080 225.600,224.071 226.400 M152.041 226.654 C 152.018 227.124,152.280 228.114,152.622 228.854 C 153.237 230.185,153.204 229.897,152.411 227.000 C 152.162 226.094,152.072 226.009,152.041 226.654 M164.817 227.705 C 164.808 228.093,164.974 228.723,165.186 229.105 C 165.398 229.487,165.938 230.644,166.385 231.676 C 166.832 232.707,167.393 233.672,167.632 233.820 C 167.871 233.967,167.752 233.483,167.368 232.744 C 166.984 232.005,166.256 230.410,165.752 229.200 C 165.247 227.990,164.826 227.317,164.817 227.705 M236.830 227.600 C 236.828 228.176,237.957 230.466,237.986 229.946 C 237.994 229.806,237.737 229.086,237.416 228.346 C 237.094 227.606,236.831 227.270,236.830 227.600 M138.450 229.900 C 136.778 233.213,134.024 236.373,131.236 238.177 C 129.903 239.039,128.883 239.816,128.969 239.903 C 129.315 240.249,132.729 237.722,134.831 235.564 C 136.719 233.626,140.499 227.600,139.828 227.600 C 139.709 227.600,139.089 228.635,138.450 229.900 M281.793 229.900 C 279.996 234.391,276.158 239.449,272.824 241.717 C 272.287 242.083,271.944 242.478,272.062 242.595 C 272.500 243.034,277.628 237.864,279.316 235.281 C 281.243 232.334,282.962 228.829,282.639 228.506 C 282.526 228.393,282.145 229.020,281.793 229.900 M143.277 230.138 C 143.015 230.864,142.813 231.804,142.828 232.228 C 142.843 232.653,143.124 232.126,143.452 231.058 C 144.132 228.845,143.998 228.144,143.277 230.138 M209.265 231.017 C 208.595 232.488,208.723 232.802,209.447 231.465 C 209.786 230.840,209.988 230.254,209.896 230.163 C 209.805 230.071,209.521 230.456,209.265 231.017 M153.200 230.611 C 153.200 230.966,155.506 235.323,156.370 236.600 C 157.239 237.884,162.072 242.862,162.264 242.670 C 162.327 242.606,161.075 241.215,159.481 239.577 C 157.492 237.534,156.094 235.627,155.024 233.500 C 153.594 230.658,153.200 230.034,153.200 230.611 M238.005 230.516 C 237.997 231.050,239.644 234.089,239.837 233.896 C 239.937 233.796,239.567 232.924,239.014 231.957 C 238.462 230.991,238.007 230.342,238.005 230.516 M312.846 231.854 C 312.821 232.544,313.087 233.624,313.437 234.254 C 314.020 235.302,314.051 235.315,313.802 234.400 C 313.653 233.850,313.387 232.770,313.211 232.000 L 312.892 230.600 312.846 231.854 M226.001 232.224 C 226.004 232.958,229.229 237.993,229.699 237.997 C 229.864 237.999,229.369 237.124,228.599 236.052 C 227.830 234.981,227.194 233.946,227.187 233.752 C 227.170 233.265,226.000 231.757,226.001 232.224 M142.273 233.753 C 142.123 234.145,142.011 234.766,142.025 235.133 C 142.042 235.575,142.181 235.474,142.437 234.834 C 142.649 234.303,142.761 233.682,142.685 233.454 C 142.609 233.227,142.424 233.361,142.273 233.753 M206.695 235.374 C 205.519 237.104,203.483 239.329,201.430 241.125 C 200.597 241.853,199.989 242.523,200.079 242.613 C 200.330 242.863,205.306 238.016,206.784 236.082 C 207.506 235.136,208.001 234.267,207.884 234.150 C 207.767 234.033,207.232 234.584,206.695 235.374 M197.996 236.321 C 197.456 237.355,196.112 239.092,195.008 240.182 C 193.669 241.503,193.422 241.868,194.268 241.277 C 196.289 239.865,199.695 235.162,199.116 234.583 C 199.039 234.506,198.535 235.288,197.996 236.321 M168.800 235.728 C 168.800 236.063,169.147 236.506,171.100 238.671 C 171.815 239.464,172.392 239.952,172.382 239.756 C 172.360 239.311,168.800 235.308,168.800 235.728 M241.792 237.020 C 243.824 239.715,248.063 243.212,249.272 243.191 C 249.562 243.186,249.170 242.881,248.400 242.514 C 247.630 242.147,245.560 240.405,243.800 238.643 C 242.034 236.875,241.134 236.148,241.792 237.020 M92.007 236.641 C 91.981 238.327,95.689 241.402,97.352 241.075 C 98.100 240.929,98.082 240.899,97.200 240.825 C 95.597 240.691,93.869 239.461,92.907 237.770 C 92.415 236.906,92.010 236.398,92.007 236.641 M141.290 238.417 C 141.021 239.281,140.821 240.665,140.846 241.494 C 140.872 242.322,140.964 242.640,141.050 242.200 C 141.137 241.760,141.402 240.441,141.640 239.269 C 142.159 236.706,141.969 236.243,141.290 238.417 M314.800 237.101 C 314.800 237.353,315.385 237.992,316.100 238.521 C 317.495 239.553,318.876 240.366,318.200 239.758 C 317.980 239.560,317.125 238.778,316.300 238.020 C 315.475 237.263,314.800 236.849,314.800 237.101 M78.057 238.468 C 77.538 239.108,76.098 240.155,74.857 240.796 C 73.616 241.437,72.741 241.970,72.913 241.981 C 74.165 242.058,79.781 237.998,79.171 237.457 C 79.077 237.374,78.576 237.829,78.057 238.468 M267.800 239.361 C 265.822 241.445,264.443 242.283,261.473 243.205 C 260.633 243.466,260.043 243.776,260.160 243.894 C 260.374 244.108,261.798 243.637,264.365 242.503 C 265.903 241.824,268.094 239.946,269.269 238.300 C 270.384 236.739,270.080 236.958,267.800 239.361 M303.212 237.600 C 303.212 237.930,303.387 238.470,303.600 238.800 C 303.945 239.333,303.988 239.333,303.988 238.800 C 303.988 238.470,303.813 237.930,303.600 237.600 C 303.255 237.067,303.212 237.067,303.212 237.600 M333.985 238.346 C 335.423 239.345,331.516 243.672,327.514 245.513 C 326.693 245.891,326.016 246.346,326.010 246.525 C 325.989 247.199,330.250 244.515,332.500 242.438 C 334.889 240.232,335.488 238.500,334.000 238.100 C 333.478 237.960,333.476 237.992,333.985 238.346 M231.977 240.490 C 233.174 241.750,234.239 242.695,234.343 242.590 C 234.448 242.486,234.455 242.355,234.358 242.300 C 234.262 242.245,233.197 241.300,231.992 240.200 L 229.800 238.200 231.977 240.490 M304.006 239.894 C 303.989 241.374,307.260 245.414,309.266 246.390 C 309.946 246.721,309.876 246.594,309.008 245.922 C 307.084 244.434,305.855 243.003,304.903 241.143 C 304.413 240.184,304.009 239.622,304.006 239.894 M126.200 240.611 C 124.948 241.024,124.817 241.142,125.600 241.155 C 126.150 241.164,127.050 240.914,127.600 240.600 C 128.817 239.904,128.333 239.908,126.200 240.611 M172.800 240.286 C 172.800 240.722,176.610 243.201,177.276 243.198 C 177.564 243.196,177.261 242.914,176.603 242.571 C 175.944 242.227,174.819 241.499,174.103 240.953 C 173.386 240.406,172.800 240.106,172.800 240.286 M319.910 240.518 C 321.226 240.902,325.692 240.884,327.521 240.487 C 328.307 240.316,326.814 240.200,323.831 240.200 C 320.703 240.200,319.230 240.320,319.910 240.518 M100.200 241.630 C 102.102 242.032,118.851 242.007,122.000 241.598 C 123.210 241.441,118.440 241.308,111.400 241.302 C 103.466 241.296,99.208 241.420,100.200 241.630 M70.698 242.236 C 70.568 242.365,69.717 242.639,68.805 242.843 C 67.004 243.248,65.200 244.265,65.200 244.875 C 65.200 245.085,65.455 245.002,65.766 244.691 C 66.367 244.090,67.379 243.671,70.600 242.687 C 71.700 242.351,72.225 242.059,71.767 242.038 C 71.308 242.017,70.827 242.106,70.698 242.236 M190.028 242.921 C 188.833 243.378,188.044 243.815,188.275 243.892 C 188.505 243.968,189.662 243.589,190.847 243.048 C 193.464 241.854,193.003 241.782,190.028 242.921 M163.800 243.777 C 164.460 244.337,165.180 244.791,165.400 244.785 C 165.860 244.773,164.584 243.730,163.400 243.150 C 162.960 242.934,163.140 243.216,163.800 243.777 M198.600 243.236 C 198.380 243.454,197.840 243.904,197.400 244.236 C 196.711 244.755,196.777 244.753,197.875 244.222 C 198.576 243.883,199.261 243.424,199.398 243.203 C 199.716 242.689,199.128 242.714,198.600 243.236 M235.002 243.203 C 235.139 243.424,235.824 243.889,236.525 244.235 L 237.800 244.865 236.600 243.847 C 235.376 242.809,234.553 242.477,235.002 243.203 M270.980 243.151 C 270.275 243.801,267.012 245.468,265.400 246.001 C 264.520 246.293,264.019 246.604,264.286 246.694 C 264.859 246.887,270.603 244.119,271.252 243.338 C 271.751 242.736,271.567 242.609,270.980 243.151 M181.712 244.295 C 182.764 244.377,184.384 244.376,185.312 244.292 C 186.240 244.208,185.380 244.141,183.400 244.142 C 181.420 244.143,180.660 244.212,181.712 244.295 M254.112 244.295 C 255.164 244.377,256.784 244.376,257.712 244.292 C 258.640 244.208,257.780 244.141,255.800 244.142 C 253.820 244.143,253.060 244.212,254.112 244.295 M166.576 245.413 C 167.004 245.736,167.533 246.000,167.753 246.000 C 167.973 246.000,167.804 245.736,167.376 245.413 C 166.949 245.090,166.420 244.825,166.200 244.825 C 165.980 244.825,166.149 245.090,166.576 245.413 M193.800 245.838 C 192.700 246.372,192.250 246.697,192.800 246.560 C 193.956 246.272,196.400 245.182,196.400 244.954 C 196.400 244.663,195.797 244.868,193.800 245.838 M80.600 246.361 C 78.466 246.515,82.594 246.643,90.733 246.677 C 98.286 246.707,104.406 246.674,104.333 246.602 C 104.046 246.321,83.991 246.117,80.600 246.361 M68.713 247.095 C 69.876 247.176,71.676 247.176,72.713 247.093 C 73.751 247.011,72.800 246.945,70.600 246.946 C 68.400 246.947,67.551 247.014,68.713 247.095 M122.524 247.099 C 125.783 247.167,131.003 247.166,134.124 247.099 C 137.246 247.031,134.580 246.976,128.200 246.977 C 121.820 246.977,119.266 247.032,122.524 247.099 M171.546 247.416 C 172.286 247.737,173.276 247.992,173.746 247.982 C 174.298 247.971,174.035 247.761,173.000 247.388 C 170.918 246.638,169.803 246.659,171.546 247.416 M188.600 247.411 C 187.717 247.702,187.358 247.950,187.800 247.963 C 188.240 247.977,189.320 247.729,190.200 247.412 C 192.197 246.692,190.782 246.692,188.600 247.411 M243.546 247.416 C 244.286 247.737,245.276 247.992,245.746 247.982 C 246.298 247.971,246.035 247.761,245.000 247.388 C 242.918 246.638,241.803 246.659,243.546 247.416 M261.887 247.046 C 261.751 247.182,261.046 247.433,260.320 247.605 C 259.254 247.858,259.192 247.920,260.000 247.929 C 261.286 247.942,264.170 246.874,262.967 246.830 C 262.508 246.814,262.022 246.911,261.887 247.046 M311.200 247.400 C 311.750 247.714,312.470 247.971,312.800 247.970 C 313.130 247.969,312.794 247.706,312.054 247.384 C 310.351 246.645,309.894 246.653,311.200 247.400 M323.400 247.414 C 321.785 248.154,322.751 248.155,324.454 247.416 C 325.194 247.094,325.530 246.839,325.200 246.848 C 324.870 246.857,324.060 247.112,323.400 247.414 M177.537 248.484 C 178.906 248.733,180.846 248.736,182.937 248.492 L 186.200 248.111 180.800 248.103 C 176.120 248.096,175.685 248.147,177.537 248.484 M249.744 248.481 C 251.166 248.705,253.289 248.706,255.144 248.484 C 258.104 248.131,258.031 248.119,252.800 248.116 C 248.084 248.113,247.697 248.159,249.744 248.481 M315.663 248.484 C 316.869 248.736,318.278 248.736,319.663 248.484 C 321.688 248.115,321.590 248.095,317.800 248.095 C 314.198 248.095,313.985 248.133,315.663 248.484 " stroke="none" fill="#848484" fill-rule="evenodd"></path><path id="path3" d="M67.100 151.399 C 65.444 152.342,65.778 152.827,67.485 151.957 C 69.226 151.069,71.522 151.010,80.000 151.636 C 84.289 151.953,88.510 151.937,96.200 151.574 C 105.533 151.134,106.754 151.149,108.100 151.721 C 111.462 153.151,109.210 155.410,103.400 156.436 C 101.860 156.708,100.849 157.014,101.153 157.116 C 102.512 157.572,108.119 155.868,109.248 154.656 C 112.038 151.662,109.073 150.576,99.298 151.011 C 90.417 151.406,85.560 151.413,75.600 151.045 C 69.270 150.811,68.041 150.862,67.100 151.399 M65.942 153.843 C 66.766 155.477,68.963 156.381,73.600 156.994 C 74.370 157.095,73.830 156.893,72.400 156.544 C 68.654 155.629,67.630 155.193,66.512 154.032 C 65.688 153.178,65.590 153.145,65.942 153.843 M76.200 157.866 C 76.860 158.215,77.680 158.703,78.022 158.950 C 78.364 159.198,78.101 158.905,77.437 158.300 C 76.773 157.695,75.953 157.207,75.615 157.216 C 75.277 157.225,75.540 157.517,76.200 157.866 M98.200 157.689 C 95.983 158.436,94.580 159.148,95.276 159.174 C 95.648 159.188,96.064 159.020,96.200 158.800 C 96.336 158.580,96.842 158.392,97.324 158.382 C 97.806 158.372,98.740 158.117,99.400 157.814 C 100.788 157.179,99.969 157.094,98.200 157.689 M93.513 159.900 C 91.994 161.641,92.000 161.502,92.014 199.074 C 92.026 230.158,92.116 235.954,92.600 236.800 C 93.016 237.528,93.176 237.616,93.186 237.124 C 93.194 236.752,93.020 236.336,92.800 236.200 C 92.538 236.038,92.400 223.214,92.400 199.032 L 92.400 162.112 93.388 160.656 C 94.448 159.094,94.502 158.766,93.513 159.900 M79.057 161.000 C 79.454 162.554,79.459 234.219,79.063 235.800 C 78.777 236.940,78.793 236.932,79.389 235.635 C 80.250 233.760,80.141 161.921,79.276 160.600 C 78.801 159.877,78.781 159.915,79.057 161.000 M309.215 178.481 C 307.036 180.748,307.149 181.146,309.347 178.947 C 312.560 175.735,314.358 176.939,313.578 181.779 C 313.308 183.452,313.181 184.914,313.295 185.028 C 313.930 185.664,314.431 178.707,313.817 177.770 C 312.798 176.215,311.147 176.470,309.215 178.481 M305.493 182.400 C 305.116 182.840,304.946 183.200,305.115 183.200 C 305.284 183.200,305.730 182.840,306.107 182.400 C 306.484 181.960,306.654 181.600,306.485 181.600 C 306.316 181.600,305.870 181.960,305.493 182.400 M301.800 185.843 C 301.140 186.401,299.610 187.598,298.400 188.503 C 293.463 192.193,293.568 196.000,298.608 196.000 C 299.623 196.000,300.801 196.186,301.226 196.414 C 301.670 196.652,302.000 196.670,302.000 196.457 C 302.000 196.027,301.014 195.751,298.143 195.377 C 293.825 194.814,294.182 192.429,299.180 188.438 C 302.284 185.959,303.589 184.760,303.124 184.814 C 303.056 184.822,302.460 185.285,301.800 185.843 M181.700 185.891 C 182.525 185.978,183.875 185.978,184.700 185.891 C 185.525 185.805,184.850 185.734,183.200 185.734 C 181.550 185.734,180.875 185.805,181.700 185.891 M253.700 185.891 C 254.525 185.978,255.875 185.978,256.700 185.891 C 257.525 185.805,256.850 185.734,255.200 185.734 C 253.550 185.734,252.875 185.805,253.700 185.891 M176.600 186.400 C 175.506 186.870,177.333 186.870,178.800 186.400 C 179.775 186.088,179.770 186.079,178.600 186.068 C 177.940 186.062,177.040 186.211,176.600 186.400 M187.600 186.400 C 189.130 186.890,190.358 186.890,189.600 186.400 C 189.270 186.187,188.460 186.027,187.800 186.046 C 186.624 186.079,186.620 186.086,187.600 186.400 M248.800 186.400 C 248.042 186.890,249.270 186.890,250.800 186.400 C 251.780 186.086,251.776 186.079,250.600 186.046 C 249.940 186.027,249.130 186.187,248.800 186.400 M259.800 186.400 C 260.984 186.909,262.387 186.909,261.600 186.400 C 261.270 186.187,260.550 186.022,260.000 186.034 C 259.084 186.054,259.067 186.085,259.800 186.400 M313.200 186.476 C 313.200 187.894,313.978 188.002,323.580 187.908 L 333.000 187.816 323.800 187.708 C 314.994 187.605,314.570 187.564,313.900 186.756 C 313.430 186.189,313.200 186.097,313.200 186.476 M173.828 187.155 C 173.707 187.350,172.977 187.628,172.204 187.773 C 171.432 187.918,170.800 188.208,170.800 188.418 C 170.800 188.896,171.027 188.898,171.905 188.430 C 172.287 188.226,173.320 187.785,174.200 187.450 C 175.315 187.026,175.534 186.835,174.924 186.821 C 174.442 186.809,173.949 186.960,173.828 187.155 M192.200 187.412 C 194.281 188.161,194.905 188.154,193.454 187.398 C 192.824 187.069,191.924 186.808,191.454 186.818 C 190.902 186.829,191.165 187.039,192.200 187.412 M245.200 187.295 C 244.650 187.537,243.570 188.007,242.800 188.339 C 237.153 190.772,226.786 200.837,226.802 203.870 C 226.803 204.052,227.337 203.390,227.990 202.400 C 230.024 199.315,230.531 198.672,232.994 196.068 C 236.723 192.124,240.698 189.529,246.200 187.447 C 247.080 187.114,247.440 186.844,247.000 186.848 C 246.560 186.851,245.750 187.052,245.200 187.295 M264.346 187.416 C 266.106 188.180,266.928 188.166,265.454 187.398 C 264.824 187.069,264.014 186.807,263.654 186.816 C 263.294 186.824,263.606 187.094,264.346 187.416 M333.756 188.613 C 334.705 189.562,334.972 191.832,334.333 193.517 C 333.638 195.348,332.759 195.499,322.400 195.566 C 315.293 195.612,313.644 195.909,313.306 197.200 C 313.208 197.578,313.387 197.504,313.791 197.000 C 314.394 196.249,314.981 196.194,323.317 196.097 C 333.928 195.975,333.825 195.992,334.598 194.144 C 335.580 191.792,334.941 188.000,333.561 188.000 C 333.331 188.000,333.419 188.276,333.756 188.613 M166.400 190.838 C 162.886 193.204,159.037 197.038,156.911 200.291 C 156.081 201.561,155.308 202.690,155.193 202.800 C 154.896 203.084,153.987 205.200,154.163 205.200 C 154.243 205.200,155.088 203.895,156.040 202.300 C 158.297 198.521,164.173 192.587,167.775 190.448 C 169.301 189.541,170.291 188.804,169.975 188.809 C 169.659 188.815,168.050 189.728,166.400 190.838 M197.738 189.836 C 198.576 190.405,199.346 190.787,199.448 190.685 C 199.638 190.495,196.973 188.800,196.484 188.800 C 196.336 188.800,196.900 189.266,197.738 189.836 M268.800 189.221 C 269.860 189.942,271.600 190.826,271.600 190.643 C 271.600 190.385,268.969 188.799,268.553 188.806 C 268.359 188.809,268.470 188.996,268.800 189.221 M179.700 191.076 C 180.085 191.176,180.715 191.176,181.100 191.076 C 181.485 190.975,181.170 190.893,180.400 190.893 C 179.630 190.893,179.315 190.975,179.700 191.076 M200.800 191.590 C 201.350 192.076,202.385 193.001,203.100 193.646 C 203.815 194.291,204.400 194.675,204.400 194.499 C 204.400 194.121,203.597 193.412,201.400 191.847 C 200.520 191.221,200.250 191.105,200.800 191.590 M251.700 191.076 C 252.085 191.176,252.715 191.176,253.100 191.076 C 253.485 190.975,253.170 190.893,252.400 190.893 C 251.630 190.893,251.315 190.975,251.700 191.076 M272.800 191.650 C 273.350 192.102,274.385 193.001,275.100 193.646 C 275.815 194.291,276.400 194.663,276.400 194.472 C 276.400 194.054,272.594 190.794,272.128 190.813 C 271.948 190.821,272.250 191.197,272.800 191.650 M175.200 191.672 C 174.650 191.902,173.533 192.364,172.717 192.698 C 170.096 193.773,164.376 200.909,165.353 201.886 C 165.476 202.010,165.763 201.591,165.990 200.955 C 167.502 196.714,171.200 193.376,175.986 191.933 C 177.299 191.537,177.793 191.263,177.200 191.260 C 176.650 191.257,175.750 191.442,175.200 191.672 M185.400 192.188 C 186.940 192.704,188.249 193.078,188.309 193.020 C 188.547 192.791,184.241 191.202,183.447 191.225 C 182.981 191.239,183.860 191.673,185.400 192.188 M247.200 191.672 C 246.650 191.902,245.513 192.373,244.674 192.718 C 242.231 193.722,236.414 200.947,237.319 201.852 C 237.414 201.947,238.011 200.993,238.646 199.732 C 240.781 195.490,243.779 193.063,248.400 191.837 C 250.005 191.411,250.275 191.253,249.400 191.253 C 248.740 191.254,247.750 191.442,247.200 191.672 M256.600 191.856 C 257.700 192.171,258.913 192.602,259.295 192.814 C 260.298 193.372,260.750 193.266,259.800 192.696 C 258.572 191.959,256.290 191.208,255.400 191.248 C 254.960 191.267,255.500 191.541,256.600 191.856 M188.800 193.553 C 188.800 193.799,188.962 194.000,189.159 194.000 C 189.933 194.000,193.318 197.454,194.894 199.851 C 195.808 201.241,196.624 202.310,196.708 202.226 C 196.865 202.068,194.928 198.948,194.173 198.144 C 193.938 197.893,193.308 197.170,192.773 196.537 C 191.473 195.000,188.800 192.991,188.800 193.553 M260.800 193.574 C 260.800 193.808,261.004 194.000,261.254 194.000 C 261.943 194.000,266.494 198.831,267.391 200.515 C 267.826 201.332,268.310 202.000,268.467 202.000 C 268.990 202.000,267.639 199.827,265.708 197.561 C 263.701 195.207,260.800 192.850,260.800 193.574 M204.800 195.111 C 204.800 195.358,205.043 195.704,205.340 195.880 C 205.637 196.056,206.560 197.153,207.390 198.317 C 208.220 199.481,209.012 200.312,209.150 200.162 C 209.287 200.013,209.175 199.810,208.900 199.712 C 208.625 199.614,208.400 199.319,208.400 199.058 C 208.400 198.796,207.590 197.700,206.600 196.622 C 205.610 195.544,204.800 194.864,204.800 195.111 M276.802 194.856 C 276.801 194.997,277.436 195.807,278.214 196.656 C 278.991 197.505,279.904 198.712,280.243 199.337 C 280.582 199.963,280.961 200.373,281.085 200.248 C 281.210 200.124,280.798 199.342,280.170 198.511 C 278.737 196.615,276.804 194.517,276.802 194.856 M302.109 216.000 C 302.080 226.450,302.179 235.309,302.328 235.687 C 302.579 236.322,302.536 206.807,302.276 200.000 C 302.213 198.350,302.137 205.550,302.109 216.000 M312.981 214.000 C 312.981 222.250,313.034 225.625,313.099 221.500 C 313.164 217.375,313.164 210.625,313.099 206.500 C 313.034 202.375,312.981 205.750,312.981 214.000 M209.984 202.300 C 211.403 205.294,211.921 206.634,212.344 208.400 C 212.580 209.390,212.861 210.560,212.967 211.000 C 213.072 211.440,213.097 211.080,213.020 210.200 C 212.783 207.456,210.329 200.800,209.555 200.800 C 209.400 200.800,209.593 201.475,209.984 202.300 M282.110 202.430 C 282.589 203.326,283.052 203.845,283.139 203.583 C 283.226 203.322,283.120 202.993,282.903 202.854 C 282.686 202.714,282.381 202.195,282.227 201.700 C 282.072 201.205,281.787 200.800,281.593 200.800 C 281.399 200.800,281.632 201.533,282.110 202.430 M164.622 203.529 C 164.458 204.259,164.422 204.956,164.542 205.076 C 164.843 205.377,165.320 203.356,165.099 202.717 C 165.001 202.433,164.786 202.798,164.622 203.529 M236.849 202.800 C 236.816 203.130,236.689 203.850,236.567 204.400 C 236.375 205.264,236.407 205.303,236.799 204.688 C 237.048 204.297,237.175 203.577,237.081 203.088 C 236.986 202.600,236.882 202.470,236.849 202.800 M268.833 202.625 C 268.815 202.859,269.241 203.939,269.779 205.025 C 270.317 206.111,270.756 206.820,270.754 206.600 C 270.749 206.010,268.872 202.126,268.833 202.625 M196.800 203.005 C 196.800 203.118,196.980 203.523,197.200 203.905 C 197.420 204.287,197.785 205.120,198.011 205.755 C 198.237 206.391,198.512 206.821,198.621 206.712 C 198.850 206.483,197.337 202.800,197.014 202.800 C 196.896 202.800,196.800 202.892,196.800 203.005 M225.551 206.215 C 225.081 207.214,224.785 208.118,224.891 208.225 C 224.998 208.332,225.461 207.515,225.921 206.409 C 226.962 203.905,226.701 203.768,225.551 206.215 M283.216 204.876 C 283.207 205.248,283.380 205.664,283.600 205.800 C 283.820 205.936,284.021 206.442,284.046 206.924 C 284.080 207.564,284.141 207.618,284.271 207.123 C 284.369 206.751,284.176 205.941,283.841 205.323 C 283.434 204.572,283.227 204.424,283.216 204.876 M153.285 206.413 C 153.018 206.840,152.807 207.507,152.816 207.895 C 152.825 208.293,153.088 208.008,153.422 207.239 C 154.090 205.701,154.014 205.245,153.285 206.413 M163.770 208.700 C 163.327 212.650,163.355 218.715,163.831 221.784 C 164.114 223.615,164.200 222.014,164.200 214.884 C 164.200 209.778,164.181 205.600,164.159 205.600 C 164.136 205.600,163.961 206.995,163.770 208.700 M236.004 206.900 C 236.006 207.615,235.793 209.932,235.531 212.048 C 235.021 216.174,235.440 221.097,236.617 224.800 C 236.932 225.790,237.091 226.060,236.970 225.400 C 236.123 220.765,235.948 217.898,236.159 212.100 C 236.289 208.525,236.306 205.600,236.197 205.600 C 236.089 205.600,236.002 206.185,236.004 206.900 M270.836 207.600 C 270.823 207.930,271.071 208.920,271.388 209.800 C 271.705 210.680,271.959 211.040,271.952 210.600 C 271.936 209.623,270.871 206.758,270.836 207.600 M198.839 208.000 C 198.824 208.330,199.071 209.320,199.388 210.200 C 199.843 211.462,199.965 211.589,199.964 210.800 C 199.964 209.711,198.882 207.020,198.839 208.000 M284.640 209.066 C 285.008 210.599,285.200 210.744,285.200 209.490 C 285.200 208.917,285.013 208.332,284.784 208.190 C 284.511 208.021,284.462 208.323,284.640 209.066 M224.200 209.600 C 224.050 210.073,224.017 210.550,224.127 210.660 C 224.237 210.770,224.450 210.473,224.600 210.000 C 224.750 209.527,224.783 209.050,224.673 208.940 C 224.563 208.830,224.350 209.127,224.200 209.600 M151.415 212.081 C 151.260 212.807,151.076 214.480,151.006 215.800 C 150.936 217.120,150.952 217.660,151.042 217.000 C 151.131 216.340,151.409 214.761,151.659 213.490 C 151.909 212.220,152.020 211.086,151.905 210.972 C 151.790 210.857,151.570 211.356,151.415 212.081 M223.386 212.481 C 222.898 214.561,222.993 225.227,223.514 226.800 L 223.978 228.200 223.765 226.800 C 223.221 223.213,223.137 216.182,223.612 213.943 C 224.134 211.485,223.930 210.167,223.386 212.481 M200.080 213.000 C 200.080 213.660,200.224 214.650,200.400 215.200 C 200.711 216.172,200.720 216.167,200.720 215.000 C 200.720 214.340,200.576 213.350,200.400 212.800 C 200.089 211.828,200.080 211.833,200.080 213.000 M272.056 212.800 C 272.056 213.350,272.211 214.160,272.400 214.600 C 272.713 215.329,272.744 215.312,272.744 214.400 C 272.744 213.850,272.589 213.040,272.400 212.600 C 272.087 211.871,272.056 211.888,272.056 212.800 M285.344 215.600 C 285.344 217.690,285.412 218.545,285.494 217.500 C 285.576 216.455,285.576 214.745,285.494 213.700 C 285.412 212.655,285.344 213.510,285.344 215.600 M213.334 215.600 C 213.334 217.250,213.405 217.925,213.491 217.100 C 213.578 216.275,213.578 214.925,213.491 214.100 C 213.405 213.275,213.334 213.950,213.334 215.600 M272.914 219.400 C 272.917 220.500,272.995 220.903,273.087 220.295 C 273.179 219.686,273.177 218.786,273.082 218.295 C 272.987 217.803,272.911 218.300,272.914 219.400 M212.455 222.800 C 212.155 224.450,211.739 226.125,211.529 226.522 C 211.320 226.919,211.220 227.459,211.309 227.722 C 211.397 227.985,211.656 227.570,211.885 226.800 C 212.114 226.030,212.519 224.675,212.786 223.788 C 213.052 222.901,213.209 221.641,213.135 220.988 C 213.040 220.154,212.838 220.694,212.455 222.800 M150.990 223.000 C 151.055 224.320,151.305 226.030,151.546 226.800 C 152.027 228.335,151.998 228.004,151.176 222.600 L 150.872 220.600 150.990 223.000 M284.854 221.600 C 284.819 221.930,284.677 222.650,284.540 223.200 C 284.348 223.972,284.402 224.097,284.777 223.749 C 285.044 223.501,285.185 222.781,285.091 222.149 C 284.997 221.517,284.890 221.270,284.854 221.600 M141.192 223.410 C 140.419 224.341,140.971 224.517,141.798 223.602 C 142.197 223.161,142.338 222.800,142.111 222.800 C 141.884 222.800,141.470 223.074,141.192 223.410 M144.000 223.127 C 144.000 223.361,144.180 223.664,144.400 223.800 C 145.020 224.183,144.877 226.128,143.984 229.458 C 143.536 231.132,143.254 232.587,143.358 232.691 C 143.462 232.796,143.739 232.098,143.974 231.140 C 144.209 230.183,144.580 228.847,144.800 228.172 C 145.397 226.339,145.293 223.775,144.600 223.200 C 144.222 222.886,144.000 222.859,144.000 223.127 M200.233 225.272 C 200.058 226.522,200.000 227.782,200.105 228.072 C 200.369 228.805,200.909 225.146,200.712 223.963 C 200.612 223.363,200.431 223.858,200.233 225.272 M272.233 225.672 C 272.058 226.922,272.000 228.182,272.105 228.472 C 272.369 229.205,272.909 225.546,272.712 224.363 C 272.612 223.763,272.431 224.258,272.233 225.672 M164.428 224.876 C 164.496 226.144,165.142 227.054,165.172 225.924 C 165.187 225.332,165.020 224.736,164.800 224.600 C 164.580 224.464,164.413 224.588,164.428 224.876 M283.942 225.400 C 283.816 226.060,283.586 226.960,283.431 227.400 C 283.276 227.840,283.442 227.695,283.799 227.077 C 284.157 226.459,284.387 225.559,284.310 225.077 C 284.193 224.347,284.132 224.401,283.942 225.400 M139.582 226.300 C 138.688 228.620,138.682 228.651,139.277 227.800 C 140.105 226.615,140.829 224.800,140.472 224.800 C 140.301 224.800,139.900 225.475,139.582 226.300 M237.227 227.047 C 237.187 227.709,238.882 231.651,239.110 231.424 C 239.217 231.316,239.042 230.637,238.720 229.914 C 238.398 229.191,237.937 228.150,237.695 227.600 C 237.452 227.050,237.242 226.801,237.227 227.047 M165.200 227.720 C 165.200 228.006,165.353 228.411,165.540 228.620 C 165.727 228.829,166.182 229.782,166.552 230.738 C 168.120 234.793,172.944 240.629,175.965 242.127 C 178.036 243.154,177.887 242.644,175.749 241.391 C 172.372 239.412,168.275 234.191,166.418 229.500 C 165.505 227.195,165.200 226.749,165.200 227.720 M210.079 230.391 C 209.620 231.496,209.323 232.400,209.420 232.400 C 209.718 232.400,211.315 228.782,211.109 228.575 C 211.002 228.468,210.539 229.285,210.079 230.391 M137.633 230.233 C 137.157 231.040,136.842 231.776,136.934 231.867 C 137.026 231.959,137.490 231.374,137.967 230.567 C 138.443 229.760,138.758 229.024,138.666 228.933 C 138.574 228.841,138.110 229.426,137.633 230.233 M282.432 229.539 C 282.195 229.984,282.000 230.564,282.000 230.829 C 282.000 234.249,271.163 244.673,265.800 246.412 C 264.920 246.697,264.413 247.002,264.673 247.090 C 265.208 247.269,269.728 245.243,269.933 244.732 C 270.007 244.549,270.251 244.400,270.476 244.400 C 271.627 244.400,277.641 238.695,279.542 235.800 C 280.120 234.920,280.692 234.110,280.813 234.000 C 281.337 233.526,283.310 229.177,283.098 228.965 C 282.970 228.837,282.670 229.095,282.432 229.539 M199.664 230.276 C 199.629 230.978,199.420 231.664,199.200 231.800 C 198.980 231.936,198.807 232.442,198.816 232.924 C 198.831 233.724,198.885 233.702,199.440 232.679 C 199.774 232.062,199.976 230.982,199.888 230.279 L 199.728 229.000 199.664 230.276 M271.660 230.676 C 271.627 231.378,271.420 232.064,271.200 232.200 C 270.980 232.336,270.807 232.842,270.816 233.324 C 270.828 234.012,270.961 233.901,271.434 232.811 C 271.765 232.047,271.965 230.967,271.878 230.411 C 271.745 229.559,271.710 229.601,271.660 230.676 M224.802 230.625 C 224.799 231.237,226.423 234.510,226.628 234.306 C 226.722 234.211,226.350 233.249,225.801 232.167 C 225.252 231.085,224.803 230.391,224.802 230.625 M313.245 231.200 C 313.209 232.297,313.873 234.335,314.874 236.201 C 315.627 237.604,317.200 239.134,317.200 238.462 C 317.200 238.208,317.065 237.999,316.900 237.997 C 316.245 237.991,314.564 234.951,313.939 232.643 C 313.565 231.264,313.263 230.636,313.245 231.200 M152.800 231.088 C 152.800 231.572,154.363 234.400,154.631 234.400 C 154.840 234.400,153.950 232.374,153.318 231.411 C 153.033 230.977,152.800 230.832,152.800 231.088 M239.200 232.209 C 239.200 232.432,241.007 235.262,242.000 236.595 C 243.210 238.218,246.858 241.570,248.076 242.178 C 250.000 243.138,249.857 242.627,247.878 241.467 C 245.798 240.248,242.047 236.306,240.572 233.788 C 239.608 232.143,239.200 231.674,239.200 232.209 M133.976 235.122 C 132.532 236.595,130.506 238.234,129.473 238.764 C 128.440 239.294,127.669 239.802,127.759 239.892 C 128.426 240.560,134.206 236.119,136.062 233.512 C 137.214 231.895,136.901 232.137,133.976 235.122 M207.313 235.311 C 201.317 244.396,190.221 249.471,178.061 248.691 C 176.036 248.562,174.932 248.609,175.400 248.807 C 179.982 250.738,192.694 248.108,199.343 243.853 C 202.868 241.598,209.901 233.768,209.111 232.978 C 209.025 232.892,208.216 233.942,207.313 235.311 M142.408 235.869 C 142.153 237.151,141.777 238.851,141.573 239.646 C 141.368 240.442,141.219 241.612,141.242 242.246 C 141.265 242.881,141.533 242.140,141.838 240.600 C 142.143 239.060,142.594 236.934,142.840 235.876 C 143.085 234.818,143.193 233.859,143.079 233.745 C 142.965 233.631,142.663 234.587,142.408 235.869 M197.878 235.600 C 197.628 236.260,197.284 236.800,197.112 236.800 C 196.941 236.800,196.800 237.019,196.800 237.286 C 196.800 237.616,196.968 237.584,197.326 237.186 C 197.956 236.484,198.877 234.400,198.557 234.400 C 198.432 234.400,198.127 234.940,197.878 235.600 M226.828 235.000 C 226.826 235.508,228.362 237.371,228.592 237.141 C 228.687 237.046,228.329 236.436,227.797 235.784 C 227.264 235.133,226.828 234.780,226.828 235.000 M269.201 236.997 C 268.645 238.037,266.508 240.139,264.811 241.315 C 264.267 241.692,263.997 241.995,264.211 241.989 C 265.394 241.955,270.495 236.762,269.915 236.182 C 269.816 236.083,269.495 236.449,269.201 236.997 M156.451 237.498 C 157.461 238.783,160.471 241.969,161.281 242.611 C 163.749 244.565,168.426 247.215,169.356 247.186 C 169.600 247.179,168.561 246.541,167.048 245.770 C 163.429 243.925,159.889 241.167,158.069 238.776 C 157.261 237.714,156.443 236.835,156.251 236.823 C 156.059 236.810,156.149 237.114,156.451 237.498 M77.570 238.238 C 77.036 238.809,76.088 239.542,75.463 239.868 C 74.837 240.193,74.422 240.555,74.539 240.672 C 74.822 240.956,77.813 238.791,78.369 237.900 C 78.989 236.908,78.697 237.032,77.570 238.238 M302.814 237.889 C 302.752 241.723,310.144 249.362,312.865 248.277 C 313.220 248.135,313.159 248.053,312.684 248.032 C 309.484 247.890,305.255 243.743,303.588 239.111 C 303.148 237.888,302.823 237.374,302.814 237.889 M331.400 238.109 C 328.636 239.528,328.441 239.599,327.105 239.660 C 325.876 239.716,325.865 239.730,326.914 239.888 C 328.027 240.056,331.052 239.119,332.644 238.115 C 333.833 237.364,334.800 237.857,334.800 239.214 C 334.800 240.399,333.406 242.106,330.800 244.113 C 330.030 244.706,329.594 245.193,329.832 245.196 C 331.012 245.208,335.200 240.723,335.200 239.446 C 335.200 237.106,334.104 236.720,331.400 238.109 M228.808 237.723 C 228.796 238.213,232.038 241.574,233.400 242.484 C 234.316 243.096,234.234 242.955,233.056 241.887 C 232.206 241.118,230.905 239.794,230.163 238.944 C 229.422 238.095,228.812 237.546,228.808 237.723 M94.088 239.013 C 94.686 239.643,95.247 240.077,95.335 239.979 C 95.423 239.880,94.933 239.365,94.247 238.834 L 93.000 237.869 94.088 239.013 M195.000 239.431 C 194.340 240.175,193.575 240.788,193.300 240.792 C 193.025 240.796,192.800 240.944,192.800 241.120 C 192.800 241.295,192.157 241.672,191.370 241.956 C 190.584 242.241,190.042 242.576,190.168 242.701 C 190.582 243.115,193.896 241.140,195.441 239.558 C 196.278 238.701,196.791 238.017,196.581 238.039 C 196.372 238.060,195.660 238.686,195.000 239.431 M318.176 239.413 C 318.604 239.736,319.324 239.979,319.776 239.954 C 320.580 239.908,320.580 239.903,319.800 239.715 C 319.360 239.609,318.829 239.360,318.620 239.161 C 318.411 238.963,318.051 238.806,317.820 238.813 C 317.589 238.820,317.749 239.090,318.176 239.413 M96.200 240.400 C 96.336 240.620,96.842 240.797,97.324 240.794 C 98.036 240.789,98.088 240.715,97.600 240.400 C 96.812 239.891,95.885 239.891,96.200 240.400 M125.400 240.400 C 125.108 240.873,125.499 240.873,126.600 240.400 C 127.371 240.069,127.369 240.055,126.524 240.028 C 126.042 240.013,125.536 240.180,125.400 240.400 M321.905 240.283 C 322.402 240.379,323.122 240.375,323.505 240.275 C 323.887 240.175,323.480 240.096,322.600 240.101 C 321.720 240.105,321.407 240.187,321.905 240.283 M72.600 241.200 C 72.464 241.420,71.958 241.621,71.476 241.646 C 70.836 241.680,70.782 241.741,71.277 241.871 C 71.649 241.969,72.459 241.776,73.077 241.441 C 73.828 241.034,73.976 240.827,73.524 240.816 C 73.152 240.807,72.736 240.980,72.600 241.200 M105.325 241.099 C 108.804 241.166,114.384 241.166,117.725 241.099 C 121.066 241.032,118.220 240.978,111.400 240.978 C 104.580 240.978,101.846 241.033,105.325 241.099 M68.400 242.400 C 67.903 242.721,67.938 242.788,68.600 242.788 C 69.040 242.788,69.670 242.613,70.000 242.400 C 70.497 242.079,70.462 242.012,69.800 242.012 C 69.360 242.012,68.730 242.187,68.400 242.400 M65.700 243.470 C 65.205 243.815,64.803 244.301,64.806 244.549 C 64.810 244.862,64.905 244.854,65.115 244.523 C 65.282 244.261,65.954 243.767,66.609 243.426 C 67.264 243.084,67.530 242.813,67.200 242.823 C 66.870 242.834,66.195 243.124,65.700 243.470 M179.146 243.381 C 180.834 244.157,185.973 244.157,188.200 243.381 C 189.773 242.833,189.776 242.827,188.400 243.066 C 186.464 243.403,180.456 243.389,179.000 243.046 C 177.827 242.768,177.830 242.776,179.146 243.381 M251.200 243.367 C 253.036 244.117,258.569 244.116,260.400 243.364 L 261.800 242.790 260.400 243.082 C 258.685 243.441,252.641 243.427,251.000 243.062 C 249.917 242.820,249.937 242.850,251.200 243.367 M234.803 243.505 C 234.808 244.086,239.812 246.760,242.600 247.671 C 247.563 249.294,254.734 249.610,260.000 248.438 L 261.800 248.037 259.800 248.216 C 252.888 248.834,250.577 248.875,247.719 248.433 C 243.933 247.846,239.725 246.332,236.900 244.541 C 235.745 243.809,234.801 243.343,234.803 243.505 M140.535 245.959 L 140.069 247.200 126.368 247.200 C 118.832 247.200,112.742 247.268,112.833 247.351 C 112.925 247.435,118.865 247.631,126.034 247.789 L 139.069 248.075 140.179 247.119 C 140.829 246.561,141.230 245.863,141.145 245.441 C 141.036 244.898,140.884 245.027,140.535 245.959 M64.800 246.409 C 64.800 246.638,65.078 246.932,65.417 247.062 C 66.355 247.422,66.466 247.033,65.582 246.481 C 65.087 246.172,64.800 246.146,64.800 246.409 M326.724 246.610 C 326.608 246.725,325.543 247.169,324.357 247.595 C 323.171 248.022,322.560 248.374,323.000 248.377 C 323.858 248.383,327.200 246.984,327.200 246.620 C 327.200 246.342,326.995 246.338,326.724 246.610 M84.326 247.100 C 88.576 247.164,95.416 247.164,99.526 247.099 C 103.637 247.034,100.160 246.981,91.800 246.981 C 83.440 246.982,80.077 247.035,84.326 247.100 M67.639 247.667 C 68.256 247.880,69.963 247.877,71.839 247.661 L 75.000 247.295 70.800 247.301 C 67.806 247.305,66.898 247.410,67.639 247.667 M171.000 247.778 C 171.660 248.100,172.740 248.351,173.400 248.336 C 174.585 248.308,174.583 248.304,173.200 247.989 C 172.430 247.813,171.350 247.562,170.800 247.431 C 169.954 247.228,169.985 247.282,171.000 247.778 M262.400 247.600 C 261.867 247.945,261.867 247.988,262.400 247.988 C 262.730 247.988,263.270 247.813,263.600 247.600 C 264.133 247.255,264.133 247.212,263.600 247.212 C 263.270 247.212,262.730 247.387,262.400 247.600 M314.138 248.894 C 314.392 249.056,316.040 249.188,317.800 249.188 C 319.560 249.188,321.208 249.056,321.462 248.894 C 321.716 248.732,320.068 248.600,317.800 248.600 C 315.532 248.600,313.884 248.732,314.138 248.894 " stroke="none" fill="#525252" fill-rule="evenodd"></path><path id="path4" d="M74.500 151.476 C 74.885 151.576,75.515 151.576,75.900 151.476 C 76.285 151.375,75.970 151.293,75.200 151.293 C 74.430 151.293,74.115 151.375,74.500 151.476 M99.905 151.483 C 100.402 151.579,101.122 151.575,101.505 151.475 C 101.887 151.375,101.480 151.296,100.600 151.301 C 99.720 151.305,99.407 151.387,99.905 151.483 M80.300 151.882 C 80.795 151.978,81.605 151.978,82.100 151.882 C 82.595 151.787,82.190 151.709,81.200 151.709 C 80.210 151.709,79.805 151.787,80.300 151.882 M92.900 151.887 C 93.505 151.978,94.495 151.978,95.100 151.887 C 95.705 151.795,95.210 151.720,94.000 151.720 C 92.790 151.720,92.295 151.795,92.900 151.887 M109.000 153.200 C 109.000 153.818,109.135 154.240,109.300 154.138 C 109.465 154.036,109.600 153.614,109.600 153.200 C 109.600 152.786,109.465 152.364,109.300 152.262 C 109.135 152.160,109.000 152.582,109.000 153.200 M334.493 191.600 C 334.493 192.370,334.575 192.685,334.676 192.300 C 334.776 191.915,334.776 191.285,334.676 190.900 C 334.575 190.515,334.493 190.830,334.493 191.600 M319.280 195.498 C 321.194 195.571,324.434 195.571,326.480 195.498 C 328.526 195.426,326.960 195.366,323.000 195.365 C 319.040 195.365,317.366 195.424,319.280 195.498 M272.893 216.400 C 272.893 217.170,272.975 217.485,273.076 217.100 C 273.176 216.715,273.176 216.085,273.076 215.700 C 272.975 215.315,272.893 215.630,272.893 216.400 M200.931 219.400 C 200.933 220.940,201.005 221.521,201.092 220.691 C 201.179 219.861,201.177 218.601,201.089 217.891 C 201.000 217.181,200.929 217.860,200.931 219.400 M150.901 219.400 C 150.905 220.280,150.987 220.593,151.083 220.095 C 151.179 219.598,151.175 218.878,151.075 218.495 C 150.975 218.113,150.896 218.520,150.901 219.400 M272.901 222.600 C 272.905 223.480,272.987 223.793,273.083 223.295 C 273.179 222.798,273.175 222.078,273.075 221.695 C 272.975 221.313,272.896 221.720,272.901 222.600 M302.493 233.200 C 302.493 233.970,302.575 234.285,302.676 233.900 C 302.776 233.515,302.776 232.885,302.676 232.500 C 302.575 232.115,302.493 232.430,302.493 233.200 M324.705 240.283 C 325.202 240.379,325.922 240.375,326.305 240.275 C 326.687 240.175,326.280 240.096,325.400 240.101 C 324.520 240.105,324.207 240.187,324.705 240.283 M90.100 246.687 C 90.705 246.778,91.695 246.778,92.300 246.687 C 92.905 246.595,92.410 246.520,91.200 246.520 C 89.990 246.520,89.495 246.595,90.100 246.687 M74.900 247.076 C 75.285 247.176,75.915 247.176,76.300 247.076 C 76.685 246.975,76.370 246.893,75.600 246.893 C 74.830 246.893,74.515 246.975,74.900 247.076 M109.317 247.097 C 110.811 247.174,113.151 247.174,114.517 247.096 C 115.882 247.018,114.660 246.955,111.800 246.955 C 108.940 246.956,107.822 247.020,109.317 247.097 " stroke="none" fill="#7c7c7c" fill-rule="evenodd"></path></g></svg>