<svg width="400" height="400" viewBox="0 0 400 400" fill="none" xmlns="http://www.w3.org/2000/svg">
<path d="M200 0C310.417 0 400 89.5833 400 200C400 310.417 310.417 400 200 400C89.5833 400 0 310.417 0 200C0 89.5833 89.5833 0 200 0Z" fill="#70D44B"/>
<path d="M200 81.6667C210.556 81.6667 220.139 87.6389 224.861 97.0833L302.917 253.333C309.722 267.083 304.167 283.75 290.417 290.556C286.528 292.5 282.361 293.472 278.056 293.472H121.944C106.667 293.472 94.1666 280.972 94.1666 265.694C94.1666 261.389 95.1388 257.083 97.0833 253.333L175.139 97.0833C179.861 87.5 189.444 81.5278 200 81.6667ZM200 62.5C182.222 62.5 165.972 72.5 158.056 88.4722L79.9999 244.722C68.4722 267.917 77.7777 295.972 100.972 307.639C107.5 310.833 114.722 312.639 121.944 312.639H278.194C304.028 312.639 325.139 291.667 325.139 265.833C325.139 258.611 323.472 251.389 320.139 244.861L241.944 88.4722C234.028 72.5 217.778 62.5 200 62.5Z" fill="white"/>
</svg>
