<svg width="400" height="401" viewBox="0 0 400 401" fill="none" xmlns="http://www.w3.org/2000/svg">
<path d="M323.353 68.6627H76.3806V293.28H323.353V68.6627Z" fill="white"/>
<path fill-rule="evenodd" clip-rule="evenodd" d="M399.867 200.133C399.867 310.518 310.385 400 200 400C89.6165 400 0.133057 310.518 0.133057 200.133C0.133057 89.7495 89.6165 0.266113 200 0.266113C310.385 0.266113 399.867 89.7495 399.867 200.133ZM143.363 279.67H104.575C96.4242 279.67 92.3981 279.67 89.9433 278.1C87.2918 276.381 85.6716 273.533 85.4752 270.39C85.3277 267.494 87.3411 263.958 91.3671 256.888L187.141 88.0732C191.216 80.9046 193.278 77.3203 195.881 75.9946C198.679 74.5708 202.018 74.5708 204.817 75.9946C207.419 77.3203 209.481 80.9046 213.556 88.0732L233.246 122.443L233.346 122.618C237.747 130.309 239.98 134.209 240.954 138.302C242.034 142.77 242.034 147.483 240.954 151.952C239.972 156.076 237.763 160.004 233.295 167.811L182.987 256.74L182.857 256.968C178.426 264.722 176.181 268.652 173.069 271.617C169.681 274.858 165.606 277.214 161.137 278.542C157.062 279.67 152.496 279.67 143.363 279.67ZM241.317 279.67H296.897C305.097 279.67 309.222 279.67 311.678 278.052C314.329 276.333 315.997 273.434 316.146 270.294C316.287 267.492 314.318 264.093 310.459 257.434C310.326 257.207 310.193 256.976 310.057 256.741L282.217 209.115L281.9 208.579C277.988 201.963 276.013 198.622 273.477 197.331C270.68 195.907 267.388 195.907 264.591 197.331C262.037 198.657 259.975 202.143 255.9 209.164L228.159 256.791L228.064 256.955C224.003 263.965 221.973 267.468 222.12 270.342C222.316 273.485 223.936 276.381 226.587 278.1C228.994 279.67 233.118 279.67 241.317 279.67Z" fill="#E84142"/>
</svg>
