<svg width="400" height="400" viewBox="0 0 400 400" fill="none" xmlns="http://www.w3.org/2000/svg">
<path d="M200 400C310.457 400 400 310.457 400 200C400 89.543 310.457 0 200 0C89.543 0 0 89.543 0 200C0 310.457 89.543 400 200 400Z" fill="#0AC18E"/>
<path d="M262.386 132.843C252.335 110.051 229.239 105.178 200.964 109.898L191.878 74.67L170.457 80.203L179.391 115.33C173.756 116.751 167.97 117.97 162.234 119.594L153.3 84.67L131.878 90.203L140.964 125.431C136.345 126.751 97.7158 136.65 97.7158 136.65L103.604 159.594C103.604 159.594 119.34 155.178 119.188 155.533C127.919 153.249 132.03 157.614 133.959 161.726L158.934 258.274C159.239 261.066 158.731 265.838 152.741 267.462C153.096 267.665 137.157 271.472 137.157 271.472L139.492 298.223C139.492 298.223 177.767 288.426 182.792 287.157L191.98 322.792L213.401 317.259L204.213 281.371C210.102 280 215.838 278.579 221.421 277.107L230.558 312.792L251.98 307.259L242.792 271.675C275.787 263.655 299.086 242.843 294.315 211.015C291.269 191.827 270.305 176.091 252.893 174.315C263.604 164.822 269.036 150.964 262.386 132.843ZM252.081 216.853C256.345 248.376 212.538 252.234 198.071 256.041L185.482 208.883C200 205.076 244.873 189.086 252.081 216.853ZM225.685 152.64C230.203 180.66 192.741 183.909 180.66 187.005L169.188 144.213C181.32 141.218 216.497 126.701 225.685 152.64Z" fill="white"/>
</svg>
