<svg id="svg" version="1.1" xmlns="http://www.w3.org/2000/svg" xmlns:xlink="http://www.w3.org/1999/xlink" width="400" height="400" viewBox="0, 0, 400,400"><rect xmlns="http://www.w3.org/2000/svg" fill="white" x="24" y="12" width="351" height="378"/><g id="svgg"><path id="path0" d="M35.200 130.951 C 35.200 243.565,35.194 243.073,36.537 241.730 C 36.682 241.585,36.800 192.379,36.800 132.382 C 36.800 41.136,36.889 23.224,37.342 22.848 C 37.741 22.517,80.390 22.425,199.642 22.500 L 361.400 22.600 361.602 132.200 C 361.713 192.480,361.848 241.845,361.902 241.900 C 362.233 242.237,363.152 241.901,363.357 241.367 C 363.491 241.019,363.600 191.249,363.600 130.767 L 363.600 20.800 199.400 20.800 L 35.200 20.800 35.200 130.951 M361.905 292.800 C 361.963 309.740,362.152 323.600,362.325 323.600 C 363.558 323.600,363.600 322.570,363.600 292.563 C 363.600 260.966,363.652 262.000,362.067 262.000 C 361.920 262.000,361.847 275.860,361.905 292.800 M35.467 265.467 C 34.883 266.051,35.163 324.800,35.750 324.800 C 36.727 324.800,36.800 322.719,36.800 295.000 C 36.800 265.833,36.727 264.207,35.467 265.467 M35.200 366.400 C 35.200 378.933,35.217 379.200,36.000 379.200 C 36.782 379.200,36.800 378.935,36.795 367.300 C 36.789 354.977,36.684 353.600,35.753 353.600 C 35.294 353.600,35.200 355.769,35.200 366.400 M362.053 371.902 C 361.065 373.747,361.474 379.200,362.600 379.200 C 363.586 379.200,363.600 379.155,363.600 375.876 C 363.600 372.114,362.901 370.317,362.053 371.902 " stroke="none" fill="#545454" fill-rule="evenodd"></path><path id="path1" d="M37.585 131.100 C 37.577 190.445,37.472 239.675,37.352 240.500 L 37.135 242.000 199.167 242.000 L 361.200 242.000 361.200 132.600 L 361.200 23.200 199.400 23.200 L 37.600 23.200 37.585 131.100 M338.000 130.600 L 338.000 216.400 199.400 216.400 L 60.800 216.400 60.800 130.600 L 60.800 44.800 199.400 44.800 L 338.000 44.800 338.000 130.600 M79.614 65.974 C 79.357 66.454,79.200 71.000,79.200 77.974 C 79.200 91.727,78.781 90.800,85.000 90.800 C 88.467 90.800,89.200 90.905,89.200 91.400 C 89.200 91.880,89.800 92.000,92.200 92.000 C 94.933 92.000,95.200 92.071,95.200 92.800 C 95.200 93.443,95.467 93.600,96.557 93.600 C 97.395 93.600,98.003 93.830,98.145 94.200 C 98.271 94.530,98.831 94.800,99.387 94.800 C 99.944 94.800,100.760 95.160,101.200 95.600 C 101.640 96.040,102.360 96.400,102.800 96.400 C 103.240 96.400,103.600 96.651,103.600 96.957 C 103.600 97.569,104.441 98.000,105.633 98.000 C 106.055 98.000,106.400 98.270,106.400 98.600 C 106.400 98.933,106.756 99.200,107.200 99.200 C 107.640 99.200,108.000 99.451,108.000 99.757 C 108.000 100.369,108.841 100.800,110.033 100.800 C 110.455 100.800,110.800 101.070,110.800 101.400 C 110.800 101.730,111.070 102.000,111.400 102.000 C 111.733 102.000,112.000 102.356,112.000 102.800 C 112.000 103.333,112.267 103.600,112.800 103.600 C 113.244 103.600,113.600 103.867,113.600 104.200 C 113.600 104.533,113.956 104.800,114.400 104.800 C 114.933 104.800,115.200 105.067,115.200 105.600 C 115.200 106.044,115.467 106.400,115.800 106.400 C 116.204 106.400,116.400 106.804,116.400 107.637 C 116.400 108.538,116.617 108.932,117.200 109.084 C 117.640 109.199,118.000 109.548,118.000 109.859 C 118.000 110.170,118.270 110.529,118.600 110.655 C 118.930 110.782,119.200 111.212,119.200 111.610 C 119.200 112.762,119.639 113.600,120.243 113.600 C 120.549 113.600,120.800 113.870,120.800 114.200 C 120.800 114.530,121.070 114.800,121.400 114.800 C 121.855 114.800,122.000 115.293,122.000 116.837 C 122.000 118.538,122.132 118.909,122.800 119.084 C 123.401 119.241,123.600 119.630,123.600 120.647 C 123.600 121.467,123.915 122.315,124.400 122.800 C 125.145 123.545,125.200 124.133,125.200 131.353 C 125.200 138.770,125.165 139.116,124.400 139.316 C 123.787 139.476,123.600 139.862,123.600 140.963 C 123.600 141.920,123.415 142.400,123.047 142.400 C 122.446 142.400,122.014 143.584,122.005 145.257 C 122.002 145.839,121.730 146.418,121.400 146.545 C 121.057 146.676,120.800 147.273,120.800 147.941 C 120.800 148.770,120.569 149.167,120.000 149.316 C 119.560 149.431,119.200 149.793,119.200 150.120 C 119.200 150.447,118.930 150.818,118.600 150.945 C 118.270 151.071,118.000 151.451,118.000 151.787 C 118.000 152.133,117.652 152.400,117.200 152.400 C 116.552 152.400,116.400 152.667,116.400 153.800 C 116.400 154.778,116.219 155.200,115.800 155.200 C 115.470 155.200,115.200 155.470,115.200 155.800 C 115.200 156.133,114.844 156.400,114.400 156.400 C 113.867 156.400,113.600 156.667,113.600 157.200 C 113.600 157.733,113.333 158.000,112.800 158.000 C 112.356 158.000,112.000 158.267,112.000 158.600 C 112.000 158.930,111.730 159.200,111.400 159.200 C 111.067 159.200,110.800 159.556,110.800 160.000 C 110.800 160.533,110.533 160.800,110.000 160.800 C 109.560 160.800,109.200 161.056,109.200 161.368 C 109.200 161.681,108.648 162.058,107.973 162.206 C 107.298 162.354,106.649 162.728,106.530 163.038 C 106.412 163.347,106.064 163.600,105.757 163.600 C 105.451 163.600,105.200 163.960,105.200 164.400 C 105.200 165.043,104.933 165.200,103.843 165.200 C 103.005 165.200,102.397 165.430,102.255 165.800 C 102.129 166.130,101.749 166.400,101.413 166.400 C 101.067 166.400,100.800 166.748,100.800 167.200 C 100.800 167.918,100.533 168.000,98.187 168.000 C 96.234 168.000,95.517 168.151,95.345 168.600 C 95.201 168.975,94.590 169.200,93.720 169.200 C 92.668 169.200,92.274 169.394,92.119 169.990 C 91.927 170.724,91.501 170.787,86.067 170.890 C 80.283 170.999,80.217 171.010,79.717 172.000 C 79.072 173.276,78.980 194.441,79.614 195.626 C 80.251 196.817,88.870 196.795,89.893 195.600 C 90.499 194.892,91.073 194.800,94.889 194.800 C 98.454 194.800,99.200 194.696,99.200 194.200 C 99.200 193.739,99.711 193.600,101.400 193.600 C 103.333 193.600,103.600 193.503,103.600 192.800 C 103.600 192.083,103.867 192.000,106.157 192.000 C 108.061 192.000,108.773 191.847,108.945 191.400 C 109.089 191.023,109.701 190.800,110.587 190.800 C 111.733 190.800,112.000 190.649,112.000 190.000 C 112.000 189.352,112.267 189.200,113.400 189.200 C 114.378 189.200,114.800 189.019,114.800 188.600 C 114.800 188.226,115.178 188.000,115.804 188.000 C 116.356 188.000,117.116 187.640,117.493 187.200 C 117.883 186.745,118.673 186.400,119.326 186.400 C 120.138 186.400,120.536 186.166,120.684 185.600 C 120.799 185.160,121.142 184.800,121.447 184.800 C 121.751 184.800,122.000 184.530,122.000 184.200 C 122.000 183.781,122.422 183.600,123.400 183.600 C 124.533 183.600,124.800 183.448,124.800 182.800 C 124.800 182.360,125.061 182.000,125.380 182.000 C 125.699 182.000,126.104 181.761,126.280 181.470 C 126.456 181.178,126.915 180.824,127.300 180.682 C 127.685 180.541,128.000 180.149,128.000 179.813 C 128.000 179.476,128.270 179.200,128.600 179.200 C 128.930 179.200,129.200 178.930,129.200 178.600 C 129.200 178.270,129.487 178.000,129.837 178.000 C 130.188 178.000,130.569 177.640,130.684 177.200 C 130.833 176.631,131.230 176.400,132.059 176.400 C 132.805 176.400,133.318 176.148,133.482 175.700 C 133.624 175.315,133.978 174.856,134.270 174.680 C 134.561 174.504,134.800 174.011,134.800 173.584 C 134.800 173.156,135.160 172.582,135.600 172.307 C 136.040 172.032,136.400 171.581,136.400 171.304 C 136.400 171.027,136.760 170.800,137.200 170.800 C 137.652 170.800,138.000 170.533,138.000 170.187 C 138.000 169.851,138.270 169.471,138.600 169.345 C 138.930 169.218,139.200 168.885,139.200 168.604 C 139.200 168.323,139.560 167.999,140.000 167.884 C 140.613 167.724,140.800 167.338,140.800 166.237 C 140.800 165.361,140.995 164.795,141.300 164.787 C 142.056 164.767,143.600 163.352,143.600 162.679 C 143.600 162.352,143.870 161.982,144.200 161.855 C 144.543 161.724,144.800 161.127,144.800 160.459 C 144.800 159.630,145.031 159.233,145.600 159.084 C 146.268 158.909,146.400 158.538,146.400 156.837 C 146.400 155.067,146.505 154.800,147.200 154.800 C 147.848 154.800,148.000 154.533,148.000 153.400 C 148.000 152.422,148.181 152.000,148.600 152.000 C 149.044 152.000,149.200 151.535,149.200 150.214 C 149.200 148.838,149.383 148.330,150.000 148.000 C 150.682 147.635,150.800 147.162,150.800 144.786 C 150.800 142.576,150.924 142.000,151.400 142.000 C 151.895 142.000,152.000 141.267,152.000 137.800 C 152.000 133.867,152.051 133.600,152.800 133.600 C 153.503 133.600,153.600 133.333,153.600 131.400 C 153.600 129.800,153.750 129.200,154.150 129.200 C 154.758 129.200,155.200 127.512,155.200 125.193 C 155.200 124.222,155.414 123.604,155.800 123.455 C 156.151 123.321,156.400 122.721,156.400 122.013 C 156.400 121.346,156.578 120.800,156.795 120.800 C 157.012 120.800,157.452 120.170,157.774 119.400 C 158.096 118.630,158.548 118.000,158.780 118.000 C 159.011 118.000,159.200 117.634,159.200 117.187 C 159.200 116.741,159.459 116.276,159.776 116.154 C 160.092 116.033,160.466 115.408,160.607 114.767 C 160.748 114.125,161.119 113.600,161.432 113.600 C 161.744 113.600,162.000 113.240,162.000 112.800 C 162.000 112.267,162.267 112.000,162.800 112.000 C 163.244 112.000,163.600 111.733,163.600 111.400 C 163.600 111.070,163.887 110.800,164.237 110.800 C 164.588 110.800,164.969 110.440,165.084 110.000 C 165.257 109.338,165.630 109.200,167.247 109.200 C 168.836 109.200,169.202 109.069,169.212 108.500 C 169.224 107.833,169.244 107.833,169.632 108.500 C 169.924 109.001,170.547 109.200,171.820 109.200 C 173.333 109.200,173.600 109.320,173.600 110.000 C 173.600 110.533,173.867 110.800,174.400 110.800 C 174.844 110.800,175.200 111.067,175.200 111.400 C 175.200 111.730,175.470 112.000,175.800 112.000 C 176.133 112.000,176.400 112.356,176.400 112.800 C 176.400 113.333,176.667 113.600,177.200 113.600 C 177.894 113.600,178.000 113.867,178.000 115.613 C 178.000 117.032,178.177 117.693,178.600 117.855 C 178.930 117.982,179.200 118.515,179.200 119.039 C 179.200 119.564,179.560 120.218,180.000 120.493 C 180.598 120.866,180.800 121.426,180.800 122.709 C 180.800 123.812,181.000 124.502,181.361 124.640 C 181.669 124.759,182.037 125.473,182.179 126.228 C 182.332 127.044,182.672 127.600,183.018 127.600 C 183.457 127.600,183.600 128.142,183.600 129.800 C 183.600 131.733,183.697 132.000,184.400 132.000 C 185.048 132.000,185.200 132.267,185.200 133.400 C 185.200 134.378,185.381 134.800,185.800 134.800 C 186.261 134.800,186.400 135.311,186.400 137.000 C 186.400 138.933,186.497 139.200,187.200 139.200 C 187.848 139.200,188.000 139.467,188.000 140.600 C 188.000 141.578,188.181 142.000,188.600 142.000 C 189.057 142.000,189.200 142.500,189.200 144.104 C 189.200 145.774,189.365 146.310,190.000 146.707 C 190.452 146.990,190.800 147.640,190.800 148.203 C 190.800 148.823,191.027 149.200,191.400 149.200 C 191.831 149.200,192.000 149.641,192.000 150.767 C 192.000 152.722,192.323 153.600,193.043 153.600 C 193.410 153.600,193.600 154.065,193.600 154.967 C 193.600 156.729,193.945 157.600,194.643 157.600 C 195.014 157.600,195.200 158.072,195.200 159.013 C 195.200 159.899,195.423 160.511,195.800 160.655 C 196.130 160.782,196.400 161.136,196.400 161.443 C 196.400 161.749,196.760 162.000,197.200 162.000 C 197.848 162.000,198.000 162.267,198.000 163.400 C 198.000 164.378,198.181 164.800,198.600 164.800 C 199.017 164.800,199.200 165.219,199.200 166.173 C 199.200 167.195,199.405 167.611,200.000 167.800 C 200.440 167.940,200.800 168.312,200.800 168.627 C 200.800 168.942,201.049 169.200,201.353 169.200 C 201.658 169.200,202.001 169.560,202.116 170.000 C 202.231 170.440,202.612 170.800,202.963 170.800 C 203.313 170.800,203.600 171.070,203.600 171.400 C 203.600 171.733,203.956 172.000,204.400 172.000 C 204.933 172.000,205.200 172.267,205.200 172.800 C 205.200 173.244,205.467 173.600,205.800 173.600 C 206.130 173.600,206.400 173.870,206.400 174.200 C 206.400 174.530,206.739 174.800,207.153 174.800 C 207.570 174.800,208.000 175.157,208.116 175.600 C 208.269 176.185,208.662 176.400,209.579 176.400 C 210.281 176.400,211.212 176.753,211.692 177.200 C 212.164 177.640,212.768 178.000,213.033 178.000 C 213.298 178.000,213.618 178.270,213.745 178.600 C 213.906 179.021,214.562 179.200,215.941 179.200 C 217.570 179.200,217.942 179.337,218.116 180.000 C 218.441 181.244,237.556 181.244,238.800 180.000 C 239.335 179.465,240.133 179.200,241.213 179.200 C 242.239 179.200,242.905 178.993,243.044 178.630 C 243.164 178.316,243.969 177.940,244.831 177.795 C 245.791 177.633,246.400 177.310,246.400 176.965 C 246.400 176.586,246.861 176.400,247.800 176.400 C 248.933 176.400,249.200 176.248,249.200 175.600 C 249.200 175.067,249.467 174.800,250.000 174.800 C 250.440 174.800,250.800 174.550,250.800 174.243 C 250.800 173.937,251.269 173.569,251.842 173.425 C 252.500 173.260,253.047 172.729,253.329 171.982 C 253.582 171.312,254.070 170.800,254.455 170.800 C 255.803 170.800,256.400 170.310,256.400 169.204 C 256.400 168.413,256.641 168.030,257.239 167.874 C 258.321 167.591,259.200 167.936,259.200 168.643 C 259.200 168.949,259.560 169.200,260.000 169.200 C 260.533 169.200,260.800 169.467,260.800 170.000 C 260.800 170.440,261.050 170.800,261.355 170.800 C 261.674 170.800,262.023 171.398,262.174 172.200 C 262.319 172.978,262.676 173.600,262.975 173.600 C 263.272 173.600,263.618 173.870,263.745 174.200 C 263.871 174.530,264.251 174.800,264.587 174.800 C 264.924 174.800,265.200 175.052,265.200 175.361 C 265.200 175.669,265.742 176.111,266.405 176.342 C 267.068 176.573,267.717 177.041,267.848 177.381 C 267.979 177.721,268.336 178.000,268.643 178.000 C 268.949 178.000,269.200 178.172,269.200 178.382 C 269.200 178.854,271.111 180.800,271.575 180.800 C 271.762 180.800,272.018 181.070,272.145 181.400 C 272.271 181.730,272.607 182.000,272.891 182.000 C 273.175 182.000,273.632 182.360,273.907 182.800 C 274.190 183.252,274.840 183.600,275.403 183.600 C 276.023 183.600,276.400 183.827,276.400 184.200 C 276.400 184.533,276.756 184.800,277.200 184.800 C 277.733 184.800,278.000 185.067,278.000 185.600 C 278.000 186.248,278.267 186.400,279.400 186.400 C 280.330 186.400,280.800 186.587,280.800 186.957 C 280.800 187.569,281.641 188.000,282.833 188.000 C 283.255 188.000,283.600 188.270,283.600 188.600 C 283.600 189.015,284.017 189.200,284.953 189.200 C 285.970 189.200,286.359 189.399,286.516 190.000 C 286.691 190.668,287.062 190.800,288.763 190.800 C 290.307 190.800,290.800 190.945,290.800 191.400 C 290.800 191.800,291.200 192.000,292.000 192.000 C 292.667 192.000,293.556 192.356,294.000 192.800 C 294.533 193.333,295.333 193.600,296.400 193.600 C 297.556 193.600,298.000 193.767,298.000 194.200 C 298.000 194.695,298.728 194.800,302.153 194.800 C 305.970 194.800,306.324 194.865,306.516 195.600 C 306.838 196.833,314.800 196.833,314.800 195.600 C 314.800 194.933,315.067 194.800,316.406 194.800 L 318.012 194.800 317.906 182.900 L 317.800 171.000 312.944 170.888 C 308.498 170.786,308.070 170.709,307.881 169.988 C 307.710 169.334,307.328 169.200,305.637 169.200 C 304.093 169.200,303.600 169.055,303.600 168.600 C 303.600 168.139,303.089 168.000,301.400 168.000 C 299.467 168.000,299.200 167.903,299.200 167.200 C 299.200 166.552,298.933 166.400,297.800 166.400 C 296.822 166.400,296.400 166.219,296.400 165.800 C 296.400 165.381,295.978 165.200,295.000 165.200 C 293.867 165.200,293.600 165.048,293.600 164.400 C 293.600 163.867,293.333 163.600,292.800 163.600 C 292.360 163.600,292.000 163.338,292.000 163.018 C 292.000 162.670,291.438 162.331,290.600 162.174 C 289.798 162.023,289.200 161.674,289.200 161.355 C 289.200 161.050,288.930 160.800,288.600 160.800 C 288.270 160.800,288.000 160.513,288.000 160.163 C 288.000 159.812,287.640 159.431,287.200 159.316 C 286.760 159.201,286.400 158.858,286.400 158.553 C 286.400 158.249,286.040 158.000,285.600 158.000 C 285.067 158.000,284.800 157.733,284.800 157.200 C 284.800 156.756,284.533 156.400,284.200 156.400 C 283.870 156.400,283.600 156.130,283.600 155.800 C 283.600 155.467,283.244 155.200,282.800 155.200 C 282.152 155.200,282.000 154.933,282.000 153.800 C 282.000 152.875,281.812 152.400,281.447 152.400 C 281.142 152.400,280.799 152.040,280.684 151.600 C 280.569 151.160,280.188 150.800,279.837 150.800 C 279.467 150.800,279.200 150.465,279.200 150.000 C 279.200 149.556,278.933 149.200,278.600 149.200 C 278.202 149.200,278.000 148.802,278.000 148.014 C 278.000 147.238,277.724 146.680,277.200 146.400 C 276.676 146.120,276.400 145.562,276.400 144.786 C 276.400 143.867,276.220 143.600,275.600 143.600 C 274.882 143.600,274.800 143.333,274.800 140.987 C 274.800 139.034,274.649 138.317,274.200 138.145 C 273.697 137.952,273.600 136.733,273.600 130.606 C 273.600 124.598,273.707 123.209,274.200 122.800 C 274.533 122.524,274.800 121.652,274.800 120.840 C 274.800 119.873,275.071 119.146,275.600 118.693 C 276.040 118.316,276.400 117.655,276.400 117.224 C 276.400 116.793,276.689 116.278,277.042 116.080 C 277.429 115.864,277.768 114.980,277.894 113.860 C 278.030 112.654,278.297 112.000,278.652 112.000 C 278.953 112.000,279.200 111.826,279.200 111.613 C 279.200 111.401,279.830 110.597,280.600 109.827 C 281.463 108.964,282.000 108.038,282.000 107.413 C 282.000 106.667,282.211 106.400,282.800 106.400 C 283.333 106.400,283.600 106.133,283.600 105.600 C 283.600 105.156,283.867 104.800,284.200 104.800 C 284.530 104.800,284.800 104.530,284.800 104.200 C 284.800 103.867,285.156 103.600,285.600 103.600 C 286.133 103.600,286.400 103.333,286.400 102.800 C 286.400 102.267,286.667 102.000,287.200 102.000 C 287.644 102.000,288.000 101.733,288.000 101.400 C 288.000 101.070,288.270 100.800,288.600 100.800 C 288.933 100.800,289.200 100.444,289.200 100.000 C 289.200 99.352,289.467 99.200,290.600 99.200 C 291.528 99.200,292.000 99.013,292.000 98.645 C 292.000 98.326,292.598 97.977,293.400 97.826 C 294.238 97.669,294.800 97.330,294.800 96.982 C 294.800 96.662,295.160 96.400,295.600 96.400 C 296.133 96.400,296.400 96.133,296.400 95.600 C 296.400 94.952,296.667 94.800,297.800 94.800 C 298.778 94.800,299.200 94.619,299.200 94.200 C 299.200 93.739,299.711 93.600,301.400 93.600 C 303.333 93.600,303.600 93.503,303.600 92.800 C 303.600 92.076,303.867 92.000,306.400 92.000 C 308.622 92.000,309.200 91.876,309.200 91.400 C 309.200 90.905,309.929 90.800,313.357 90.800 C 318.496 90.800,318.000 92.234,318.000 77.367 L 318.000 65.200 312.387 65.200 C 307.768 65.200,306.734 65.306,306.545 65.800 C 306.375 66.242,305.669 66.401,303.857 66.405 C 300.853 66.412,299.600 66.719,299.600 67.447 C 299.600 67.848,299.018 68.000,297.476 68.000 C 296.229 68.000,295.033 68.242,294.576 68.587 C 294.149 68.910,293.198 69.180,292.463 69.187 C 291.468 69.197,291.072 69.405,290.916 70.000 C 290.739 70.675,290.370 70.800,288.553 70.800 C 286.906 70.800,286.400 70.941,286.400 71.400 C 286.400 71.730,286.055 72.000,285.633 72.000 C 284.441 72.000,283.600 72.431,283.600 73.043 C 283.600 73.413,283.130 73.600,282.200 73.600 C 281.067 73.600,280.800 73.752,280.800 74.400 C 280.800 75.048,280.533 75.200,279.400 75.200 C 278.422 75.200,278.000 75.381,278.000 75.800 C 278.000 76.133,277.644 76.400,277.200 76.400 C 276.667 76.400,276.400 76.667,276.400 77.200 C 276.400 77.644,276.133 78.000,275.800 78.000 C 275.470 78.000,275.200 78.270,275.200 78.600 C 275.200 79.022,274.774 79.200,273.763 79.200 C 272.662 79.200,272.276 79.387,272.116 80.000 C 272.001 80.440,271.658 80.800,271.353 80.800 C 271.049 80.800,270.800 81.070,270.800 81.400 C 270.800 81.730,270.536 82.000,270.214 82.000 C 269.892 82.000,269.435 82.360,269.200 82.800 C 268.965 83.240,268.425 83.600,268.000 83.600 C 267.575 83.600,267.035 83.960,266.800 84.400 C 266.565 84.840,266.108 85.200,265.786 85.200 C 265.464 85.200,265.200 85.470,265.200 85.800 C 265.200 86.130,264.926 86.400,264.590 86.400 C 264.255 86.400,263.823 86.812,263.632 87.316 C 263.440 87.820,262.995 88.473,262.642 88.765 C 262.289 89.058,262.000 89.636,262.000 90.049 C 262.000 90.462,261.730 90.800,261.400 90.800 C 261.070 90.800,260.800 91.070,260.800 91.400 C 260.800 91.730,260.513 92.000,260.163 92.000 C 259.812 92.000,259.434 92.348,259.323 92.772 C 259.212 93.197,258.869 93.641,258.561 93.760 C 258.252 93.878,258.000 94.251,258.000 94.587 C 258.000 94.924,257.738 95.200,257.418 95.200 C 257.070 95.200,256.731 95.762,256.574 96.600 C 256.423 97.402,256.074 98.000,255.755 98.000 C 255.387 98.000,255.200 98.472,255.200 99.400 C 255.200 100.533,255.048 100.800,254.400 100.800 C 253.867 100.800,253.600 101.067,253.600 101.600 C 253.600 102.040,253.338 102.400,253.018 102.400 C 252.670 102.400,252.331 102.962,252.174 103.800 C 252.023 104.602,251.674 105.200,251.355 105.200 C 250.957 105.200,250.800 105.753,250.800 107.153 C 250.800 108.770,250.662 109.143,250.000 109.316 C 249.387 109.476,249.200 109.862,249.200 110.963 C 249.200 111.974,249.022 112.400,248.600 112.400 C 248.150 112.400,248.000 112.879,248.000 114.311 C 248.000 115.727,247.793 116.400,247.200 116.907 C 246.583 117.435,246.400 118.087,246.400 119.753 C 246.400 121.305,246.231 121.979,245.800 122.145 C 245.319 122.329,245.200 123.212,245.200 126.587 C 245.200 130.533,245.149 130.800,244.400 130.800 C 243.697 130.800,243.600 131.067,243.600 133.000 C 243.600 134.606,243.451 135.200,243.047 135.200 C 242.439 135.200,242.014 136.388,242.005 138.113 C 242.002 138.728,241.732 139.328,241.400 139.455 C 240.947 139.629,240.800 140.361,240.800 142.443 C 240.800 144.933,240.723 145.200,240.000 145.200 C 239.482 145.200,239.200 145.467,239.200 145.957 C 239.200 146.374,238.930 146.818,238.600 146.945 C 238.270 147.071,238.000 147.610,238.000 148.141 C 238.000 148.770,237.721 149.180,237.200 149.316 C 236.760 149.431,236.400 149.812,236.400 150.163 C 236.400 150.885,235.271 152.134,234.269 152.518 C 233.901 152.659,233.600 152.961,233.600 153.187 C 233.600 153.414,233.313 153.600,232.963 153.600 C 232.612 153.600,232.231 153.960,232.116 154.400 C 231.959 155.001,231.570 155.200,230.553 155.200 C 229.467 155.200,229.200 155.042,229.200 154.400 C 229.200 153.752,228.933 153.600,227.800 153.600 C 226.667 153.600,226.400 153.448,226.400 152.800 C 226.400 152.267,226.133 152.000,225.600 152.000 C 225.011 152.000,224.800 151.733,224.800 150.987 C 224.800 150.431,224.530 149.871,224.200 149.745 C 223.870 149.618,223.600 149.174,223.600 148.757 C 223.600 148.267,223.318 148.000,222.800 148.000 C 222.152 148.000,222.000 147.733,222.000 146.600 C 222.000 145.622,221.819 145.200,221.400 145.200 C 221.002 145.200,220.800 144.802,220.800 144.014 C 220.800 143.238,220.524 142.680,220.000 142.400 C 219.473 142.118,219.200 141.562,219.200 140.773 C 219.200 140.100,218.948 139.478,218.624 139.354 C 218.308 139.233,217.931 138.596,217.787 137.940 C 217.643 137.283,217.272 136.649,216.962 136.530 C 216.583 136.385,216.400 135.664,216.400 134.320 C 216.400 132.662,216.265 132.290,215.600 132.116 C 214.999 131.959,214.800 131.570,214.800 130.553 C 214.800 129.617,214.615 129.200,214.200 129.200 C 213.813 129.200,213.598 128.809,213.595 128.100 C 213.586 126.387,213.160 125.200,212.553 125.200 C 212.187 125.200,212.000 124.723,212.000 123.787 C 212.000 122.901,211.777 122.289,211.400 122.145 C 210.990 121.987,210.800 121.346,210.800 120.120 C 210.800 118.662,210.650 118.286,210.000 118.116 C 209.399 117.959,209.200 117.570,209.200 116.553 C 209.200 115.617,209.015 115.200,208.600 115.200 C 208.178 115.200,208.000 114.774,208.000 113.763 C 208.000 112.662,207.813 112.276,207.200 112.116 C 206.538 111.943,206.400 111.570,206.400 109.953 C 206.400 108.267,206.291 108.000,205.600 108.000 C 204.952 108.000,204.800 107.733,204.800 106.600 C 204.800 105.622,204.619 105.200,204.200 105.200 C 203.870 105.200,203.600 104.855,203.600 104.433 C 203.600 103.241,203.169 102.400,202.557 102.400 C 202.251 102.400,202.000 102.040,202.000 101.600 C 202.000 101.156,201.733 100.800,201.400 100.800 C 200.981 100.800,200.800 100.378,200.800 99.400 C 200.800 98.267,200.648 98.000,200.000 98.000 C 199.482 98.000,199.200 97.733,199.200 97.243 C 199.200 96.826,198.930 96.382,198.600 96.255 C 198.270 96.129,198.000 95.553,198.000 94.975 C 198.000 94.262,197.744 93.858,197.200 93.716 C 196.757 93.600,196.400 93.170,196.400 92.753 C 196.400 92.339,196.130 92.000,195.800 92.000 C 195.470 92.000,195.200 91.730,195.200 91.400 C 195.200 91.067,194.844 90.800,194.400 90.800 C 193.867 90.800,193.600 90.533,193.600 90.000 C 193.600 89.467,193.333 89.200,192.800 89.200 C 192.356 89.200,192.000 88.933,192.000 88.600 C 192.000 88.270,191.730 88.000,191.400 88.000 C 191.067 88.000,190.800 87.644,190.800 87.200 C 190.800 86.667,190.533 86.400,190.000 86.400 C 189.556 86.400,189.200 86.133,189.200 85.800 C 189.200 85.385,188.783 85.200,187.847 85.200 C 186.830 85.200,186.441 85.001,186.284 84.400 C 186.139 83.846,185.738 83.600,184.982 83.600 C 184.380 83.600,183.665 83.295,183.392 82.922 C 183.040 82.440,182.133 82.195,180.248 82.075 C 178.341 81.954,177.600 81.752,177.600 81.353 C 177.600 80.495,162.474 80.541,162.145 81.400 C 161.986 81.813,161.335 82.002,160.057 82.005 C 157.629 82.013,156.400 82.362,156.400 83.047 C 156.400 83.412,155.925 83.600,155.000 83.600 C 153.867 83.600,153.600 83.752,153.600 84.400 C 153.600 85.048,153.333 85.200,152.200 85.200 C 151.222 85.200,150.800 85.381,150.800 85.800 C 150.800 86.133,150.444 86.400,150.000 86.400 C 149.467 86.400,149.200 86.667,149.200 87.200 C 149.200 87.644,148.933 88.000,148.600 88.000 C 148.270 88.000,148.000 88.270,148.000 88.600 C 148.000 88.933,147.644 89.200,147.200 89.200 C 146.667 89.200,146.400 89.467,146.400 90.000 C 146.400 90.444,146.133 90.800,145.800 90.800 C 145.470 90.800,145.200 91.049,145.200 91.353 C 145.200 91.658,144.840 92.001,144.400 92.116 C 143.960 92.231,143.600 92.591,143.600 92.916 C 143.600 93.241,143.240 93.601,142.800 93.716 C 142.360 93.831,142.000 94.193,142.000 94.520 C 142.000 94.847,141.730 95.218,141.400 95.345 C 140.967 95.511,140.800 95.301,140.800 94.587 C 140.800 93.867,140.584 93.600,140.000 93.600 C 139.467 93.600,139.200 93.333,139.200 92.800 C 139.200 92.356,138.933 92.000,138.600 92.000 C 138.270 92.000,138.000 91.730,138.000 91.400 C 138.000 91.067,137.644 90.800,137.200 90.800 C 136.667 90.800,136.400 90.533,136.400 90.000 C 136.400 89.467,136.133 89.200,135.600 89.200 C 134.976 89.200,134.800 88.933,134.800 87.987 C 134.800 87.279,134.551 86.679,134.200 86.545 C 133.870 86.418,133.600 86.064,133.600 85.757 C 133.600 85.387,133.130 85.200,132.200 85.200 C 131.067 85.200,130.800 85.048,130.800 84.400 C 130.800 83.867,130.533 83.600,130.000 83.600 C 129.467 83.600,129.200 83.333,129.200 82.800 C 129.200 82.356,128.933 82.000,128.600 82.000 C 128.270 82.000,128.000 81.730,128.000 81.400 C 128.000 81.067,127.644 80.800,127.200 80.800 C 126.760 80.800,126.400 80.542,126.400 80.227 C 126.400 79.912,126.057 79.545,125.637 79.412 C 125.217 79.279,124.773 78.906,124.650 78.585 C 124.521 78.250,123.907 78.000,123.213 78.000 C 122.267 78.000,122.000 77.824,122.000 77.200 C 122.000 76.552,121.733 76.400,120.600 76.400 C 119.622 76.400,119.200 76.219,119.200 75.800 C 119.200 75.467,118.844 75.200,118.400 75.200 C 117.867 75.200,117.600 74.933,117.600 74.400 C 117.600 73.778,117.333 73.600,116.400 73.600 C 115.733 73.600,114.844 73.244,114.400 72.800 C 113.960 72.360,113.240 72.000,112.800 72.000 C 112.356 72.000,112.000 71.733,112.000 71.400 C 112.000 70.941,111.494 70.800,109.847 70.800 C 108.030 70.800,107.661 70.675,107.484 70.000 C 107.313 69.346,106.938 69.200,105.437 69.200 C 104.071 69.200,103.600 69.046,103.600 68.600 C 103.600 68.129,103.046 68.000,101.014 68.000 C 98.838 68.000,98.360 67.873,98.000 67.200 C 97.623 66.496,97.162 66.400,94.173 66.400 C 91.521 66.400,90.724 66.268,90.545 65.800 C 90.151 64.773,80.172 64.932,79.614 65.974 M38.000 262.800 C 38.000 263.333,37.733 263.600,37.200 263.600 C 36.259 263.600,36.245 263.840,37.008 267.000 C 37.863 270.543,37.846 321.420,36.988 323.800 C 36.216 325.944,36.253 326.400,37.200 326.400 C 37.640 326.400,38.000 326.667,38.000 326.992 C 38.000 327.984,39.133 328.033,59.132 327.915 C 77.005 327.809,78.504 327.747,78.977 327.100 C 79.276 326.691,80.010 326.400,80.744 326.400 C 81.733 326.400,82.000 326.230,82.000 325.600 C 82.000 324.952,82.267 324.800,83.400 324.800 C 84.378 324.800,84.800 324.619,84.800 324.200 C 84.800 323.867,85.156 323.600,85.600 323.600 C 86.133 323.600,86.400 323.333,86.400 322.800 C 86.400 322.360,86.604 322.000,86.854 322.000 C 87.628 322.000,89.200 320.008,89.200 319.026 C 89.200 318.430,89.489 318.018,90.000 317.884 C 90.533 317.745,90.800 317.338,90.800 316.666 C 90.800 316.111,91.070 315.387,91.400 315.057 C 92.259 314.198,92.294 299.798,91.438 299.470 C 91.128 299.351,90.761 298.732,90.621 298.094 C 90.480 297.455,89.873 296.510,89.270 295.993 L 88.175 295.052 89.487 293.739 C 90.250 292.977,90.800 292.020,90.800 291.456 C 90.800 290.922,91.070 290.382,91.400 290.255 C 91.903 290.062,92.000 288.832,92.000 282.613 C 92.000 276.290,91.912 275.200,91.400 275.200 C 90.978 275.200,90.800 274.774,90.800 273.763 C 90.800 272.662,90.613 272.276,90.000 272.116 C 89.560 272.001,89.200 271.658,89.200 271.353 C 89.200 271.049,88.930 270.800,88.600 270.800 C 88.196 270.800,88.000 270.396,88.000 269.563 C 88.000 268.662,87.783 268.268,87.200 268.116 C 86.757 268.000,86.400 267.570,86.400 267.153 C 86.400 266.559,86.104 266.400,85.000 266.400 C 84.022 266.400,83.600 266.219,83.600 265.800 C 83.600 265.467,83.244 265.200,82.800 265.200 C 82.267 265.200,82.000 264.933,82.000 264.400 C 82.000 263.758,81.733 263.600,80.647 263.600 C 79.630 263.600,79.241 263.401,79.084 262.800 C 78.878 262.013,78.538 262.000,58.437 262.000 C 38.267 262.000,38.000 262.010,38.000 262.800 M112.000 262.800 C 111.720 263.324,111.162 263.600,110.386 263.600 C 109.467 263.600,109.200 263.780,109.200 264.400 C 109.200 265.048,108.933 265.200,107.800 265.200 C 106.822 265.200,106.400 265.381,106.400 265.800 C 106.400 266.130,106.130 266.400,105.800 266.400 C 105.467 266.400,105.200 266.756,105.200 267.200 C 105.200 267.733,104.933 268.000,104.400 268.000 C 103.956 268.000,103.600 268.267,103.600 268.600 C 103.600 268.930,103.313 269.200,102.963 269.200 C 102.612 269.200,102.231 269.560,102.116 270.000 C 102.001 270.440,101.658 270.800,101.353 270.800 C 100.949 270.800,100.800 271.394,100.800 273.000 C 100.800 274.933,100.703 275.200,100.000 275.200 C 99.297 275.200,99.200 275.467,99.200 277.400 C 99.200 279.089,99.061 279.600,98.600 279.600 C 98.077 279.600,98.000 281.557,98.000 294.813 C 98.000 307.966,98.081 310.056,98.600 310.255 C 99.031 310.421,99.200 311.094,99.200 312.643 C 99.200 314.533,99.299 314.800,100.000 314.800 C 100.703 314.800,100.800 315.067,100.800 317.000 C 100.800 318.606,100.949 319.200,101.353 319.200 C 101.658 319.200,102.001 319.560,102.116 320.000 C 102.231 320.440,102.612 320.800,102.963 320.800 C 103.313 320.800,103.600 321.070,103.600 321.400 C 103.600 321.733,103.956 322.000,104.400 322.000 C 104.933 322.000,105.200 322.267,105.200 322.800 C 105.200 323.244,105.467 323.600,105.800 323.600 C 106.130 323.600,106.400 323.870,106.400 324.200 C 106.400 324.597,106.797 324.800,107.573 324.800 C 108.395 324.800,108.822 325.040,109.000 325.600 C 109.184 326.181,109.605 326.400,110.538 326.400 C 111.327 326.400,112.086 326.708,112.507 327.200 C 113.172 327.977,113.687 328.000,130.193 328.000 C 146.760 328.000,147.206 327.980,147.693 327.200 C 148.048 326.631,148.626 326.400,149.693 326.400 C 150.760 326.400,151.337 326.169,151.693 325.600 C 151.968 325.160,152.509 324.800,152.896 324.800 C 153.283 324.800,153.600 324.530,153.600 324.200 C 153.600 323.867,153.956 323.600,154.400 323.600 C 154.933 323.600,155.200 323.333,155.200 322.800 C 155.200 322.356,155.467 322.000,155.800 322.000 C 156.130 322.000,156.400 321.730,156.400 321.400 C 156.400 321.070,156.732 320.800,157.138 320.800 C 158.106 320.800,159.200 319.563,159.200 318.469 C 159.200 317.991,159.449 317.600,159.753 317.600 C 160.441 317.600,160.787 316.369,160.795 313.900 C 160.799 312.480,160.952 312.000,161.400 312.000 C 161.924 312.000,162.000 309.844,162.000 295.000 C 162.000 280.156,161.924 278.000,161.400 278.000 C 160.952 278.000,160.799 277.520,160.795 276.100 C 160.787 273.631,160.441 272.400,159.753 272.400 C 159.449 272.400,159.200 272.040,159.200 271.600 C 159.200 271.160,158.951 270.800,158.647 270.800 C 158.342 270.800,157.999 270.440,157.884 270.000 C 157.769 269.560,157.388 269.200,157.037 269.200 C 156.687 269.200,156.400 268.930,156.400 268.600 C 156.400 268.270,156.151 268.000,155.847 268.000 C 155.542 268.000,155.199 267.640,155.084 267.200 C 154.969 266.760,154.588 266.400,154.237 266.400 C 153.887 266.400,153.600 266.130,153.600 265.800 C 153.600 265.470,153.330 265.200,153.000 265.200 C 152.670 265.200,152.040 264.840,151.600 264.400 C 151.160 263.960,150.440 263.600,150.000 263.600 C 149.560 263.600,149.200 263.351,149.200 263.047 C 149.200 261.618,112.762 261.377,112.000 262.800 M181.300 262.265 C 181.025 262.376,180.800 262.722,180.800 263.033 C 180.800 263.414,180.341 263.600,179.400 263.600 C 178.267 263.600,178.000 263.752,178.000 264.400 C 178.000 264.933,177.733 265.200,177.200 265.200 C 176.756 265.200,176.400 265.467,176.400 265.800 C 176.400 266.219,175.978 266.400,175.000 266.400 C 173.709 266.400,173.600 266.494,173.600 267.610 C 173.600 268.544,173.364 268.910,172.564 269.214 C 171.983 269.435,171.329 270.134,171.076 270.805 C 170.827 271.463,170.303 272.104,169.912 272.228 C 169.412 272.387,169.200 272.862,169.200 273.827 C 169.200 274.781,169.017 275.200,168.600 275.200 C 168.090 275.200,168.000 276.244,168.000 282.200 C 168.000 288.156,168.090 289.200,168.600 289.200 C 169.019 289.200,169.200 289.622,169.200 290.600 C 169.200 291.733,169.352 292.000,170.000 292.000 C 170.648 292.000,170.800 292.267,170.800 293.400 C 170.800 294.325,170.988 294.800,171.353 294.800 C 171.658 294.800,172.001 295.160,172.116 295.600 C 172.231 296.040,172.612 296.400,172.963 296.400 C 173.333 296.400,173.600 296.735,173.600 297.200 C 173.600 297.733,173.867 298.000,174.400 298.000 C 174.844 298.000,175.200 298.267,175.200 298.600 C 175.200 299.019,175.622 299.200,176.600 299.200 C 177.733 299.200,178.000 299.352,178.000 300.000 C 178.000 300.461,178.267 300.800,178.629 300.800 C 178.974 300.800,179.527 301.070,179.857 301.400 C 180.367 301.910,182.532 302.000,194.332 302.000 C 207.774 302.000,208.223 302.025,208.707 302.800 C 208.982 303.240,209.565 303.600,210.003 303.600 C 210.445 303.600,210.800 303.868,210.800 304.200 C 210.800 304.533,211.156 304.800,211.600 304.800 C 212.133 304.800,212.400 305.067,212.400 305.600 C 212.400 306.044,212.667 306.400,213.000 306.400 C 213.985 306.400,213.803 309.053,212.800 309.316 C 212.360 309.431,212.000 309.812,212.000 310.163 C 212.000 310.513,211.730 310.800,211.400 310.800 C 211.070 310.800,210.800 311.068,210.800 311.396 C 210.800 311.916,208.131 312.006,190.100 312.096 L 169.400 312.200 169.292 320.100 L 169.183 328.000 191.829 328.000 C 214.138 328.000,214.478 327.988,214.684 327.200 C 214.853 326.554,215.230 326.400,216.643 326.400 C 217.960 326.400,218.517 326.202,218.893 325.600 C 219.168 325.160,219.709 324.800,220.096 324.800 C 220.483 324.800,220.800 324.530,220.800 324.200 C 220.800 323.870,221.070 323.600,221.400 323.600 C 221.733 323.600,222.000 323.244,222.000 322.800 C 222.000 322.267,222.267 322.000,222.800 322.000 C 223.244 322.000,223.600 321.733,223.600 321.400 C 223.600 321.070,223.870 320.800,224.200 320.800 C 225.282 320.800,226.400 319.276,226.400 317.800 C 226.400 316.870,226.587 316.400,226.957 316.400 C 227.677 316.400,228.000 315.522,228.000 313.567 C 228.000 312.441,228.169 312.000,228.600 312.000 C 229.097 312.000,229.200 311.248,229.200 307.629 C 229.200 304.276,229.060 303.117,228.600 302.657 C 228.270 302.327,228.000 301.487,228.000 300.791 C 228.000 299.862,227.787 299.470,227.200 299.316 C 226.599 299.159,226.400 298.770,226.400 297.753 C 226.400 296.681,226.239 296.400,225.625 296.400 C 225.046 296.400,224.819 296.076,224.725 295.116 C 224.629 294.124,224.372 293.778,223.600 293.599 C 223.049 293.471,222.363 292.873,222.071 292.267 C 221.739 291.579,221.116 291.083,220.406 290.941 C 219.754 290.811,219.187 290.392,219.073 289.957 C 218.932 289.420,218.515 289.200,217.637 289.200 C 216.804 289.200,216.400 289.004,216.400 288.600 C 216.400 288.141,215.894 288.000,214.247 288.000 C 212.430 288.000,212.061 287.875,211.884 287.200 C 211.680 286.420,211.338 286.400,198.437 286.400 C 187.615 286.400,185.200 286.302,185.200 285.862 C 185.200 285.566,184.840 284.998,184.400 284.600 C 183.414 283.708,183.276 280.899,184.200 280.545 C 184.530 280.418,184.800 280.064,184.800 279.757 C 184.800 279.451,185.160 279.200,185.600 279.200 C 186.042 279.200,186.400 278.933,186.400 278.604 C 186.400 278.085,188.980 277.994,206.300 277.904 L 226.200 277.800 226.308 269.900 L 226.417 262.000 204.108 262.032 C 191.839 262.049,181.575 262.154,181.300 262.265 M248.116 262.800 C 247.959 263.401,247.570 263.600,246.553 263.600 C 245.467 263.600,245.200 263.758,245.200 264.400 C 245.200 264.933,244.933 265.200,244.400 265.200 C 243.956 265.200,243.600 265.467,243.600 265.800 C 243.600 266.219,243.178 266.400,242.200 266.400 C 241.091 266.400,240.800 266.558,240.800 267.160 C 240.800 267.578,240.170 268.550,239.400 269.320 C 238.630 270.090,238.000 270.996,238.000 271.333 C 238.000 271.670,237.640 272.060,237.200 272.200 C 236.605 272.389,236.400 272.805,236.400 273.827 C 236.400 274.781,236.217 275.200,235.800 275.200 C 235.275 275.200,235.200 277.667,235.200 295.000 C 235.200 312.333,235.275 314.800,235.800 314.800 C 236.222 314.800,236.400 315.226,236.400 316.237 C 236.400 317.338,236.587 317.724,237.200 317.884 C 237.769 318.033,238.000 318.430,238.000 319.259 C 238.000 319.989,238.255 320.523,238.682 320.687 C 239.826 321.126,240.800 322.139,240.800 322.889 C 240.800 323.333,241.100 323.600,241.600 323.600 C 242.044 323.600,242.400 323.867,242.400 324.200 C 242.400 324.619,242.822 324.800,243.800 324.800 C 244.933 324.800,245.200 324.952,245.200 325.600 C 245.200 326.281,245.467 326.400,246.986 326.400 C 248.362 326.400,248.870 326.583,249.200 327.200 C 249.618 327.981,250.038 328.000,266.452 328.000 C 282.938 328.000,283.279 327.984,283.484 327.200 C 283.658 326.535,284.030 326.400,285.684 326.400 C 287.338 326.400,287.710 326.265,287.884 325.600 C 288.032 325.033,288.430 324.800,289.247 324.800 C 290.005 324.800,290.400 324.595,290.400 324.200 C 290.400 323.867,290.756 323.600,291.200 323.600 C 291.733 323.600,292.000 323.333,292.000 322.800 C 292.000 322.267,292.267 322.000,292.800 322.000 C 293.240 322.000,293.600 321.749,293.600 321.443 C 293.600 321.136,293.870 320.782,294.200 320.655 C 294.543 320.524,294.800 319.927,294.800 319.259 C 294.800 318.430,295.031 318.033,295.600 317.884 C 296.206 317.725,296.400 317.338,296.400 316.284 C 296.400 315.230,296.594 314.843,297.200 314.684 C 297.986 314.479,298.000 314.141,297.995 295.737 C 297.989 276.602,297.918 275.200,296.953 275.200 C 296.585 275.200,296.400 274.720,296.400 273.763 C 296.400 272.662,296.213 272.276,295.600 272.116 C 295.160 272.001,294.800 271.735,294.800 271.525 C 294.800 271.315,294.530 270.873,294.200 270.543 C 293.870 270.213,293.600 269.506,293.600 268.971 C 293.600 268.267,293.380 268.000,292.800 268.000 C 292.267 268.000,292.000 267.733,292.000 267.200 C 292.000 266.552,291.733 266.400,290.600 266.400 C 289.622 266.400,289.200 266.219,289.200 265.800 C 289.200 265.470,288.951 265.200,288.647 265.200 C 288.342 265.200,287.999 264.840,287.884 264.400 C 287.725 263.794,287.338 263.600,286.284 263.600 C 285.230 263.600,284.843 263.406,284.684 262.800 C 284.479 262.015,284.138 262.000,266.400 262.000 C 248.662 262.000,248.321 262.015,248.116 262.800 M307.300 262.412 C 306.805 262.611,306.400 263.118,306.400 263.538 C 306.400 263.958,306.130 264.526,305.800 264.800 C 305.470 265.074,305.200 265.885,305.200 266.602 C 305.200 267.570,304.994 267.961,304.400 268.116 C 303.609 268.323,303.600 268.662,303.600 297.913 L 303.600 327.500 304.850 327.750 C 305.538 327.888,309.048 328.000,312.650 328.000 L 319.200 328.000 319.246 309.300 C 319.272 299.015,319.375 290.915,319.476 291.300 C 319.576 291.685,319.915 292.000,320.229 292.000 C 320.543 292.000,320.800 292.360,320.800 292.800 C 320.800 293.244,321.067 293.600,321.400 293.600 C 321.730 293.600,322.000 293.870,322.000 294.200 C 322.000 294.533,322.356 294.800,322.800 294.800 C 323.333 294.800,323.600 295.067,323.600 295.600 C 323.600 296.133,323.867 296.400,324.400 296.400 C 324.918 296.400,325.200 296.667,325.200 297.157 C 325.200 297.574,325.470 298.018,325.800 298.145 C 326.130 298.271,326.400 298.818,326.400 299.360 C 326.400 299.995,326.685 300.437,327.200 300.600 C 327.640 300.740,328.000 301.112,328.000 301.427 C 328.000 301.742,328.270 302.000,328.600 302.000 C 328.930 302.000,329.200 302.287,329.200 302.637 C 329.200 302.988,329.560 303.369,330.000 303.484 C 330.440 303.599,330.800 303.942,330.800 304.247 C 330.800 304.551,331.070 304.800,331.400 304.800 C 331.730 304.800,332.000 305.087,332.000 305.437 C 332.000 305.788,332.360 306.169,332.800 306.284 C 333.243 306.400,333.600 306.830,333.600 307.247 C 333.600 307.733,333.883 308.000,334.400 308.000 C 334.844 308.000,335.200 308.267,335.200 308.600 C 335.200 308.930,335.470 309.200,335.800 309.200 C 336.130 309.200,336.400 309.548,336.400 309.973 C 336.400 310.398,336.760 310.860,337.200 311.000 C 337.760 311.178,338.000 311.605,338.000 312.427 C 338.000 313.203,338.203 313.600,338.600 313.600 C 338.930 313.600,339.200 313.870,339.200 314.200 C 339.200 314.533,339.556 314.800,340.000 314.800 C 340.533 314.800,340.800 315.067,340.800 315.600 C 340.800 316.040,341.050 316.400,341.355 316.400 C 341.674 316.400,342.023 316.998,342.174 317.800 C 342.318 318.572,342.676 319.200,342.971 319.200 C 343.266 319.200,343.601 319.560,343.716 320.000 C 343.831 320.440,344.212 320.800,344.563 320.800 C 344.913 320.800,345.200 321.070,345.200 321.400 C 345.200 321.730,345.449 322.000,345.753 322.000 C 346.058 322.000,346.401 322.360,346.516 322.800 C 346.631 323.240,347.012 323.600,347.363 323.600 C 347.713 323.600,348.000 323.870,348.000 324.200 C 348.000 324.530,348.270 324.800,348.600 324.800 C 348.933 324.800,349.200 325.156,349.200 325.600 C 349.200 326.133,349.467 326.400,350.000 326.400 C 350.440 326.400,350.800 326.651,350.800 326.957 C 350.800 327.799,351.726 328.000,355.597 328.000 C 359.396 328.000,359.245 328.076,361.506 325.000 C 361.668 324.780,361.749 310.515,361.686 293.300 L 361.572 262.000 354.786 262.000 L 348.000 262.000 347.968 280.500 C 347.951 290.675,347.846 298.775,347.735 298.500 C 347.624 298.225,347.278 298.000,346.967 298.000 C 346.655 298.000,346.400 297.640,346.400 297.200 C 346.400 296.667,346.133 296.400,345.600 296.400 C 345.156 296.400,344.800 296.133,344.800 295.800 C 344.800 295.470,344.530 295.200,344.200 295.200 C 343.867 295.200,343.600 294.844,343.600 294.400 C 343.600 293.867,343.333 293.600,342.800 293.600 C 342.267 293.600,342.000 293.333,342.000 292.800 C 342.000 292.356,341.733 292.000,341.400 292.000 C 341.070 292.000,340.800 291.730,340.800 291.400 C 340.800 291.067,340.444 290.800,340.000 290.800 C 339.352 290.800,339.200 290.533,339.200 289.400 C 339.200 288.422,339.019 288.000,338.600 288.000 C 338.270 288.000,338.000 287.713,338.000 287.363 C 338.000 287.012,337.640 286.631,337.200 286.516 C 336.760 286.401,336.400 286.058,336.400 285.753 C 336.400 285.449,336.040 285.200,335.600 285.200 C 335.144 285.200,334.800 284.933,334.800 284.579 C 334.800 283.744,333.099 280.807,332.613 280.803 C 332.162 280.799,330.400 278.836,330.400 278.338 C 330.400 278.152,330.130 278.000,329.800 278.000 C 329.467 278.000,329.200 277.644,329.200 277.200 C 329.200 276.756,328.933 276.400,328.600 276.400 C 328.270 276.400,328.000 276.130,328.000 275.800 C 328.000 275.467,327.644 275.200,327.200 275.200 C 326.667 275.200,326.400 274.933,326.400 274.400 C 326.400 273.867,326.133 273.600,325.600 273.600 C 324.976 273.600,324.800 273.333,324.800 272.387 C 324.800 271.679,324.551 271.079,324.200 270.945 C 323.870 270.818,323.600 270.476,323.600 270.184 C 323.600 269.893,323.240 269.540,322.800 269.400 C 322.360 269.260,322.000 268.888,322.000 268.573 C 322.000 268.258,321.751 268.000,321.447 268.000 C 321.142 268.000,320.799 267.640,320.684 267.200 C 320.569 266.760,320.188 266.400,319.837 266.400 C 319.487 266.400,319.200 266.130,319.200 265.800 C 319.200 265.470,318.930 265.200,318.600 265.200 C 318.267 265.200,318.000 264.844,318.000 264.400 C 318.000 263.883,317.733 263.600,317.247 263.600 C 316.830 263.600,316.400 263.243,316.284 262.800 C 316.053 261.918,309.259 261.625,307.300 262.412 M74.943 278.600 C 75.273 278.930,75.736 279.200,75.971 279.200 C 76.238 279.200,76.400 280.333,76.400 282.200 C 76.400 284.600,76.280 285.200,75.800 285.200 C 75.470 285.200,75.200 285.470,75.200 285.800 C 75.200 286.320,73.578 286.400,63.000 286.400 L 50.800 286.400 50.800 282.200 L 50.800 278.000 62.571 278.000 C 72.502 278.000,74.437 278.094,74.943 278.600 M143.600 278.600 C 143.600 278.933,143.956 279.200,144.400 279.200 C 144.933 279.200,145.200 279.467,145.200 280.000 C 145.200 280.444,145.467 280.800,145.800 280.800 C 146.322 280.800,146.400 282.644,146.400 295.000 C 146.400 307.356,146.322 309.200,145.800 309.200 C 145.467 309.200,145.200 309.556,145.200 310.000 C 145.200 310.533,144.933 310.800,144.400 310.800 C 143.956 310.800,143.600 311.067,143.600 311.400 C 143.600 311.922,141.822 312.000,130.000 312.000 C 118.178 312.000,116.400 311.922,116.400 311.400 C 116.400 311.067,116.044 310.800,115.600 310.800 C 114.976 310.800,114.800 310.533,114.800 309.587 C 114.800 308.879,114.551 308.279,114.200 308.145 C 113.683 307.946,113.600 306.039,113.600 294.357 C 113.600 282.573,113.678 280.800,114.200 280.800 C 114.533 280.800,114.800 280.444,114.800 280.000 C 114.800 279.467,115.067 279.200,115.600 279.200 C 116.044 279.200,116.400 278.933,116.400 278.600 C 116.400 278.078,118.178 278.000,130.000 278.000 C 141.822 278.000,143.600 278.078,143.600 278.600 M280.738 279.200 C 280.815 279.750,281.130 280.344,281.438 280.520 C 282.308 281.015,282.271 309.121,281.400 309.455 C 281.058 309.587,280.800 310.183,280.800 310.843 L 280.800 312.000 266.400 312.000 L 252.000 312.000 252.000 310.843 C 252.000 310.183,251.742 309.587,251.400 309.455 C 250.882 309.257,250.800 307.276,250.800 295.000 C 250.800 282.724,250.882 280.743,251.400 280.545 C 251.730 280.418,252.000 280.064,252.000 279.757 C 252.000 279.451,252.251 279.200,252.557 279.200 C 252.864 279.200,253.219 278.928,253.347 278.595 C 253.549 278.068,255.331 278.003,267.089 278.095 L 280.600 278.200 280.738 279.200 M72.200 302.800 C 72.389 303.395,72.805 303.600,73.827 303.600 C 74.781 303.600,75.200 303.783,75.200 304.200 C 75.200 304.530,75.470 304.800,75.800 304.800 C 76.280 304.800,76.400 305.400,76.400 307.800 C 76.400 310.200,76.280 310.800,75.800 310.800 C 75.470 310.800,75.200 311.070,75.200 311.400 C 75.200 311.920,73.578 312.000,63.000 312.000 L 50.800 312.000 50.800 307.000 L 50.800 302.000 61.373 302.000 C 71.595 302.000,71.955 302.027,72.200 302.800 M40.800 348.555 C 40.800 348.874,40.202 349.223,39.400 349.374 C 38.562 349.531,38.000 349.870,38.000 350.218 C 38.000 350.543,37.628 350.800,37.158 350.800 C 36.231 350.800,36.230 352.014,37.155 355.400 C 37.425 356.386,37.585 361.219,37.572 368.000 L 37.551 379.000 40.476 379.000 L 43.400 379.000 43.514 374.900 L 43.628 370.800 50.587 370.800 C 57.195 370.800,57.559 370.760,57.800 370.000 C 57.989 369.405,58.405 369.200,59.427 369.200 C 60.381 369.200,60.800 369.017,60.800 368.600 C 60.800 368.270,61.070 368.000,61.400 368.000 C 61.733 368.000,62.000 367.644,62.000 367.200 C 62.000 366.667,62.267 366.400,62.800 366.400 C 63.570 366.400,63.600 366.133,63.600 359.363 C 63.600 352.662,63.562 352.315,62.800 352.116 C 62.360 352.001,62.000 351.658,62.000 351.353 C 62.000 351.049,61.751 350.800,61.447 350.800 C 61.142 350.800,60.799 350.440,60.684 350.000 C 60.534 349.425,60.138 349.200,59.280 349.200 C 58.587 349.200,57.989 348.948,57.855 348.600 C 57.524 347.738,40.800 347.694,40.800 348.555 M84.000 348.410 C 84.000 348.635,83.550 348.991,83.000 349.200 C 82.450 349.409,82.000 349.855,82.000 350.190 C 82.000 350.526,81.730 350.800,81.400 350.800 C 81.070 350.800,80.800 351.049,80.800 351.353 C 80.800 351.658,80.440 352.001,80.000 352.116 C 79.387 352.276,79.200 352.662,79.200 353.763 C 79.200 354.774,79.022 355.200,78.600 355.200 C 78.080 355.200,78.000 356.800,78.000 367.200 L 78.000 379.200 82.200 379.200 L 86.400 379.200 86.400 375.000 L 86.400 370.800 90.800 370.800 L 95.200 370.800 95.200 372.157 C 95.200 372.995,95.430 373.603,95.800 373.745 C 96.141 373.875,96.400 374.472,96.400 375.125 C 96.400 375.768,96.753 376.596,97.200 377.000 C 97.640 377.398,98.000 378.056,98.000 378.462 C 98.000 379.597,107.422 379.592,107.782 378.456 C 108.092 377.480,107.659 376.400,106.957 376.400 C 106.587 376.400,106.400 375.930,106.400 375.000 C 106.400 373.867,106.248 373.600,105.600 373.600 C 104.952 373.600,104.800 373.333,104.800 372.200 C 104.800 371.222,104.619 370.800,104.200 370.800 C 103.781 370.800,103.600 370.378,103.600 369.400 C 103.600 368.630,103.772 368.000,103.982 368.000 C 104.557 368.000,106.400 366.040,106.400 365.428 C 106.400 365.134,106.760 364.799,107.200 364.684 C 108.562 364.328,108.324 353.600,106.953 353.600 C 106.643 353.600,106.400 353.197,106.400 352.680 C 106.400 351.508,105.692 350.800,104.520 350.800 C 103.867 350.800,103.600 350.568,103.600 350.000 C 103.600 349.467,103.333 349.200,102.800 349.200 C 102.356 349.200,102.000 348.933,102.000 348.600 C 102.000 348.084,100.733 348.000,93.000 348.000 C 87.122 348.000,84.000 348.142,84.000 348.410 M128.000 348.600 C 128.000 349.004,127.596 349.200,126.763 349.200 C 125.862 349.200,125.468 349.417,125.316 350.000 C 125.200 350.443,124.770 350.800,124.353 350.800 C 123.867 350.800,123.600 351.083,123.600 351.600 C 123.600 352.040,123.351 352.400,123.047 352.400 C 122.129 352.400,122.011 353.767,122.005 364.430 C 122.000 375.494,122.190 376.400,124.526 376.400 C 124.933 376.400,125.200 376.716,125.200 377.200 C 125.200 377.644,125.467 378.000,125.800 378.000 C 126.130 378.000,126.400 378.270,126.400 378.600 C 126.400 379.118,127.824 379.200,136.813 379.200 C 145.699 379.200,147.259 379.112,147.455 378.600 C 147.582 378.270,148.026 378.000,148.443 378.000 C 148.933 378.000,149.200 377.718,149.200 377.200 C 149.200 376.667,149.467 376.400,150.000 376.400 C 150.648 376.400,150.800 376.133,150.800 375.000 C 150.800 374.022,150.981 373.600,151.400 373.600 C 151.916 373.600,152.000 372.330,152.000 364.571 C 152.000 357.079,151.898 355.441,151.400 354.943 C 151.070 354.613,150.800 353.971,150.800 353.517 C 150.800 352.726,149.118 350.800,148.426 350.800 C 148.243 350.800,147.999 350.440,147.884 350.000 C 147.769 349.560,147.407 349.200,147.080 349.200 C 146.753 349.200,146.382 348.930,146.255 348.600 C 146.060 348.091,144.655 348.000,137.013 348.000 C 129.268 348.000,128.000 348.084,128.000 348.600 M165.814 348.644 C 165.301 349.156,165.194 349.991,165.285 352.744 L 165.400 356.200 170.300 356.312 L 175.200 356.425 175.200 367.812 L 175.200 379.200 179.400 379.200 L 183.600 379.200 183.600 367.800 L 183.600 356.400 188.600 356.400 L 193.600 356.400 193.600 352.200 L 193.600 348.000 180.029 348.000 C 168.091 348.000,166.380 348.077,165.814 348.644 M213.600 348.600 C 213.600 348.930,213.330 349.200,213.000 349.200 C 212.670 349.200,212.071 349.529,211.669 349.931 C 211.268 350.332,210.634 350.778,210.261 350.921 C 209.889 351.064,209.477 351.714,209.347 352.365 C 209.217 353.016,208.860 353.645,208.555 353.762 C 207.698 354.091,207.740 373.687,208.600 374.400 C 208.930 374.674,209.200 375.236,209.200 375.649 C 209.200 376.133,209.484 376.400,210.000 376.400 C 210.533 376.400,210.800 376.667,210.800 377.200 C 210.800 377.733,211.067 378.000,211.600 378.000 C 212.044 378.000,212.400 378.267,212.400 378.600 C 212.400 379.118,213.844 379.200,223.000 379.200 C 232.156 379.200,233.600 379.118,233.600 378.600 C 233.600 378.270,233.870 378.000,234.200 378.000 C 234.533 378.000,234.800 377.644,234.800 377.200 C 234.800 376.667,235.067 376.400,235.600 376.400 C 236.133 376.400,236.400 376.133,236.400 375.600 C 236.400 375.067,236.667 374.800,237.200 374.800 C 237.979 374.800,238.000 374.533,238.000 364.414 C 238.000 354.438,237.968 354.011,237.200 353.600 C 236.676 353.320,236.400 352.762,236.400 351.986 C 236.400 351.067,236.220 350.800,235.600 350.800 C 235.160 350.800,234.800 350.538,234.800 350.218 C 234.800 349.870,234.238 349.531,233.400 349.374 C 232.598 349.223,232.000 348.874,232.000 348.555 C 232.000 348.098,230.383 348.000,222.800 348.000 C 214.889 348.000,213.600 348.084,213.600 348.600 M260.800 348.600 C 260.800 349.019,260.378 349.200,259.400 349.200 C 258.282 349.200,258.000 349.356,258.000 349.975 C 258.000 350.556,257.676 350.781,256.700 350.875 C 255.557 350.985,255.385 351.157,255.275 352.300 C 255.181 353.276,254.956 353.600,254.375 353.600 C 253.783 353.600,253.600 353.880,253.600 354.786 C 253.600 355.562,253.324 356.120,252.800 356.400 C 252.044 356.805,252.000 357.238,252.000 364.252 C 252.000 371.338,252.036 371.684,252.800 371.884 C 253.401 372.041,253.600 372.430,253.600 373.447 C 253.600 374.533,253.758 374.800,254.400 374.800 C 254.933 374.800,255.200 375.067,255.200 375.600 C 255.200 376.040,255.449 376.400,255.753 376.400 C 256.058 376.400,256.401 376.760,256.516 377.200 C 256.668 377.783,257.062 378.000,257.963 378.000 C 258.796 378.000,259.200 378.196,259.200 378.600 C 259.200 379.116,260.511 379.200,268.600 379.200 L 278.000 379.200 277.995 375.900 C 277.985 370.318,278.765 370.800,269.753 370.800 C 262.267 370.800,262.000 370.772,262.000 370.000 C 262.000 369.556,261.733 369.200,261.400 369.200 C 260.899 369.200,260.800 368.378,260.800 364.200 C 260.800 360.022,260.899 359.200,261.400 359.200 C 261.730 359.200,262.000 358.950,262.000 358.645 C 262.000 358.326,262.598 357.977,263.400 357.826 C 264.238 357.669,264.800 357.330,264.800 356.982 C 264.800 356.496,265.891 356.400,271.400 356.400 L 278.000 356.400 278.000 352.200 L 278.000 348.000 269.400 348.000 C 262.022 348.000,260.800 348.085,260.800 348.600 M298.400 348.600 C 298.126 348.930,297.564 349.200,297.151 349.200 C 296.667 349.200,296.400 349.484,296.400 350.000 C 296.400 350.444,296.133 350.800,295.800 350.800 C 295.470 350.800,295.200 351.049,295.200 351.353 C 295.200 351.658,294.840 352.001,294.400 352.116 C 293.787 352.276,293.600 352.662,293.600 353.763 C 293.600 354.716,293.415 355.200,293.050 355.200 C 291.660 355.200,291.416 371.522,292.800 371.884 C 293.475 372.061,293.600 372.430,293.600 374.247 C 293.600 376.133,293.699 376.400,294.400 376.400 C 294.844 376.400,295.200 376.667,295.200 377.000 C 295.200 377.330,295.458 377.600,295.773 377.600 C 296.088 377.600,296.460 377.960,296.600 378.400 C 296.931 379.442,318.000 379.682,318.000 378.643 C 318.000 378.337,318.493 377.963,319.096 377.812 C 320.360 377.494,320.785 376.966,320.794 375.700 C 320.797 375.169,321.046 374.800,321.400 374.800 C 321.815 374.800,322.000 374.383,322.000 373.447 C 322.000 372.430,322.199 372.041,322.800 371.884 C 323.564 371.684,323.600 371.338,323.600 364.299 C 323.600 357.432,323.545 356.874,322.800 356.200 C 322.301 355.748,322.000 354.968,322.000 354.125 C 322.000 353.294,321.769 352.686,321.400 352.545 C 321.070 352.418,320.800 351.974,320.800 351.557 C 320.800 351.067,320.518 350.800,320.000 350.800 C 319.467 350.800,319.200 350.533,319.200 350.000 C 319.200 349.376,318.933 349.200,317.987 349.200 C 317.279 349.200,316.679 348.951,316.545 348.600 C 316.350 348.092,314.978 348.000,307.606 348.000 C 300.354 348.000,298.815 348.100,298.400 348.600 M336.667 348.267 C 335.877 349.056,336.392 377.543,337.200 377.800 C 337.640 377.940,338.000 378.312,338.000 378.627 C 338.000 379.111,339.796 379.200,349.586 379.200 L 361.171 379.200 361.286 375.300 C 361.395 371.573,361.439 371.401,362.280 371.430 C 362.764 371.446,363.069 371.311,362.957 371.130 C 362.844 370.948,358.713 370.800,353.776 370.800 L 344.800 370.800 344.800 359.400 L 344.800 348.000 340.867 348.000 C 338.703 348.000,336.813 348.120,336.667 348.267 M53.855 357.000 C 53.982 357.330,54.336 357.600,54.643 357.600 C 55.052 357.600,55.200 358.186,55.200 359.800 L 55.200 362.000 49.400 362.000 L 43.600 362.000 43.600 359.987 C 43.600 358.568,43.777 357.907,44.200 357.745 C 44.530 357.618,44.800 357.264,44.800 356.957 C 44.800 356.107,53.528 356.148,53.855 357.000 M98.000 357.200 C 98.000 357.644,98.267 358.000,98.600 358.000 C 99.019 358.000,99.200 358.422,99.200 359.400 C 99.200 360.378,99.019 360.800,98.600 360.800 C 98.270 360.800,98.000 361.070,98.000 361.400 C 98.000 361.906,97.089 362.000,92.200 362.000 L 86.400 362.000 86.400 360.047 C 86.400 358.430,86.538 358.057,87.200 357.884 C 87.640 357.769,88.000 357.388,88.000 357.037 C 88.000 356.488,88.692 356.400,93.000 356.400 C 97.733 356.400,98.000 356.443,98.000 357.200 M142.000 357.037 C 142.000 357.388,142.360 357.769,142.800 357.884 C 143.552 358.081,143.600 358.430,143.600 363.647 C 143.600 371.074,143.876 370.800,136.400 370.800 L 130.800 370.800 130.800 364.387 C 130.800 359.056,130.901 357.936,131.400 357.745 C 131.730 357.618,132.000 357.264,132.000 356.957 C 132.000 356.511,132.993 356.400,137.000 356.400 C 141.308 356.400,142.000 356.488,142.000 357.037 M228.000 357.013 C 228.000 357.349,228.270 357.729,228.600 357.855 C 229.099 358.047,229.200 359.161,229.200 364.443 L 229.200 370.800 222.800 370.800 L 216.400 370.800 216.400 364.614 C 216.400 356.348,216.274 356.501,223.100 356.442 C 227.252 356.406,228.000 356.494,228.000 357.013 M313.028 357.800 C 313.670 358.570,314.422 359.200,314.698 359.200 C 315.074 359.200,315.200 360.455,315.200 364.200 C 315.200 368.508,315.112 369.200,314.563 369.200 C 314.212 369.200,313.831 369.560,313.716 370.000 C 313.433 371.083,302.000 371.266,302.000 370.187 C 302.000 369.851,301.730 369.471,301.400 369.345 C 300.911 369.157,300.800 368.196,300.800 364.169 L 300.800 359.223 302.100 357.850 L 303.400 356.478 307.630 356.439 L 311.861 356.400 313.028 357.800 " stroke="none" fill="#040404" fill-rule="evenodd"></path><path id="path2" d="" stroke="none" fill="#44582c" fill-rule="evenodd"></path><path id="path3" d="M37.280 22.880 C 36.909 23.251,36.814 48.137,36.864 132.780 C 36.899 192.961,36.994 241.660,37.074 241.000 C 37.154 240.340,37.261 191.110,37.310 131.600 L 37.400 23.400 199.300 23.300 L 361.200 23.199 361.299 132.700 L 361.399 242.200 361.500 132.842 C 361.575 52.334,361.483 23.341,361.152 22.942 C 360.525 22.187,38.035 22.125,37.280 22.880 M361.790 292.400 C 361.790 309.010,361.839 315.805,361.900 307.500 C 361.960 299.195,361.960 285.605,361.900 277.300 C 361.839 268.995,361.790 275.790,361.790 292.400 M36.702 289.074 C 36.759 302.233,36.854 315.520,36.914 318.600 C 36.975 321.680,37.045 311.330,37.072 295.600 C 37.099 279.870,37.003 266.583,36.860 266.074 C 36.717 265.564,36.646 275.914,36.702 289.074 M36.704 363.137 C 36.761 368.342,36.859 374.130,36.921 376.000 C 36.984 377.870,37.070 373.820,37.112 367.000 C 37.153 360.180,37.056 354.392,36.894 354.137 C 36.732 353.882,36.647 357.932,36.704 363.137 M361.342 375.800 C 361.341 377.780,361.408 378.640,361.492 377.712 C 361.576 376.784,361.577 375.164,361.495 374.112 C 361.412 373.060,361.343 373.820,361.342 375.800 " stroke="none" fill="#18302c" fill-rule="evenodd"></path><path id="path4" d="M37.397 131.400 C 37.397 190.800,37.443 215.160,37.500 185.532 C 37.557 155.905,37.557 107.305,37.500 77.532 C 37.443 47.760,37.397 72.000,37.397 131.400 M37.389 295.600 C 37.389 310.450,37.439 316.525,37.500 309.100 C 37.561 301.675,37.561 289.525,37.500 282.100 C 37.439 274.675,37.389 280.750,37.389 295.600 M37.376 367.400 C 37.376 373.560,37.432 376.024,37.499 372.876 C 37.567 369.727,37.567 364.687,37.499 361.676 C 37.431 358.664,37.376 361.240,37.376 367.400 " stroke="none" fill="#180430" fill-rule="evenodd"></path></g></svg>
