<?xml version="1.0" encoding="UTF-8"?>
<svg width="1080px" height="1080px" viewBox="0 0 1080 1080" version="1.1" xmlns="http://www.w3.org/2000/svg" xmlns:xlink="http://www.w3.org/1999/xlink">
    <title>Artboard</title>
    <g id="Artboard" stroke="none" stroke-width="1" fill="none" fill-rule="evenodd">
        <g id="B" fill-rule="nonzero">
            <path d="M1080,540 C1080,838.234 838.234,1080 540,1080 C241.766,1080 0,838.234 0,540 C0,241.766 241.766,0 540,0 C838.234,0 1080,241.766 1080,540" id="Fill-1" fill="#1C2021"></path>
            <path d="M575.1513,444.5912 L575.3913,444.4112 C575.3013,444.4792 575.2183,444.5392 575.1513,444.5912" id="Fill-3" fill="#63C127"></path>
            <path d="M742.9049,297.4617 L607.0289,397.8187 C607.0289,397.8187 579.2869,418.3067 579.2799,418.3117 C583.8969,414.9027 587.6289,410.1817 590.3839,405.1787 C592.5989,401.1537 589.4859,396.1087 584.9539,396.1087 L527.9969,396.1087 L514.9789,456.1327 L528.0749,456.1327 L317.9419,611.3427 L272.5639,644.8517 C274.0079,643.4967 320.3779,599.7537 326.1179,572.6177 L326.1219,572.6067 L388.4319,277.5247 L664.6619,277.5247 C695.4689,277.5247 721.5539,284.1737 742.9049,297.4617" id="Fill-5" fill="#63C127"></path>
            <path d="M594.3285,606.1437 C594.3285,607.5917 594.0775,609.0357 593.6065,610.4837 C589.2615,631.2147 575.5255,641.5757 552.3895,641.5757 L487.3105,641.5757 L500.3245,581.5597 L565.3995,581.5597 C584.6785,581.5597 594.3285,588.5527 594.3285,602.5287 L594.3285,606.1437 Z M771.8435,485.3857 C783.1705,468.9997 791.2455,449.2307 796.0655,426.0917 C797.9925,417.9037 798.9575,408.9867 798.9575,399.3407 C798.9575,374.8557 791.8195,354.0497 777.5435,336.9207 C774.5845,333.3707 774.3405,328.2957 776.9585,324.4867 C784.9135,312.9127 797.5435,300.3417 797.8315,300.0567 L764.9775,324.3197 L628.5775,425.0697 C629.8465,427.8277 630.4785,431.0607 630.4785,434.7687 C630.4785,437.6607 630.2285,440.0787 629.7605,441.9977 C625.4195,462.7357 611.6835,473.0967 588.5435,473.0967 L563.5515,473.0967 L321.4365,651.9257 L298.5735,760.1677 L477.1925,760.1677 L752.9475,556.4967 L762.7245,549.2747 L780.7865,535.9347 C775.5975,539.7667 771.0255,542.0287 767.1015,543.2787 C762.7495,544.6647 757.9865,543.5967 754.6675,540.4587 C748.2515,534.3917 740.6025,529.0507 731.7125,524.4357 C747.1325,514.7967 760.5175,501.7817 771.8435,485.3857 L771.8435,485.3857 Z" id="Fill-7" fill="#63C127"></path>
            <path d="M786.4564,584.0122 C783.5174,588.3072 782.1564,593.4722 782.5634,598.6602 C782.7604,601.1772 782.8594,603.7832 782.8594,606.4782 C782.8594,610.8152 782.5004,615.5152 781.7774,620.5782 C781.0514,625.6372 780.2064,630.8232 779.2444,636.1252 C770.0764,679.9952 749.9604,714.4692 718.8654,739.5292 C687.7704,764.5962 643.5374,777.1312 586.1774,777.1312 L539.4414,777.1312 C518.3634,777.1312 479.5564,801.7122 478.3554,802.4752 L512.6644,777.1312 L778.9004,580.4872 C778.9004,580.4912 778.9044,580.4992 778.9044,580.5022 L807.4364,559.4322 C807.1464,559.7182 794.4054,572.3952 786.4564,584.0122" id="Fill-9" fill="#63C127"></path>
        </g>
    </g>
</svg>