<svg width="400" height="400" viewBox="0 0 400 400" fill="none" xmlns="http://www.w3.org/2000/svg">
<g clip-path="url(#clip0_298_1814)">
<path d="M200 400C310.457 400 400 310.457 400 200C400 89.5431 310.457 0 200 0C89.5431 0 0 89.5431 0 200C0 310.457 89.5431 400 200 400Z" fill="white"/>
<g clip-path="url(#clip1_298_1814)">
<path d="M309.005 275.945C278.969 305.385 252.911 319.707 210.344 319.707C139.132 319.707 90 269.978 90 199.96C90 128.151 145.696 81.0086 210.94 81.0086C248.933 81.0086 285.136 97.7175 310 126.56L279.566 155.801C259.078 133.92 236.6 122.582 209.946 122.582C167.179 122.582 132.369 155.403 132.369 200.159C132.369 247.103 165.986 278.332 210.94 278.332C239.186 278.332 258.083 266.994 279.566 245.511L309.005 275.945Z" fill="black"/>
</g>
<g clip-path="url(#clip2_298_1814)">
<path d="M1347.58 965.609C1033.02 1273.92 760.127 1423.91 314.326 1423.91C-431.454 1423.91 -946 903.114 -946 169.834C-946 -582.195 -362.709 -1075.91 320.575 -1075.91C718.463 -1075.91 1097.6 -900.922 1358 -598.861L1039.27 -292.633C824.705 -521.783 589.306 -640.524 310.159 -640.524C-137.725 -640.524 -502.282 -296.799 -502.282 171.917C-502.282 663.548 -150.224 990.607 320.575 990.607C616.387 990.607 814.289 871.866 1039.27 646.882L1347.58 965.609Z" fill="black"/>
</g>
</g>
<defs>
<clipPath id="clip0_298_1814">
<rect width="400" height="400" fill="white"/>
</clipPath>
<clipPath id="clip1_298_1814">
<rect width="220" height="238.715" fill="white" transform="translate(90 81)"/>
</clipPath>
<clipPath id="clip2_298_1814">
<rect width="2304" height="2500" fill="white" transform="translate(-946 -1076)"/>
</clipPath>
</defs>
</svg>
