<svg width="400" height="400" viewBox="0 0 400 400" fill="none" xmlns="http://www.w3.org/2000/svg">
<mask id="mask0_320_1812" style="mask-type:alpha" maskUnits="userSpaceOnUse" x="0" y="0" width="400" height="400">
<path d="M200 400C310.457 400 400 310.457 400 200C400 89.5431 310.457 0 200 0C89.5431 0 0 89.5431 0 200C0 310.457 89.5431 400 200 400Z" fill="#FF4A4A"/>
</mask>
<g mask="url(#mask0_320_1812)">
<path d="M40.8905 409.843H361.016C390.358 409.843 414.245 386.05 414.245 356.614V36.489C414.245 7.14735 390.452 -16.7398 361.016 -16.7398H40.8905C11.5488 -16.7398 -12.3384 7.0533 -12.3384 36.489V356.614C-12.2443 386.05 11.5488 409.843 40.8905 409.843Z" fill="#1F1A23"/>
<path d="M248.668 251.702C239.64 268.724 221.865 280.292 201.27 280.292C171.646 280.292 147.665 256.31 147.665 226.687C147.665 197.063 171.646 173.082 201.27 173.082C221.865 173.082 239.64 184.649 248.668 201.671H304.436C293.245 155.025 251.395 120.229 201.27 120.229C142.586 120.229 95 167.815 95 226.498C95 285.182 142.586 332.768 201.27 332.768C251.207 332.768 293.056 298.254 304.342 251.796H248.668V251.702Z" fill="#FFB0C2"/>
<path d="M285.251 161.608C297.194 151.828 304.906 136.969 304.906 120.323C304.906 90.8871 281.019 67 251.583 67C222.147 67 198.26 90.8871 198.26 120.323C199.295 120.323 200.235 120.323 201.27 120.323C235.502 120.229 265.878 136.404 285.251 161.608Z" fill="#CB8EE9"/>
<path d="M251.583 173.552C264.373 173.552 276.035 169.038 285.251 161.608C265.878 136.498 235.502 120.323 201.27 120.323C200.235 120.323 199.295 120.323 198.26 120.323C198.26 149.665 222.147 173.552 251.583 173.552Z" fill="#CB65B7"/>
</g>
</svg>
