<svg width="400" height="400" viewBox="0 0 400 400" fill="none" xmlns="http://www.w3.org/2000/svg">
<path d="M200 400C310.457 400 400 310.457 400 200C400 89.5431 310.457 0 200 0C89.5431 0 0 89.5431 0 200C0 310.457 89.5431 400 200 400Z" fill="white"/>
<g clip-path="url(#clip0_248_1110)">
<path d="M237.333 209.333C237.333 206.667 237.333 205.333 234.667 204C225.333 197.333 214.667 190.667 205.333 184C204.347 183.341 203.187 182.989 202 182.989C200.813 182.989 199.653 183.341 198.667 184L169.333 205.333C168.109 205.958 167.084 206.914 166.377 208.093C165.67 209.272 165.308 210.626 165.333 212C165.271 214.874 164.341 217.663 162.667 220C162.007 220.987 161.656 222.147 161.656 223.333C161.656 224.52 162.007 225.68 162.667 226.667C173.333 248 182.667 269.333 193.333 290.667C197.333 297.333 200 305.333 204 313.333C205.333 312 205.333 310.667 206.667 309.333C218.667 282.667 229.333 256 241.333 229.333C242.667 226.667 242.667 225.333 240 224C238.501 221.903 237.484 219.501 237.023 216.965C236.562 214.43 236.668 211.823 237.333 209.333V209.333Z" fill="#CD0124"/>
<path d="M192 174.667C165.333 156 138.667 137.333 113.333 120L112 121.333C113.333 124 113.333 125.333 114.667 128L142.667 188C145.333 193.333 146.667 198.667 154.667 200C156.971 200.208 159.286 199.744 161.333 198.667C169.333 192 178.667 186.667 186.667 180L192 174.667Z" fill="#CD0124"/>
<path d="M200 0C160.444 0 121.776 11.7298 88.886 33.7061C55.9962 55.6824 30.3617 86.9181 15.2242 123.463C0.0866572 160.009 -3.87401 200.222 3.84303 239.018C11.5601 277.814 30.6082 313.451 58.5787 341.421C86.5492 369.392 122.186 388.44 160.982 396.157C199.778 403.874 239.992 399.913 276.537 384.776C313.082 369.638 344.318 344.004 366.294 311.114C388.27 278.224 400 239.556 400 200C400 146.957 378.929 96.0859 341.421 58.5786C303.914 21.0714 253.043 0 200 0V0ZM308 116C305.333 116 304 117.333 302.667 120C292 146.667 280 173.333 269.333 200V205.333C270.398 207.587 270.965 210.045 270.994 212.537C271.023 215.03 270.513 217.5 269.501 219.778C268.488 222.056 266.996 224.089 265.127 225.738C263.257 227.387 261.054 228.613 258.667 229.333C257.333 229.333 256 230.667 254.667 233.333C242.667 260 230.667 288 220 314.667C219.341 315.653 218.989 316.813 218.989 318C218.989 319.187 219.341 320.347 220 321.333C222.492 324.753 223.601 328.987 223.107 333.189C222.612 337.391 220.551 341.252 217.333 344C214.538 346.761 210.838 348.417 206.916 348.663C202.995 348.908 199.117 347.725 196 345.333C194.335 344.196 192.911 342.742 191.808 341.055C190.706 339.367 189.947 337.478 189.576 335.496C189.204 333.515 189.227 331.479 189.643 329.507C190.059 327.534 190.86 325.663 192 324C192.654 322.768 192.996 321.395 192.996 320C192.996 318.605 192.654 317.232 192 316C178.667 289.333 166.667 262.667 153.333 236C152.727 234.645 151.805 233.454 150.646 232.526C149.486 231.599 148.122 230.961 146.667 230.667C143.95 230.215 141.383 229.112 139.185 227.453C136.986 225.793 135.222 223.626 134.043 221.137C132.864 218.648 132.305 215.911 132.414 213.159C132.522 210.407 133.295 207.722 134.667 205.333C135.326 204.347 135.678 203.187 135.678 202C135.678 200.813 135.326 199.653 134.667 198.667C122.667 172 110.667 146.667 97.3334 120C97.3334 118.667 96.0001 117.333 92.0001 117.333C88.0788 116.782 84.4713 114.884 81.7956 111.965C79.1198 109.046 77.5423 105.288 77.3334 101.333C77.5799 97.6292 78.826 94.0613 80.9391 91.0091C83.0522 87.9568 85.9532 85.5346 89.3334 84C92.9219 82.6099 96.883 82.5152 100.534 83.7322C104.185 84.9491 107.297 87.4015 109.333 90.6667C110.667 93.3333 112 93.3333 116 93.3333H285.333C288 93.3333 290.667 93.3333 292 89.3333C293.819 86.1926 296.693 83.799 300.111 82.5783C303.529 81.3576 307.27 81.3889 310.667 82.6667C313.979 83.9206 316.866 86.0908 318.99 88.9239C321.115 91.757 322.39 95.1361 322.667 98.6667C322.716 102.837 321.261 106.885 318.567 110.069C315.873 113.253 312.121 115.359 308 116V116Z" fill="#CD0124"/>
<path d="M200 165.333C200.987 165.993 202.147 166.344 203.333 166.344C204.52 166.344 205.68 165.993 206.667 165.333C232 146.667 257.333 129.333 281.333 110.667C282.667 109.333 284 109.333 284 108V106.667H116C117.526 107.226 118.897 108.14 120 109.333L200 165.333Z" fill="#CD0124"/>
<path d="M213.333 174.667C224 182.667 234.667 189.333 245.333 196C248 197.333 252 196 256 196C257.333 196 258.667 193.333 258.667 192C268 170.667 277.333 148 286.667 126.667C286.667 125.333 288 124 288 122.667H286.667C264 138.667 238.667 156 213.333 174.667Z" fill="#CD0124"/>
</g>
<defs>
<clipPath id="clip0_248_1110">
<rect width="400" height="400" fill="white"/>
</clipPath>
</defs>
</svg>
