<svg width="400" height="400" viewBox="0 0 400 400" fill="none" xmlns="http://www.w3.org/2000/svg">
<path d="M200 400C310.457 400 400 310.457 400 200C400 89.5431 310.457 0 200 0C89.5431 0 0 89.5431 0 200C0 310.457 89.5431 400 200 400Z" fill="url(#paint0_linear_315_1812)"/>
<path d="M244.097 103.704L111.111 296.281H151.941L285.616 103.704H244.097Z" fill="white"/>
<path d="M156.194 103.704L195.322 160.45L174.907 191.402L114.514 103.704H156.194Z" fill="url(#paint1_linear_315_1812)"/>
<path d="M248.06 296.297L204.679 233.532L227.296 203.44L288.889 296.297H248.06Z" fill="#6966FF"/>
<defs>
<linearGradient id="paint0_linear_315_1812" x1="166.667" y1="55.5556" x2="222.222" y2="422.222" gradientUnits="userSpaceOnUse">
<stop stop-color="#3E3E58"/>
<stop offset="1" stop-color="#232331"/>
</linearGradient>
<linearGradient id="paint1_linear_315_1812" x1="146.837" y1="115.741" x2="203.565" y2="183.493" gradientUnits="userSpaceOnUse">
<stop stop-color="white"/>
<stop offset="1" stop-color="white" stop-opacity="0.55"/>
</linearGradient>
</defs>
</svg>
