<svg width="400" height="400" viewBox="0 0 400 400" fill="none" xmlns="http://www.w3.org/2000/svg">
<path d="M200 400C310.457 400 400 310.457 400 200C400 89.5431 310.457 0 200 0C89.5431 0 0 89.5431 0 200C0 310.457 89.5431 400 200 400Z" fill="white"/>
<path d="M244.843 161.435C242.377 152.018 236.547 145.964 226.906 143.274C218.834 141.031 210.538 140.135 202.242 139.686C192.825 139.91 183.184 140.583 173.991 143.274C164.35 145.964 158.52 152.018 156.054 161.435C154.709 166.592 154.26 171.973 154.036 177.13C153.588 182.063 153.588 182.735 156.951 182.735H241.704C247.534 182.735 247.534 182.735 246.861 176.906C246.637 171.973 245.964 166.592 244.843 161.435Z" fill="#496DDB"/>
<path d="M243.274 217.265H158.744C152.915 217.265 152.915 217.265 153.587 223.094C153.812 228.251 154.26 233.632 155.605 238.789C158.072 248.206 163.901 254.26 173.543 256.951C181.614 259.193 189.91 260.09 198.206 260.538C207.623 260.314 217.265 259.641 226.457 256.951C236.099 254.26 241.928 248.206 244.395 238.789C245.74 233.632 246.188 228.251 246.413 223.094C246.861 218.162 246.861 217.489 243.274 217.265Z" fill="#496DDB"/>
<path d="M200 0C89.6861 0 0 89.6861 0 200C0 310.314 89.6861 400 200 400C310.538 400 400 310.314 400 200C400 89.6861 310.538 0 200 0ZM284.305 154.933C285.202 160.762 285.874 166.592 286.547 172.646V182.96H317.489C319.955 182.96 322.197 182.96 324.439 183.408C329.821 184.305 333.184 187.444 333.408 192.601V207.623C333.184 212.78 329.821 215.919 324.439 216.816C322.197 217.265 319.955 217.265 317.489 217.265H286.099V227.354C285.426 233.408 284.753 239.238 283.857 245.067C282.96 250.897 281.39 256.054 279.372 260.538H319.058C323.767 260.538 328.251 260.987 331.39 265.471C336.099 272.87 333.632 282.735 326.233 287.444C325.336 288.117 324.215 288.789 323.094 289.013C314.798 291.704 306.278 292.152 297.534 292.601C261.883 293.274 225.336 293.498 200.673 293.498C171.525 293.498 132.511 293.049 102.915 292.377C94.1704 292.152 85.6502 291.704 77.5785 288.789C76.2332 288.565 75.3363 288.117 74.4395 287.22C67.0404 282.511 64.574 272.87 69.2825 265.247C72.1973 260.762 76.6816 260.314 81.3901 260.314H120.628C118.834 255.83 117.265 250.673 116.368 245.067C115.471 239.238 114.798 233.408 114.126 227.354V217.04H82.7354C80.2691 217.04 78.0269 217.04 75.7848 216.592C70.4036 215.695 67.0404 212.556 66.8161 207.399V192.377C67.0404 187.22 70.4036 184.081 75.7848 183.184C78.0269 182.735 80.2691 182.735 82.7354 182.735H114.126V172.646C114.798 166.592 115.471 160.762 116.368 154.933C117.265 149.103 118.834 143.946 120.852 139.462H81.1659C76.4574 139.462 71.9731 139.013 68.8341 134.529C64.1256 127.13 66.5919 117.265 73.991 112.556C74.8879 111.883 76.009 111.211 77.1301 110.987C85.426 108.296 93.9462 107.848 102.466 107.399C138.117 106.726 174.664 106.502 199.327 106.502C228.475 106.502 267.713 106.951 297.085 107.623C305.83 107.848 314.35 108.296 322.422 111.211C323.767 111.435 324.664 111.883 325.561 112.78C332.96 117.489 335.426 127.13 330.717 134.753C327.803 139.238 323.318 139.686 318.61 139.686H279.372C281.839 144.17 283.184 149.103 284.305 154.933Z" fill="#496DDB"/>
</svg>
