<svg width="128" height="128" viewBox="0 0 128 128" fill="none" xmlns="http://www.w3.org/2000/svg">
    <g clip-path="url(#clip0_938_1078)">
        <rect width="127.7" height="128" rx="63.85" fill="white" />
        <path fill-rule="evenodd" clip-rule="evenodd" d="M102.3 25.4002C101.8 24.9002 101.5 24.4002 101.5 23.7002C101.5 23.0002 101.8 22.5002 102.3 22.0002C103.3 21.1002 104.9 21.1002 106 22.0002C106.5 22.5002 106.8 23.0002 106.8 23.7002C106.8 24.4002 106.5 24.9002 106 25.4002C105.5 25.8002 104.8 26.1002 104.2 26.1002C103.5 26.2002 102.8 26.0002 102.3 25.4002Z" fill="white" />
        <path fill-rule="evenodd" clip-rule="evenodd" d="M95.9002 32.2996C95.5002 31.7996 95.2002 31.2996 95.2002 30.5996C95.2002 29.8996 95.5002 29.3996 95.9002 28.8996C96.8002 27.9996 98.4002 27.9996 99.3002 28.8996C99.7002 29.3996 100 29.8996 100 30.5996C100 31.2996 99.7002 31.7996 99.3002 32.2996C98.8002 32.6996 98.3002 32.9996 97.6002 32.9996C96.9002 32.9996 96.4002 32.6996 95.9002 32.2996Z" fill="white" />
        <path fill-rule="evenodd" clip-rule="evenodd" d="M88.9002 38.9002C88.5002 38.5002 88.2002 37.9002 88.2002 37.2002C88.2002 36.5002 88.5002 36.0002 88.9002 35.5002C89.8002 34.6002 91.4002 34.6002 92.3002 35.5002C92.7002 35.9002 93.0002 36.5002 93.0002 37.2002C93.0002 37.9002 92.7002 38.4002 92.3002 38.9002C91.8002 39.4002 91.3002 39.6002 90.6002 39.6002C89.9002 39.6002 89.3002 39.3002 88.9002 38.9002Z" fill="white" />
        <path fill-rule="evenodd" clip-rule="evenodd" d="M82.2004 45.6004C81.7004 45.2004 81.4004 44.6004 81.4004 43.9004C81.4004 43.2004 81.7004 42.7004 82.2004 42.2004C83.2004 41.3004 84.8004 41.3004 85.9004 42.2004C86.4004 42.6004 86.7004 43.2004 86.7004 43.9004C86.7004 44.6004 86.4004 45.2004 85.9004 45.6004C85.4004 46.1004 84.7004 46.3004 84.1004 46.3004C83.4004 46.3004 82.8004 46.2004 82.2004 45.6004Z" fill="white" />
        <path fill-rule="evenodd" clip-rule="evenodd" d="M75.7996 52.2996C75.2996 51.8996 75.0996 51.2996 75.0996 50.5996C75.0996 49.8996 75.3996 49.3996 75.7996 48.8996C76.6996 47.9996 78.2996 47.9996 79.1996 48.8996C79.6996 49.2996 79.8996 49.8996 79.8996 50.5996C79.8996 51.2996 79.5996 51.8996 79.1996 52.2996C78.7996 52.7996 78.1996 52.9996 77.4996 52.9996C76.8996 53.0996 76.1996 52.8996 75.7996 52.2996Z" fill="white" />
        <path fill-rule="evenodd" clip-rule="evenodd" d="M68.0996 57.2998C68.0996 56.5998 68.3996 56.0998 68.7996 55.5998C69.6996 54.6998 71.2996 54.6998 72.1996 55.5998C72.6996 56.0998 72.8996 56.5998 72.8996 57.2998C72.8996 57.9998 72.5996 58.4998 72.1996 58.9998C71.7996 59.3998 71.1996 59.6998 70.4996 59.6998C69.7996 59.6998 69.2996 59.3998 68.7996 58.9998C68.2996 58.5998 68.0996 57.9998 68.0996 57.2998Z" fill="white" />
        <path fill-rule="evenodd" clip-rule="evenodd" d="M55.6004 72.1004C55.2004 71.7004 54.9004 71.1004 54.9004 70.4004C54.9004 69.7004 55.2004 69.2004 55.6004 68.7004C56.5004 67.8004 58.1004 67.8004 59.0004 68.7004C59.5004 69.2004 59.7004 69.7004 59.7004 70.4004C59.7004 71.1004 59.4004 71.6004 59.0004 72.1004C58.6004 72.6004 58.0004 72.8004 57.3004 72.8004C56.7004 72.9004 56.1004 72.7004 55.6004 72.1004Z" fill="white" />
        <path fill-rule="evenodd" clip-rule="evenodd" d="M48.7004 78.7996C48.2004 78.3996 47.9004 77.7996 47.9004 77.0996C47.9004 76.3996 48.2004 75.8996 48.7004 75.3996C49.7004 74.4996 51.3004 74.4996 52.4004 75.3996C52.9004 75.8996 53.2004 76.3996 53.2004 77.0996C53.2004 77.7996 52.9004 78.2996 52.4004 78.7996C51.9004 79.2996 51.2004 79.4996 50.6004 79.4996C49.8004 79.5996 49.2004 79.2996 48.7004 78.7996Z" fill="white" />
        <path fill-rule="evenodd" clip-rule="evenodd" d="M42.2 85.6004C41.8 85.2004 41.5 84.6004 41.5 83.9004C41.5 83.2004 41.8 82.6004 42.2 82.2004C43.1 81.3004 44.7 81.3004 45.6 82.2004C46 82.6004 46.3 83.2004 46.3 83.9004C46.3 84.6004 46 85.1004 45.6 85.6004C45.1 86.1004 44.6 86.3004 43.9 86.3004C43.2 86.3004 42.8 86.0004 42.2 85.6004Z" fill="white" />
        <path fill-rule="evenodd" clip-rule="evenodd" d="M35.4998 92.2996C34.9998 91.8996 34.7998 91.2996 34.7998 90.5996C34.7998 89.8996 35.0998 89.3996 35.4998 88.8996C36.3998 87.9996 37.9998 87.9996 38.8998 88.8996C39.2998 89.3996 39.5998 89.8996 39.5998 90.5996C39.5998 91.2996 39.2998 91.8996 38.8998 92.2996C38.3998 92.7996 37.8998 92.9996 37.1998 92.9996C36.5998 92.9996 35.8998 92.7996 35.4998 92.2996Z" fill="white" />
        <path fill-rule="evenodd" clip-rule="evenodd" d="M28.5998 98.9998C28.0998 98.5998 27.7998 97.9998 27.7998 97.2998C27.7998 96.5998 28.0998 96.0998 28.5998 95.5998C29.5998 94.6998 31.1998 94.6998 32.0998 95.5998C32.5998 96.0998 32.8998 96.5998 32.8998 97.2998C32.8998 97.9998 32.5998 98.5998 32.0998 98.9998C31.5998 99.3998 30.8998 99.6998 30.2998 99.6998C29.5998 99.6998 28.9998 99.4998 28.5998 98.9998Z" fill="white" />
        <path fill-rule="evenodd" clip-rule="evenodd" d="M21.9998 105.7C21.4998 105.2 21.2998 104.7 21.2998 104C21.2998 103.3 21.5998 102.8 21.9998 102.3C22.8998 101.4 24.4998 101.4 25.3998 102.3C25.8998 102.8 26.0998 103.3 26.0998 104C26.0998 104.7 25.7998 105.2 25.3998 105.7C24.9998 106.1 24.3998 106.4 23.6998 106.4C23.1998 106.5 22.5998 106.2 21.9998 105.7Z" fill="white" />
        <path fill-rule="evenodd" clip-rule="evenodd" d="M25.3998 25.4002C25.7998 24.9002 26.0998 24.4002 26.0998 23.7002C26.0998 23.0002 25.7998 22.5002 25.3998 22.0002C24.4998 21.1002 22.8998 21.1002 21.9998 22.0002C21.4998 22.5002 21.2998 23.0002 21.2998 23.7002C21.2998 24.4002 21.5998 24.9002 21.9998 25.4002C22.3998 25.8002 22.9998 26.1002 23.6998 26.1002C24.3998 26.2002 24.9998 26.0002 25.3998 25.4002Z" fill="white" />
        <path fill-rule="evenodd" clip-rule="evenodd" d="M32.0996 32.2996C32.5996 31.7996 32.8996 31.2996 32.8996 30.5996C32.8996 29.8996 32.5996 29.3996 32.0996 28.8996C31.0996 27.9996 29.4996 27.9996 28.3996 28.8996C27.8996 29.3996 27.5996 29.8996 27.5996 30.5996C27.5996 31.2996 27.8996 31.7996 28.3996 32.2996C28.8996 32.6996 29.5996 32.9996 30.1996 32.9996C30.8996 32.8996 31.5996 32.6996 32.0996 32.2996Z" fill="white" />
        <path fill-rule="evenodd" clip-rule="evenodd" d="M38.8998 38.9002C39.2998 38.5002 39.5998 37.9002 39.5998 37.2002C39.5998 36.5002 39.2998 36.0002 38.8998 35.5002C37.9998 34.6002 36.3998 34.6002 35.4998 35.5002C35.0998 35.9002 34.7998 36.5002 34.7998 37.2002C34.7998 37.9002 35.0998 38.4002 35.4998 38.9002C35.9998 39.4002 36.4998 39.6002 37.1998 39.6002C37.7998 39.6002 38.3998 39.3002 38.8998 38.9002Z" fill="white" />
        <path fill-rule="evenodd" clip-rule="evenodd" d="M45.6 45.6004C46 45.2004 46.3 44.6004 46.3 43.9004C46.3 43.2004 46 42.7004 45.6 42.2004C44.7 41.3004 43.1 41.3004 42.2 42.2004C41.8 42.6004 41.5 43.2004 41.5 43.9004C41.5 44.6004 41.8 45.2004 42.2 45.6004C42.7 46.1004 43.2 46.3004 43.9 46.3004C44.5 46.3004 45.1 46.2004 45.6 45.6004Z" fill="white" />
        <path fill-rule="evenodd" clip-rule="evenodd" d="M52.2004 52.2996C52.7004 51.8996 53.0004 51.2996 53.0004 50.5996C53.0004 49.8996 52.7004 49.3996 52.2004 48.8996C51.3004 47.9996 49.6004 47.9996 48.7004 48.8996C48.2004 49.2996 47.9004 49.8996 47.9004 50.5996C47.9004 51.2996 48.2004 51.8996 48.7004 52.2996C49.2004 52.7996 49.9004 52.9996 50.5004 52.9996C51.1004 53.0996 51.8004 52.8996 52.2004 52.2996Z" fill="white" />
        <path fill-rule="evenodd" clip-rule="evenodd" d="M59.7004 57.2998C59.7004 56.5998 59.4004 56.0998 59.0004 55.5998C58.1004 54.6998 56.5004 54.6998 55.6004 55.5998C55.1004 56.0998 54.9004 56.5998 54.9004 57.2998C54.9004 57.9998 55.2004 58.4998 55.6004 58.9998C56.0004 59.3998 56.6004 59.6998 57.3004 59.6998C58.0004 59.6998 58.5004 59.3998 59.0004 58.9998C59.5004 58.5998 59.7004 57.9998 59.7004 57.2998Z" fill="white" />
        <path fill-rule="evenodd" clip-rule="evenodd" d="M65.6996 65.7996C66.1996 65.2996 66.3996 64.7996 66.3996 64.0996C66.3996 63.3996 66.0996 62.8996 65.6996 62.3996C64.7996 61.4996 63.1996 61.4996 62.2996 62.3996C61.7996 62.8996 61.5996 63.3996 61.5996 64.0996C61.5996 64.7996 61.8996 65.2996 62.2996 65.7996C62.6996 66.1996 63.2996 66.4996 63.9996 66.4996C64.6996 66.4996 65.2996 66.1996 65.6996 65.7996Z" fill="white" />
        <path fill-rule="evenodd" clip-rule="evenodd" d="M72.3996 72.1004C72.8996 71.7004 73.1996 71.1004 73.1996 70.4004C73.1996 69.7004 72.8996 69.2004 72.3996 68.7004C71.3996 67.8004 69.7996 67.8004 68.8996 68.7004C68.3996 69.2004 68.0996 69.7004 68.0996 70.4004C68.0996 71.1004 68.3996 71.6004 68.8996 72.1004C69.3996 72.6004 70.0996 72.8004 70.6996 72.8004C71.1996 72.9004 71.8996 72.7004 72.3996 72.1004Z" fill="white" />
        <path fill-rule="evenodd" clip-rule="evenodd" d="M79.1996 78.7996C79.5996 78.3996 79.8996 77.7996 79.8996 77.0996C79.8996 76.3996 79.5996 75.8996 79.1996 75.3996C78.2996 74.4996 76.6996 74.4996 75.7996 75.3996C75.3996 75.8996 75.0996 76.3996 75.0996 77.0996C75.0996 77.7996 75.3996 78.2996 75.7996 78.7996C76.2996 79.2996 76.7996 79.4996 77.4996 79.4996C77.9996 79.5996 78.6996 79.2996 79.1996 78.7996Z" fill="white" />
        <path fill-rule="evenodd" clip-rule="evenodd" d="M85.8998 85.6004C86.2998 85.2004 86.5998 84.6004 86.5998 83.9004C86.5998 83.2004 86.2998 82.6004 85.8998 82.2004C84.9998 81.3004 83.3998 81.3004 82.4998 82.2004C82.0998 82.6004 81.7998 83.2004 81.7998 83.9004C81.7998 84.6004 82.0998 85.1004 82.4998 85.6004C82.9998 86.1004 83.4998 86.3004 84.1998 86.3004C84.8998 86.3004 85.3998 86.0004 85.8998 85.6004Z" fill="white" />
        <path fill-rule="evenodd" clip-rule="evenodd" d="M92.1996 92.2996C92.6996 91.8996 92.8996 91.2996 92.8996 90.5996C92.8996 89.8996 92.5996 89.3996 92.1996 88.8996C91.2996 87.9996 89.6996 87.9996 88.7996 88.8996C88.3996 89.3996 88.0996 89.8996 88.0996 90.5996C88.0996 91.2996 88.3996 91.8996 88.7996 92.2996C89.2996 92.7996 89.7996 92.9996 90.4996 92.9996C91.0996 92.9996 91.7996 92.7996 92.1996 92.2996Z" fill="white" />
        <path fill-rule="evenodd" clip-rule="evenodd" d="M99.3002 98.9998C99.8002 98.5998 100 97.9998 100 97.2998C100 96.5998 99.7002 96.0998 99.3002 95.5998C98.4002 94.6998 96.8002 94.6998 95.9002 95.5998C95.4002 96.0998 95.2002 96.5998 95.2002 97.2998C95.2002 97.9998 95.5002 98.5998 95.9002 98.9998C96.3002 99.3998 96.9002 99.6998 97.6002 99.6998C98.3002 99.6998 98.9002 99.4998 99.3002 98.9998Z" fill="white" />
        <path fill-rule="evenodd" clip-rule="evenodd" d="M106 105.7C106.5 105.2 106.8 104.7 106.8 104C106.8 103.3 106.5 102.8 106 102.3C105 101.4 103.4 101.4 102.5 102.3C102 102.8 101.7 103.3 101.7 104C101.7 104.7 102 105.2 102.5 105.7C103 106.1 103.7 106.4 104.3 106.4C104.8 106.5 105.4 106.2 106 105.7Z" fill="white" />
        <path fill-rule="evenodd" clip-rule="evenodd" d="M41.3 27.3C48.1 22.8 55.6 20.7 63.9 20.6C72 20.6 79.5 22.8 86.5 27.3L100.9 12.9C89.6 4.3 77.4 0 63.9 0C50.4 0 38 4.3 27 12.9L41.3 27.3Z" fill="white" />
        <path fill-rule="evenodd" clip-rule="evenodd" d="M26.9 86.3998C22.3 79.3998 20.1 71.9998 20.1 63.9998C20.1 55.8998 22.3 48.3998 26.9 41.5998L12.6 27.2998C4.2 38.2998 0 50.4998 0 64.0998C0 77.4998 4.2 89.7998 12.7 101L26.9 86.3998Z" fill="white" />
        <path fill-rule="evenodd" clip-rule="evenodd" d="M86.4004 100.7C79.6004 105.3 72.1004 107.7 64.0004 107.8C55.7004 107.8 48.1004 105.6 41.3004 100.8L26.9004 115.1C38.0004 123.8 50.4004 128.1 64.0004 128C77.5004 127.9 89.7004 123.5 100.7 115.1L86.4004 100.7Z" fill="white" />
        <path fill-rule="evenodd" clip-rule="evenodd" d="M100.5 41.3998C105.1 48.3998 107.5 55.9998 107.3 64.1998C107.2 72.1998 104.9 79.4998 100.5 86.1998L114.9 100.5C123.4 89.4998 127.8 77.2998 127.8 63.8998C127.9 50.2998 123.6 37.8998 114.9 26.7998L100.5 41.3998Z" fill="white" />
        <path fill-rule="evenodd" clip-rule="evenodd" d="M115.5 105.2C121 105.2 125.6 109.7 125.6 115.3C125.6 120.8 121.1 125.4 115.5 125.4C110 125.4 105.4 120.9 105.4 115.3C105.4 109.7 109.9 105.2 115.5 105.2Z" fill="white" />
        <path fill-rule="evenodd" clip-rule="evenodd" d="M12.5 105.2C18 105.2 22.5 109.7 22.5 115.3C22.5 120.8 18 125.4 12.5 125.4C7 125.4 2.5 120.9 2.5 115.3C2.5 109.7 7 105.2 12.5 105.2Z" fill="white" />
        <path fill-rule="evenodd" clip-rule="evenodd" d="M115.7 2.2002C121.2 2.2002 125.7 6.7002 125.7 12.3002C125.7 17.9002 121.2 22.4002 115.7 22.4002C110.2 22.4002 105.7 17.9002 105.7 12.3002C105.7 6.7002 110.2 2.2002 115.7 2.2002Z" fill="white" />
        <path fill-rule="evenodd" clip-rule="evenodd" d="M12.3002 2.2002C17.8002 2.2002 22.4002 6.7002 22.4002 12.2002C22.4002 17.7002 17.9002 22.2002 12.3002 22.2002C6.8002 22.2002 2.2002 17.7002 2.2002 12.2002C2.2002 6.7002 6.7002 2.2002 12.3002 2.2002Z" fill="white" />
        <g clip-path="url(#clip1_938_1078)">
            <path fill-rule="evenodd" clip-rule="evenodd" d="M91.099 38.8594C90.7466 38.5078 90.5352 38.1563 90.5352 37.6641C90.5352 37.1719 90.7466 36.8203 91.099 36.4687C91.8038 35.8359 92.9314 35.8359 93.7067 36.4687C94.059 36.8203 94.2705 37.1719 94.2705 37.6641C94.2705 38.1563 94.059 38.5078 93.7067 38.8594C93.3543 39.1406 92.8609 39.3516 92.4381 39.3516C91.9447 39.4219 91.4514 39.2812 91.099 38.8594Z" fill="#0D022B" />
            <path fill-rule="evenodd" clip-rule="evenodd" d="M86.5881 43.7109C86.3062 43.3594 86.0947 43.0078 86.0947 42.5156C86.0947 42.0234 86.3062 41.6719 86.5881 41.3203C87.2224 40.6875 88.35 40.6875 88.9843 41.3203C89.2662 41.6719 89.4777 42.0234 89.4777 42.5156C89.4777 43.0078 89.2662 43.3594 88.9843 43.7109C88.6319 43.9922 88.2795 44.2031 87.7862 44.2031C87.2928 44.2031 86.9405 43.9922 86.5881 43.7109Z" fill="#0D022B" />
            <path fill-rule="evenodd" clip-rule="evenodd" d="M81.6545 48.3516C81.3726 48.0703 81.1611 47.6484 81.1611 47.1563C81.1611 46.6641 81.3726 46.3125 81.6545 45.9609C82.2888 45.3281 83.4164 45.3281 84.0507 45.9609C84.3326 46.2422 84.5441 46.6641 84.5441 47.1563C84.5441 47.6484 84.3326 48 84.0507 48.3516C83.6983 48.7031 83.3459 48.8437 82.8526 48.8437C82.3593 48.8437 81.9364 48.6328 81.6545 48.3516Z" fill="#0D022B" />
            <path fill-rule="evenodd" clip-rule="evenodd" d="M76.933 53.0625C76.5806 52.7812 76.3691 52.3594 76.3691 51.8672C76.3691 51.375 76.5806 51.0234 76.933 50.6719C77.6377 50.0391 78.7654 50.0391 79.5406 50.6719C79.893 50.9531 80.1045 51.375 80.1045 51.8672C80.1045 52.3594 79.893 52.7812 79.5406 53.0625C79.1882 53.4141 78.6949 53.5547 78.272 53.5547C77.7787 53.5547 77.3558 53.4844 76.933 53.0625Z" fill="#0D022B" />
            <path fill-rule="evenodd" clip-rule="evenodd" d="M72.4221 57.7734C72.0697 57.4922 71.9287 57.0703 71.9287 56.5781C71.9287 56.0859 72.1401 55.7344 72.4221 55.3828C73.0564 54.75 74.184 54.75 74.8183 55.3828C75.1707 55.6641 75.3116 56.0859 75.3116 56.5781C75.3116 57.0703 75.1002 57.4922 74.8183 57.7734C74.5364 58.125 74.1135 58.2656 73.6202 58.2656C73.1973 58.3359 72.704 58.1953 72.4221 57.7734Z" fill="#0D022B" />
            <path fill-rule="evenodd" clip-rule="evenodd" d="M66.9951 61.2891C66.9951 60.7969 67.2066 60.4453 67.4885 60.0937C68.1228 59.4609 69.2504 59.4609 69.8847 60.0937C70.2371 60.4453 70.378 60.7969 70.378 61.2891C70.378 61.7813 70.1666 62.1328 69.8847 62.4844C69.6028 62.7656 69.1799 62.9766 68.6866 62.9766C68.1932 62.9766 67.8409 62.7656 67.4885 62.4844C67.1361 62.2031 66.9951 61.7813 66.9951 61.2891Z" fill="#0D022B" />
            <path fill-rule="evenodd" clip-rule="evenodd" d="M58.1857 71.6953C57.9038 71.4141 57.6924 70.9922 57.6924 70.5C57.6924 70.0078 57.9038 69.6562 58.1857 69.3047C58.82 68.6719 59.9477 68.6719 60.582 69.3047C60.9344 69.6562 61.0753 70.0078 61.0753 70.5C61.0753 70.9922 60.8639 71.3438 60.582 71.6953C60.3001 72.0469 59.8772 72.1875 59.3838 72.1875C58.961 72.2578 58.5381 72.1172 58.1857 71.6953Z" fill="#0D022B" />
            <path fill-rule="evenodd" clip-rule="evenodd" d="M53.3226 76.4063C52.9702 76.125 52.7588 75.7031 52.7588 75.2109C52.7588 74.7187 52.9702 74.3672 53.3226 74.0156C54.0274 73.3828 55.155 73.3828 55.9303 74.0156C56.2827 74.3672 56.4941 74.7187 56.4941 75.2109C56.4941 75.7031 56.2827 76.0547 55.9303 76.4063C55.5779 76.7578 55.0846 76.8984 54.6617 76.8984C54.0979 76.9687 53.675 76.7578 53.3226 76.4063Z" fill="#0D022B" />
            <path fill-rule="evenodd" clip-rule="evenodd" d="M48.7414 81.1875C48.4595 80.9063 48.248 80.4844 48.248 79.9922C48.248 79.5 48.4595 79.0781 48.7414 78.7969C49.3757 78.1641 50.5033 78.1641 51.1376 78.7969C51.4195 79.0781 51.631 79.5 51.631 79.9922C51.631 80.4844 51.4195 80.8359 51.1376 81.1875C50.7852 81.5391 50.4329 81.6797 49.9395 81.6797C49.4462 81.6797 49.1643 81.4688 48.7414 81.1875Z" fill="#0D022B" />
            <path fill-rule="evenodd" clip-rule="evenodd" d="M44.0197 85.8984C43.6673 85.6172 43.5264 85.1953 43.5264 84.7031C43.5264 84.2109 43.7378 83.8594 44.0197 83.5078C44.654 82.875 45.7817 82.875 46.416 83.5078C46.6979 83.8594 46.9093 84.2109 46.9093 84.7031C46.9093 85.1953 46.6979 85.6172 46.416 85.8984C46.0636 86.25 45.7112 86.3906 45.2178 86.3906C44.795 86.3906 44.3016 86.25 44.0197 85.8984Z" fill="#0D022B" />
            <path fill-rule="evenodd" clip-rule="evenodd" d="M39.1566 90.6094C38.8042 90.3281 38.5928 89.9063 38.5928 89.4141C38.5928 88.9219 38.8042 88.5703 39.1566 88.2187C39.8614 87.5859 40.989 87.5859 41.6233 88.2187C41.9757 88.5703 42.1871 88.9219 42.1871 89.4141C42.1871 89.9063 41.9757 90.3281 41.6233 90.6094C41.2709 90.8906 40.7776 91.1016 40.3547 91.1016C39.8614 91.1016 39.4385 90.9609 39.1566 90.6094Z" fill="#0D022B" />
            <path fill-rule="evenodd" clip-rule="evenodd" d="M34.5051 95.3203C34.1527 94.9687 34.0117 94.6172 34.0117 94.125C34.0117 93.6328 34.2232 93.2812 34.5051 92.9297C35.1394 92.2969 36.267 92.2969 36.9013 92.9297C37.2537 93.2812 37.3946 93.6328 37.3946 94.125C37.3946 94.6172 37.1832 94.9687 36.9013 95.3203C36.6194 95.6016 36.1965 95.8125 35.7032 95.8125C35.3508 95.8828 34.9279 95.6719 34.5051 95.3203Z" fill="#0D022B" />
            <path fill-rule="evenodd" clip-rule="evenodd" d="M36.9013 38.8594C37.1832 38.5078 37.3946 38.1563 37.3946 37.6641C37.3946 37.1719 37.1832 36.8203 36.9013 36.4687C36.267 35.8359 35.1394 35.8359 34.5051 36.4687C34.1527 36.8203 34.0117 37.1719 34.0117 37.6641C34.0117 38.1563 34.2232 38.5078 34.5051 38.8594C34.787 39.1406 35.2098 39.3516 35.7032 39.3516C36.1965 39.4219 36.6194 39.2812 36.9013 38.8594Z" fill="#0D022B" />
            <path fill-rule="evenodd" clip-rule="evenodd" d="M41.6236 43.7109C41.976 43.3594 42.1875 43.0078 42.1875 42.5156C42.1875 42.0234 41.976 41.6719 41.6236 41.3203C40.9189 40.6875 39.7912 40.6875 39.016 41.3203C38.6636 41.6719 38.4521 42.0234 38.4521 42.5156C38.4521 43.0078 38.6636 43.3594 39.016 43.7109C39.3684 43.9922 39.8617 44.2031 40.2846 44.2031C40.7779 44.1328 41.2713 43.9922 41.6236 43.7109Z" fill="#0D022B" />
            <path fill-rule="evenodd" clip-rule="evenodd" d="M46.416 48.3516C46.6979 48.0703 46.9093 47.6484 46.9093 47.1563C46.9093 46.6641 46.6979 46.3125 46.416 45.9609C45.7817 45.3281 44.654 45.3281 44.0197 45.9609C43.7378 46.2422 43.5264 46.6641 43.5264 47.1563C43.5264 47.6484 43.7378 48 44.0197 48.3516C44.3721 48.7031 44.7245 48.8437 45.2178 48.8437C45.6407 48.8437 46.0636 48.6328 46.416 48.3516Z" fill="#0D022B" />
            <path fill-rule="evenodd" clip-rule="evenodd" d="M51.1376 53.0625C51.4195 52.7812 51.631 52.3594 51.631 51.8672C51.631 51.375 51.4195 51.0234 51.1376 50.6719C50.5033 50.0391 49.3757 50.0391 48.7414 50.6719C48.4595 50.9531 48.248 51.375 48.248 51.8672C48.248 52.3594 48.4595 52.7812 48.7414 53.0625C49.0938 53.4141 49.4462 53.5547 49.9395 53.5547C50.3624 53.5547 50.7852 53.4844 51.1376 53.0625Z" fill="#0D022B" />
            <path fill-rule="evenodd" clip-rule="evenodd" d="M55.7893 57.7734C56.1417 57.4922 56.3531 57.0703 56.3531 56.5781C56.3531 56.0859 56.1417 55.7344 55.7893 55.3828C55.155 54.75 53.9569 54.75 53.3226 55.3828C52.9702 55.6641 52.7588 56.0859 52.7588 56.5781C52.7588 57.0703 52.9702 57.4922 53.3226 57.7734C53.675 58.125 54.1683 58.2656 54.5912 58.2656C55.0141 58.3359 55.5074 58.1953 55.7893 57.7734Z" fill="#0D022B" />
            <path fill-rule="evenodd" clip-rule="evenodd" d="M61.0753 61.2891C61.0753 60.7969 60.8639 60.4453 60.582 60.0937C59.9477 59.4609 58.82 59.4609 58.1857 60.0937C57.8333 60.4453 57.6924 60.7969 57.6924 61.2891C57.6924 61.7813 57.9038 62.1328 58.1857 62.4844C58.4676 62.7656 58.8905 62.9766 59.3838 62.9766C59.8772 62.9766 60.2296 62.7656 60.582 62.4844C60.9344 62.2031 61.0753 61.7813 61.0753 61.2891Z" fill="#0D022B" />
            <path fill-rule="evenodd" clip-rule="evenodd" d="M65.3036 67.2656C65.656 66.9141 65.797 66.5625 65.797 66.0703C65.797 65.5781 65.5856 65.2266 65.3036 64.875C64.6693 64.2422 63.5417 64.2422 62.9074 64.875C62.555 65.2266 62.4141 65.5781 62.4141 66.0703C62.4141 66.5625 62.6255 66.9141 62.9074 67.2656C63.1893 67.5469 63.6122 67.7578 64.1055 67.7578C64.5989 67.7578 65.0217 67.5469 65.3036 67.2656Z" fill="#0D022B" />
            <path fill-rule="evenodd" clip-rule="evenodd" d="M70.0257 71.6953C70.378 71.4141 70.5895 70.9922 70.5895 70.5C70.5895 70.0078 70.378 69.6562 70.0257 69.3047C69.3209 68.6719 68.1932 68.6719 67.5589 69.3047C67.2066 69.6562 66.9951 70.0078 66.9951 70.5C66.9951 70.9922 67.2066 71.3438 67.5589 71.6953C67.9113 72.0469 68.4047 72.1875 68.8275 72.1875C69.1799 72.2578 69.6733 72.1172 70.0257 71.6953Z" fill="#0D022B" />
            <path fill-rule="evenodd" clip-rule="evenodd" d="M74.8183 76.4063C75.1002 76.125 75.3116 75.7031 75.3116 75.2109C75.3116 74.7187 75.1002 74.3672 74.8183 74.0156C74.184 73.3828 73.0564 73.3828 72.4221 74.0156C72.1401 74.3672 71.9287 74.7187 71.9287 75.2109C71.9287 75.7031 72.1401 76.0547 72.4221 76.4063C72.7744 76.7578 73.1268 76.8984 73.6202 76.8984C73.9726 76.9687 74.4659 76.7578 74.8183 76.4063Z" fill="#0D022B" />
            <path fill-rule="evenodd" clip-rule="evenodd" d="M79.54 81.1875C79.8219 80.9063 80.0333 80.4844 80.0333 79.9922C80.0333 79.5 79.8219 79.0781 79.54 78.7969C78.9057 78.1641 77.778 78.1641 77.1437 78.7969C76.8618 79.0781 76.6504 79.5 76.6504 79.9922C76.6504 80.4844 76.8618 80.8359 77.1437 81.1875C77.4961 81.5391 77.8485 81.6797 78.3419 81.6797C78.8352 81.6797 79.1876 81.4688 79.54 81.1875Z" fill="#0D022B" />
            <path fill-rule="evenodd" clip-rule="evenodd" d="M83.9804 85.8984C84.3328 85.6172 84.4738 85.1953 84.4738 84.7031C84.4738 84.2109 84.2623 83.8594 83.9804 83.5078C83.3461 82.875 82.2185 82.875 81.5842 83.5078C81.3023 83.8594 81.0908 84.2109 81.0908 84.7031C81.0908 85.1953 81.3023 85.6172 81.5842 85.8984C81.9366 86.25 82.2889 86.3906 82.7823 86.3906C83.2052 86.3906 83.6985 86.25 83.9804 85.8984Z" fill="#0D022B" />
            <path fill-rule="evenodd" clip-rule="evenodd" d="M88.9843 90.6094C89.3367 90.3281 89.4777 89.9063 89.4777 89.4141C89.4777 88.9219 89.2662 88.5703 88.9843 88.2187C88.35 87.5859 87.2224 87.5859 86.5881 88.2187C86.2357 88.5703 86.0947 88.9219 86.0947 89.4141C86.0947 89.9063 86.3062 90.3281 86.5881 90.6094C86.87 90.8906 87.2928 91.1016 87.7862 91.1016C88.2795 91.1016 88.7024 90.9609 88.9843 90.6094Z" fill="#0D022B" />
            <path fill-rule="evenodd" clip-rule="evenodd" d="M93.7063 95.3203C94.0587 94.9687 94.2701 94.6172 94.2701 94.125C94.2701 93.6328 94.0587 93.2812 93.7063 92.9297C93.0015 92.2969 91.8739 92.2969 91.2396 92.9297C90.8872 93.2812 90.6758 93.6328 90.6758 94.125C90.6758 94.6172 90.8872 94.9687 91.2396 95.3203C91.592 95.6016 92.0853 95.8125 92.5082 95.8125C92.8606 95.8828 93.2835 95.6719 93.7063 95.3203Z" fill="#0D022B" />
            <path fill-rule="evenodd" clip-rule="evenodd" d="M48.1076 40.1953C52.9001 37.0312 58.1859 35.5547 64.0356 35.4844C69.7443 35.4844 75.0301 37.0312 79.9635 40.1953L90.1123 30.0703C82.1483 24.0234 73.55 21 64.0356 21C54.5211 21 45.7818 24.0234 38.0293 30.0703L48.1076 40.1953Z" fill="#0D022B" />
            <path fill-rule="evenodd" clip-rule="evenodd" d="M37.9585 81.75C34.7165 76.8281 33.166 71.625 33.166 66C33.166 60.3047 34.7165 55.0312 37.9585 50.25L27.8802 40.1953C21.9601 47.9297 19 56.5078 19 66.0703C19 75.4922 21.9601 84.1406 27.9507 92.0156L37.9585 81.75Z" fill="#0D022B" />
            <path fill-rule="evenodd" clip-rule="evenodd" d="M79.8932 91.8047C75.1007 95.0391 69.8149 96.7266 64.1062 96.7969C58.2566 96.7969 52.9003 95.25 48.1078 91.875L37.959 101.93C45.782 108.047 54.5212 111.07 64.1062 111C73.6207 110.93 82.219 107.836 89.9715 101.93L79.8932 91.8047Z" fill="#0D022B" />
            <path fill-rule="evenodd" clip-rule="evenodd" d="M89.8301 50.1094C93.0721 55.0313 94.7635 60.375 94.6226 66.1406C94.5521 71.7656 92.9311 76.8984 89.8301 81.6094L99.9789 91.6641C105.969 83.9297 109.07 75.3516 109.07 65.9297C109.141 56.3672 106.11 47.6484 99.9789 39.8438L89.8301 50.1094Z" fill="#0D022B" />
            <path fill-rule="evenodd" clip-rule="evenodd" d="M100.401 94.9688C104.278 94.9688 107.52 98.1328 107.52 102.07C107.52 105.938 104.348 109.172 100.401 109.172C96.5252 109.172 93.2832 106.008 93.2832 102.07C93.2832 98.1328 96.4547 94.9688 100.401 94.9688Z" fill="#0D022B" />
            <path fill-rule="evenodd" clip-rule="evenodd" d="M27.8095 94.9688C31.6858 94.9688 34.8573 98.1328 34.8573 102.07C34.8573 105.938 31.6858 109.172 27.8095 109.172C23.9332 109.172 20.7617 106.008 20.7617 102.07C20.7617 98.1328 23.9332 94.9688 27.8095 94.9688Z" fill="#0D022B" />
            <path fill-rule="evenodd" clip-rule="evenodd" d="M100.543 22.5469C104.419 22.5469 107.591 25.7109 107.591 29.6484C107.591 33.5859 104.419 36.75 100.543 36.75C96.6666 36.75 93.4951 33.5859 93.4951 29.6484C93.4951 25.7109 96.6666 22.5469 100.543 22.5469Z" fill="#0D022B" />
            <path fill-rule="evenodd" clip-rule="evenodd" d="M27.669 22.5469C31.5453 22.5469 34.7873 25.7109 34.7873 29.5781C34.7873 33.4453 31.6158 36.6094 27.669 36.6094C23.7928 36.6094 20.5508 33.4453 20.5508 29.5781C20.5508 25.7109 23.7223 22.5469 27.669 22.5469Z" fill="#0D022B" />
        </g>
    </g>
    <defs>
        <clipPath id="clip0_938_1078">
            <rect width="127.7" height="128" rx="63.85" fill="white" />
        </clipPath>
        <clipPath id="clip1_938_1078">
            <rect x="19" y="21" width="90" height="90" fill="white" />
        </clipPath>
    </defs>
</svg>