<svg width="400" height="400" viewBox="0 0 400 400" fill="none" xmlns="http://www.w3.org/2000/svg">
<path d="M200 400C310.457 400 400 310.457 400 200C400 89.5431 310.457 0 200 0C89.5431 0 0 89.5431 0 200C0 310.457 89.5431 400 200 400Z" fill="#00EF8B"/>
<path d="M287.6 168.8H231.2V225.2H287.6V168.8Z" fill="white"/>
<path d="M174.8 246.4C174.8 258 165.2 267.6 153.6 267.6C142 267.6 132.4 258 132.4 246.4C132.4 234.8 142 225.2 153.6 225.2H174.8V168.8H153.6C110.8 168.8 76 203.6 76 246.4C76 289.2 110.8 324 153.6 324C196.4 324 231.2 289.2 231.2 246.4V225.2H174.8V246.4Z" fill="white"/>
<path d="M252.4 140.4H316V84H252.4C209.6 84 174.8 118.8 174.8 161.6V168.8H231.2V161.6C231.2 150 240.8 140.4 252.4 140.4Z" fill="white"/>
<path d="M231.2 168.8H174.8V225.2H231.2V168.8Z" fill="#16FF99"/>
</svg>
