<svg width="400" height="400" viewBox="0 0 400 400" fill="none" xmlns="http://www.w3.org/2000/svg">
<path d="M200 400C310.457 400 400 310.457 400 200C400 89.543 310.457 0 200 0C89.543 0 0 89.543 0 200C0 310.457 89.543 400 200 400Z" fill="#1969FF"/>
<path d="M187.872 63.6017C194.61 60.0494 204.863 60.0494 211.601 63.6017L280.358 99.8498C284.416 101.989 286.644 105.177 287.044 108.468H287.109V290.668C287.02 294.258 284.77 297.824 280.358 300.15L211.601 336.398C204.863 339.951 194.61 339.951 187.872 336.398L119.116 300.15C114.722 297.834 112.613 294.243 112.508 290.668C112.498 290.301 112.497 289.999 112.508 289.75L112.508 109.695C112.498 109.441 112.498 109.189 112.508 108.938L112.508 108.468H112.539C112.845 105.141 114.972 102.034 119.116 99.8498L187.872 63.6017ZM276.172 209.766L211.58 243.93C204.852 247.489 194.614 247.489 187.886 243.93L123.438 209.842V290.105L187.886 324.012C191.694 326.05 195.654 328.035 199.51 328.122L199.733 328.125C203.581 328.138 207.318 326.181 211.107 324.328L276.172 289.813V209.766ZM101.728 286.719C101.728 293.703 102.533 298.294 104.13 301.528C105.454 304.209 107.441 306.257 111.068 308.75L111.276 308.892C112.072 309.433 112.949 310.001 114.016 310.667L115.275 311.445L119.141 313.799L113.596 323.047L109.27 320.41L108.542 319.96C107.291 319.181 106.254 318.512 105.287 317.853C94.9486 310.821 91.0929 303.154 91.0168 287.205L91.0156 286.719H101.728ZM194.531 161.328C194.031 161.5 193.562 161.7 193.135 161.926L124.483 198.291C124.411 198.329 124.342 198.366 124.277 198.404L124.219 198.437L124.327 198.499L124.483 198.584L193.135 234.949C193.562 235.175 194.031 235.375 194.531 235.547V161.328ZM205.469 161.328V235.547C205.969 235.375 206.438 235.175 206.866 234.949L275.517 198.584C275.589 198.546 275.658 198.509 275.723 198.471L275.781 198.437L275.673 198.376L275.517 198.291L206.866 161.926C206.438 161.7 205.969 161.5 205.469 161.328ZM276.172 121.484L214.453 153.906L276.172 186.328V121.484ZM123.438 121.484V186.328L185.156 153.906L123.438 121.484ZM206.806 73.2918C203.232 71.4027 196.768 71.4027 193.194 73.2918L124.483 109.619C124.411 109.657 124.342 109.694 124.277 109.732L124.219 109.766L124.327 109.827L124.483 109.913L193.194 146.239C196.768 148.129 203.232 148.129 206.806 146.239L275.516 109.913C275.589 109.874 275.658 109.837 275.723 109.8L275.781 109.766L275.673 109.704L275.516 109.619L206.806 73.2918ZM286.404 76.9531L290.731 79.5896L291.458 80.04C292.709 80.8191 293.746 81.4885 294.713 82.1464C305.051 89.1787 308.907 96.8458 308.983 112.795L308.984 113.281H298.272C298.272 106.296 297.467 101.706 295.87 98.4714C294.546 95.7909 292.559 93.7424 288.932 91.2497L288.725 91.1081C287.928 90.5666 287.052 89.9993 285.984 89.3326L284.725 88.5547L280.859 86.2011L286.404 76.9531Z" fill="white"/>
</svg>
