<svg width="400" height="400" viewBox="0 0 400 400" fill="none" xmlns="http://www.w3.org/2000/svg">
<path d="M200 400C310.457 400 400 310.457 400 200C400 89.5431 310.457 0 200 0C89.5431 0 0 89.5431 0 200C0 310.457 89.5431 400 200 400Z" fill="white"/>
<g clip-path="url(#clip0_217_7119)">
<path fill-rule="evenodd" clip-rule="evenodd" d="M75 267.836C78.4115 269.648 82.8891 272.42 86.0874 274.552C87.2601 275.352 88.5927 276.045 89.8721 276.844C90.565 277.271 90.9915 277.484 91.6311 277.91C91.951 278.124 92.2175 278.337 92.5373 278.497C92.9104 278.71 93.1237 278.817 93.4968 279.03L134.542 304.296C135.128 304.616 135.661 304.989 136.301 305.362L173.561 328.337C173.987 328.603 174.147 328.657 174.52 328.923L192.324 339.851C193.124 340.277 193.443 340.81 194.35 340.864V201.738L188.699 198.486C188.166 198.22 187.846 198.006 187.313 197.687L182.889 195.128C176.599 191.823 170.736 187.772 164.392 184.467C163.753 184.147 163.539 183.934 162.846 183.614L157.196 180.362C155.81 179.51 149.52 175.725 148.401 175.458V197.42L171.535 210.8C172.175 211.173 172.601 211.439 173.188 211.759C173.827 212.079 174.147 212.452 174.947 212.612V306.802C170.896 304.083 166.578 301.631 162.42 299.126L152.345 292.889C148.241 290.117 143.817 287.825 139.712 285.107C139.232 284.787 138.966 284.68 138.486 284.36L129.584 278.87C128.625 278.337 127.932 277.91 127.026 277.271C123.774 275.085 120.256 273.166 116.951 271.034C116.045 270.448 115.299 270.075 114.392 269.488C109.488 266.183 104.211 263.198 99.2004 260.16C98.774 259.893 98.4009 259.627 98.0277 259.36L94.1365 256.962V143.902C93.3902 143.422 92.6439 142.996 91.791 142.516C90.9382 142.036 90.2985 141.663 89.4456 141.13L77.452 134.307C76.5458 133.827 75.8529 133.294 75 132.868V267.836Z" fill="#060606"/>
<path fill-rule="evenodd" clip-rule="evenodd" d="M205.863 201.525V254.989L212.953 250.991C216.205 249.286 219.19 247.207 222.441 245.501C223.028 245.181 223.241 245.075 223.667 244.755C224.094 244.488 224.52 244.328 224.947 244.115V212.612C225.586 212.452 225.799 212.345 226.279 212.026C226.759 211.706 227.079 211.599 227.559 211.333C230.064 209.893 232.516 208.188 235.075 206.908C238.539 205.203 241.844 203.07 245.149 201.098C246.002 200.618 246.695 200.192 247.601 199.659L252.612 196.834C253.145 196.514 253.305 196.407 253.838 196.087C256.023 194.968 258.049 193.476 260.288 192.303L262.74 190.864C263.166 190.597 263.593 190.437 264.019 190.224L280.384 180.736C283.849 178.923 287.047 176.738 290.458 174.925L295.522 171.94C297.228 170.928 298.881 170.021 300.586 168.955C301.492 168.422 302.239 168.049 303.038 167.516L305.704 166.023V257.228C304.957 257.388 304.744 257.655 304.104 258.028L299.414 260.906C298.934 261.226 298.561 261.493 297.974 261.866C297.335 262.239 296.908 262.559 296.375 262.878C295.789 263.198 295.469 263.465 294.883 263.785L290.139 266.61C285.874 269.062 281.876 271.834 277.612 274.286L265.139 282.015C264.552 282.388 264.232 282.548 263.646 282.921C258.049 286.706 252.079 289.851 246.428 293.529C245.416 294.222 244.35 294.808 243.337 295.448L227.718 305.043C227.239 305.309 226.706 305.629 226.226 305.949C221.588 308.987 216.738 311.599 212.1 314.638L205.757 318.529V340.917C206.823 340.65 208.529 339.371 209.488 338.785C210.767 337.985 211.994 337.345 213.273 336.493C216.844 334.094 220.736 332.122 224.307 329.723C225 329.296 225.533 328.923 226.173 328.55L235.608 322.74C236.247 322.367 236.727 322.047 237.367 321.674L287.58 290.757C288.273 290.331 288.859 289.957 289.446 289.584L322.974 268.955C323.614 268.529 324.254 268.156 324.893 267.836V133.081C323.934 133.294 323.774 133.614 323.028 134.041C322.335 134.414 321.855 134.68 321.215 135.053L310.075 141.503C306.29 143.529 302.772 146.034 298.934 147.953L269.136 165.117C267.804 165.864 266.738 166.557 265.458 167.303L259.968 170.501C256.077 172.473 250.426 175.832 246.855 178.07C246.215 178.497 245.682 178.657 245.043 179.083L232.942 186.119C232.409 186.386 232.516 186.386 231.983 186.706L228.198 188.785C225.959 189.957 223.987 191.397 221.748 192.569C221.215 192.836 221.215 192.942 220.789 193.156L217.004 195.235C214.499 196.461 207.889 201.098 205.863 201.525Z" fill="#060606"/>
<path fill-rule="evenodd" clip-rule="evenodd" d="M82.4092 123.913C83.1554 124.072 83.5819 124.499 84.2749 124.872C86.7802 126.205 89.019 127.804 91.5776 129.083L111.833 140.81C121.482 146.674 131.503 151.898 141.204 157.761L143.017 158.774C143.71 159.147 144.19 159.467 144.829 159.787L155.863 166.183C156.343 166.45 156.29 166.45 156.663 166.663C161.833 169.808 167.271 172.473 172.388 175.725L188.806 185.16C189.445 185.533 189.925 185.853 190.565 186.226C192.484 187.399 199.36 191.557 200.053 191.557C201.066 191.557 206.929 187.825 208.422 186.919L211.3 185.213C212.26 184.627 213.113 184.254 214.072 183.667C215.085 183.081 215.831 182.655 216.844 182.068L222.441 178.763C223.401 178.177 224.254 177.751 225.16 177.164L233.635 172.367C234.168 172.1 234.541 171.834 235.021 171.567C235.501 171.247 235.821 171.087 236.407 170.768L242.057 167.516C242.964 166.983 243.976 166.183 245.042 165.917C244.883 165.277 244.776 165.33 244.243 165.011L226.173 154.616C218.976 158.401 212.153 162.825 205.01 166.716C204.424 167.036 203.944 167.356 203.411 167.729C202.292 168.422 201.279 169.009 200.106 169.648L189.232 163.358C185.448 161.439 181.983 158.934 178.198 156.962C177.345 156.482 176.492 155.949 175.746 155.522L153.678 142.836C153.251 142.569 152.878 142.356 152.452 142.09C151.972 141.77 151.652 141.663 151.173 141.397L122.921 125.085C122.388 124.765 122.335 124.606 121.588 124.446C122.175 123.593 122.868 123.539 123.827 122.953C124.627 122.42 125.373 122.154 126.226 121.674L150.799 108.401C151.332 108.081 151.332 108.028 151.865 107.761C152.399 107.495 152.665 107.388 153.145 107.068C153.998 106.535 154.851 106.162 155.703 105.736L186.354 89.2111C186.887 88.9446 187.047 88.7846 187.58 88.4648L200.053 81.8017C200.746 81.8017 210.181 87.2921 212.367 88.4115C212.9 88.678 213.273 88.838 213.806 89.1578C214.445 89.5309 214.605 89.6908 215.352 90.0107L249.254 108.294C252.239 110.16 261.3 114.904 264.499 116.503C268.123 118.316 271.588 120.501 275.213 122.313L295.362 133.241C296.055 133.614 296.268 133.721 296.908 134.094C299.307 135.533 299.36 134.307 303.251 132.175L310.448 128.07C311.727 127.377 316.578 124.286 317.697 124.019C317.484 123.326 316.844 123.06 316.204 122.687L308.902 118.689C305.224 116.823 301.546 114.531 297.868 112.772L290.565 108.774C288.06 107.495 285.554 106.322 283.209 104.829L246.375 84.9467C245.629 84.5736 245.202 84.3603 244.563 83.9339L229.744 75.9382C229.051 75.565 228.625 75.2985 227.932 74.9254C227.558 74.7122 227.399 74.6588 227.079 74.4989L207.622 63.9446C206.396 63.1983 200.693 60 200 60C199.413 60 195.309 62.452 194.403 62.8785L152.239 85.693C151.546 86.0128 151.013 86.2793 150.373 86.6525L120.842 102.591C120.149 102.964 119.829 103.23 119.03 103.603L116.364 105.043C115.831 105.309 115.831 105.416 115.405 105.629C114.819 106.002 114.179 106.162 113.539 106.588L107.889 109.627C107.143 110 106.77 110.32 106.077 110.64L97.4945 115.33C97.1746 115.49 97.1746 115.437 96.9081 115.597C95.6821 116.29 94.4028 116.77 93.2301 117.569C92.5371 117.996 92.1107 118.156 91.3644 118.529L83.1021 123.113C82.4625 123.486 82.6224 123.166 82.4092 123.913Z" fill="#060606"/>
</g>
<defs>
<clipPath id="clip0_217_7119">
<rect width="250" height="280.917" fill="white" transform="translate(75 60)"/>
</clipPath>
</defs>
</svg>
