<svg width="400" height="400" viewBox="0 0 400 400" fill="none" xmlns="http://www.w3.org/2000/svg">
<path d="M200 400C310.457 400 400 310.457 400 200C400 89.543 310.457 0 200 0C89.543 0 0 89.543 0 200C0 310.457 89.543 400 200 400Z" fill="#6747ED"/>
<path fill-rule="evenodd" clip-rule="evenodd" d="M197.083 225.833C167.5 225.833 143.75 202.083 143.75 172.5C143.75 142.917 167.5 119.167 197.083 119.167C226.667 119.167 250.417 142.917 250.417 172.5C250.417 202.083 226.667 225.833 197.083 225.833ZM197.083 92.5C241.25 92.5 277.083 128.333 277.083 172.5C277.083 216.667 241.25 252.5 197.083 252.5C152.917 252.5 117.083 216.667 117.083 172.5C117.083 128.333 152.917 92.5 197.083 92.5ZM273.333 256.667C278.75 262.083 278.75 270.417 273.333 275.417L220 328.75C214.583 334.167 206.25 334.167 201.25 328.75C195.833 323.333 195.833 315 201.25 310L254.583 256.667C259.583 251.25 268.333 251.25 273.333 256.667ZM304.167 105.833C304.167 113.333 298.333 119.167 290.833 119.167C283.333 119.167 277.5 113.333 277.5 105.833C277.5 98.3334 283.333 92.5 290.833 92.5C297.917 92.5 304.167 98.3334 304.167 105.833Z" fill="white"/>
</svg>
