<svg width="400" height="400" viewBox="0 0 400 400" fill="none" xmlns="http://www.w3.org/2000/svg">
<path d="M200 400C310.457 400 400 310.457 400 200C400 89.5431 310.457 0 200 0C89.5431 0 0 89.5431 0 200C0 310.457 89.5431 400 200 400Z" fill="white"/>
<path d="M253.264 104.041C264.87 92.4352 283.938 92.4352 295.544 104.041C307.15 115.648 307.15 134.715 295.544 146.321C288.705 153.161 279.585 156.062 270.259 154.819C269.845 154.819 269.43 154.819 268.808 154.819C266.114 154.404 263.212 154.819 260.311 156.062C256.373 157.927 253.679 161.036 252.228 164.767C250.777 168.497 250.984 172.642 252.642 176.373C262.591 197.927 258.031 224.041 241.036 240.829C224.041 257.824 198.135 262.383 176.58 252.435C172.642 250.57 168.497 250.57 164.767 252.021C161.036 253.471 157.927 256.166 156.269 259.896C155.233 262.383 154.611 264.87 154.819 267.565C154.819 267.979 154.819 268.601 154.819 269.016C156.477 278.549 153.161 288.29 146.528 295.13C134.922 306.736 115.855 306.736 104.249 295.13C98.6528 289.534 95.544 282.073 95.544 273.99C95.544 266.114 98.6528 258.446 104.249 252.85C111.088 246.01 120.207 243.109 129.534 244.352C129.741 244.352 129.741 244.352 129.948 244.352C130.984 244.56 132.021 244.767 133.057 244.767C135.337 244.767 137.409 244.352 139.482 243.316C143.42 241.451 146.114 238.342 147.358 234.819C148.808 231.088 148.808 226.736 146.943 222.798C136.995 201.036 141.554 175.13 158.549 158.342C175.544 141.347 201.451 136.788 223.005 146.736C226.736 148.601 231.088 148.601 234.819 147.15C238.549 145.699 241.658 143.005 243.523 139.275C244.974 136.373 245.181 133.057 244.767 129.948C243.316 120.622 246.425 110.881 253.264 104.041ZM223.627 223.42C236.477 210.57 236.477 189.637 223.627 176.58C210.777 163.731 189.845 163.731 176.788 176.58C163.938 189.43 163.938 210.363 176.788 223.42C189.845 236.269 210.777 236.269 223.627 223.42ZM200 0C310.466 0 400 89.5337 400 200C400 310.466 310.466 400 200 400C89.5337 400 0 310.466 0 200C0 89.5337 89.5337 0 200 0ZM306.528 157.513C324.145 139.896 324.145 111.295 306.528 93.4715C288.912 75.8549 260.311 75.8549 242.487 93.4715C235.855 100.104 231.917 108.187 230.052 116.477C197.927 104.456 161.244 112.124 136.788 136.58C112.332 161.036 104.663 197.927 116.891 230.052C108.394 231.71 100.311 235.855 93.6788 242.487C76.0622 260.104 76.0622 288.705 93.6788 306.528C111.295 324.145 139.896 324.145 157.72 306.528C164.352 299.896 168.497 291.606 170.155 283.109C180.104 286.839 190.466 288.705 200.829 288.705C223.834 288.705 246.425 279.793 263.212 263.005C287.668 238.549 295.337 202.073 283.523 170.155C291.813 168.083 299.896 163.938 306.528 157.513Z" fill="#474DFF"/>
</svg>
