<svg width="400" height="400" viewBox="0 0 400 400" fill="none" xmlns="http://www.w3.org/2000/svg">
<path d="M200 400C310.457 400 400 310.457 400 200C400 89.5431 310.457 0 200 0C89.5431 0 0 89.5431 0 200C0 310.457 89.5431 400 200 400Z" fill="#007F88"/>
<g clip-path="url(#clip0_294_1812)">
<path d="M70.1892 101.218C66.0249 101.545 62.8198 102.2 63 102.691C64.661 106.645 74.9313 129.923 75.0716 130.063C75.212 130.204 77.5983 130.367 80.4056 130.484C92.8516 130.952 102.701 133.385 113.345 138.649C120.995 142.416 126.657 146.463 132.552 152.335C141.232 160.991 146.893 170.606 150.215 182.374C150.59 183.731 150.894 184.947 150.894 185.134C150.894 185.392 148.999 185.439 140.624 185.439C134.962 185.439 130.096 185.532 129.792 185.649C129.347 185.813 128.178 188.339 123.311 199.499C120.036 207.008 117.322 213.325 117.276 213.536C117.112 214.144 119.077 214.682 123.99 215.407C124.996 215.571 131.032 215.735 138.167 215.828L150.59 215.969L149.841 218.542C141.466 246.943 115.474 266.805 83.6341 269.192C81.8327 269.309 79.4698 269.426 78.3703 269.426H76.3817L70.2523 283.533C64.9885 295.581 64.1697 297.64 64.5206 297.757C66.1115 298.341 69.6675 298.552 77.9024 298.552C88.43 298.552 93.5534 298.084 102.233 296.306C137.676 289.03 167.13 266.478 180.465 236.345C183.038 230.544 186.056 220.998 186.594 216.998L186.758 215.852H213.358L213.451 216.366C215.37 225.771 217.452 232.111 221.055 239.597C231.886 262.15 252.193 280.561 277.342 290.668C292.614 296.784 308.973 299.721 325.418 299.301C332.296 299.09 337.771 298.318 337.49 297.593C337.256 296.984 325.605 270.244 325.535 270.174C325.465 270.104 323.055 270.01 320.131 269.893C311.919 269.566 305.743 268.607 298.772 266.618C288.034 263.53 277.412 257.939 269.271 251.107C259.024 242.475 251.608 231.737 247.678 219.829C247.233 218.472 246.789 217.045 246.719 216.624L246.555 215.875L256.568 215.805C262.065 215.758 266.744 215.641 266.932 215.548C267.236 215.384 279.214 188.222 279.214 187.684C279.214 187.333 276.196 186.444 273.459 186C271.447 185.672 268.897 185.579 258.72 185.509L246.391 185.392L246.859 183.731C253.69 159.541 274.652 140.334 301.673 133.526C307.638 132.028 313.44 131.256 320.973 130.952C325.465 130.765 326.026 130.695 326.307 130.321C326.494 130.063 329.255 123.864 332.437 116.541C336.344 107.581 338.145 103.159 337.981 103.042C337.467 102.762 334.191 102.177 331.618 101.919C327.875 101.522 316.949 101.592 312.13 102.013C284.571 104.469 259.726 115.582 241.104 133.736C229.734 144.825 221.756 157.271 216.843 171.636C215.58 175.262 214.06 180.97 213.592 183.731L213.311 185.439H187.163L187.069 184.9C186.999 184.62 186.742 183.286 186.461 181.929C182.601 162.746 171.699 144.1 156.305 130.367C138.782 114.716 116.932 104.914 92.882 101.936C85.6531 101.054 76.3349 100.75 70.1892 101.218Z" fill="white"/>
</g>
<defs>
<clipPath id="clip0_294_1812">
<rect width="275" height="198.345" fill="white" transform="translate(63 101)"/>
</clipPath>
</defs>
</svg>
