<svg width="400" height="400" viewBox="0 0 400 400" fill="none" xmlns="http://www.w3.org/2000/svg">
<circle cx="200" cy="200" r="200" fill="black"/>
<g clip-path="url(#clip0_219_7139)">
<path d="M277.09 125C260.368 125 242.057 134.114 222.742 152.09C213.629 160.535 205.602 169.732 199.749 177.007C199.749 177.007 209.114 187.793 219.398 199.415C225 192.391 232.943 182.86 242.224 174.247C259.364 158.194 270.568 154.933 277.007 154.933C301.087 154.933 320.652 175.167 320.652 200.167C320.652 224.916 301.087 245.15 277.007 245.401C275.836 245.401 274.498 245.234 272.826 244.9C279.849 248.161 287.458 250.502 294.565 250.502C338.712 250.502 347.408 219.983 347.91 217.809C349.164 212.207 349.916 206.355 349.916 200.334C349.833 158.779 317.224 125 277.09 125Z" fill="url(#paint0_linear_219_7139)"/>
<path d="M122.826 275.334C139.549 275.334 157.86 266.221 177.174 248.244C186.288 239.799 194.314 230.602 200.167 223.328C200.167 223.328 190.803 212.542 180.518 200.92C174.916 207.943 166.973 217.475 157.692 226.087C140.552 241.973 129.264 245.401 122.91 245.401C98.8294 245.401 79.2642 225.167 79.2642 200.167C79.2642 175.418 98.8294 155.184 122.91 154.933C124.08 154.933 125.418 155.1 127.09 155.435C120.067 152.174 112.458 149.833 105.351 149.833C61.204 149.749 52.5084 180.268 52.0067 182.525C50.7525 188.127 50 193.98 50 200C50 241.555 82.6087 275.334 122.826 275.334Z" fill="url(#paint1_linear_219_7139)"/>
<path fill-rule="evenodd" clip-rule="evenodd" d="M156.438 174.916C151.588 170.234 128.01 151.087 105.435 150.418C65.1336 149.415 53.3443 178.679 52.2573 182.441C60.0332 149.666 88.7958 125.167 122.91 125C150.752 125 178.93 152.341 199.749 177.007L199.833 176.923C199.833 176.923 209.197 187.709 219.481 199.331C219.481 199.331 231.187 213.127 243.562 225.251C248.411 229.933 271.906 248.829 294.481 249.498C335.869 250.669 347.324 219.732 347.91 217.391C340.301 250.418 311.455 275 277.174 275.167C249.331 275.167 221.154 247.826 200.251 223.161C200.251 223.244 200.167 223.244 200.167 223.328C200.167 223.328 190.802 212.542 180.518 200.92C180.602 200.92 168.896 187.04 156.438 174.916ZM52.2573 182.776C52.2573 182.692 52.2573 182.609 52.3409 182.525C52.2573 182.609 52.2573 182.692 52.2573 182.776Z" fill="#29ABE2"/>
</g>
<defs>
<linearGradient id="paint0_linear_219_7139" x1="237.947" y1="136.912" x2="341.025" y2="240.838" gradientUnits="userSpaceOnUse">
<stop offset="0.21" stop-color="#F15A24"/>
<stop offset="0.6841" stop-color="#FBB03B"/>
</linearGradient>
<linearGradient id="paint1_linear_219_7139" x1="161.995" y1="263.44" x2="58.9175" y2="159.514" gradientUnits="userSpaceOnUse">
<stop offset="0.21" stop-color="#ED1E79"/>
<stop offset="0.8929" stop-color="#522785"/>
</linearGradient>
<clipPath id="clip0_219_7139">
<rect width="300" height="150.334" fill="white" transform="translate(50 125)"/>
</clipPath>
</defs>
</svg>
