<svg width="400" height="400" viewBox="0 0 400 400" fill="none" xmlns="http://www.w3.org/2000/svg">
<path d="M200 400C310.457 400 400 310.457 400 200C400 89.5431 310.457 0 200 0C89.5431 0 0 89.5431 0 200C0 310.457 89.5431 400 200 400Z" fill="black"/>
<g clip-path="url(#clip0_224_7244)">
<path d="M304.593 92H332.428L219.565 220.878C216.705 224.119 216.514 229.076 219.374 232.507L284.385 308.194H255.406L195.352 238.036L192.302 234.223C189.442 230.982 189.633 225.835 192.493 222.594L304.593 92Z" fill="#17B5CB"/>
<path d="M241.871 232.507C239.964 230.41 239.392 227.36 239.964 224.691C240.536 223.165 241.489 221.64 242.633 220.496L250.068 212.299L333 308.194H306.691C306.691 308.194 258.076 251.381 241.871 232.507Z" fill="#17B5CB"/>
<path d="M96.9784 308.194H68L156.842 205.435C159.701 202.194 159.701 197.237 156.842 193.996L68.7626 92H96.5971L185.248 194.759C187.536 197.809 187.917 202.194 185.439 205.054C162.18 231.935 96.9784 308.194 96.9784 308.194Z" fill="#17B5CB"/>
<path d="M145.403 92H118.712L200.881 187.133C200.881 187.133 201.072 186.942 210.223 176.076C212.701 173.216 213.273 169.594 210.414 166.734C193.255 149.194 145.403 92 145.403 92Z" fill="#17B5CB"/>
<path d="M225.475 158.345L282.478 92H255.406L225.665 126.698L217.086 136.802C214.227 140.043 214.036 145 216.896 148.432C218.993 150.91 225.475 158.345 225.475 158.345Z" fill="#17B5CB"/>
<path d="M175.906 241.849L118.903 308.194H145.784L175.525 273.496L184.104 263.392C186.964 260.151 187.155 255.194 184.295 251.763C182.198 249.284 175.906 241.849 175.906 241.849Z" fill="#17B5CB"/>
</g>
<defs>
<clipPath id="clip0_224_7244">
<rect width="265" height="215.432" fill="white" transform="translate(68 92)"/>
</clipPath>
</defs>
</svg>
