<svg width="400" height="400" viewBox="0 0 400 400" fill="none" xmlns="http://www.w3.org/2000/svg">
<path d="M200 400C310.457 400 400 310.457 400 200C400 89.5431 310.457 0 200 0C89.5431 0 0 89.5431 0 200C0 310.457 89.5431 400 200 400Z" fill="black"/>
<path d="M98.9981 112.757C100.654 110.675 102.409 108.673 104.163 106.67C104.242 106.571 104.42 106.551 104.499 106.451C104.657 106.253 104.913 106.134 105.071 105.935L105.229 105.737C106.452 104.607 107.753 103.376 109.254 102.304C114.563 98.2733 120.073 95.2113 125.883 93.1967C144.519 86.654 165.263 90.686 181.53 106.043C204.244 127.335 202.21 161.634 184.078 184.431C161.165 218.417 121.789 265.832 176.309 308.307C186.111 315.944 193.383 322.241 224.261 331.164C204.067 334.884 185.341 333.727 164.499 328.403C149.756 320.082 126.577 302.265 118.691 278.2C106.773 241.708 139.675 187.155 155.577 166.144C177.409 137.066 142.083 105.588 116.075 140.73C102.48 159.044 78.6961 210.869 86.9614 249.31C91.7941 271.109 98.2354 286.999 123.775 308.827C119.039 306.033 114.44 302.863 109.979 299.316C50.6381 244.04 57.5226 158.573 98.9981 112.757Z" fill="url(#paint0_linear_249_1144)"/>
<path d="M301.002 287.243C299.346 289.325 297.591 291.327 295.837 293.33C295.758 293.429 295.58 293.449 295.501 293.549C295.343 293.747 295.087 293.866 294.929 294.065L294.771 294.263C293.548 295.393 292.247 296.624 290.746 297.696C285.437 301.727 279.927 304.789 274.117 306.803C255.481 313.346 234.737 309.314 218.47 293.957C195.756 272.665 197.79 238.366 215.922 215.569C238.835 181.583 278.211 134.168 223.691 91.6933C213.889 84.056 206.617 77.7593 175.739 68.836C195.933 65.1157 214.659 66.273 235.501 71.5967C250.244 79.918 273.423 97.7353 281.309 121.8C293.227 158.292 260.325 212.845 244.423 233.856C222.591 262.934 257.917 294.412 283.925 259.27C297.52 240.956 321.304 189.131 313.039 150.69C308.206 128.891 301.765 113.001 276.225 91.1727C280.961 93.9673 285.56 97.1373 290.021 100.684C349.362 155.96 342.477 241.427 301.002 287.243Z" fill="url(#paint1_linear_249_1144)"/>
<defs>
<linearGradient id="paint0_linear_249_1144" x1="66.6668" y1="200" x2="333.333" y2="200" gradientUnits="userSpaceOnUse">
<stop stop-color="#0082FA"/>
<stop offset="1" stop-color="#00F2FE"/>
</linearGradient>
<linearGradient id="paint1_linear_249_1144" x1="66.6668" y1="200" x2="333.333" y2="200" gradientUnits="userSpaceOnUse">
<stop stop-color="#0082FA"/>
<stop offset="1" stop-color="#00F2FE"/>
</linearGradient>
</defs>
</svg>
