<svg width="400" height="400" viewBox="0 0 400 400" fill="none" xmlns="http://www.w3.org/2000/svg">
<path d="M200 400C310.457 400 400 310.457 400 200C400 89.5431 310.457 0 200 0C89.5431 0 0 89.5431 0 200C0 310.457 89.5431 400 200 400Z" fill="black"/>
<path d="M321.927 124.975C317.789 121.713 312.855 117.257 303.864 116.143C295.429 115.029 286.835 120.678 281.027 124.418C275.218 128.158 264.237 139.139 259.701 142.481C255.166 145.823 243.548 148.926 224.849 160.146C206.15 171.366 132.784 218.472 132.784 218.472L151.882 218.711L66.7399 262.555H75.2541L63 271.865C63 271.865 73.8218 274.729 82.8929 269V271.626C82.8929 271.626 184.267 231.681 203.842 242.025L191.906 245.527C192.941 245.527 212.197 246.8 212.197 246.8C212.664 250.787 214.005 254.623 216.123 258.034C218.241 261.444 221.084 264.346 224.451 266.534C236.069 274.172 236.307 278.39 236.307 278.39C236.307 278.39 230.26 280.856 230.26 283.96C230.26 283.96 239.172 281.254 247.447 281.493C252.7 281.692 257.909 282.52 262.964 283.96C262.964 283.96 262.327 280.618 254.291 278.39C246.254 276.162 238.297 267.409 234.398 262.635C232.009 259.596 230.453 255.988 229.881 252.165C229.309 248.342 229.741 244.437 231.135 240.832C233.92 233.591 243.628 229.612 263.68 219.268C287.313 207.014 292.724 197.943 296.066 190.861C299.408 183.779 304.341 169.695 307.126 163.09C310.627 154.576 314.924 150.04 318.505 147.335C322.086 144.63 338 138.662 338 138.662C338 138.662 325.826 128.079 321.927 124.975Z" fill="white"/>
</svg>
