<svg width="400" height="400" viewBox="0 0 400 400" fill="none" xmlns="http://www.w3.org/2000/svg">
<path d="M200 400C310.457 400 400 310.457 400 200C400 89.5431 310.457 0 200 0C89.5431 0 0 89.5431 0 200C0 310.457 89.5431 400 200 400Z" fill="url(#paint0_linear_292_1912)"/>
<path d="M101.56 260V165.867L172.947 219.593V260H191.167V215.8C191.163 214.158 190.779 212.538 190.045 211.069C189.31 209.6 188.245 208.321 186.933 207.333L100.36 142.153C98.7765 140.977 96.8979 140.263 94.933 140.091C92.9681 139.918 90.9938 140.294 89.2296 141.176C87.4654 142.058 85.9803 143.412 84.9394 145.087C83.8985 146.763 83.3425 148.694 83.3333 150.667V260H101.56ZM298.987 260V165.867L227.6 219.593V260H209.38V215.8C209.383 214.158 209.767 212.538 210.502 211.069C211.236 209.6 212.301 208.321 213.613 207.333L300.187 142.18C301.768 141.005 303.644 140.291 305.607 140.118C307.57 139.944 309.542 140.318 311.305 141.196C313.069 142.075 314.554 143.425 315.597 145.097C316.64 146.769 317.199 148.696 317.213 150.667V260H298.987Z" fill="white"/>
<defs>
<linearGradient id="paint0_linear_292_1912" x1="200" y1="0" x2="200" y2="400" gradientUnits="userSpaceOnUse">
<stop stop-color="#4FA89B"/>
<stop offset="1" stop-color="#6ACEBB"/>
</linearGradient>
</defs>
</svg>
