<svg width="401" height="401" viewBox="0 0 401 401" fill="none" xmlns="http://www.w3.org/2000/svg">
<path d="M200.5 401C311.233 401 401 311.233 401 200.5C401 89.7669 311.233 0 200.5 0C89.7669 0 0 89.7669 0 200.5C0 311.233 89.7669 401 200.5 401Z" fill="white"/>
<g clip-path="url(#clip0_226_7279)">
<path d="M175.627 1.06115C89.1237 12.7985 19.5034 77.9168 3.58561 162.008C-6.38312 215.067 4.55032 268.287 34.9389 313.79C45.5507 329.547 72.0804 356.237 87.355 366.367C110.669 381.641 134.465 391.61 161.96 397.559C180.932 401.579 220.164 401.579 239.137 397.559C278.369 389.198 310.044 372.798 338.02 346.429C367.605 318.292 387.221 284.205 395.903 245.777C411.017 179.212 392.527 111.521 345.738 61.8382C318.244 32.8968 278.369 10.8691 238.815 3.31215C222.254 0.0964367 190.58 -1.02906 175.627 1.06115ZM220.647 16.979C268.4 22.4457 313.581 46.8851 343.005 83.2227C361.977 106.858 372.911 128.725 380.146 158.471C383.683 172.62 384.327 179.051 384.487 198.667C384.487 226.644 381.593 243.848 372.428 267.001C324.032 391.289 164.05 424.893 70.3117 330.511C17.4132 277.452 1.81696 200.275 29.9545 130.655C44.2644 94.7993 74.1706 60.2304 107.292 41.4184C143.469 20.677 181.093 12.6377 220.647 16.979Z" fill="black"/>
<path d="M70.7942 153.004C49.892 160.561 36.5468 186.447 41.3704 210.565C43.7822 222.624 46.5155 228.252 54.0725 236.13C64.0412 246.903 70.4726 249.315 87.9983 249.315C101.987 249.315 104.077 248.832 111.795 244.652C126.105 236.613 133.983 223.91 135.752 205.902C138.003 181.141 123.693 157.988 102.63 152.039C94.4297 149.788 78.6727 150.27 70.7942 153.004ZM106.006 173.102C115.493 180.016 120.316 195.934 116.94 209.922C110.508 236.934 74.9746 242.24 62.7549 217.961C55.3588 203.491 59.2176 180.82 70.4726 172.941C79.7982 166.188 96.3592 166.349 106.006 173.102Z" fill="black"/>
<path d="M288.337 153.647C258.11 165.706 249.588 210.244 272.42 237.256C284.8 252.048 314.063 254.781 327.087 242.24L330.624 238.863L331.106 243.366C331.589 247.385 332.071 247.707 339.628 247.707H347.667L348.15 222.303L348.632 197.059H325.961H303.451V205.098V213.138H317.118C331.91 213.138 332.393 213.459 328.212 222.142C325.318 228.091 315.028 234.04 307.31 234.04C288.82 234.04 277.726 221.016 277.726 199.953C277.886 176.639 292.839 163.294 313.259 168.118C321.138 170.047 329.177 176.961 329.177 181.945C329.177 183.553 331.589 184.196 338.824 184.196H348.311L346.06 176.961C341.075 160.078 328.695 151.557 308.275 150.914C299.271 150.592 294.286 151.235 288.337 153.647Z" fill="black"/>
<path d="M149.097 200.275V248.511H157.136H165.176L165.497 216.032L165.979 183.392L177.878 216.032L189.776 248.671L197.815 248.189L205.854 247.707L217.592 215.55L229.329 183.392L229.811 215.55L230.294 247.707L238.815 248.189L247.176 248.671L246.855 200.757L246.372 152.843H235.278H224.023L211.16 188.538C204.086 208.314 197.815 223.91 197.333 223.106C196.69 222.463 190.901 207.189 184.47 189.02C178.038 170.851 171.929 155.094 171.125 153.969C170.16 152.843 165.658 152.039 159.387 152.039H149.097V200.275Z" fill="black"/>
</g>
<defs>
<clipPath id="clip0_226_7279">
<rect width="401" height="400.518" fill="white"/>
</clipPath>
</defs>
</svg>
