<svg width="400" height="400" viewBox="0 0 400 400" fill="none" xmlns="http://www.w3.org/2000/svg">
<path d="M200 400C310.457 400 400 310.457 400 200C400 89.5431 310.457 0 200 0C89.5431 0 0 89.5431 0 200C0 310.457 89.5431 400 200 400Z" fill="white"/>
<g clip-path="url(#clip0_292_1860)">
<path d="M118.003 57.2776L200.498 153.932L255.872 121.359C255.872 121.359 189.065 32.0173 171.25 38.3324C154.498 44.7139 118.003 57.2776 118.003 57.2776Z" fill="black"/>
<path d="M257.933 121.359C257.933 121.359 270.496 99.2896 276.745 69.8413C276.745 69.8413 339.431 95.0352 315.367 158.12L257.933 121.359Z" fill="black"/>
<path d="M315.367 158.186L320.618 224.395L344.616 221.271C344.616 221.271 350.864 219.143 349.867 207.643C348.803 195.013 346.743 168.756 346.743 168.756C346.743 168.756 347.806 162.441 333.182 160.38C315.367 157.123 315.367 158.186 315.367 158.186Z" fill="black"/>
<path d="M320.552 224.395L272.491 263.282L294.427 306.358C294.427 306.358 299.679 323.176 315.3 304.231C329.925 285.286 336.173 282.161 335.11 270.595C334.179 259.028 330.988 231.707 320.552 224.395Z" fill="black"/>
<path d="M271.494 263.216L205.684 233.768L148.25 350.431C148.25 350.431 144.062 358.807 158.686 359.87C173.311 361.997 197.308 367.249 209.872 354.619C222.435 343.119 271.494 263.216 271.494 263.216Z" fill="black"/>
<path d="M205.684 232.771L199.435 154.995L57.3787 164.501C57.3787 164.501 49.0029 165.565 50.0665 181.319C51.1301 202.325 53.1908 225.458 53.1908 225.458C53.1908 225.458 52.1272 234.898 70.9395 235.961C89.7518 236.959 203.623 236.959 205.684 232.771Z" fill="black"/>
</g>
<defs>
<clipPath id="clip0_292_1860">
<rect width="300" height="324.795" fill="white" transform="translate(50 38)"/>
</clipPath>
</defs>
</svg>
