<svg id="svg" version="1.1" xmlns="http://www.w3.org/2000/svg" xmlns:xlink="http://www.w3.org/1999/xlink" width="400" height="400" viewBox="0, 0, 400,400"><g id="svgg"><path id="path0" d="M122.000 48.552 C 122.000 49.041,121.584 49.210,120.300 49.240 C 118.167 49.290,116.741 49.680,116.792 50.200 C 116.814 50.420,116.465 50.658,116.016 50.728 C 115.567 50.798,115.200 51.113,115.200 51.428 C 115.200 51.743,114.840 52.000,114.400 52.000 C 113.181 52.000,113.038 52.036,112.504 52.479 C 112.232 52.706,112.107 53.050,112.228 53.245 C 112.349 53.440,111.880 53.600,111.186 53.600 C 110.262 53.600,109.869 53.813,109.716 54.400 C 109.600 54.843,109.170 55.200,108.753 55.200 C 108.339 55.200,108.000 55.470,108.000 55.800 C 108.000 56.133,107.644 56.400,107.200 56.400 C 106.667 56.400,106.400 56.667,106.400 57.200 C 106.400 57.644,106.133 58.000,105.800 58.000 C 105.470 58.000,105.200 58.270,105.200 58.600 C 105.200 58.933,104.844 59.200,104.400 59.200 C 103.867 59.200,103.600 59.467,103.600 60.000 C 103.600 60.444,103.333 60.800,103.000 60.800 C 102.459 60.800,102.222 61.275,102.353 62.100 C 102.379 62.265,102.040 62.400,101.600 62.400 C 100.952 62.400,100.800 62.667,100.800 63.800 C 100.800 64.933,100.648 65.200,100.000 65.200 C 99.352 65.200,99.200 65.467,99.200 66.600 C 99.200 67.578,99.019 68.000,98.600 68.000 C 98.270 68.000,98.000 68.249,98.000 68.553 C 98.000 68.858,97.640 69.201,97.200 69.316 C 96.617 69.468,96.400 69.862,96.400 70.763 C 96.400 71.596,96.204 72.000,95.800 72.000 C 95.470 72.000,95.200 72.339,95.200 72.753 C 95.200 73.170,94.843 73.600,94.400 73.716 C 93.817 73.868,93.600 74.262,93.600 75.163 C 93.600 75.874,93.254 76.746,92.785 77.215 C 92.337 77.663,92.070 78.190,92.192 78.387 C 92.314 78.584,92.066 78.989,91.642 79.286 C 91.217 79.583,90.809 80.360,90.735 81.013 C 90.652 81.741,90.368 82.200,90.000 82.200 C 89.595 82.200,89.360 82.689,89.276 83.700 C 89.195 84.681,88.953 85.200,88.576 85.200 C 88.259 85.200,88.000 85.470,88.000 85.800 C 88.000 86.133,87.644 86.400,87.200 86.400 C 86.557 86.400,86.400 86.667,86.400 87.757 C 86.400 88.595,86.170 89.203,85.800 89.345 C 85.453 89.478,85.200 90.076,85.200 90.760 C 85.200 91.595,84.963 92.021,84.400 92.200 C 83.960 92.340,83.600 92.712,83.600 93.027 C 83.600 93.342,83.338 93.600,83.018 93.600 C 82.667 93.600,82.330 94.169,82.168 95.032 C 82.020 95.819,81.652 96.559,81.349 96.675 C 81.047 96.791,80.800 97.406,80.800 98.043 C 80.800 98.933,80.616 99.200,80.000 99.200 C 79.496 99.200,79.200 99.467,79.200 99.920 C 79.200 100.316,78.975 100.865,78.700 101.140 C 78.147 101.693,78.122 101.796,78.050 103.800 C 78.010 104.917,77.838 105.200,77.200 105.200 C 76.760 105.200,76.400 105.451,76.400 105.757 C 76.400 106.064,76.130 106.418,75.800 106.545 C 75.449 106.679,75.200 107.279,75.200 107.987 C 75.200 108.830,75.006 109.200,74.563 109.200 C 74.212 109.200,73.831 109.560,73.716 110.000 C 73.601 110.440,73.266 110.800,72.971 110.800 C 72.677 110.800,72.320 111.418,72.179 112.172 C 72.037 112.927,71.669 113.641,71.361 113.760 C 70.983 113.905,70.800 114.630,70.800 115.987 C 70.800 117.510,70.654 118.000,70.200 118.000 C 69.274 118.000,68.000 119.490,68.000 120.573 C 68.000 121.195,67.711 121.638,67.200 121.800 C 66.760 121.940,66.400 122.383,66.400 122.784 C 66.400 123.186,66.130 123.618,65.800 123.745 C 65.449 123.879,65.200 124.479,65.200 125.187 C 65.200 126.133,65.024 126.400,64.400 126.400 C 63.752 126.400,63.600 126.667,63.600 127.800 C 63.600 128.778,63.419 129.200,63.000 129.200 C 62.472 129.200,62.236 129.646,62.337 130.452 C 62.354 130.591,62.015 131.024,61.584 131.414 C 61.153 131.805,60.800 132.444,60.800 132.835 C 60.800 133.226,60.440 133.660,60.000 133.800 C 59.449 133.975,59.200 134.405,59.200 135.184 C 59.200 135.820,58.937 136.415,58.600 136.545 C 58.270 136.671,58.000 137.051,58.000 137.387 C 58.000 137.724,57.730 138.000,57.400 138.000 C 57.070 138.000,56.778 138.180,56.750 138.400 C 56.723 138.620,56.655 138.980,56.600 139.200 C 56.545 139.420,56.477 140.140,56.450 140.800 C 56.418 141.578,56.189 142.000,55.800 142.000 C 55.467 142.000,55.200 142.356,55.200 142.800 C 55.200 143.333,54.933 143.600,54.400 143.600 C 53.813 143.600,53.600 143.867,53.600 144.600 C 53.600 145.150,53.240 145.960,52.800 146.400 C 52.360 146.840,52.000 147.650,52.000 148.200 C 52.000 148.750,51.832 149.200,51.627 149.200 C 51.422 149.200,51.140 149.560,51.000 150.000 C 50.860 150.440,50.488 150.800,50.173 150.800 C 49.858 150.800,49.587 150.935,49.570 151.100 C 49.454 152.278,49.128 153.399,48.850 153.583 C 48.668 153.702,48.304 154.210,48.040 154.711 C 47.776 155.212,47.408 155.528,47.222 155.414 C 46.760 155.128,46.400 156.187,46.400 157.833 C 46.400 158.781,46.216 159.200,45.800 159.200 C 45.381 159.200,45.200 159.622,45.200 160.600 C 45.200 161.733,45.048 162.000,44.400 162.000 C 43.903 162.000,43.600 162.267,43.600 162.704 C 43.600 163.091,43.240 163.632,42.800 163.907 C 42.348 164.190,42.000 164.840,42.000 165.403 C 42.000 166.023,41.773 166.400,41.400 166.400 C 41.070 166.400,40.800 166.748,40.800 167.173 C 40.800 167.598,40.440 168.060,40.000 168.200 C 39.449 168.375,39.200 168.805,39.200 169.584 C 39.200 170.223,38.937 170.815,38.596 170.946 C 38.264 171.073,38.016 171.318,38.044 171.489 C 38.234 172.649,37.895 173.534,37.189 173.719 C 36.742 173.836,36.404 174.082,36.436 174.266 C 36.630 175.368,36.322 176.400,35.800 176.400 C 35.470 176.400,35.200 176.748,35.200 177.173 C 35.200 177.598,34.840 178.060,34.400 178.200 C 33.850 178.375,33.600 178.805,33.600 179.580 C 33.600 180.382,33.362 180.769,32.775 180.922 C 32.322 181.041,31.983 181.377,32.023 181.669 C 32.263 183.441,31.953 185.200,31.400 185.200 C 30.877 185.200,30.800 187.111,30.800 200.000 C 30.800 212.889,30.877 214.800,31.400 214.800 C 31.953 214.800,32.263 216.559,32.023 218.331 C 31.983 218.623,32.322 218.959,32.775 219.078 C 33.240 219.199,33.600 219.622,33.600 220.047 C 33.600 220.533,33.883 220.800,34.400 220.800 C 35.048 220.800,35.200 221.067,35.200 222.200 C 35.200 223.178,35.381 223.600,35.800 223.600 C 36.322 223.600,36.630 224.632,36.436 225.734 C 36.404 225.918,36.742 226.164,37.189 226.281 C 37.770 226.433,38.000 226.824,38.000 227.659 C 38.000 228.327,38.257 228.924,38.600 229.055 C 38.948 229.189,39.200 229.787,39.200 230.480 C 39.200 231.338,39.425 231.734,40.000 231.884 C 40.443 232.000,40.800 232.430,40.800 232.847 C 40.800 233.261,41.070 233.600,41.400 233.600 C 41.730 233.600,42.000 233.945,42.000 234.367 C 42.000 235.559,42.431 236.400,43.043 236.400 C 43.349 236.400,43.600 236.760,43.600 237.200 C 43.600 237.733,43.867 238.000,44.400 238.000 C 45.048 238.000,45.200 238.267,45.200 239.400 C 45.200 240.378,45.381 240.800,45.800 240.800 C 46.216 240.800,46.400 241.219,46.400 242.167 C 46.400 243.929,46.745 244.800,47.443 244.800 C 47.749 244.800,48.000 245.076,48.000 245.413 C 48.000 245.749,48.270 246.129,48.600 246.255 C 48.930 246.382,49.200 246.812,49.200 247.210 C 49.200 248.362,49.639 249.200,50.243 249.200 C 50.549 249.200,50.800 249.476,50.800 249.813 C 50.800 250.149,51.070 250.529,51.400 250.655 C 51.730 250.782,52.000 251.316,52.000 251.843 C 52.000 252.369,52.360 253.160,52.800 253.600 C 53.240 254.040,53.600 254.850,53.600 255.400 C 53.600 256.133,53.813 256.400,54.400 256.400 C 54.933 256.400,55.200 256.667,55.200 257.200 C 55.200 257.644,55.467 258.000,55.800 258.000 C 56.219 258.000,56.400 258.422,56.400 259.400 C 56.400 260.533,56.552 260.800,57.200 260.800 C 57.824 260.800,58.000 261.067,58.000 262.013 C 58.000 262.721,58.249 263.321,58.600 263.455 C 58.948 263.589,59.200 264.187,59.200 264.880 C 59.200 265.738,59.425 266.134,60.000 266.284 C 60.440 266.399,60.800 266.804,60.800 267.185 C 60.800 267.565,61.153 268.195,61.584 268.586 C 62.015 268.976,62.354 269.409,62.337 269.548 C 62.236 270.354,62.472 270.800,63.000 270.800 C 63.419 270.800,63.600 271.222,63.600 272.200 C 63.600 273.333,63.752 273.600,64.400 273.600 C 65.048 273.600,65.200 273.867,65.200 275.000 C 65.200 275.978,65.381 276.400,65.800 276.400 C 66.130 276.400,66.400 276.748,66.400 277.173 C 66.400 277.598,66.760 278.060,67.200 278.200 C 67.711 278.362,68.000 278.805,68.000 279.427 C 68.000 280.510,69.274 282.000,70.200 282.000 C 70.654 282.000,70.800 282.490,70.800 284.013 C 70.800 285.370,70.983 286.095,71.361 286.240 C 71.669 286.359,72.037 287.073,72.179 287.828 C 72.320 288.582,72.677 289.200,72.971 289.200 C 73.266 289.200,73.601 289.560,73.716 290.000 C 73.831 290.440,74.212 290.800,74.563 290.800 C 75.024 290.800,75.200 291.186,75.200 292.200 C 75.200 293.178,75.381 293.600,75.800 293.600 C 76.130 293.600,76.400 293.870,76.400 294.200 C 76.400 294.533,76.756 294.800,77.200 294.800 C 77.880 294.800,78.000 295.067,78.000 296.576 C 78.000 297.553,78.191 298.471,78.425 298.615 C 78.658 298.760,79.014 299.310,79.215 299.839 C 79.416 300.367,79.855 300.800,80.190 300.800 C 80.596 300.800,80.800 301.187,80.800 301.957 C 80.800 302.594,81.047 303.209,81.349 303.325 C 81.652 303.441,82.020 304.181,82.168 304.968 C 82.330 305.831,82.667 306.400,83.018 306.400 C 83.338 306.400,83.600 306.658,83.600 306.973 C 83.600 307.288,83.960 307.660,84.400 307.800 C 84.963 307.979,85.200 308.405,85.200 309.240 C 85.200 309.924,85.453 310.522,85.800 310.655 C 86.170 310.797,86.400 311.405,86.400 312.243 C 86.400 313.333,86.557 313.600,87.200 313.600 C 87.644 313.600,88.000 313.867,88.000 314.200 C 88.000 314.530,88.270 314.800,88.600 314.800 C 89.022 314.800,89.200 315.226,89.200 316.237 C 89.200 317.338,89.387 317.724,90.000 317.884 C 90.567 318.032,90.800 318.430,90.800 319.247 C 90.800 319.881,90.978 320.400,91.195 320.400 C 91.412 320.400,91.852 321.030,92.174 321.800 C 92.496 322.570,92.948 323.200,93.180 323.200 C 93.411 323.200,93.600 323.847,93.600 324.637 C 93.600 325.738,93.787 326.124,94.400 326.284 C 94.843 326.400,95.200 326.830,95.200 327.247 C 95.200 327.661,95.470 328.000,95.800 328.000 C 96.204 328.000,96.400 328.404,96.400 329.237 C 96.400 330.138,96.617 330.532,97.200 330.684 C 97.640 330.799,98.000 331.142,98.000 331.447 C 98.000 331.751,98.270 332.000,98.600 332.000 C 99.019 332.000,99.200 332.422,99.200 333.400 C 99.200 334.533,99.352 334.800,100.000 334.800 C 100.648 334.800,100.800 335.067,100.800 336.200 C 100.800 337.333,100.952 337.600,101.600 337.600 C 102.040 337.600,102.379 337.735,102.353 337.900 C 102.222 338.725,102.459 339.200,103.000 339.200 C 103.330 339.200,103.600 339.487,103.600 339.837 C 103.600 340.188,103.960 340.569,104.400 340.684 C 104.840 340.799,105.200 341.142,105.200 341.447 C 105.200 341.751,105.470 342.000,105.800 342.000 C 106.133 342.000,106.400 342.356,106.400 342.800 C 106.400 343.333,106.667 343.600,107.200 343.600 C 107.644 343.600,108.000 343.867,108.000 344.200 C 108.000 344.530,108.339 344.800,108.753 344.800 C 109.170 344.800,109.600 345.157,109.716 345.600 C 109.871 346.194,110.262 346.400,111.229 346.400 C 111.946 346.400,112.415 346.518,112.270 346.663 C 111.776 347.158,112.896 348.000,114.049 348.000 C 114.805 348.000,115.200 348.206,115.200 348.600 C 115.200 348.933,115.556 349.200,116.000 349.200 C 116.440 349.200,116.800 349.449,116.800 349.753 C 116.800 350.424,118.021 350.787,120.300 350.795 C 121.390 350.798,122.000 350.979,122.000 351.300 C 122.000 351.698,137.867 351.800,200.000 351.800 C 262.133 351.800,278.000 351.698,278.000 351.300 C 278.000 350.967,278.667 350.800,280.000 350.800 C 281.733 350.800,282.000 350.693,282.000 350.000 C 282.000 349.352,282.267 349.200,283.400 349.200 C 284.378 349.200,284.800 349.019,284.800 348.600 C 284.800 348.226,285.178 348.000,285.804 348.000 C 286.356 348.000,287.116 347.640,287.493 347.200 C 287.870 346.760,288.408 346.400,288.689 346.400 C 288.970 346.400,289.200 346.040,289.200 345.600 C 289.200 345.018,289.467 344.800,290.176 344.800 C 290.713 344.800,291.271 344.609,291.415 344.375 C 291.560 344.142,292.110 343.786,292.639 343.585 C 293.167 343.384,293.600 342.945,293.600 342.610 C 293.600 342.274,293.870 342.000,294.200 342.000 C 294.533 342.000,294.800 341.644,294.800 341.200 C 294.800 340.760,295.025 340.397,295.300 340.393 C 296.050 340.383,297.514 338.684,297.818 337.470 C 297.966 336.881,298.337 336.400,298.643 336.400 C 298.950 336.400,299.200 336.061,299.200 335.647 C 299.200 335.230,299.557 334.800,300.000 334.684 C 300.583 334.532,300.800 334.138,300.800 333.237 C 300.800 332.404,300.996 332.000,301.400 332.000 C 301.773 332.000,302.000 331.623,302.000 331.003 C 302.000 330.440,302.348 329.790,302.800 329.507 C 303.240 329.232,303.600 328.691,303.600 328.304 C 303.600 327.917,303.870 327.600,304.200 327.600 C 304.619 327.600,304.800 327.178,304.800 326.200 C 304.800 325.067,304.952 324.800,305.600 324.800 C 306.242 324.800,306.400 324.533,306.400 323.447 C 306.400 322.430,306.599 322.041,307.200 321.884 C 307.783 321.732,308.000 321.338,308.000 320.437 C 308.000 319.604,308.196 319.200,308.600 319.200 C 308.930 319.200,309.200 318.942,309.200 318.627 C 309.200 318.312,309.560 317.940,310.000 317.800 C 310.595 317.611,310.800 317.195,310.800 316.173 C 310.800 315.219,310.983 314.800,311.400 314.800 C 311.730 314.800,312.000 314.551,312.000 314.247 C 312.000 313.942,312.360 313.599,312.800 313.484 C 313.407 313.325,313.600 312.938,313.600 311.880 C 313.600 311.010,313.825 310.399,314.200 310.255 C 314.611 310.098,314.800 309.455,314.800 308.213 C 314.800 306.679,314.921 306.400,315.584 306.400 C 316.616 306.400,318.000 304.884,318.000 303.753 C 318.000 303.260,318.270 302.587,318.600 302.257 C 318.930 301.927,319.200 301.485,319.200 301.275 C 319.200 301.065,319.560 300.799,320.000 300.684 C 320.585 300.531,320.800 300.138,320.800 299.225 C 320.800 298.483,321.044 297.881,321.400 297.745 C 321.770 297.603,322.000 296.995,322.000 296.157 C 322.000 295.067,322.157 294.800,322.800 294.800 C 323.252 294.800,323.600 294.533,323.600 294.187 C 323.600 293.851,323.870 293.471,324.200 293.345 C 324.620 293.183,324.800 292.528,324.800 291.157 C 324.800 289.348,324.874 289.200,325.777 289.200 C 327.012 289.200,328.000 287.826,328.000 286.111 C 328.000 285.212,328.189 284.800,328.600 284.800 C 329.019 284.800,329.200 284.378,329.200 283.400 C 329.200 282.267,329.352 282.000,330.000 282.000 C 330.444 282.000,330.800 281.733,330.800 281.400 C 330.800 281.070,331.070 280.800,331.400 280.800 C 331.815 280.800,332.000 280.383,332.000 279.447 C 332.000 278.430,332.199 278.041,332.800 277.884 C 333.261 277.763,333.600 277.338,333.600 276.880 C 333.600 276.443,333.870 275.982,334.200 275.855 C 334.530 275.729,334.800 275.190,334.800 274.659 C 334.800 274.030,335.079 273.620,335.600 273.484 C 336.213 273.324,336.400 272.938,336.400 271.837 C 336.400 270.862,336.583 270.400,336.968 270.400 C 337.281 270.400,337.652 269.875,337.793 269.233 C 337.934 268.592,338.308 267.967,338.624 267.846 C 338.941 267.724,339.200 267.171,339.200 266.616 C 339.200 266.040,339.543 265.392,340.000 265.107 C 340.534 264.774,340.800 264.174,340.800 263.304 C 340.800 262.412,340.989 262.000,341.400 262.000 C 341.730 262.000,342.000 261.751,342.000 261.447 C 342.000 261.142,342.360 260.799,342.800 260.684 C 343.385 260.531,343.600 260.138,343.600 259.225 C 343.600 258.483,343.844 257.881,344.200 257.745 C 344.530 257.618,344.800 257.285,344.800 257.004 C 344.800 256.723,345.160 256.399,345.600 256.284 C 346.154 256.139,346.400 255.738,346.400 254.982 C 346.400 254.380,346.688 253.677,347.041 253.420 C 347.400 253.157,347.774 252.127,347.893 251.076 C 348.030 249.857,348.296 249.200,348.652 249.200 C 348.953 249.200,349.200 248.951,349.200 248.647 C 349.200 248.342,349.560 247.999,350.000 247.884 C 350.613 247.724,350.800 247.338,350.800 246.237 C 350.800 245.361,350.995 244.795,351.300 244.787 C 352.357 244.759,353.600 243.272,353.600 242.036 C 353.600 241.204,353.796 240.800,354.200 240.800 C 354.615 240.800,354.800 240.383,354.800 239.447 C 354.800 238.430,354.999 238.041,355.600 237.884 C 356.079 237.759,356.400 237.338,356.400 236.837 C 356.400 236.377,356.584 236.000,356.809 236.000 C 357.033 236.000,357.435 235.505,357.700 234.900 C 357.966 234.295,358.412 233.656,358.692 233.480 C 358.971 233.304,359.200 232.629,359.200 231.980 C 359.200 231.067,359.381 230.800,360.000 230.800 C 360.643 230.800,360.800 230.533,360.800 229.443 C 360.800 228.605,361.030 227.997,361.400 227.855 C 361.777 227.711,362.000 227.099,362.000 226.213 C 362.000 225.067,362.151 224.800,362.800 224.800 C 363.244 224.800,363.600 224.533,363.600 224.200 C 363.600 223.870,363.851 223.600,364.157 223.600 C 364.761 223.600,365.200 222.762,365.200 221.610 C 365.200 221.212,365.470 220.782,365.800 220.655 C 366.130 220.529,366.400 220.149,366.400 219.813 C 366.400 219.476,366.648 219.200,366.950 219.200 C 367.502 219.200,368.000 217.550,368.000 215.721 C 368.000 215.183,368.270 214.473,368.600 214.143 C 369.499 213.244,369.499 186.756,368.600 185.857 C 368.270 185.527,368.000 184.817,368.000 184.279 C 368.000 182.450,367.502 180.800,366.950 180.800 C 366.648 180.800,366.400 180.440,366.400 180.000 C 366.400 179.556,366.133 179.200,365.800 179.200 C 365.470 179.200,365.200 178.855,365.200 178.433 C 365.200 177.241,364.769 176.400,364.157 176.400 C 363.851 176.400,363.600 176.130,363.600 175.800 C 363.600 175.467,363.244 175.200,362.800 175.200 C 362.151 175.200,362.000 174.933,362.000 173.787 C 362.000 172.901,361.777 172.289,361.400 172.145 C 361.052 172.011,360.800 171.413,360.800 170.720 C 360.800 169.862,360.575 169.466,360.000 169.316 C 359.431 169.167,359.200 168.770,359.200 167.941 C 359.200 167.273,358.943 166.676,358.600 166.545 C 358.270 166.418,358.000 166.064,358.000 165.757 C 358.000 165.451,357.656 164.856,357.236 164.436 C 356.816 164.016,356.404 163.341,356.321 162.936 C 356.238 162.531,355.861 162.225,355.485 162.256 C 354.946 162.299,354.800 161.979,354.800 160.756 C 354.800 159.640,354.630 159.200,354.200 159.200 C 353.796 159.200,353.600 158.796,353.600 157.964 C 353.600 156.728,352.357 155.241,351.300 155.213 C 350.995 155.205,350.800 154.639,350.800 153.763 C 350.800 152.662,350.613 152.276,350.000 152.116 C 349.560 152.001,349.200 151.658,349.200 151.353 C 349.200 151.049,348.953 150.800,348.652 150.800 C 348.296 150.800,348.030 150.143,347.893 148.924 C 347.774 147.873,347.400 146.843,347.041 146.580 C 346.688 146.323,346.400 145.620,346.400 145.018 C 346.400 144.262,346.154 143.861,345.600 143.716 C 345.160 143.601,344.800 143.277,344.800 142.996 C 344.800 142.715,344.530 142.382,344.200 142.255 C 343.844 142.119,343.600 141.517,343.600 140.775 C 343.600 139.862,343.385 139.469,342.800 139.316 C 342.360 139.201,342.000 138.858,342.000 138.553 C 342.000 138.249,341.730 138.000,341.400 138.000 C 340.989 138.000,340.800 137.588,340.800 136.696 C 340.800 135.841,340.534 135.226,340.028 134.910 C 339.603 134.645,339.198 133.927,339.128 133.314 C 339.058 132.701,338.794 132.239,338.542 132.286 C 338.290 132.333,337.967 131.748,337.824 130.986 C 337.675 130.192,337.326 129.600,337.006 129.600 C 336.650 129.600,336.403 129.057,336.324 128.100 C 336.240 127.089,336.005 126.600,335.600 126.600 C 335.261 126.600,334.944 126.165,334.872 125.600 C 334.801 125.050,334.507 124.416,334.218 124.190 C 333.930 123.965,333.620 123.425,333.531 122.990 C 333.440 122.542,333.073 122.224,332.685 122.256 C 332.146 122.299,332.000 121.979,332.000 120.756 C 332.000 119.640,331.830 119.200,331.400 119.200 C 331.070 119.200,330.800 118.930,330.800 118.600 C 330.800 118.267,330.444 118.000,330.000 118.000 C 329.352 118.000,329.200 117.733,329.200 116.600 C 329.200 115.622,329.019 115.200,328.600 115.200 C 328.189 115.200,328.000 114.788,328.000 113.889 C 328.000 112.174,327.012 110.800,325.777 110.800 C 324.874 110.800,324.800 110.652,324.800 108.843 C 324.800 107.472,324.620 106.817,324.200 106.655 C 323.870 106.529,323.600 106.149,323.600 105.813 C 323.600 105.467,323.252 105.200,322.800 105.200 C 322.157 105.200,322.000 104.933,322.000 103.843 C 322.000 103.005,321.770 102.397,321.400 102.255 C 321.044 102.119,320.800 101.517,320.800 100.775 C 320.800 99.862,320.585 99.469,320.000 99.316 C 319.560 99.201,319.200 98.935,319.200 98.725 C 319.200 98.515,318.930 98.073,318.600 97.743 C 318.270 97.413,318.000 96.740,318.000 96.247 C 318.000 95.116,316.616 93.600,315.584 93.600 C 314.923 93.600,314.800 93.322,314.800 91.820 C 314.800 90.699,314.590 89.921,314.232 89.720 C 313.920 89.544,313.605 88.770,313.532 88.000 C 313.446 87.090,313.213 86.639,312.866 86.711 C 312.572 86.773,312.236 86.458,312.119 86.011 C 312.002 85.565,311.658 85.200,311.353 85.200 C 310.990 85.200,310.800 84.729,310.800 83.827 C 310.800 82.805,310.595 82.389,310.000 82.200 C 309.560 82.060,309.200 81.688,309.200 81.373 C 309.200 81.058,308.930 80.800,308.600 80.800 C 308.196 80.800,308.000 80.396,308.000 79.563 C 308.000 78.662,307.783 78.268,307.200 78.116 C 306.599 77.959,306.400 77.570,306.400 76.553 C 306.400 75.467,306.242 75.200,305.600 75.200 C 304.952 75.200,304.800 74.933,304.800 73.800 C 304.800 72.822,304.619 72.400,304.200 72.400 C 303.870 72.400,303.600 72.083,303.600 71.696 C 303.600 71.309,303.240 70.768,302.800 70.493 C 302.348 70.210,302.000 69.560,302.000 68.997 C 302.000 68.377,301.773 68.000,301.400 68.000 C 300.996 68.000,300.800 67.596,300.800 66.763 C 300.800 65.862,300.583 65.468,300.000 65.316 C 299.557 65.200,299.200 64.770,299.200 64.353 C 299.200 63.939,298.944 63.600,298.632 63.600 C 298.319 63.600,297.942 63.048,297.794 62.373 C 297.646 61.698,297.272 61.049,296.962 60.930 C 296.653 60.812,296.400 60.476,296.400 60.184 C 296.400 59.893,296.040 59.540,295.600 59.400 C 295.160 59.260,294.800 58.888,294.800 58.573 C 294.800 58.258,294.530 58.000,294.200 58.000 C 293.870 58.000,293.600 57.726,293.600 57.390 C 293.600 57.055,293.167 56.616,292.639 56.415 C 292.110 56.214,291.560 55.858,291.415 55.625 C 291.271 55.391,290.713 55.200,290.176 55.200 C 289.467 55.200,289.200 54.982,289.200 54.400 C 289.200 53.960,288.939 53.600,288.620 53.600 C 288.301 53.600,287.882 53.319,287.690 52.975 C 287.371 52.404,286.631 52.112,285.300 52.031 C 285.025 52.014,284.800 51.730,284.800 51.400 C 284.800 50.981,284.378 50.800,283.400 50.800 C 282.267 50.800,282.000 50.648,282.000 50.000 C 282.000 49.307,281.733 49.200,280.000 49.200 C 278.423 49.200,278.000 49.063,278.000 48.552 C 278.000 47.974,277.540 47.942,273.700 48.252 C 268.089 48.706,131.911 48.706,126.300 48.252 C 122.460 47.942,122.000 47.974,122.000 48.552 M214.000 95.353 C 214.000 96.151,215.292 96.388,219.680 96.395 C 222.823 96.399,223.629 96.522,223.920 97.042 C 224.136 97.429,225.020 97.768,226.140 97.894 C 227.346 98.030,228.000 98.297,228.000 98.652 C 228.000 99.045,228.582 99.200,230.056 99.200 C 231.541 99.200,232.252 99.392,232.617 99.890 C 232.997 100.411,233.868 100.618,236.161 100.734 C 238.416 100.848,239.200 101.031,239.200 101.444 C 239.200 101.750,239.560 102.000,240.000 102.000 C 240.533 102.000,240.800 102.267,240.800 102.800 C 240.800 103.503,241.067 103.600,243.000 103.600 C 244.689 103.600,245.200 103.739,245.200 104.200 C 245.200 104.530,245.449 104.800,245.753 104.800 C 246.058 104.800,246.401 105.160,246.516 105.600 C 246.690 106.265,247.062 106.400,248.716 106.400 C 250.370 106.400,250.742 106.535,250.916 107.200 C 251.068 107.783,251.462 108.000,252.363 108.000 C 253.196 108.000,253.600 108.196,253.600 108.600 C 253.600 109.682,255.124 110.800,256.600 110.800 C 257.578 110.800,258.000 110.981,258.000 111.400 C 258.000 111.730,258.270 112.000,258.600 112.000 C 258.933 112.000,259.200 112.356,259.200 112.800 C 259.200 113.333,259.467 113.600,260.000 113.600 C 260.444 113.600,260.800 113.867,260.800 114.200 C 260.800 114.619,261.222 114.800,262.200 114.800 C 263.333 114.800,263.600 114.952,263.600 115.600 C 263.600 116.133,263.867 116.400,264.400 116.400 C 264.933 116.400,265.200 116.667,265.200 117.200 C 265.200 117.640,265.451 118.000,265.757 118.000 C 266.064 118.000,266.418 118.270,266.545 118.600 C 266.671 118.930,267.051 119.200,267.387 119.200 C 267.733 119.200,268.000 119.548,268.000 120.000 C 268.000 120.648,268.267 120.800,269.400 120.800 C 270.378 120.800,270.800 120.981,270.800 121.400 C 270.800 121.730,271.070 122.000,271.400 122.000 C 271.730 122.000,272.022 122.270,272.050 122.600 C 272.078 122.930,272.145 123.380,272.200 123.600 C 272.255 123.820,272.322 124.180,272.350 124.400 C 272.377 124.620,273.019 124.800,273.776 124.800 C 275.077 124.800,275.158 124.881,275.276 126.300 C 275.389 127.669,275.513 127.811,276.700 127.925 C 277.843 128.036,278.000 128.192,278.000 129.225 C 278.000 130.003,278.203 130.400,278.600 130.400 C 278.933 130.400,279.200 130.756,279.200 131.200 C 279.200 131.733,279.467 132.000,280.000 132.000 C 280.533 132.000,280.800 132.267,280.800 132.800 C 280.800 133.240,281.050 133.600,281.357 133.600 C 281.663 133.600,282.037 134.093,282.188 134.696 C 282.506 135.960,283.034 136.385,284.300 136.394 C 285.061 136.399,285.200 136.617,285.200 137.800 C 285.200 138.778,285.381 139.200,285.800 139.200 C 286.204 139.200,286.400 139.604,286.400 140.437 C 286.400 141.338,286.617 141.732,287.200 141.884 C 287.643 142.000,288.000 142.430,288.000 142.847 C 288.000 143.261,288.270 143.600,288.600 143.600 C 289.004 143.600,289.200 144.004,289.200 144.837 C 289.200 145.738,289.417 146.132,290.000 146.284 C 290.440 146.399,290.800 146.733,290.800 147.027 C 290.800 147.320,291.053 147.704,291.362 147.880 C 291.672 148.056,292.023 148.826,292.142 149.590 C 292.261 150.355,292.638 151.185,292.979 151.434 C 293.343 151.701,293.600 152.490,293.600 153.344 C 293.600 154.533,293.747 154.800,294.400 154.800 C 294.933 154.800,295.200 155.067,295.200 155.600 C 295.200 156.044,295.467 156.400,295.800 156.400 C 296.244 156.400,296.400 156.867,296.400 158.200 C 296.400 159.450,296.638 160.238,297.179 160.779 C 297.734 161.334,297.983 162.198,298.048 163.797 C 298.098 165.030,298.336 166.164,298.578 166.319 C 298.819 166.473,299.234 167.095,299.500 167.700 C 299.765 168.305,300.167 168.800,300.391 168.800 C 300.633 168.800,300.800 170.025,300.800 171.800 C 300.800 174.200,300.920 174.800,301.400 174.800 C 301.743 174.800,302.018 175.186,302.043 175.700 C 302.066 176.195,302.125 176.870,302.174 177.200 C 302.223 177.530,302.294 178.115,302.332 178.500 C 302.369 178.885,302.670 179.200,303.000 179.200 C 303.501 179.200,303.600 180.019,303.600 184.167 C 303.600 189.455,303.758 190.400,304.643 190.400 C 305.677 190.400,305.441 209.043,304.400 209.600 C 303.670 209.990,303.600 210.438,303.600 214.683 C 303.600 218.379,303.469 219.482,302.963 220.041 C 302.612 220.428,302.249 221.612,302.156 222.673 C 301.944 225.072,301.718 225.720,301.203 225.402 C 300.945 225.243,300.800 226.309,300.800 228.362 C 300.800 231.162,300.698 231.626,300.000 232.000 C 299.560 232.235,299.200 232.697,299.200 233.027 C 299.200 233.356,298.930 233.729,298.600 233.855 C 298.155 234.026,298.000 234.734,298.000 236.596 C 298.000 238.770,297.893 239.135,297.200 239.316 C 296.532 239.491,296.400 239.862,296.400 241.563 C 296.400 243.107,296.255 243.600,295.800 243.600 C 295.470 243.600,295.200 243.939,295.200 244.353 C 295.200 244.770,294.843 245.200,294.400 245.316 C 293.766 245.482,293.600 245.862,293.600 247.148 C 293.600 248.362,293.398 248.880,292.800 249.200 C 292.232 249.504,292.000 250.038,292.000 251.038 C 292.000 251.935,291.845 252.351,291.573 252.183 C 291.338 252.038,291.052 252.281,290.936 252.723 C 290.821 253.165,290.383 253.616,289.963 253.726 C 289.427 253.866,289.200 254.281,289.200 255.120 C 289.200 255.813,288.948 256.411,288.600 256.545 C 288.270 256.671,288.000 257.051,288.000 257.387 C 288.000 257.733,287.652 258.000,287.200 258.000 C 286.760 258.000,286.421 258.135,286.447 258.300 C 286.644 259.545,286.319 260.800,285.800 260.800 C 285.467 260.800,285.200 261.156,285.200 261.600 C 285.200 262.040,284.949 262.400,284.643 262.400 C 284.336 262.400,283.982 262.670,283.855 263.000 C 283.729 263.330,283.349 263.600,283.013 263.600 C 282.676 263.600,282.400 263.864,282.400 264.186 C 282.400 264.508,282.040 264.965,281.600 265.200 C 281.160 265.435,280.800 265.980,280.800 266.411 C 280.800 266.841,280.440 267.418,280.000 267.693 C 279.560 267.968,279.200 268.419,279.200 268.696 C 279.200 268.973,278.930 269.200,278.600 269.200 C 278.270 269.200,278.000 269.539,278.000 269.953 C 278.000 270.382,277.638 270.801,277.160 270.926 C 276.697 271.047,276.438 271.338,276.583 271.573 C 276.738 271.823,276.505 272.000,276.024 272.000 C 275.467 272.000,275.200 272.259,275.200 272.800 C 275.200 273.333,274.933 273.600,274.400 273.600 C 273.867 273.600,273.600 273.867,273.600 274.400 C 273.600 274.917,273.333 275.200,272.847 275.200 C 272.418 275.200,271.999 275.562,271.874 276.040 C 271.753 276.503,271.462 276.762,271.227 276.617 C 270.977 276.462,270.800 276.695,270.800 277.176 C 270.800 277.733,270.541 278.000,270.000 278.000 C 269.560 278.000,269.200 278.256,269.200 278.568 C 269.200 278.881,268.664 279.254,268.010 279.398 C 267.355 279.542,266.860 279.867,266.910 280.120 C 266.959 280.374,266.595 280.643,266.100 280.718 C 265.605 280.794,265.200 281.101,265.200 281.401 C 265.200 281.701,264.840 282.060,264.400 282.200 C 263.805 282.389,263.600 282.805,263.600 283.827 C 263.600 285.129,263.528 285.200,262.200 285.200 C 261.222 285.200,260.800 285.381,260.800 285.800 C 260.800 286.219,260.378 286.400,259.400 286.400 C 258.267 286.400,258.000 286.552,258.000 287.200 C 258.000 287.652,257.733 288.000,257.387 288.000 C 257.051 288.000,256.671 288.270,256.545 288.600 C 256.411 288.948,255.813 289.200,255.120 289.200 C 254.262 289.200,253.866 289.425,253.716 290.000 C 253.601 290.440,253.252 290.800,252.941 290.800 C 252.630 290.800,252.271 291.070,252.145 291.400 C 252.018 291.730,251.588 292.000,251.190 292.000 C 250.038 292.000,249.200 292.439,249.200 293.043 C 249.200 293.388,248.768 293.600,248.062 293.600 C 247.432 293.600,246.601 293.957,246.200 294.400 C 245.802 294.840,245.054 295.200,244.538 295.200 C 243.971 295.200,243.600 295.437,243.600 295.800 C 243.600 296.216,243.181 296.400,242.233 296.400 C 240.471 296.400,239.600 296.745,239.600 297.443 C 239.600 297.824,239.107 298.000,238.043 298.000 C 237.028 298.000,236.405 298.209,236.255 298.600 C 236.129 298.930,235.614 299.202,235.113 299.205 C 233.574 299.215,232.400 299.665,232.400 300.247 C 232.400 300.651,231.806 300.800,230.200 300.800 C 228.511 300.800,228.000 300.939,228.000 301.400 C 228.000 301.811,227.588 302.000,226.696 302.000 C 225.826 302.000,225.226 302.266,224.893 302.800 C 224.448 303.513,223.960 303.600,220.415 303.600 C 216.696 303.600,214.400 304.083,214.400 304.864 C 214.400 305.049,211.340 305.200,207.600 305.200 L 200.800 305.200 200.800 296.652 L 200.800 288.103 204.402 287.821 C 206.654 287.645,208.217 287.326,208.573 286.970 C 208.959 286.584,210.057 286.400,211.971 286.400 C 214.533 286.400,214.800 286.325,214.800 285.600 C 214.800 284.859,215.067 284.800,218.400 284.800 C 221.333 284.800,222.000 284.689,222.000 284.200 C 222.000 283.781,222.422 283.600,223.400 283.600 C 224.533 283.600,224.800 283.448,224.800 282.800 C 224.800 282.076,225.067 282.000,227.613 282.000 C 229.744 282.000,230.481 281.855,230.655 281.400 C 230.813 280.990,231.454 280.800,232.680 280.800 C 234.138 280.800,234.514 280.650,234.684 280.000 C 234.800 279.557,235.230 279.200,235.647 279.200 C 236.061 279.200,236.400 278.930,236.400 278.600 C 236.400 278.169,236.841 278.000,237.967 278.000 C 239.922 278.000,240.800 277.677,240.800 276.957 C 240.800 276.651,241.070 276.400,241.400 276.400 C 241.733 276.400,242.000 276.044,242.000 275.600 C 242.000 274.952,242.267 274.800,243.400 274.800 C 244.378 274.800,244.800 274.619,244.800 274.200 C 244.800 273.778,245.226 273.600,246.237 273.600 C 247.338 273.600,247.724 273.413,247.884 272.800 C 247.999 272.360,248.342 272.000,248.647 272.000 C 248.951 272.000,249.200 271.741,249.200 271.425 C 249.200 271.069,249.695 270.803,250.500 270.725 C 251.643 270.615,251.815 270.443,251.925 269.300 C 252.040 268.110,252.167 268.000,253.425 268.000 C 254.533 268.000,254.800 267.845,254.800 267.200 C 254.800 266.667,255.067 266.400,255.600 266.400 C 256.133 266.400,256.400 266.133,256.400 265.600 C 256.400 265.067,256.667 264.800,257.200 264.800 C 257.644 264.800,258.000 264.533,258.000 264.200 C 258.000 263.870,258.270 263.600,258.600 263.600 C 258.933 263.600,259.200 263.244,259.200 262.800 C 259.200 262.267,259.467 262.000,260.000 262.000 C 260.444 262.000,260.800 261.733,260.800 261.400 C 260.800 261.070,261.070 260.800,261.400 260.800 C 261.733 260.800,262.000 260.444,262.000 260.000 C 262.000 259.467,262.267 259.200,262.800 259.200 C 263.244 259.200,263.600 258.933,263.600 258.600 C 263.600 258.270,263.870 258.000,264.200 258.000 C 264.533 258.000,264.800 257.644,264.800 257.200 C 264.800 256.667,265.067 256.400,265.600 256.400 C 266.133 256.400,266.400 256.133,266.400 255.600 C 266.400 255.067,266.667 254.800,267.200 254.800 C 267.848 254.800,268.000 254.533,268.000 253.400 C 268.000 252.116,268.098 252.000,269.182 252.000 C 270.216 252.000,270.397 251.825,270.626 250.600 C 270.777 249.798,271.126 249.200,271.445 249.200 C 271.750 249.200,272.000 248.951,272.000 248.647 C 272.000 248.342,272.360 247.999,272.800 247.884 C 273.413 247.724,273.600 247.338,273.600 246.237 C 273.600 245.226,273.778 244.800,274.200 244.800 C 274.619 244.800,274.800 244.378,274.800 243.400 C 274.800 242.267,274.952 242.000,275.600 242.000 C 276.040 242.000,276.400 241.820,276.400 241.600 C 276.400 241.380,276.760 240.840,277.200 240.400 C 277.640 239.960,278.000 239.137,278.000 238.571 C 278.000 238.006,278.270 237.273,278.600 236.943 C 278.930 236.613,279.200 235.996,279.200 235.571 C 279.200 235.147,279.449 234.800,279.753 234.800 C 280.384 234.800,280.787 233.600,280.795 231.700 C 280.798 230.814,280.991 230.400,281.400 230.400 C 281.867 230.400,282.000 229.867,282.000 228.003 C 282.000 226.040,282.145 225.516,282.800 225.107 C 283.325 224.779,283.600 224.174,283.600 223.347 C 283.600 222.595,283.842 221.993,284.200 221.855 C 284.689 221.668,284.800 220.706,284.800 216.675 C 284.800 212.232,284.882 211.650,285.600 211.000 C 286.840 209.878,286.840 189.640,285.600 188.400 C 284.889 187.689,284.800 187.067,284.800 182.800 C 284.800 178.800,284.700 178.000,284.200 178.000 C 283.756 178.000,283.600 177.534,283.600 176.203 C 283.600 174.840,283.407 174.286,282.800 173.907 C 282.181 173.521,282.000 172.974,282.000 171.491 C 282.000 170.157,281.818 169.505,281.400 169.345 C 280.980 169.183,280.800 168.528,280.800 167.157 C 280.800 165.467,280.691 165.200,280.000 165.200 C 279.352 165.200,279.200 164.933,279.200 163.800 C 279.200 162.822,279.019 162.400,278.600 162.400 C 278.178 162.400,278.000 161.974,278.000 160.963 C 278.000 159.862,277.813 159.476,277.200 159.316 C 276.760 159.201,276.400 158.858,276.400 158.553 C 276.400 158.249,276.040 158.000,275.600 158.000 C 274.952 158.000,274.800 157.733,274.800 156.600 C 274.800 155.622,274.619 155.200,274.200 155.200 C 273.783 155.200,273.600 154.781,273.600 153.827 C 273.600 152.805,273.395 152.389,272.800 152.200 C 272.360 152.060,272.000 151.688,272.000 151.373 C 272.000 151.058,271.730 150.800,271.400 150.800 C 270.981 150.800,270.800 150.378,270.800 149.400 C 270.800 148.267,270.648 148.000,270.000 148.000 C 269.467 148.000,269.200 147.733,269.200 147.200 C 269.200 146.756,268.933 146.400,268.600 146.400 C 268.270 146.400,268.000 146.173,268.000 145.896 C 268.000 145.619,267.640 145.168,267.200 144.893 C 266.760 144.618,266.400 144.018,266.400 143.559 C 266.400 143.062,266.077 142.641,265.600 142.516 C 265.157 142.400,264.800 141.970,264.800 141.553 C 264.800 141.139,264.551 140.800,264.247 140.800 C 263.942 140.800,263.599 140.440,263.484 140.000 C 263.369 139.560,262.988 139.200,262.637 139.200 C 262.287 139.200,262.000 138.930,262.000 138.600 C 262.000 138.270,261.751 138.000,261.447 138.000 C 261.142 138.000,260.799 137.640,260.684 137.200 C 260.569 136.760,260.188 136.400,259.837 136.400 C 259.487 136.400,259.200 136.130,259.200 135.800 C 259.200 135.470,258.913 135.200,258.563 135.200 C 258.212 135.200,257.831 134.840,257.716 134.400 C 257.591 133.922,257.164 133.595,256.653 133.587 C 255.740 133.574,253.600 131.914,253.600 131.219 C 253.600 130.989,253.240 130.800,252.800 130.800 C 252.267 130.800,252.000 130.533,252.000 130.000 C 252.000 129.355,251.733 129.200,250.627 129.200 C 249.428 129.200,249.237 129.061,249.127 128.107 C 249.033 127.303,248.684 126.909,247.800 126.613 C 247.140 126.392,246.456 125.983,246.280 125.705 C 246.104 125.427,245.441 125.200,244.807 125.200 C 244.005 125.200,243.577 124.956,243.400 124.400 C 243.260 123.960,242.910 123.600,242.622 123.600 C 242.334 123.600,241.873 123.328,241.597 122.996 C 241.322 122.664,240.411 122.283,239.573 122.149 C 238.735 122.015,237.954 121.657,237.837 121.353 C 237.721 121.049,237.349 120.800,237.013 120.800 C 236.676 120.800,236.400 120.549,236.400 120.243 C 236.400 119.523,235.522 119.200,233.567 119.200 C 232.441 119.200,232.000 119.031,232.000 118.600 C 232.000 118.125,231.427 118.000,229.247 118.000 C 226.830 118.000,226.468 117.902,226.284 117.200 C 226.132 116.617,225.738 116.400,224.837 116.400 C 224.004 116.400,223.600 116.204,223.600 115.800 C 223.600 115.312,222.939 115.200,220.047 115.200 C 216.830 115.200,216.473 115.124,216.284 114.400 C 216.101 113.699,215.738 113.600,213.369 113.600 C 211.389 113.600,210.462 113.419,209.915 112.923 C 208.776 111.893,191.233 111.884,190.096 112.913 C 189.536 113.420,188.627 113.600,186.631 113.600 C 184.262 113.600,183.899 113.699,183.716 114.400 C 183.527 115.124,183.170 115.200,179.953 115.200 C 177.061 115.200,176.400 115.312,176.400 115.800 C 176.400 116.214,175.985 116.400,175.062 116.400 C 174.232 116.400,173.449 116.704,173.000 117.200 C 172.469 117.787,171.768 118.000,170.371 118.000 C 168.195 118.000,167.101 118.317,167.432 118.852 C 167.557 119.054,167.511 119.194,167.330 119.163 C 165.655 118.872,163.905 119.277,163.716 120.000 C 163.600 120.443,163.170 120.800,162.753 120.800 C 162.339 120.800,162.000 121.070,162.000 121.400 C 162.000 121.787,161.609 122.002,160.900 122.005 C 159.187 122.014,158.000 122.440,158.000 123.047 C 158.000 123.351,157.640 123.600,157.200 123.600 C 156.760 123.600,156.421 123.735,156.447 123.900 C 156.599 124.863,156.273 125.200,155.187 125.200 C 154.479 125.200,153.879 125.449,153.745 125.800 C 153.611 126.148,153.013 126.400,152.320 126.400 C 151.462 126.400,151.066 126.625,150.916 127.200 C 150.801 127.640,150.477 128.000,150.196 128.000 C 149.915 128.000,149.582 128.270,149.455 128.600 C 149.329 128.930,148.949 129.200,148.613 129.200 C 148.267 129.200,148.000 129.548,148.000 130.000 C 148.000 130.533,147.733 130.800,147.200 130.800 C 146.760 130.800,146.400 131.062,146.400 131.382 C 146.400 131.730,145.838 132.069,145.000 132.226 C 144.198 132.377,143.600 132.726,143.600 133.045 C 143.600 133.350,143.313 133.600,142.963 133.600 C 142.612 133.600,142.231 133.960,142.116 134.400 C 142.001 134.840,141.658 135.200,141.353 135.200 C 141.049 135.200,140.800 135.470,140.800 135.800 C 140.800 136.133,140.444 136.400,140.000 136.400 C 139.467 136.400,139.200 136.667,139.200 137.200 C 139.200 137.644,138.933 138.000,138.600 138.000 C 138.270 138.000,138.000 138.168,138.000 138.373 C 138.000 138.578,137.640 138.860,137.200 139.000 C 136.760 139.140,136.400 139.602,136.400 140.027 C 136.400 140.452,136.130 140.800,135.800 140.800 C 135.470 140.800,135.200 141.154,135.200 141.587 C 135.200 142.121,135.008 142.301,134.603 142.146 C 134.243 142.008,133.898 142.211,133.734 142.658 C 133.583 143.066,133.222 143.544,132.930 143.720 C 132.639 143.896,132.400 144.261,132.400 144.531 C 132.400 144.801,132.040 145.330,131.600 145.707 C 131.160 146.084,130.800 146.733,130.800 147.149 C 130.800 147.570,130.445 148.000,130.000 148.116 C 129.422 148.267,129.200 148.662,129.200 149.537 C 129.200 150.612,129.053 150.763,127.900 150.875 C 126.787 150.982,126.581 151.172,126.465 152.200 C 126.391 152.860,126.076 153.544,125.765 153.720 C 125.397 153.928,125.200 154.731,125.200 156.020 C 125.200 157.733,125.092 158.000,124.400 158.000 C 123.237 158.000,122.000 159.421,122.000 160.757 C 122.000 161.417,121.742 162.013,121.400 162.145 C 121.023 162.289,120.800 162.901,120.800 163.787 C 120.800 164.933,120.649 165.200,120.000 165.200 C 119.307 165.200,119.200 165.467,119.200 167.200 C 119.200 168.711,119.053 169.200,118.600 169.200 C 118.140 169.200,118.000 169.708,118.000 171.373 C 118.000 173.195,117.871 173.587,117.200 173.800 C 116.611 173.987,116.400 174.405,116.400 175.384 C 116.400 176.185,116.166 176.804,115.813 176.940 C 115.352 177.117,115.201 178.179,115.113 181.883 C 115.020 185.759,114.893 186.600,114.400 186.600 C 113.333 186.600,113.349 211.609,114.416 211.888 C 115.132 212.076,115.200 212.459,115.200 216.303 C 115.200 219.537,115.336 220.615,115.788 220.956 C 116.111 221.200,116.419 222.102,116.473 222.960 C 116.543 224.068,116.778 224.574,117.286 224.707 C 117.860 224.857,118.000 225.316,118.000 227.047 C 118.000 228.694,118.141 229.200,118.600 229.200 C 119.055 229.200,119.200 229.693,119.200 231.237 C 119.200 232.938,119.332 233.309,120.000 233.484 C 120.512 233.618,120.800 234.030,120.800 234.627 C 120.800 235.140,121.081 235.718,121.425 235.910 C 121.780 236.108,122.066 236.831,122.087 237.584 C 122.114 238.514,122.344 238.965,122.862 239.100 C 123.268 239.207,123.600 239.632,123.600 240.047 C 123.600 240.533,123.883 240.800,124.400 240.800 C 125.044 240.800,125.200 241.067,125.200 242.171 C 125.200 242.926,125.466 243.809,125.791 244.134 C 126.116 244.459,126.426 245.309,126.480 246.023 C 126.545 246.876,126.823 247.386,127.290 247.508 C 127.680 247.610,128.000 247.948,128.000 248.259 C 128.000 248.570,128.270 248.929,128.600 249.055 C 128.930 249.182,129.200 249.616,129.200 250.020 C 129.200 251.158,130.769 252.000,132.889 252.000 L 134.800 252.000 134.800 250.600 C 134.800 249.467,134.952 249.200,135.600 249.200 C 136.044 249.200,136.400 248.933,136.400 248.600 C 136.400 248.270,136.604 248.000,136.854 248.000 C 137.464 248.000,139.200 246.095,139.200 245.426 C 139.200 245.133,139.560 244.799,140.000 244.684 C 140.583 244.532,140.800 244.138,140.800 243.237 C 140.800 242.090,140.902 242.000,142.200 242.000 C 143.150 242.000,143.600 241.815,143.600 241.425 C 143.600 241.069,144.095 240.803,144.900 240.725 C 146.033 240.616,146.216 240.439,146.322 239.341 C 146.405 238.493,146.699 238.015,147.222 237.878 C 148.371 237.578,148.355 233.496,147.200 232.507 C 146.745 232.117,146.400 231.327,146.400 230.674 C 146.400 229.862,146.166 229.464,145.600 229.316 C 145.160 229.201,144.800 228.858,144.800 228.553 C 144.800 228.249,144.530 228.000,144.200 228.000 C 143.745 228.000,143.600 227.507,143.600 225.963 C 143.600 224.262,143.468 223.891,142.800 223.716 C 142.231 223.567,142.000 223.170,142.000 222.341 C 142.000 221.673,141.743 221.076,141.400 220.945 C 141.002 220.792,140.798 220.157,140.794 219.057 C 140.787 217.194,140.310 216.161,139.645 216.572 C 139.332 216.766,139.200 215.839,139.200 213.443 C 139.200 210.618,139.081 209.973,138.500 209.648 C 137.862 209.291,137.800 208.365,137.800 199.270 C 137.800 190.321,137.873 189.204,138.500 188.510 C 139.030 187.925,139.200 187.039,139.200 184.869 C 139.200 182.683,139.333 182.000,139.757 182.000 C 140.472 182.000,140.800 181.123,140.800 179.210 C 140.800 178.224,141.012 177.604,141.400 177.455 C 141.751 177.321,142.000 176.721,142.000 176.013 C 142.000 175.067,142.176 174.800,142.800 174.800 C 143.448 174.800,143.600 174.533,143.600 173.400 C 143.600 172.422,143.781 172.000,144.200 172.000 C 144.619 172.000,144.800 171.578,144.800 170.600 C 144.800 169.467,144.952 169.200,145.600 169.200 C 146.242 169.200,146.400 168.933,146.400 167.847 C 146.400 166.830,146.599 166.441,147.200 166.284 C 147.783 166.132,148.000 165.738,148.000 164.837 C 148.000 164.004,148.196 163.600,148.600 163.600 C 148.933 163.600,149.200 163.244,149.200 162.800 C 149.200 162.267,149.467 162.000,150.000 162.000 C 150.440 162.000,150.800 161.749,150.800 161.443 C 150.800 161.136,151.070 160.782,151.400 160.655 C 151.730 160.529,152.000 160.170,152.000 159.859 C 152.000 159.548,152.360 159.199,152.800 159.084 C 153.280 158.959,153.600 158.538,153.600 158.034 C 153.600 157.571,153.960 156.884,154.400 156.507 C 154.840 156.130,155.200 155.592,155.200 155.311 C 155.200 155.030,155.470 154.800,155.800 154.800 C 156.130 154.800,156.400 154.530,156.400 154.200 C 156.400 153.870,156.748 153.600,157.173 153.600 C 157.598 153.600,158.060 153.240,158.200 152.800 C 158.340 152.358,158.805 152.000,159.240 152.000 C 159.672 152.000,160.126 151.737,160.250 151.415 C 160.373 151.094,160.817 150.721,161.237 150.588 C 161.657 150.455,162.000 150.128,162.000 149.862 C 162.000 149.209,163.456 148.000,164.242 148.000 C 164.590 148.000,164.969 147.640,165.084 147.200 C 165.234 146.626,165.630 146.400,166.484 146.400 C 167.338 146.400,167.734 146.174,167.884 145.600 C 168.032 145.033,168.430 144.800,169.247 144.800 C 170.005 144.800,170.400 144.595,170.400 144.200 C 170.400 143.773,170.834 143.600,171.904 143.600 C 172.974 143.600,173.551 143.370,173.907 142.800 C 174.182 142.360,174.771 142.000,175.216 142.000 C 175.661 142.000,176.129 141.730,176.255 141.400 C 176.412 140.993,177.049 140.800,178.239 140.800 C 179.560 140.800,180.117 140.602,180.493 140.000 C 180.933 139.295,181.426 139.200,184.647 139.200 C 187.240 139.200,188.433 139.042,188.753 138.656 C 189.039 138.312,190.458 138.034,192.623 137.899 C 194.961 137.753,196.267 137.483,196.753 137.043 C 197.718 136.170,205.200 136.090,205.200 136.953 C 205.200 137.696,206.461 137.988,209.700 137.995 C 211.831 137.999,212.400 138.126,212.400 138.600 C 212.400 139.086,213.039 139.200,215.753 139.200 C 218.770 139.200,219.128 139.280,219.316 140.000 C 219.491 140.668,219.862 140.800,221.563 140.800 C 223.107 140.800,223.600 140.945,223.600 141.400 C 223.600 141.733,223.956 142.000,224.400 142.000 C 224.840 142.000,225.200 142.251,225.200 142.557 C 225.200 143.255,226.071 143.600,227.833 143.600 C 228.781 143.600,229.200 143.784,229.200 144.200 C 229.200 144.530,229.539 144.800,229.953 144.800 C 230.370 144.800,230.800 145.157,230.916 145.600 C 231.068 146.183,231.462 146.400,232.363 146.400 C 233.154 146.400,233.600 146.601,233.600 146.957 C 233.600 147.569,234.441 148.000,235.633 148.000 C 236.055 148.000,236.400 148.270,236.400 148.600 C 236.400 148.933,236.756 149.200,237.200 149.200 C 237.733 149.200,238.000 149.467,238.000 150.000 C 238.000 150.444,238.267 150.800,238.600 150.800 C 238.930 150.800,239.200 151.070,239.200 151.400 C 239.200 151.733,239.556 152.000,240.000 152.000 C 240.533 152.000,240.800 152.267,240.800 152.800 C 240.800 153.252,241.067 153.600,241.413 153.600 C 241.749 153.600,242.129 153.870,242.255 154.200 C 242.397 154.570,243.005 154.800,243.843 154.800 C 245.130 154.800,245.200 154.873,245.200 156.213 C 245.200 157.099,245.423 157.711,245.800 157.855 C 246.130 157.982,246.400 158.238,246.400 158.425 C 246.400 158.889,248.346 160.800,248.818 160.800 C 249.028 160.800,249.200 161.070,249.200 161.400 C 249.200 161.730,249.560 162.360,250.000 162.800 C 250.440 163.240,250.800 163.870,250.800 164.200 C 250.800 164.530,251.070 164.800,251.400 164.800 C 251.730 164.800,252.023 164.980,252.050 165.200 C 252.078 165.420,252.145 165.780,252.200 166.000 C 252.255 166.220,252.322 166.670,252.350 167.000 C 252.378 167.330,252.670 167.600,253.000 167.600 C 253.333 167.600,253.600 167.956,253.600 168.400 C 253.600 168.933,253.867 169.200,254.400 169.200 C 255.048 169.200,255.200 169.467,255.200 170.600 C 255.200 171.578,255.381 172.000,255.800 172.000 C 256.204 172.000,256.400 172.404,256.400 173.237 C 256.400 174.138,256.617 174.532,257.200 174.684 C 257.801 174.841,258.000 175.230,258.000 176.247 C 258.000 177.183,258.185 177.600,258.600 177.600 C 259.057 177.600,259.200 178.100,259.200 179.704 C 259.200 181.374,259.365 181.910,260.000 182.307 C 260.697 182.743,260.800 183.240,260.800 186.175 C 260.800 188.719,260.955 189.698,261.436 190.179 C 262.371 191.114,262.352 207.571,261.415 208.096 C 260.926 208.369,260.800 209.252,260.800 212.393 C 260.800 215.995,260.729 216.369,260.000 216.600 C 259.332 216.812,259.200 217.205,259.200 218.984 C 259.200 220.509,259.029 221.180,258.600 221.345 C 258.249 221.479,258.000 222.079,258.000 222.787 C 258.000 223.553,257.796 224.000,257.447 224.000 C 256.840 224.000,256.414 225.187,256.405 226.900 C 256.402 227.609,256.187 228.000,255.800 228.000 C 255.470 228.000,255.200 228.258,255.200 228.573 C 255.200 228.888,254.844 229.259,254.408 229.397 C 253.973 229.536,253.634 229.773,253.655 229.924 C 253.832 231.163,253.513 232.400,253.018 232.400 C 252.670 232.400,252.331 232.962,252.174 233.800 C 252.023 234.602,251.674 235.200,251.355 235.200 C 251.050 235.200,250.800 235.571,250.800 236.024 C 250.800 236.526,250.627 236.740,250.355 236.572 C 249.800 236.229,249.214 237.110,249.206 238.300 C 249.202 238.963,248.963 239.202,248.300 239.206 C 247.203 239.214,246.223 239.785,246.502 240.255 C 246.825 240.801,246.051 242.479,245.603 242.202 C 245.382 242.065,245.200 242.323,245.200 242.776 C 245.200 243.333,244.941 243.600,244.400 243.600 C 243.867 243.600,243.600 243.867,243.600 244.400 C 243.600 244.941,243.333 245.200,242.776 245.200 C 242.323 245.200,242.065 245.381,242.202 245.603 C 242.473 246.042,241.949 246.313,240.400 246.533 C 239.609 246.645,239.374 246.938,239.275 247.937 C 239.164 249.049,239.004 249.200,237.937 249.200 C 237.062 249.200,236.667 249.422,236.516 250.000 C 236.401 250.440,236.058 250.800,235.753 250.800 C 235.449 250.800,235.200 251.070,235.200 251.400 C 235.200 251.730,234.975 252.014,234.700 252.031 C 233.452 252.107,232.697 252.383,232.266 252.922 C 232.010 253.242,231.306 253.619,230.702 253.759 C 230.099 253.899,229.649 254.232,229.702 254.498 C 229.756 254.763,229.395 255.043,228.900 255.118 C 228.405 255.194,228.000 255.513,228.000 255.828 C 228.000 256.235,227.506 256.400,226.288 256.400 C 225.035 256.400,224.422 256.614,224.000 257.200 C 223.683 257.640,223.187 258.000,222.899 258.000 C 222.611 258.000,222.271 258.270,222.145 258.600 C 221.973 259.048,221.257 259.200,219.320 259.200 C 217.062 259.200,216.698 259.304,216.516 260.000 C 216.321 260.747,215.969 260.800,211.253 260.803 C 208.474 260.804,204.985 260.920,203.500 261.061 L 200.800 261.316 200.800 252.458 L 200.800 243.600 204.197 243.600 C 207.160 243.600,207.657 243.498,208.093 242.800 C 208.522 242.113,209.026 242.000,211.647 242.000 C 213.875 242.000,214.837 241.837,215.200 241.400 C 215.504 241.034,216.380 240.800,217.449 240.800 C 218.933 240.800,219.200 240.678,219.200 240.000 C 219.200 239.467,219.467 239.200,220.000 239.200 C 220.444 239.200,220.800 238.933,220.800 238.600 C 220.800 238.196,221.204 238.000,222.037 238.000 C 222.938 238.000,223.332 237.783,223.484 237.200 C 223.634 236.626,224.030 236.400,224.884 236.400 C 225.738 236.400,226.134 236.174,226.284 235.600 C 226.399 235.160,226.748 234.800,227.059 234.800 C 227.370 234.800,227.729 234.530,227.855 234.200 C 227.982 233.870,228.238 233.600,228.425 233.600 C 228.889 233.600,230.800 231.654,230.800 231.182 C 230.800 230.972,231.070 230.800,231.400 230.800 C 231.733 230.800,232.000 230.444,232.000 230.000 C 232.000 229.467,232.267 229.200,232.800 229.200 C 233.333 229.200,233.600 228.933,233.600 228.400 C 233.600 227.956,233.867 227.600,234.200 227.600 C 234.619 227.600,234.800 227.178,234.800 226.200 C 234.800 225.067,234.952 224.800,235.600 224.800 C 236.040 224.800,236.400 224.551,236.400 224.247 C 236.400 223.942,236.760 223.599,237.200 223.484 C 237.783 223.332,238.000 222.938,238.000 222.037 C 238.000 221.204,238.196 220.800,238.600 220.800 C 238.930 220.800,239.200 220.461,239.200 220.047 C 239.200 219.630,239.557 219.200,240.000 219.084 C 240.668 218.909,240.800 218.538,240.800 216.837 C 240.800 215.293,240.945 214.800,241.400 214.800 C 241.876 214.800,242.000 214.222,242.000 212.000 C 242.000 209.873,242.134 209.200,242.557 209.200 C 243.979 209.200,244.217 191.287,242.800 190.916 C 242.098 190.732,242.000 190.370,242.000 187.953 C 242.000 185.773,241.875 185.200,241.400 185.200 C 240.952 185.200,240.799 184.720,240.795 183.300 C 240.787 180.831,240.441 179.600,239.753 179.600 C 239.449 179.600,239.200 179.240,239.200 178.800 C 239.200 178.356,238.933 178.000,238.600 178.000 C 238.267 178.000,238.000 177.644,238.000 177.200 C 238.000 176.760,237.640 176.040,237.200 175.600 C 236.760 175.160,236.400 174.530,236.400 174.200 C 236.400 173.867,236.044 173.600,235.600 173.600 C 235.067 173.600,234.800 173.333,234.800 172.800 C 234.800 172.356,234.533 172.000,234.200 172.000 C 233.805 172.000,233.600 171.605,233.600 170.843 C 233.600 169.666,233.023 169.200,231.567 169.200 C 231.040 169.200,230.798 168.918,230.794 168.300 C 230.787 167.348,230.283 166.309,229.855 166.366 C 228.702 166.520,228.000 166.306,228.000 165.800 C 228.000 165.467,227.644 165.200,227.200 165.200 C 226.667 165.200,226.400 164.933,226.400 164.400 C 226.400 163.867,226.133 163.600,225.600 163.600 C 225.156 163.600,224.800 163.333,224.800 163.000 C 224.800 162.670,224.665 162.387,224.500 162.370 C 223.049 162.226,222.220 161.811,220.977 160.604 C 219.824 159.484,219.215 159.200,217.966 159.200 C 216.841 159.200,216.400 159.031,216.400 158.600 C 216.400 158.141,215.894 158.000,214.247 158.000 C 212.430 158.000,212.061 157.875,211.884 157.200 C 211.714 156.550,211.338 156.400,209.880 156.400 C 208.654 156.400,208.013 156.210,207.855 155.800 C 207.661 155.293,206.321 155.200,199.213 155.200 C 192.001 155.200,190.800 155.286,190.800 155.800 C 190.800 156.244,190.333 156.400,189.000 156.400 C 186.644 156.400,186.683 156.388,186.077 157.254 C 185.688 157.809,185.054 158.000,183.597 158.000 C 182.293 158.000,181.530 158.196,181.311 158.587 C 181.131 158.909,180.375 159.220,179.631 159.276 C 178.728 159.345,178.216 159.616,178.092 160.090 C 177.990 160.480,177.557 160.800,177.130 160.800 C 176.702 160.800,176.458 160.971,176.588 161.180 C 176.877 161.648,175.546 162.400,174.426 162.400 C 173.749 162.400,173.600 162.652,173.600 163.800 C 173.600 165.133,173.533 165.200,172.200 165.200 C 171.222 165.200,170.800 165.381,170.800 165.800 C 170.800 166.133,170.444 166.400,170.000 166.400 C 169.556 166.400,169.200 166.667,169.200 167.000 C 169.200 167.691,168.050 168.942,167.069 169.318 C 166.684 169.466,166.400 170.011,166.400 170.600 C 166.400 171.164,166.130 171.729,165.800 171.855 C 165.470 171.982,165.200 172.426,165.200 172.843 C 165.200 173.333,164.918 173.600,164.400 173.600 C 163.883 173.600,163.600 173.867,163.600 174.353 C 163.600 174.770,163.243 175.200,162.800 175.316 C 162.217 175.468,162.000 175.862,162.000 176.763 C 162.000 177.596,161.804 178.000,161.400 178.000 C 161.070 178.000,160.800 178.340,160.800 178.756 C 160.800 179.230,160.539 179.490,160.100 179.456 C 159.378 179.398,159.324 179.565,159.246 182.100 C 159.214 183.146,159.018 183.600,158.600 183.600 C 158.147 183.600,158.000 184.089,158.000 185.600 C 158.000 187.067,157.787 187.813,157.200 188.400 C 156.641 188.959,156.400 189.733,156.400 190.971 C 156.400 192.013,156.153 192.990,155.800 193.343 C 155.326 193.817,155.200 195.074,155.200 199.322 C 155.200 203.616,155.321 204.803,155.800 205.200 C 156.163 205.501,156.400 206.377,156.400 207.416 C 156.400 209.516,156.709 210.400,157.443 210.400 C 157.865 210.400,158.000 211.067,158.000 213.157 C 158.000 215.239,158.147 215.971,158.600 216.145 C 158.994 216.296,159.200 216.920,159.200 217.959 C 159.200 220.292,159.927 220.800,163.266 220.800 C 165.738 220.800,166.100 220.704,166.284 220.000 C 166.400 219.557,166.830 219.200,167.247 219.200 C 167.661 219.200,168.000 218.924,168.000 218.587 C 168.000 218.251,168.270 217.871,168.600 217.745 C 168.930 217.618,169.200 217.264,169.200 216.957 C 169.200 216.651,169.487 216.400,169.837 216.400 C 170.188 216.400,170.569 216.040,170.684 215.600 C 170.799 215.160,171.142 214.800,171.447 214.800 C 171.751 214.800,172.000 214.530,172.000 214.200 C 172.000 213.867,172.356 213.600,172.800 213.600 C 173.333 213.600,173.600 213.333,173.600 212.800 C 173.600 212.267,173.867 212.000,174.400 212.000 C 174.844 212.000,175.200 211.733,175.200 211.400 C 175.200 211.070,175.470 210.800,175.800 210.800 C 176.133 210.800,176.400 210.444,176.400 210.000 C 176.400 209.548,176.667 209.200,177.013 209.200 C 177.349 209.200,177.729 208.930,177.855 208.600 C 177.982 208.270,178.336 208.000,178.643 208.000 C 179.096 208.000,179.200 206.781,179.200 201.447 C 179.200 195.230,179.241 194.883,180.000 194.684 C 180.654 194.513,180.800 194.138,180.800 192.637 C 180.800 191.271,180.954 190.800,181.400 190.800 C 181.733 190.800,182.000 190.444,182.000 190.000 C 182.000 189.467,182.267 189.200,182.800 189.200 C 183.333 189.200,183.600 188.933,183.600 188.400 C 183.600 187.956,183.867 187.600,184.200 187.600 C 184.530 187.600,184.800 187.330,184.800 187.000 C 184.800 186.667,185.156 186.400,185.600 186.400 C 186.133 186.400,186.400 186.133,186.400 185.600 C 186.400 185.148,186.667 184.800,187.013 184.800 C 187.349 184.800,187.729 184.530,187.855 184.200 C 187.985 183.863,188.580 183.600,189.216 183.600 C 189.995 183.600,190.425 183.351,190.600 182.800 C 190.763 182.285,191.205 182.000,191.840 182.000 C 192.382 182.000,192.929 181.730,193.055 181.400 C 193.399 180.505,205.200 180.505,205.200 181.400 C 205.200 181.730,205.430 182.000,205.711 182.000 C 205.992 182.000,206.530 182.360,206.907 182.800 C 207.381 183.353,208.087 183.600,209.196 183.600 C 210.355 183.600,210.800 183.766,210.800 184.200 C 210.800 184.530,211.070 184.800,211.400 184.800 C 211.730 184.800,212.000 185.087,212.000 185.437 C 212.000 185.788,212.360 186.169,212.800 186.284 C 213.240 186.399,213.600 186.759,213.600 187.084 C 213.600 187.409,213.960 187.769,214.400 187.884 C 214.840 187.999,215.200 188.410,215.200 188.798 C 215.200 189.185,215.470 189.726,215.800 190.000 C 216.130 190.274,216.400 191.014,216.400 191.646 C 216.400 192.360,216.702 192.982,217.200 193.293 C 217.951 193.762,218.000 194.226,218.000 200.850 C 218.000 207.570,217.962 207.917,217.200 208.116 C 216.548 208.286,216.400 208.662,216.400 210.144 C 216.400 211.907,216.356 211.972,215.000 212.226 C 214.230 212.371,213.600 212.720,213.600 213.002 C 213.600 213.284,213.356 213.608,213.057 213.723 C 212.758 213.837,212.403 214.487,212.267 215.166 C 212.054 216.228,211.846 216.400,210.773 216.400 C 209.862 216.400,209.469 216.616,209.316 217.200 C 209.128 217.919,207.528 218.313,205.889 218.044 C 205.718 218.016,205.473 218.264,205.346 218.596 C 205.214 218.940,204.622 219.200,203.971 219.200 C 203.238 219.200,202.675 219.486,202.400 220.000 C 202.036 220.680,201.562 220.800,199.233 220.800 C 196.830 220.800,196.468 220.702,196.284 220.000 C 196.117 219.361,195.738 219.200,194.400 219.200 C 193.062 219.200,192.683 219.361,192.516 220.000 C 192.400 220.443,191.970 220.800,191.553 220.800 C 191.139 220.800,190.800 221.070,190.800 221.400 C 190.800 221.730,190.513 222.000,190.163 222.000 C 189.812 222.000,189.431 222.360,189.316 222.800 C 189.201 223.240,188.858 223.600,188.553 223.600 C 188.249 223.600,188.000 223.960,188.000 224.400 C 188.000 225.048,187.733 225.200,186.600 225.200 C 185.267 225.200,185.200 225.267,185.200 226.600 C 185.200 227.733,185.048 228.000,184.400 228.000 C 183.956 228.000,183.600 228.267,183.600 228.600 C 183.600 228.930,183.342 229.200,183.027 229.200 C 182.712 229.200,182.340 229.560,182.200 230.000 C 182.060 230.440,181.688 230.800,181.373 230.800 C 181.058 230.800,180.800 231.059,180.800 231.375 C 180.800 231.731,180.305 231.997,179.500 232.075 C 178.313 232.189,178.189 232.331,178.076 233.700 C 177.979 234.875,177.784 235.200,177.176 235.200 C 176.749 235.200,176.400 235.450,176.400 235.757 C 176.400 236.063,175.953 236.425,175.407 236.562 C 174.861 236.699,174.137 237.349,173.797 238.006 C 173.457 238.663,172.924 239.200,172.612 239.200 C 172.301 239.200,171.810 239.527,171.523 239.926 C 171.235 240.326,170.674 240.775,170.275 240.924 C 169.876 241.072,169.658 241.370,169.791 241.585 C 169.924 241.801,169.575 242.091,169.016 242.232 C 168.457 242.372,168.000 242.653,168.000 242.856 C 168.000 243.059,167.370 243.803,166.600 244.510 C 165.830 245.216,165.200 246.001,165.200 246.253 C 165.200 246.505,164.885 246.686,164.500 246.656 C 164.108 246.624,163.849 246.835,163.911 247.134 C 163.973 247.428,163.658 247.764,163.211 247.881 C 162.765 247.998,162.400 248.342,162.400 248.647 C 162.400 248.951,162.142 249.200,161.827 249.200 C 161.512 249.200,161.143 249.551,161.006 249.980 C 160.870 250.408,160.408 250.870,159.980 251.006 C 159.551 251.143,159.200 251.512,159.200 251.827 C 159.200 252.142,158.919 252.400,158.576 252.400 C 158.233 252.400,158.072 252.592,158.217 252.827 C 158.362 253.062,158.108 253.351,157.653 253.470 C 157.199 253.589,156.718 254.027,156.586 254.443 C 156.454 254.859,156.088 255.200,155.773 255.200 C 155.458 255.200,155.200 255.449,155.200 255.753 C 155.200 256.058,154.840 256.401,154.400 256.516 C 153.960 256.631,153.600 257.012,153.600 257.363 C 153.600 257.713,153.336 258.000,153.014 258.000 C 152.692 258.000,152.233 258.365,151.994 258.811 C 151.755 259.257,151.389 259.517,151.180 259.388 C 150.971 259.258,150.800 259.523,150.800 259.976 C 150.800 260.533,150.541 260.800,150.000 260.800 C 149.560 260.800,149.221 260.935,149.247 261.100 C 149.376 261.916,149.155 262.420,148.773 262.183 C 148.538 262.038,148.247 262.297,148.126 262.760 C 148.001 263.238,147.582 263.600,147.153 263.600 C 146.667 263.600,146.400 263.883,146.400 264.400 C 146.400 264.844,146.133 265.200,145.800 265.200 C 145.470 265.200,145.200 265.470,145.200 265.800 C 145.200 266.133,144.844 266.400,144.400 266.400 C 143.867 266.400,143.600 266.667,143.600 267.200 C 143.600 267.741,143.333 268.000,142.776 268.000 C 142.295 268.000,142.062 268.177,142.217 268.427 C 142.362 268.662,142.103 268.953,141.640 269.074 C 141.162 269.199,140.800 269.618,140.800 270.047 C 140.800 270.461,140.545 270.800,140.233 270.800 C 139.379 270.800,136.400 273.629,136.400 274.439 C 136.400 274.914,136.038 275.189,135.300 275.273 C 134.451 275.371,134.113 275.697,133.817 276.700 C 133.607 277.415,133.211 278.000,132.937 278.000 C 132.664 278.000,132.278 278.290,132.079 278.644 C 131.581 279.534,126.802 279.505,126.301 278.608 C 126.113 278.274,125.699 278.000,125.380 278.000 C 124.984 278.000,124.800 277.556,124.800 276.600 C 124.800 275.622,124.619 275.200,124.200 275.200 C 123.867 275.200,123.600 274.844,123.600 274.400 C 123.600 273.867,123.333 273.600,122.800 273.600 C 122.152 273.600,122.000 273.333,122.000 272.200 C 122.000 271.222,121.819 270.800,121.400 270.800 C 120.981 270.800,120.800 270.378,120.800 269.400 C 120.800 268.267,120.648 268.000,120.000 268.000 C 119.467 268.000,119.200 267.733,119.200 267.200 C 119.200 266.760,118.950 266.400,118.643 266.400 C 118.337 266.400,117.963 265.907,117.812 265.304 C 117.494 264.040,116.966 263.615,115.700 263.606 C 114.939 263.601,114.800 263.383,114.800 262.200 C 114.800 261.222,114.619 260.800,114.200 260.800 C 113.870 260.800,113.600 260.455,113.600 260.033 C 113.600 258.841,113.169 258.000,112.557 258.000 C 112.251 258.000,112.000 257.640,112.000 257.200 C 112.000 256.756,111.733 256.400,111.400 256.400 C 110.996 256.400,110.800 255.996,110.800 255.163 C 110.800 254.262,110.583 253.868,110.000 253.716 C 109.560 253.601,109.200 253.277,109.200 252.996 C 109.200 252.715,108.930 252.382,108.600 252.255 C 108.270 252.129,108.000 251.674,108.000 251.245 C 108.000 250.041,107.571 249.200,106.957 249.200 C 106.587 249.200,106.400 248.730,106.400 247.800 C 106.400 246.933,106.095 246.095,105.600 245.600 C 105.160 245.160,104.800 244.530,104.800 244.200 C 104.800 243.870,104.530 243.600,104.200 243.600 C 103.756 243.600,103.600 243.134,103.600 241.803 C 103.600 240.440,103.407 239.886,102.800 239.507 C 102.360 239.232,102.000 238.858,102.000 238.675 C 102.000 238.492,101.730 238.073,101.400 237.743 C 101.003 237.346,100.800 236.349,100.800 234.798 C 100.800 232.805,100.680 232.416,100.000 232.200 C 99.321 231.984,99.200 231.595,99.200 229.622 C 99.200 228.044,99.007 227.138,98.600 226.800 C 98.270 226.526,97.998 225.829,97.995 225.251 C 97.986 223.584,97.554 222.400,96.953 222.400 C 96.517 222.400,96.400 221.494,96.400 218.096 C 96.400 214.226,96.319 213.742,95.600 213.293 C 94.348 212.511,94.348 186.612,95.600 186.284 C 96.334 186.092,96.400 185.738,96.400 181.982 C 96.400 178.854,96.538 177.783,96.986 177.444 C 97.309 177.200,97.737 175.927,97.939 174.616 C 98.140 173.304,98.507 172.164,98.753 172.082 C 99.009 171.997,99.200 171.008,99.200 169.767 C 99.200 168.181,99.350 167.600,99.757 167.600 C 100.527 167.600,100.800 166.702,100.800 164.167 C 100.800 162.507,100.940 162.000,101.400 162.000 C 101.730 162.000,102.000 161.730,102.000 161.400 C 102.000 161.070,102.360 160.440,102.800 160.000 C 103.406 159.394,103.600 158.667,103.600 157.000 C 103.600 155.311,103.739 154.800,104.200 154.800 C 104.530 154.800,104.800 154.530,104.800 154.200 C 104.800 153.867,105.156 153.600,105.600 153.600 C 106.245 153.600,106.400 153.333,106.400 152.220 C 106.400 151.369,106.646 150.702,107.042 150.480 C 107.425 150.266,107.767 149.386,107.890 148.301 C 108.070 146.702,108.229 146.454,109.199 146.260 C 109.991 146.102,110.381 145.723,110.576 144.920 C 111.106 142.744,112.194 140.821,112.900 140.810 C 113.330 140.804,113.600 140.491,113.600 140.000 C 113.600 139.556,113.867 139.200,114.200 139.200 C 114.619 139.200,114.800 138.778,114.800 137.800 C 114.800 136.667,114.952 136.400,115.600 136.400 C 116.133 136.400,116.400 136.133,116.400 135.600 C 116.400 135.067,116.667 134.800,117.200 134.800 C 117.640 134.800,118.000 134.549,118.000 134.243 C 118.000 133.936,118.270 133.582,118.600 133.455 C 118.930 133.329,119.200 132.970,119.200 132.659 C 119.200 132.348,119.560 131.999,120.000 131.884 C 120.583 131.732,120.800 131.338,120.800 130.437 C 120.800 129.604,120.996 129.200,121.400 129.200 C 121.730 129.200,122.000 128.930,122.000 128.600 C 122.000 128.270,122.345 128.000,122.767 128.000 C 124.297 128.000,124.800 127.544,124.800 126.157 C 124.800 124.881,124.881 124.800,126.157 124.800 C 127.544 124.800,128.000 124.297,128.000 122.767 C 128.000 122.345,128.270 122.000,128.600 122.000 C 128.930 122.000,129.200 121.730,129.200 121.400 C 129.200 120.981,129.622 120.800,130.600 120.800 C 131.933 120.800,132.000 120.733,132.000 119.400 C 132.000 118.067,132.067 118.000,133.400 118.000 C 134.533 118.000,134.800 117.848,134.800 117.200 C 134.800 116.667,135.067 116.400,135.600 116.400 C 136.133 116.400,136.400 116.133,136.400 115.600 C 136.400 114.952,136.667 114.800,137.800 114.800 C 138.778 114.800,139.200 114.619,139.200 114.200 C 139.200 113.867,139.556 113.600,140.000 113.600 C 140.533 113.600,140.800 113.333,140.800 112.800 C 140.800 112.356,141.067 112.000,141.400 112.000 C 141.730 112.000,142.000 111.730,142.000 111.400 C 142.000 111.013,142.391 110.798,143.100 110.795 C 145.188 110.784,146.031 110.347,146.270 109.148 C 146.469 108.156,146.684 108.000,147.850 108.000 C 148.667 108.000,149.516 107.684,150.000 107.200 C 150.455 106.745,151.333 106.400,152.037 106.400 C 152.938 106.400,153.332 106.183,153.484 105.600 C 153.599 105.160,153.948 104.800,154.259 104.800 C 154.570 104.800,154.929 104.530,155.055 104.200 C 155.213 103.790,155.854 103.600,157.080 103.600 C 158.538 103.600,158.914 103.450,159.084 102.800 C 159.200 102.357,159.630 102.000,160.047 102.000 C 160.461 102.000,160.800 101.730,160.800 101.400 C 160.800 100.927,161.360 100.800,163.437 100.800 C 165.738 100.800,166.102 100.698,166.284 100.000 C 166.466 99.305,166.830 99.200,169.059 99.200 C 170.971 99.200,171.684 99.047,171.855 98.600 C 171.986 98.259,172.583 98.000,173.239 98.000 C 173.960 98.000,174.581 97.700,174.893 97.200 C 175.336 96.490,175.826 96.400,179.252 96.400 C 182.503 96.400,183.260 96.276,184.056 95.613 C 185.291 94.584,214.000 94.335,214.000 95.353 " stroke="none" fill="#046cfc" fill-rule="evenodd"></path><path id="path1" d="M125.700 46.998 C 125.425 47.311,125.200 47.664,125.200 47.784 C 125.200 48.466,274.591 47.788,274.723 47.106 C 274.909 46.139,126.552 46.032,125.700 46.998 M125.371 352.795 C 125.371 353.585,125.804 353.590,200.086 353.593 C 274.468 353.596,274.800 353.592,274.800 352.798 C 274.800 352.004,274.467 352.000,200.086 352.000 C 125.803 352.000,125.371 352.005,125.371 352.795 " stroke="none" fill="#7cb4fc" fill-rule="evenodd"></path><path id="path2" d="" stroke="none" fill="#086cfc" fill-rule="evenodd"></path><path id="path3" d="M128.800 48.414 C 132.195 48.796,267.805 48.796,271.200 48.414 C 272.630 48.254,240.590 48.122,200.000 48.122 C 159.410 48.122,127.370 48.254,128.800 48.414 M163.300 351.900 C 183.485 351.957,216.515 351.957,236.700 351.900 C 256.885 351.843,240.370 351.796,200.000 351.796 C 159.630 351.796,143.115 351.843,163.300 351.900 " stroke="none" fill="#2094fc" fill-rule="evenodd"></path><path id="path4" d="" stroke="none" fill="#246cfc" fill-rule="evenodd"></path></g></svg>