<svg width="400" height="400" viewBox="0 0 400 400" fill="none" xmlns="http://www.w3.org/2000/svg">
<path d="M200 400C310.457 400 400 310.457 400 200C400 89.5431 310.457 0 200 0C89.5431 0 0 89.5431 0 200C0 310.457 89.5431 400 200 400Z" fill="white"/>
<g clip-path="url(#clip0_223_7192)">
<path d="M197.297 348.353C197.11 348.353 197.11 348.353 196.924 348.353C134.657 348.166 104.829 318.338 90.66 293.543C77.61 270.426 72.5765 245.072 76.1186 218.226C78.915 195.855 87.8636 172.365 102.032 150.739C110.981 136.943 122.726 122.961 135.216 111.589C144.351 103.2 151.808 97.7934 157.774 95.3699C155.91 87.7263 154.791 75.6085 154.418 71.5071V70.7614C154.232 61.2535 164.858 56.9657 168.4 55.4743C175.112 52.6778 183.128 51.1864 190.772 51C198.415 50.8136 206.059 51.3728 212.398 52.8643C216.313 53.7964 228.057 56.4064 228.244 66.4735L228.803 83.6249C228.803 86.7942 228.617 89.5906 228.244 92.2006C261.615 103.946 289.952 139.18 301.51 158.196C306.171 165.84 317.543 186.533 322.576 212.447C328.542 243.58 323.509 271.358 307.476 295.407C274.478 344.438 215.38 348.353 197.297 348.353ZM164.113 114.572C156.656 118.673 135.03 136.757 118.997 161.738C103.151 186.16 80.5929 234.632 108.371 283.662C124.776 312.745 155.537 328.218 197.11 328.405C197.297 328.405 197.297 328.405 197.483 328.405C212.957 328.405 263.479 325.049 290.511 284.408C322.39 236.682 290.884 179.822 284.172 169.009C278.393 159.501 266.648 144.028 252.107 130.978L191.145 121.656L144.911 130.791L169.333 116.996C168.4 116.623 167.468 116.25 166.536 115.691C165.604 115.318 164.672 114.945 164.113 114.572ZM219.855 114.199L242.785 123.148C236.633 118.673 230.295 114.758 223.583 112.148C222.651 112.708 221.719 113.267 220.6 113.826C220.414 114.013 220.227 114.199 219.855 114.199ZM174.739 74.6764C175.671 82.3199 176.79 90.1499 177.535 92.387C179.027 96.4884 181.45 99.0984 185.179 100.59L192.636 103.573L198.975 100.031C202.33 98.1663 204.568 95.3699 204.754 95.1834L205.5 94.0649L205.873 93.8784C206.432 93.1327 208.296 90.1499 208.11 84.3706V72.6256C204.568 71.6935 198.415 70.9478 191.145 71.1342C184.247 71.3207 178.095 73.1849 174.739 74.6764Z" fill="#0B4431"/>
<path d="M298.714 289.814C268.139 335.862 211.465 338.286 196.924 338.286C178.654 338.286 126.268 336.048 99.4221 288.509C73.695 243.021 85.8128 193.99 110.421 156.145C129.623 126.503 157.215 104.132 164.299 103.759C165.604 103.759 167.655 105.064 170.824 106.556C175.298 108.606 182.196 111.216 193.009 110.284C205.5 109.166 212.211 106.928 216.126 104.878C220.6 102.641 221.719 100.776 223.583 101.522C255.649 112.335 282.867 147.57 292.748 163.603C303.374 181.127 332.457 239.292 298.714 289.814Z" fill="#77BAA1"/>
<path d="M116.201 189.516C116.201 189.516 102.218 223.632 105.201 249.173C107.998 273.782 124.59 310.321 165.231 319.27C205.872 328.218 232.159 317.779 254.717 307.711C277.088 297.644 292.562 276.578 294.799 256.63C297.036 236.682 297.222 207.6 286.037 183.923" fill="#F3ACBB"/>
<path d="M215.38 126.876C214.075 131.537 192.823 136.011 183.128 133.401C173.621 130.791 172.875 124.639 170.638 106.556C175.112 108.606 182.01 111.216 192.823 110.284C205.313 109.166 212.025 106.928 215.94 104.878C216.313 109.538 216.685 122.402 215.38 126.876Z" fill="#89B772"/>
<path d="M164.858 298.017C163.74 295.407 163.553 292.611 163.926 289.814C165.231 279.747 172.315 253.088 209.042 232.954C255.09 207.6 279.325 229.039 279.325 229.039C279.325 229.039 293.867 241.902 282.867 272.477C271.868 302.864 217.99 314.05 217.99 314.05C217.99 314.05 175.112 323.931 164.858 298.017Z" fill="#F08FA2"/>
<path d="M120.488 242.275C117.505 242.275 117.319 230.53 121.048 225.31C127.013 216.921 137.267 224.751 137.267 224.751C137.267 224.751 128.318 242.275 120.488 242.275Z" fill="#F08FA2"/>
<path d="M286.036 183.923C286.036 179.449 248.005 175.907 201.025 175.907C154.045 175.907 116.014 185.042 116.014 189.516C116.014 193.99 154.045 201.82 201.025 201.82C248.005 201.82 286.036 188.397 286.036 183.923Z" fill="#F8D0D9"/>
<path d="M164.299 70.5749C164.299 70.5749 167.468 90.1499 168.773 95.7427C169.892 100.403 177.163 110.471 190.585 111.962C204.94 113.453 213.143 100.963 213.143 100.963C213.143 100.963 218.922 95.5563 218.55 83.9978C218.177 72.4392 217.99 66.8464 217.99 66.8464C217.99 66.8464 187.789 69.6428 164.299 70.5749Z" fill="#DD8843"/>
<path d="M217.99 66.8464C217.99 64.0499 205.5 60.6942 190.958 61.0671C176.23 61.44 164.113 67.7785 164.299 70.5749C164.299 73.3713 176.79 77.6592 191.331 77.2863C206.059 76.9135 217.99 69.6428 217.99 66.8464Z" fill="#EBB646"/>
<path d="M123.098 194.922C121.607 194.55 120.488 193.617 119.556 192.312C116.946 188.211 113.218 177.398 128.132 156.705C147.52 129.486 157.96 138.621 157.96 138.621C157.96 138.621 170.824 145.146 156.842 168.077C156.655 168.263 156.655 168.45 156.469 168.636C155.164 171.805 141.368 199.956 123.098 194.922Z" fill="white"/>
<path d="M261.428 304.729C258.259 304.169 256.208 301.373 256.767 298.204C257.513 294.289 259.75 288.323 266.275 282.544C276.342 273.595 283.613 281.611 285.291 283.849C285.664 284.408 285.85 284.967 286.037 285.526C286.409 287.391 286.223 291.119 281.189 296.712C275.41 303.051 268.326 306.034 261.428 304.729Z" fill="white"/>
<path d="M308.035 222.141C309.899 226.988 296.104 208.905 294.239 208.718C291.443 208.345 277.274 242.648 273.732 243.58C269.258 244.699 232.905 218.226 225.075 218.972C211.092 219.904 182.383 262.037 178.654 262.782C174.18 263.528 142.114 225.124 130.556 223.632C126.641 223.073 99.6085 255.884 97.3713 253.461C96.2528 252.342 93.6428 226.242 94.0156 218.972C94.3885 214.311 97.5578 237.242 98.8628 237.242C101.1 237.428 125.895 212.633 131.115 213.006C135.776 213.379 172.502 246.004 176.044 245.258C179.586 244.512 215.194 209.464 222.837 208.345C228.803 207.6 260.496 230.53 269.072 229.039C274.292 228.293 290.324 199.956 293.121 199.21C295.544 199.024 305.984 216.921 308.035 222.141Z" fill="#A5D4C1"/>
</g>
<defs>
<clipPath id="clip0_223_7192">
<rect width="250" height="297.353" fill="white" transform="translate(75 51)"/>
</clipPath>
</defs>
</svg>
