<svg width="400" height="400" viewBox="0 0 400 400" fill="none" xmlns="http://www.w3.org/2000/svg">
<circle cx="200" cy="200" r="200" fill="black"/>
<g clip-path="url(#clip0_196_1006)">
<path d="M115.608 251.547C117.117 250.039 119.192 249.159 121.392 249.159H320.914C324.56 249.159 326.383 253.559 323.806 256.136L284.391 295.55C282.883 297.059 280.808 297.939 278.608 297.939H79.086C75.44 297.939 73.617 293.539 76.1943 290.962L115.608 251.547Z" fill="url(#paint0_linear_196_1006)"/>
<path d="M115.608 104.389C117.18 102.88 119.254 102 121.392 102H320.914C324.56 102 326.383 106.4 323.806 108.978L284.391 148.392C282.883 149.9 280.808 150.78 278.608 150.78H79.086C75.44 150.78 73.617 146.38 76.1943 143.803L115.608 104.389Z" fill="url(#paint1_linear_196_1006)"/>
<path d="M284.391 177.497C282.883 175.988 280.808 175.108 278.608 175.108H79.086C75.44 175.108 73.617 179.508 76.1943 182.085L115.608 221.5C117.117 223.008 119.192 223.888 121.392 223.888H320.914C324.56 223.888 326.383 219.488 323.806 216.911L284.391 177.497Z" fill="url(#paint2_linear_196_1006)"/>
</g>
<defs>
<linearGradient id="paint0_linear_196_1006" x1="301.854" y1="78.4551" x2="163.768" y2="342.944" gradientUnits="userSpaceOnUse">
<stop stop-color="#00FFA3"/>
<stop offset="1" stop-color="#DC1FFF"/>
</linearGradient>
<linearGradient id="paint1_linear_196_1006" x1="241.475" y1="46.9325" x2="103.39" y2="311.421" gradientUnits="userSpaceOnUse">
<stop stop-color="#00FFA3"/>
<stop offset="1" stop-color="#DC1FFF"/>
</linearGradient>
<linearGradient id="paint2_linear_196_1006" x1="271.472" y1="62.5934" x2="133.387" y2="327.082" gradientUnits="userSpaceOnUse">
<stop stop-color="#00FFA3"/>
<stop offset="1" stop-color="#DC1FFF"/>
</linearGradient>
<clipPath id="clip0_196_1006">
<rect width="250" height="195.939" fill="white" transform="translate(75 102)"/>
</clipPath>
</defs>
</svg>
