<svg width="400" height="400" viewBox="0 0 400 400" fill="none" xmlns="http://www.w3.org/2000/svg">
<g clip-path="url(#clip0_312_1814)">
<path d="M200 400C310.457 400 400 310.457 400 200C400 89.5431 310.457 0 200 0C89.5431 0 0 89.5431 0 200C0 310.457 89.5431 400 200 400Z" fill="black"/>
<path d="M199.5 288.378C158.105 288.378 124.49 254.763 124.49 213.368C124.49 173.125 192.393 102.052 195.274 99.0748L198.828 95.3291L202.478 98.9788C205.455 101.956 274.511 173.029 274.511 213.272C274.511 254.763 240.895 288.378 199.5 288.378ZM198.924 109.832C192.969 116.267 180.483 130.193 168.094 146.521C146.099 175.526 134.478 198.577 134.478 213.272C134.478 249.096 163.676 278.294 199.5 278.294C235.325 278.294 264.522 249.096 264.522 213.272C264.522 198.577 252.709 175.526 230.33 146.521C217.749 130.289 204.975 116.267 198.924 109.832Z" fill="url(#paint0_linear_312_1814)"/>
<path d="M199.5 312.389C144.851 312.389 100.478 267.921 100.478 213.368C100.478 159.967 175.009 85.4365 178.178 82.3631C180.099 80.4422 183.365 80.4422 185.285 82.3631C187.206 84.284 187.206 87.5495 185.285 89.4704C184.517 90.2387 110.563 164.193 110.563 213.368C110.563 262.446 150.517 302.401 199.596 302.401C248.675 302.401 288.629 262.446 288.629 213.368C288.629 193.198 275.567 165.345 250.788 132.594C231.771 107.527 212.658 88.51 212.466 88.3179C210.449 86.397 210.449 83.2275 212.466 81.2106C214.387 79.1936 217.556 79.1936 219.573 81.2106C222.839 84.38 298.714 159.871 298.714 213.368C298.522 267.921 254.149 312.389 199.5 312.389Z" fill="url(#paint1_linear_312_1814)"/>
<path d="M199.5 336.401C133.037 336.401 78.9644 282.328 78.9644 215.865C78.9644 188.396 92.7948 154.589 119.975 115.498C140.049 86.6851 159.738 66.1316 160.602 65.2672C162.523 63.2502 165.692 63.2502 167.709 65.1711C169.726 67.092 169.726 70.2615 167.805 72.2784C167.613 72.4705 147.732 93.2161 128.139 121.357C102.495 158.142 88.953 190.797 88.953 215.865C88.953 276.757 138.512 326.412 199.5 326.412C260.488 326.412 310.047 276.853 310.047 215.865C310.047 190.797 296.409 158.142 270.573 121.357C250.788 93.2161 230.715 72.4705 230.522 72.2784C228.602 70.2615 228.602 67.092 230.618 65.1711C232.635 63.2502 235.805 63.2502 237.726 65.2672C241.087 68.7248 320.036 150.747 320.036 215.865C320.036 282.328 265.963 336.401 199.5 336.401Z" fill="url(#paint2_linear_312_1814)"/>
</g>
<defs>
<linearGradient id="paint0_linear_312_1814" x1="199.5" y1="288.367" x2="199.5" y2="95.3176" gradientUnits="userSpaceOnUse">
<stop stop-color="#05AAC5"/>
<stop offset="1" stop-color="#71E0EC"/>
</linearGradient>
<linearGradient id="paint1_linear_312_1814" x1="199.596" y1="312.378" x2="199.596" y2="79.6864" gradientUnits="userSpaceOnUse">
<stop stop-color="#05AAC5"/>
<stop offset="1" stop-color="#71E0EC"/>
</linearGradient>
<linearGradient id="paint2_linear_312_1814" x1="199.5" y1="336.389" x2="199.5" y2="63.7305" gradientUnits="userSpaceOnUse">
<stop stop-color="#05AAC5"/>
<stop offset="1" stop-color="#71E0EC"/>
</linearGradient>
<clipPath id="clip0_312_1814">
<rect width="400" height="400" fill="white"/>
</clipPath>
</defs>
</svg>
