<svg width="400" height="400" viewBox="0 0 400 400" fill="none" xmlns="http://www.w3.org/2000/svg">
<path d="M200 400C310.457 400 400 310.457 400 200C400 89.5431 310.457 0 200 0C89.5431 0 0 89.5431 0 200C0 310.457 89.5431 400 200 400Z" fill="white"/>
<g clip-path="url(#clip0_292_1844)">
<path d="M112.5 78.75L345 237.5L287.5 322.5L55 162.5L112.5 78.75Z" fill="url(#paint0_linear_292_1844)"/>
<path d="M345 237.5C325 266.25 257.5 255 193.75 210C128.75 166.25 93.7504 107.5 112.5 78.75C132.5 50 200 61.25 263.75 106.25C328.75 148.75 363.75 208.75 345 237.5Z" fill="url(#paint1_linear_292_1844)"/>
<path d="M287.5 321.25C267.5 350 200 338.75 136.25 293.75C72.5002 248.75 36.2502 191.25 56.2502 161.25C76.2502 132.5 143.75 143.75 207.5 188.75C271.25 233.75 306.25 292.5 287.5 321.25Z" fill="url(#paint2_linear_292_1844)"/>
<path d="M345 237.5L287.5 322.5C267.5 351.25 200 338.75 136.25 295C123.75 286.25 112.5 277.5 101.25 267.5C110 266.25 121.25 261.25 132.5 248.75C152.5 227.5 162.5 222.5 171.25 223.75C180 223.75 190 232.5 206.25 253.75C222.5 275 245 281.25 258.75 270C260 268.75 261.25 268.75 262.5 267.5C273.75 258.75 277.5 255 298.75 215C303.75 205 321.25 188.75 345 196.25C351.25 212.5 351.25 226.25 345 237.5Z" fill="#0E0F23"/>
<path fill-rule="evenodd" clip-rule="evenodd" d="M336.25 232.5C318.75 257.5 257.5 245 198.75 203.75C138.75 162.5 103.75 110 121.25 85C138.75 60 200 72.5 258.75 113.75C317.5 155 352.5 207.5 336.25 232.5ZM281.25 195C272.5 207.5 242.5 201.25 212.5 181.25C183.75 161.25 166.25 135 175 122.5C183.75 110 213.75 116.25 243.75 136.25C272.5 156.25 290 182.5 281.25 195Z" fill="white"/>
<path d="M107.5 107.5C107.5 106.25 106.25 105 105 106.25C103.75 107.5 102.5 107.5 102.5 108.75C103.75 112.5 105 115 105 117.5C105 118.75 106.25 120 107.5 118.75C108.75 118.75 110 117.5 108.75 116.25C108.75 113.75 108.75 111.25 107.5 107.5Z" fill="white"/>
<path d="M113.75 127.5C113.75 126.25 112.5 125 111.25 126.25C110 127.5 110 127.5 110 128.75C123.75 160 152.5 193.75 190 218.75C191.25 220 192.5 218.75 193.75 218.75C195 217.5 193.75 216.25 193.75 215C155 190 127.5 157.5 113.75 127.5Z" fill="white"/>
<path d="M265 250C263.75 250 262.5 250 262.5 251.25C262.5 252.5 262.5 253.75 263.75 253.75C267.5 255 272.5 256.25 276.25 257.5C277.5 257.5 278.75 257.5 278.75 256.25C278.75 255 278.75 253.75 277.5 253.75C273.75 252.5 268.75 251.25 265 250Z" fill="white"/>
<path d="M287.5 255C286.25 255 285 256.25 285 257.5C285 258.75 286.25 260 287.5 260C297.5 261.25 308.75 262.5 317.5 261.25C318.75 261.25 320 260 320 258.75C320 257.5 318.75 256.25 317.5 256.25C307.5 257.5 297.5 256.25 287.5 255Z" fill="white"/>
</g>
<defs>
<linearGradient id="paint0_linear_292_1844" x1="158.053" y1="56.1788" x2="204.16" y2="214.506" gradientUnits="userSpaceOnUse">
<stop stop-color="#03B8FF"/>
<stop offset="1" stop-color="#FA52A0"/>
</linearGradient>
<linearGradient id="paint1_linear_292_1844" x1="196.023" y1="45.12" x2="242.132" y2="203.449" gradientUnits="userSpaceOnUse">
<stop stop-color="#03B8FF"/>
<stop offset="1" stop-color="#FA52A0"/>
</linearGradient>
<linearGradient id="paint2_linear_292_1844" x1="120.2" y1="67.2012" x2="166.309" y2="225.53" gradientUnits="userSpaceOnUse">
<stop stop-color="#03B8FF"/>
<stop offset="1" stop-color="#FA52A0"/>
</linearGradient>
<clipPath id="clip0_292_1844">
<rect width="300" height="300" fill="white" transform="translate(50 50)"/>
</clipPath>
</defs>
</svg>
