<svg width="400" height="400" viewBox="0 0 400 400" fill="none" xmlns="http://www.w3.org/2000/svg">
<path d="M200 400C310.457 400 400 310.457 400 200C400 89.5431 310.457 0 200 0C89.5431 0 0 89.5431 0 200C0 310.457 89.5431 400 200 400Z" fill="#FF4A4A"/>
<path d="M243.202 237H230.506C228.155 237 226.157 235.119 226.157 232.651V199.265L203.939 213.136C202.058 214.312 199.707 214.312 197.826 213.136L175.726 199.265V232.651C175.726 235.002 173.845 237 171.376 237H158.798C156.447 237 154.448 235.119 154.448 232.651V168.23C154.448 165.056 157.034 162.47 160.208 162.47C161.384 162.47 162.442 162.823 163.382 163.528L198.414 187.627C199.824 188.685 201.823 188.685 203.233 187.627L238.265 163.528C240.851 161.765 244.495 162.47 246.259 165.056C246.964 165.997 247.199 167.172 247.317 168.23V232.651C247.434 235.002 245.553 237 243.202 237Z" fill="white"/>
<path d="M135.522 236.882H56.7602C53.5862 236.882 51 234.296 51 231.122V166.35C51.1176 163.881 52.9984 162 55.4671 162H68.163C70.5141 162 72.5125 163.881 72.5125 166.35V215.605H120.24V166.35C120.24 163.998 122.121 162 124.589 162H136.933C139.284 162 141.282 163.881 141.282 166.35V231.122C141.282 234.296 138.696 236.882 135.522 236.882Z" fill="white"/>
<path d="M266.478 162H345.24C348.414 162 351 164.586 351 167.76V232.533C351 234.884 349.119 236.882 346.768 236.882H334.072C331.721 236.882 329.722 235.002 329.722 232.533V186.099C329.722 184.571 328.429 183.277 326.901 183.277H284.934C283.406 183.277 282.113 184.571 282.113 186.099V232.533C282.113 234.884 280.232 236.882 277.763 236.882H265.067C262.716 236.882 260.718 235.002 260.718 232.533V167.76C260.718 164.586 263.304 162 266.478 162Z" fill="white"/>
<path d="M299.511 196.914H312.09C314.441 196.914 316.439 198.795 316.439 201.263V214.077C316.439 216.428 314.558 218.426 312.09 218.426H299.511C297.16 218.426 295.162 216.545 295.162 214.077V201.146C295.162 198.795 297.16 196.914 299.511 196.914Z" fill="white"/>
</svg>
