<svg width="400" height="400" viewBox="0 0 400 400" fill="none" xmlns="http://www.w3.org/2000/svg">
<g clip-path="url(#clip0_125_2252)">
<path d="M200 400C239.556 400 278.224 388.27 311.114 366.294C344.004 344.317 369.638 313.082 384.776 276.537C399.913 239.992 403.874 199.778 396.157 160.982C388.44 122.186 369.392 86.5494 341.421 58.5787C313.451 30.6082 277.814 11.5601 239.018 3.84303C200.222 -3.87401 160.009 0.0866592 123.463 15.2242C86.9181 30.3617 55.6824 55.9962 33.7061 88.8862C11.7298 121.776 0 160.444 0 200C0 253.043 21.0714 303.914 58.5786 341.421C96.0856 378.929 146.957 400 200 400Z" fill="url(#paint0_radial_125_2252)"/>
<path d="M133.334 179.75L175 138.084H225L266.667 179.75L200 246.417L133.334 179.75ZM315.417 179.25L272.084 222.584H240.917L284.167 179.25L240.167 135.584H271.167L315.417 179.25ZM262.917 231.834L200 294.667L137.167 231.834H168.334L200 263.417L231.667 231.834H262.917ZM115.834 179.25L159.084 222.584H128L84.6673 179.25L128.834 135.584H160L115.834 179.25ZM208.334 335.167L355.834 188.084C357.993 185.846 359.199 182.859 359.199 179.75C359.199 176.641 357.993 173.654 355.834 171.417L289.167 105.25C286.962 103.027 283.965 101.768 280.834 101.75H118.5C116.955 101.757 115.425 102.068 114 102.667C112.567 103.271 111.265 104.149 110.167 105.25L44.1672 171.334C42.0083 173.571 40.8018 176.558 40.8018 179.667C40.8018 182.776 42.0083 185.763 44.1672 188L191.667 335.5C192.754 336.609 194.05 337.489 195.481 338.091C196.912 338.692 198.449 339.002 200 339.002C201.553 339.002 203.089 338.692 204.52 338.091C205.951 337.489 207.248 336.609 208.334 335.5V335.167ZM123 123.75H276.917L333.334 179.75L200 313.084L66.6673 179.75L123 123.75Z" fill="white"/>
</g>
<defs>
<radialGradient id="paint0_radial_125_2252" cx="0" cy="0" r="1" gradientUnits="userSpaceOnUse" gradientTransform="translate(196.753 2.62844) rotate(90) scale(601.313 447.75)">
<stop stop-color="#25567A"/>
<stop offset="1" stop-color="#103F68"/>
</radialGradient>
<clipPath id="clip0_125_2252">
<rect width="400" height="400" fill="white"/>
</clipPath>
</defs>
</svg>
