<svg width="400" height="400" viewBox="0 0 400 400" fill="none" xmlns="http://www.w3.org/2000/svg">
<path d="M200 400C310.457 400 400 310.457 400 200C400 89.5431 310.457 0 200 0C89.5431 0 0 89.5431 0 200C0 310.457 89.5431 400 200 400Z" fill="white"/>
<path d="M381.195 200C381.195 300.072 300.072 381.196 200 381.196C99.928 381.196 18.8037 300.072 18.8037 200C18.8037 99.9282 99.928 18.804 200 18.804C300.072 18.804 381.195 99.9282 381.195 200Z" stroke="#6CDEFF" stroke-width="2"/>
<path d="M133.22 179.729L174.847 138.169H225.221L266.847 179.729L200 246.576L133.22 179.729ZM315.322 179.254L272 222.576H240.881L284.203 179.254L240.203 135.593H271.187L315.322 179.254ZM262.847 231.797L200 294.644L137.153 231.797H168.34L200 263.457L231.662 231.797H262.847ZM115.797 179.254L159.119 222.576H128L84.678 179.254L128.814 135.593H160L115.797 179.254ZM208.34 335.187L355.797 188.068C358.012 185.844 359.256 182.834 359.256 179.696C359.256 176.556 358.012 173.546 355.797 171.322L289.559 105.152C288.466 104.054 287.168 103.183 285.735 102.589C284.304 101.996 282.769 101.692 281.221 101.695H118.509C116.959 101.692 115.424 101.996 113.993 102.589C112.562 103.183 111.262 104.054 110.17 105.152L44.2034 171.322C41.9886 173.546 40.7449 176.556 40.7449 179.696C40.7449 182.834 41.9886 185.844 44.2034 188.068L191.662 335.525C193.874 337.737 196.872 338.978 200 338.978C203.128 338.978 206.126 337.737 208.34 335.525V335.187ZM122.983 123.729H276.949L333.018 179.729L200 312.746L66.9831 179.729L122.983 123.729Z" fill="url(#paint0_radial_123_2238)"/>
<defs>
<radialGradient id="paint0_radial_123_2238" cx="0" cy="0" r="1" gradientUnits="userSpaceOnUse" gradientTransform="translate(199.216 101.704) rotate(90) scale(356.703 356.541)">
<stop stop-color="#6EE0FF"/>
<stop offset="1" stop-color="#1292F5"/>
</radialGradient>
</defs>
</svg>
