<svg width="400" height="400" viewBox="0 0 400 400" fill="none" xmlns="http://www.w3.org/2000/svg">
<path d="M200 400C310.457 400 400 310.457 400 200C400 89.5431 310.457 0 200 0C89.5431 0 0 89.5431 0 200C0 310.457 89.5431 400 200 400Z" fill="url(#paint0_radial_126_2262)"/>
<path d="M133.22 179.729L174.847 138.17H225.22L266.847 179.729L200 246.577L133.22 179.729ZM315.321 179.254L272 222.577H240.881L284.203 179.254L240.203 135.594H271.186L315.321 179.254ZM262.847 231.797L200 294.644L137.152 231.797H168.338L200 263.458L231.66 231.797H262.847ZM115.796 179.254L159.118 222.577H128L84.677 179.254L128.813 135.594H160L115.796 179.254ZM208.338 335.187L355.796 188.068C358.011 185.844 359.255 182.834 359.255 179.695C359.255 176.557 358.011 173.546 355.796 171.322L289.559 105.153C288.466 104.054 287.166 103.183 285.735 102.589C284.304 101.996 282.769 101.692 281.22 101.695H118.508C116.958 101.692 115.424 101.996 113.992 102.589C112.561 103.183 111.261 104.054 110.169 105.153L44.2027 171.322C41.9878 173.546 40.7441 176.557 40.7441 179.695C40.7441 182.834 41.9878 185.844 44.2027 188.068L191.66 335.526C193.873 337.736 196.872 338.979 200 338.979C203.127 338.979 206.126 337.736 208.338 335.526V335.187ZM122.983 123.729H276.948L333.016 179.729L200 312.746L66.9826 179.729L122.983 123.729Z" fill="white"/>
<defs>
<radialGradient id="paint0_radial_126_2262" cx="0" cy="0" r="1" gradientUnits="userSpaceOnUse" gradientTransform="translate(199.016 0.0158775) rotate(90) scale(601.311 447.761)">
<stop stop-color="#A56EFF"/>
<stop offset="1" stop-color="#126DF5"/>
</radialGradient>
</defs>
</svg>
