<svg width="200" height="200" viewBox="0 0 200 200" fill="none" xmlns="http://www.w3.org/2000/svg">
<rect x="33" y="43" width="134" height="127" fill="white"/>
<path d="M83.2868 1.35717C61.3868 5.35717 44.1868 14.2572 28.8868 29.7572C4.08677 54.7572 -5.61323 90.6572 3.18677 124.857C14.9868 170.657 57.3868 201.857 104.387 199.557C130.387 198.257 152.787 188.257 170.887 169.957C190.787 149.957 200.987 123.357 199.587 95.3572C197.787 60.3572 179.887 31.0572 149.287 12.9572C130.887 2.15717 104.487 -2.54283 83.2868 1.35717ZM110.187 45.3572C116.887 46.7572 129.887 52.3572 129.887 53.8572C129.887 54.2572 127.787 55.6572 125.187 56.8572C120.887 58.8572 120.387 58.9572 116.987 57.4572C104.987 52.3572 91.9868 52.6572 80.5868 58.4572C66.2868 65.6572 56.8868 80.4572 56.8868 95.9572C56.8868 99.1572 57.1868 101.857 57.4868 101.857C58.1868 101.857 154.587 53.0572 158.687 50.6572L161.987 48.6572L161.687 54.3572L161.387 60.0572L99.8868 91.4572C66.0868 108.657 38.0868 122.857 37.7868 122.857C37.4868 122.857 37.1868 120.657 36.9868 117.957C36.7868 113.357 36.9868 112.957 40.3868 110.857C45.6868 107.557 46.8868 105.257 46.8868 97.8572C46.9868 74.6572 61.7868 53.9572 83.1868 46.9572C93.7868 43.5572 99.9868 43.1572 110.187 45.3572ZM161.887 76.2572C161.887 81.2572 161.687 81.6572 158.787 82.8572C154.187 84.8572 152.887 87.5572 152.387 97.2572C151.787 107.957 150.687 112.257 146.187 121.357C136.687 140.157 114.287 152.057 93.8868 149.057C85.7868 147.957 77.4868 145.157 71.8868 141.757L68.4868 139.657L73.0868 137.257L77.7868 134.857L85.5868 137.457C101.287 142.757 117.287 139.257 129.187 127.957C137.887 119.757 142.887 108.457 142.887 97.0572C142.887 91.9572 142.787 91.7572 140.687 92.3572C139.387 92.7572 132.987 95.8572 126.387 99.3572C100.187 112.957 39.0868 143.857 38.1868 143.857C36.8868 143.857 36.8868 135.057 38.1868 134.057C39.6868 132.957 160.287 71.0572 161.187 70.9572C161.587 70.8572 161.887 73.2572 161.887 76.2572Z" fill="black"/>
</svg>
