<svg width="400" height="400" viewBox="0 0 400 400" fill="none" xmlns="http://www.w3.org/2000/svg">
<path d="M200 400C310.457 400 400 310.457 400 200C400 89.5431 310.457 0 200 0C89.5431 0 0 89.5431 0 200C0 310.457 89.5431 400 200 400Z" fill="#2C7DF7"/>
<g clip-path="url(#clip0_245_1042)">
<path d="M227.731 329.721C209.269 329.721 195.794 325.274 187.305 316.381C179.442 308.852 174.878 298.517 174.613 287.634C174.517 284.327 175.283 281.053 176.836 278.133C178.284 275.609 180.377 273.515 182.899 272.065C185.831 270.603 189.062 269.842 192.338 269.842C195.614 269.842 198.846 270.603 201.778 272.065C204.295 273.51 206.378 275.606 207.806 278.133C209.404 281.039 210.199 284.318 210.109 287.634C210.274 291.593 209.139 295.498 206.876 298.751C204.989 301.406 202.294 303.379 199.192 304.373C202.225 308.235 206.517 310.91 211.319 311.934C216.693 313.494 222.257 314.297 227.853 314.318C235.26 314.383 242.516 312.213 248.672 308.093C255.059 303.581 259.822 297.131 262.255 289.7C265.339 280.855 266.844 271.537 266.701 262.171C266.95 252.406 265.303 242.686 261.85 233.549C259.253 226.241 254.324 219.991 247.823 215.762C241.78 211.938 234.765 209.932 227.614 209.982C221.383 210.51 215.374 212.549 210.109 215.924L197.129 222.432V215.924L255.463 137.67H174.613V218.875C174.384 224.735 175.934 230.527 179.06 235.49C180.571 237.653 182.616 239.388 184.996 240.528C187.376 241.668 190.009 242.174 192.642 241.998C197.506 241.899 202.211 240.242 206.062 237.268C210.428 234.069 214.227 230.161 217.301 225.706C217.578 224.925 218.088 224.248 218.763 223.767C219.304 223.299 219.996 223.041 220.711 223.04C222.116 223.168 223.445 223.733 224.512 224.656C225.863 226.165 226.598 228.127 226.573 230.153C226.417 231.515 226.174 232.865 225.845 234.196C222.973 241.147 218.159 247.124 211.979 251.411C206.239 255.295 199.459 257.355 192.528 257.32C175.024 257.32 162.897 253.87 156.148 246.971C152.679 243.158 150.006 238.691 148.284 233.832C146.563 228.973 145.828 223.819 146.123 218.672V137.67H105V122.582H146.314V88.1799L136.855 78.7145V71H164.303L174.613 76.3368V122.582L281.414 122.257L292.047 132.929L226.558 198.736C230.515 197.145 234.681 196.137 238.928 195.745C247.332 196.113 255.532 198.453 262.864 202.577C271.354 206.613 278.51 212.999 283.482 220.977C287.937 227.731 291.09 235.258 292.78 243.17C294.169 249.412 294.914 255.779 295.003 262.173C295.047 274.374 292.28 286.421 286.918 297.382C281.834 307.995 273.276 316.553 262.662 321.638C251.798 326.991 239.842 329.758 227.731 329.721V329.721Z" fill="white"/>
</g>
<defs>
<clipPath id="clip0_245_1042">
<rect width="190" height="258.721" fill="white" transform="translate(105 71)"/>
</clipPath>
</defs>
</svg>
