<svg width="400" height="400" viewBox="0 0 400 400" fill="none" xmlns="http://www.w3.org/2000/svg">
<path fill-rule="evenodd" clip-rule="evenodd" d="M400 200C400 174 394.8 147.6 384.8 123.6C374.8 99.6 360 77.2 341.6 58.4C322.8 40 300.8 25.2 276.4 15.2C252 5.2 226 0 200 0C174 0 147.6 5.2 123.6 15.2C99.6 25.2 77.2 40 58.4 58.4C40 77.2 25.2 99.2 15.2 123.6C5.2 148 0 174 0 200C0 226 5.2 252.4 15.2 276.4C25.2 300.4 40 322.8 58.4 341.6C76.8 360 99.2 374.8 123.2 384.8C147.2 394.8 174 400 200 400C226 400 252.4 394.8 276.4 384.8C300.4 374.8 322.8 360 341.6 341.6C360 323.2 374.8 300.8 384.8 276.8C394.8 252.8 400 226 400 200Z" fill="url(#paint0_linear_292_1839)"/>
<path fill-rule="evenodd" clip-rule="evenodd" d="M189.6 109.6H210.4V290.4H189.6V109.6Z" fill="white"/>
<path fill-rule="evenodd" clip-rule="evenodd" d="M178 194.8V173.2C161.6 165.2 150 148 150 128.4C150 100.8 172.4 78.4 200 78.4C231.2 78.4 253.6 100.8 253.6 128.4C253.6 135.2 252 142 248.8 150L240 121.2L222.4 126.8L238 186.4L298.8 164L291.2 146.4L268.4 154C272.4 145.2 273.2 138.4 273.2 128C273.2 89.2 242 58 199.6 58C160.8 58 129.6 89.2 129.6 128C130 159.2 150 185.6 178 194.8Z" fill="white"/>
<path fill-rule="evenodd" clip-rule="evenodd" d="M222 205.2V226.8C238.4 234.8 250 252 250 271.6C250 299.2 227.6 321.6 200 321.6C168.8 321.6 146.4 299.2 146.4 271.6C146.4 264.8 148 258 151.2 250L160 278.8L177.6 273.2L162 213.6L101.2 236L108.8 253.6L131.6 246C127.6 254.8 126.8 261.6 126.8 272C126.8 310.8 158 342 200.4 342C239.2 342 270.4 310.8 270.4 272C270 240.8 250 214.4 222 205.2Z" fill="white"/>
<defs>
<linearGradient id="paint0_linear_292_1839" x1="0" y1="0" x2="400" y2="400" gradientUnits="userSpaceOnUse">
<stop stop-color="#0077FC"/>
<stop offset="1" stop-color="#095EB5"/>
</linearGradient>
</defs>
</svg>
