<svg xmlns="http://www.w3.org/2000/svg" xmlns:xlink="http://www.w3.org/1999/xlink" id="a0d803f3-209d-4dd6-8bab-107917edeff8" data-name="Capa 1" viewBox="0.02 0.02 486.36 482.95">
    <defs>
        <style>
            .ad7bfdc3-2843-4a04-8ddd-e7c081f89275{fill:#0b091e;}.a301d2af-bfb6-48f3-bce4-be1314e4f11f{fill:url(#ae317d9f-0a11-4c8f-8eb4-f22a85c45813);}.b98494a8-1f52-45ca-ab80-4ab5ab59d2ca{fill:url(#a7990bc1-1504-4615-a3d3-29cc76189910);}
        </style>
        <linearGradient id="ae317d9f-0a11-4c8f-8eb4-f22a85c45813" x1="511.34" y1="446.08" x2="-84.47" y2="-287.71" gradientUnits="userSpaceOnUse">
            <stop offset="0.15" stop-color="#b32eff"/>
            <stop offset="0.42" stop-color="#ce60d3"/>
            <stop offset="0.65" stop-color="#e185b3"/>
            <stop offset="0.84" stop-color="#ee9c9f"/>
            <stop offset="0.96" stop-color="#f2a498"/>
        </linearGradient>
        <linearGradient id="a7990bc1-1504-4615-a3d3-29cc76189910" x1="622.53" y1="5315.63" x2="26.7" y2="4581.82" gradientTransform="translate(597.51 5351.81) rotate(180)" xlink:href="#ae317d9f-0a11-4c8f-8eb4-f22a85c45813"/>
    </defs>
    <path class="a301d2af-bfb6-48f3-bce4-be1314e4f11f" d="M477.67,160,376.05,12.17C360.09-11,324,1.3,325.18,29.45c1.08,25.66,10.67,52.82,33.62,86.15a.1.1,0,0,1-.13.14c-9.39-7-150.94-113.3-319.2-56.7l-.19,0C20.71,66,11.23,81.19,15.93,99,20.28,115.49,37.19,125.39,54,122.6c35.74-5.95,71.21-8.78,106.09-5.72s69,12,100.77,27.61,60.55,37.7,87,63c29.75,28.43,66.66,89.06,66.66,89.06A18.71,18.71,0,0,0,437.09,305c10-3.58,14.66-15.11,10.9-25a387.07,387.07,0,0,0-28.69-59.67.1.1,0,0,1,.13-.15c12.44,4.68,23.95,10.51,37.57,7.32,11.11-2.61,20.86-10.17,25.39-20.75A48.07,48.07,0,0,0,477.67,160Z"/>
    <path class="b98494a8-1f52-45ca-ab80-4ab5ab59d2ca" d="M8.68,322.24,110.87,470.9c16,23.24,51.42,10.5,50.33-17.68-1-25.78-10.57-53.05-33.63-86.55-.07-.1,0-.23.12-.16,9.41,7,151,113.29,319.19,56.7a1.46,1.46,0,0,0,.2,0c18.57-6.94,28-22.1,23.34-39.93-4.34-16.48-21.25-26.38-38.05-23.58-35.75,6-71.21,8.77-106.1,5.71s-69-12-100.76-27.6-60.55-37.71-87-63c-29.74-28.43-66.66-89.06-66.66-89.06a18.69,18.69,0,0,0-23.47-8.12c-9.52,4-13.59,15.25-9.94,24.89A386.94,386.94,0,0,0,67.06,262a.11.11,0,0,1-.13.16c-12.44-4.68-24-10.51-37.57-7.32C18.25,257.4,8.49,265,4,275.55A48.07,48.07,0,0,0,8.68,322.24Z"/>

</svg>